<?xml version="1.0" encoding="utf-8"?>
<!-- Generator: Adobe Illustrator 19.0.0, SVG Export Plug-In . SVG Version: 6.00 Build 0)  -->
<svg version="1.1" id="Layer_1" xmlns="http://www.w3.org/2000/svg" xmlns:xlink="http://www.w3.org/1999/xlink" x="0px" y="0px"
	 viewBox="0 0 500 500" style="enable-background:new 0 0 500 500;" xml:space="preserve">
<style type="text/css">
	.st0{fill:#758A78;}
	.st1{fill:#7F927E;}
	.st2{fill:#728A73;}
	.st3{fill:#5F7A67;}
	.st4{fill:#617B65;}
	.st5{fill:#576E61;}
	.st6{fill:#637968;}
	.st7{fill:#98AC8E;}
	.st8{fill:#82987E;}
	.st9{fill:#687D6B;}
	.st10{fill:#829C7A;}
	.st11{fill:#ACA29C;}
	.st12{fill:#677F6F;}
	.st13{fill:#6D8272;}
	.st14{fill:#8EA585;}
	.st15{fill:#A69D98;}
	.st16{fill:#78926D;}
	.st17{fill:#8DA483;}
	.st18{fill:#495B51;}
	.st19{fill:#759078;}
	.st20{fill:#708374;}
	.st21{fill:#B0A7A2;}
	.st22{fill:#829880;}
	.st23{fill:#7C8E81;}
	.st24{fill:#7B8A7C;}
	.st25{fill:#A6B89C;}
	.st26{fill:#94A690;}
	.st27{fill:#95A691;}
	.st28{fill:#717F72;}
	.st29{fill:#536854;}
	.st30{fill:#687E6F;}
	.st31{fill:#758A7D;}
	.st32{fill:#AFA5A0;}
	.st33{fill:#B1A8A5;}
	.st34{fill:#809480;}
	.st35{fill:#6F8476;}
	.st36{fill:#778774;}
	.st37{fill:#8F9F8E;}
	.st38{fill:#B1A8A3;}
	.st39{fill:#B2C0A8;}
	.st40{fill:#5E6C60;}
	.st41{fill:#4B5C4A;}
	.st42{fill:#7D8C7C;}
	.st43{fill:#B0BCA6;}
	.st44{fill:#97AC8C;}
	.st45{fill:#586956;}
	.st46{fill:#889B89;}
	.st47{fill:#4A5743;}
	.st48{fill:#A8B89E;}
	.st49{fill:#697A69;}
	.st50{fill:#808877;}
	.st51{fill:#AFA6A1;}
	.st52{fill:#798777;}
	.st53{fill:#7A8E7B;}
	.st54{fill:#637367;}
	.st55{fill:#5D6858;}
	.st56{fill:#BFB6B1;}
	.st57{fill:#62775E;}
	.st58{fill:#717D6F;}
	.st59{fill:#8A9D87;}
	.st60{fill:#5A6C57;}
	.st61{fill:#7A8A78;}
	.st62{fill:#89998E;}
	.st63{fill:#4B5A4A;}
	.st64{fill:#636B5D;}
	.st65{fill:#809282;}
	.st66{fill:#758674;}
	.st67{fill:#62695A;}
	.st68{fill:#70806B;}
	.st69{fill:#7A9371;}
	.st70{fill:#617065;}
	.st71{fill:#747965;}
	.st72{fill:#5C7362;}
	.st73{fill:#566F5B;}
	.st74{fill:#6C8371;}
	.st75{fill:#68836E;}
	.st76{fill:#616C5B;}
	.st77{fill:#58775C;}
	.st78{fill:#5A725C;}
	.st79{fill:#8EA683;}
	.st80{fill:#69846D;}
	.st81{fill:#7B9575;}
	.st82{fill:#6A8765;}
	.st83{fill:#789472;}
	.st84{fill:#6E8B64;}
	.st85{fill:#86A07C;}
	.st86{fill:#DCDAD9;}
	.st87{fill:#638465;}
	.st88{fill:#899C89;}
	.st89{fill:#678462;}
	.st90{fill:#647D6B;}
	.st91{fill:#708A6D;}
</style>
<g id="XMLID_2300_">
	<path id="XMLID_2462_" class="st0" d="M271.1,238.5c-2,5.4-3.7,10.9-8.8,14.4c-3.7,2.5-7.3,3.9-11.4,0.9c2.3-1.5,1.3-2.6-0.4-3.6
		c-2.6-1.5-3.7-3.5-4.5-6.6c-1.6-6.4,0.5-10.9,5.6-14.9c-1.3-0.5-1.9-0.8-2.5-1.1c2.2-5.7,6.3-8.2,12.4-7.8c2.2,0.1,4.4-0.5,6.7-0.8
		c0.5,0.5,1.1,1,1.6,1.5c0.4,5.3,0.8,10.6,1.2,15.8C270.9,237.2,271,237.8,271.1,238.5z"/>
	<path id="XMLID_2461_" class="st1" d="M276.2,227.5c2.3-0.4,4.6-0.9,6.8-1.3c1.1,0.3,2.2,0.5,4.1,1c-3.4,0.9-5.9,1.5-8.6,2.2
		c2.9,1.6,5.5,3,8.3,4.5c2.6-2,5.7-3.3,9.3-1.2c0.5,0.3,1.6-0.4,2.4-0.6c3.6,1.8,0.6,2.7-0.8,4.3c2.4,0.7,4.4,1.3,6.2,1.9
		c0.3,1.6,0.1,3.5,0.8,4.1c3.4,2.5,2.3,5.8,2.1,9c-2.9,1.4-5.8,2.9-8.8,4.1c-0.9,0.4-3.1,0.2-3.1-0.1c-0.7-3-3.2-2-5-2.7
		c-2.3-0.9-4.5-2.2-6.5-3.6c-1.7-1.2-3-2.9-4.5-4.4c0,0,0,0,0,0c-0.3-2-0.6-3.9-0.9-5.9c-0.7-3.4-1.3-6.7-2-10.1
		C276.1,228.3,276.1,227.9,276.2,227.5z"/>
	<path id="XMLID_2460_" class="st2" d="M231,124.9c-4.3,6.7-6.7,14.8-14.3,18.8c-1.8-0.9-3.6-1.8-6-3c3.2-0.8,6.3,1.2,8.9-2.6
		c-6.5-0.8-12.1-1.4-17.7-2.1c-2-0.3-4-0.8-6-1.3c-0.4-1-0.8-2-1.2-3c0.1-1.4,0.2-2.8,0.4-4.2c0.2-2.4,0.4-4.7,0.7-7.1
		c1.9,1.3,3.9,2.5,6.2,4c-1.8,0.5-3.1,0.8-4.4,1.1c1,2.8,2.6,4,4.8,2.2c2.5-2,4.5-4.6,7.1-7.3c-4.5-0.9-8.6-1.6-12.6-2.5
		c-0.4-0.1-0.5-1.2-0.8-1.8l0,0c1-0.4,2-0.8,2.9-1.2c6,3.8,13,2.2,18.5,3c1.4,1.8,2.1,3.7,3.3,4.1c2.4,0.8,5,0.8,7.5,1.2
		C229.2,123.7,230.1,124.3,231,124.9z"/>
	<path id="XMLID_2459_" class="st3" d="M304.6,179.8c-0.1,1.9-0.2,3.7-0.4,5.6c-1.3,0.9-2.8,1.7-4,2.9c-6.2,6.4-12.2,7.4-20.2,3.3
		c-2.5-1.2-5.2-2.1-7.8-3.1c0,0,0.1,0.1,0.1,0.1c-1.7-2.2-3.4-4.3-5.1-6.5c0-0.5,0-0.9,0.1-1.4c0.1-0.4,0.1-0.9,0.2-1.3
		c0.9,0.1,1.9,0.1,2.8,0.2c0.5,0,1,0.1,1.5,0.1c1-0.4,2-0.8,3-1.1c-1.9-1-3.9-2-5.8-2.9c2.3-1.1,4.7-1.1,7-1.3
		c4.5-0.2,9,2.3,13.5-0.3c3.7-1.2,7.2-1.4,9.7,2.3l0,0c-0.9,0.4-1.7,0.8-2.9,1.4c2.2,1.4,3.7,2.5,5.4,3.4c0.2,0.1,1-1,1.6-1.6
		C303.7,179.7,304.2,179.8,304.6,179.8z"/>
	<path id="XMLID_2458_" class="st4" d="M231,124.9c-0.9-0.6-1.8-1.1-2.7-1.7c0-0.5,0.1-0.9,0.1-1.4c2.5-1.2,4.3-2.6,1.9-5.5
		c1.1-1.3,2.2-2.5,3.7-4.3c-1.8-0.7-2.6-1.3-3.4-1.3c-6.3,0.4-12.6,1.9-18.2-2.6c-0.4-0.3-1.3,0.2-2,0.2c-2.6,0-5.2-0.1-7.8-0.1
		c3.2-4,6.3-8,9.5-12c6.4,0.9,12.7,1.7,19.1,2.8c0.7,0.1,1.3,1.2,2,1.9c1.2,2,2.4,4.1,3.5,6.1c0,1,0,2,0,3
		C234.8,114.9,232.9,119.9,231,124.9z"/>
	<path id="XMLID_2457_" class="st5" d="M272.3,386.8c-0.5,0.4-1,0.8-1.5,1.3c-0.5-0.5-0.9-1-1.4-1.5c2-3,4.1-5.9,6.1-8.9
		c1.9-2.8-0.2-4-2.1-5.3c1-0.9,2-1.8,3-2.7c0.4,0.1,0.9,0.1,1.3,0c1.5,0.4,3.1,0.8,4.7,1.2c-3.4,4.9-2.2,9.7-1.6,15.2
		c3.8-0.7,6.6-1.1,9.5-1.6c0-0.4,0.1-0.8,0.1-1.3c-2-1.2-4-2.3-7-4c3.9,0.3,6.7,0.6,9.5,0.8c0,2.1,1.1,3.1,3,3.1c2,0,4-0.1,6.7-0.3
		c-3.9,4.7,5.1,7.2,0.8,11.7c-2.3,0.3-4.7,0.5-7.3,0.9c1.4,5.8,6.4-2,7.8,3.4c-1.4,1.8-3,3.9-4.6,6c-4.1-0.5-8.2-1-10.8-5.4
		c2.1-0.8,3.7-1.4,5.4-2c-1.3-4.7-5.9-2.4-8.9-5.1c5.1-2.4,9.6,2.8,14.1,0.3c-6.2-6.5-13.5-5.8-21-3.9
		C276.7,383.7,276.6,383.7,272.3,386.8z"/>
	<path id="XMLID_2456_" class="st6" d="M250.5,293.5c1.3-9.1,9.9-17.1,18.5-16c1.4,0.2,2.9-0.7,4.4-1c-0.2,0.3-0.2,0.6,0,0.9
		c1.3,1.8,2.6,3.6,4.2,6c-2.7,1.7-4.7,3-6.5,4.2c1.7,0.8,3.5,1.7,5.3,2.5l0,0c-0.5,0.4-1,0.9-1.5,1.3c-0.1,0.5-0.2,0.9-0.2,1.4
		c-0.5,0.9-1.1,1.8-1.6,2.7c-2.6,2.2-5.1,4.3-7.7,6.5c-2-3.1,2.3-4,2.4-6.4c-1.9-0.4-4.2-0.1-5.2-1.1
		C258.7,290.5,254.7,291.2,250.5,293.5z"/>
	<path id="XMLID_2455_" class="st7" d="M230.2,200.7c-3.5,1.2-6.9,1.2-9.9-1.3c0.6-1.1,1.8-2.4,1.6-3.2c-0.9-2.6-2.5-5-3.4-7.6
		c-0.5-1.4-0.1-3.1-0.1-4.9c-1.5-0.6-3.2-1.3-5-2c0.5-7.8,3.2-14.6,8.8-20.2c0.5,0.6,1,1.5,1.6,1.6c1.8,0.2,3.6,0,5.4,0
		c1.5,2.3-0.8,2.9-1.8,4.1c-1.8,0.1-3.5,0.1-5,0.2c-0.6,3.2-1.2,5.8-1.8,9c2.4,2.8,5.2,6.2,8.3,9.7c-1.4,0.4-3.1,0.9-4.8,1.5
		c1.7,1.6,5.7,0,5.5,4c-1.1,2.2-2.1,4.4-3.3,6.9c0.6,0.3,1.6,0.8,2.6,1.3C229.3,200.2,229.7,200.5,230.2,200.7z"/>
	<path id="XMLID_2454_" class="st8" d="M260.6,147c1.8-0.3,3.7-0.8,5.5-1c12.1-1.2,22.7,1.7,30.2,11.9c1.8,2.4,3.4,4.9,5.1,7.4
		c-0.4,0.4-0.9,0.8-1.3,1.2c-3,1.9-5.3,2.1-5.6-2.4c-0.2-3.4-2.5-4.1-5.3-4.2c-1.4-0.1-2.8-0.3-4.2-0.4c-1.8-2.1-3.6-4.3-5.6-6.7
		c-5.9-1.2-12.5-2.6-19.1-4C260.4,148.2,260.5,147.6,260.6,147z"/>
	<path id="XMLID_2453_" class="st9" d="M273.4,372.3c1.8,1.3,3.9,2.6,2.1,5.3c-2,3-4.1,5.9-6.1,8.9c-5.3-0.1-10.6-2.2-15.9,0.1
		c1.3-11.1,6.6-15.5,17.1-14.3C271.6,372.5,272.5,372.4,273.4,372.3z"/>
	<path id="XMLID_2452_" class="st10" d="M285.5,138.1c-4.2,1.7-7.7-0.3-11.3-2.2c0.6-1.3,1.2-2.7,1.8-4c-3-1.1-6.4-0.5-9.8-4.1
		c2.8,0.2,4.1,0.4,5.4,0.5c1.6,0.1,3.3,0.4,4.9,0.4c5.2,0.1,6.1-0.8,6.1-6.5c0.5,0,0.9,0,1.4,0.1c1.1-0.7,2.1-1.4,4.3-2.9
		c-3.3-1-5.1-1.5-6.5-1.9c0.3-3.2,0.6-6.3,0.8-8.6c-1.9-3.1-3.6-5.8-5.2-8.5c2,0.3,4,0.5,6,0.8c-0.4,1.5-0.7,2.5-1,3.4
		c2.3,1.1,4.4,2.1,6.4,3.1c-0.3,1.6-1.3,3.5-0.7,4.3c2.1,3-0.3,6.5,1.5,9.3c-4,1.4-1.4,5.9-3.8,8.2c-1.7,1.6-2.9,3.6-4.3,5.5
		c0.1,0.5,0.1,1.2,0.4,1.4C283.1,137.1,284.3,137.6,285.5,138.1z"/>
	<path id="XMLID_2451_" class="st11" d="M276.2,227.5c-0.1,0.4-0.1,0.8-0.2,1.2c-1.2,0.5-2.4,1-2.9,1.2c-1.2-3.3-2.3-6.3-3.4-9.3
		c-0.5-0.5-1.1-1-1.6-1.5c-2.7-12.2-5.5-24.3-8.1-36.5c-0.4-1.8-0.5-3.7-0.7-5.5c1.4,1.1,2.7,2.2,4.1,3.3c0.4,0.4,0.8,0.9,1.2,1.3
		c0.3,0.3,0.6,0.5,1,0.5c0.1,0.4,0.2,0.8,0.3,1.3c1,5,2,10,3,15c1.6,7.5,3.2,15,5,22.5C274.4,223.3,275.4,225.4,276.2,227.5z"/>
	<path id="XMLID_2450_" class="st12" d="M291.9,277c10.1,1,16.3,7,20.3,15.8c-3.6,5-6.8,6-12,3.7c1.1,0,2.2-0.1,3.3-0.1
		c0.1-0.5,0.3-0.9,0.4-1.4c-2.7-1-5.2-2.3-8-2.8c-4-0.7-8-0.8-12.2-1.2c0-1.3,0.1-2.2,0.1-3.2l0,0c1.4,0.1,2.8,0.2,4.2,0.4
		c2.4,0.2,2-1.2,1.7-2.7c4.3,0.4,8.7,0.8,13,1.1c0.2-0.5,0.4-0.9,0.6-1.4c-1.7-1.4-3.3-2.9-5.1-4.2C296.2,279.6,294,278.4,291.9,277
		z"/>
	<path id="XMLID_2449_" class="st13" d="M278,388.6c7.5-1.9,14.7-2.6,21,3.9c-4.5,2.5-8.9-2.7-14.1-0.3c2.9,2.7,7.6,0.4,8.9,5.1
		c-1.7,0.6-3.3,1.2-5.4,2c2.6,4.4,6.7,4.9,10.8,5.4c-0.1,0.5-0.2,0.9-0.3,1.4c-2.4-0.2-4.9-0.4-7.3-0.5c-0.8,0-1.7,0.6-2.5,0.9
		c-0.9-0.5-1.8-1-2.6-1.5c0.1-0.2,0.2-0.4,0.3-0.6c-0.1,0.2-0.3,0.4-0.4,0.5c-4.7-2-6.4-6.1-7.9-10.5c0.3,0,0.5,0,0.7-0.2
		c0.3-1,0.6-2,0.8-3c-0.4,0.1-0.8,0.2-1.2,0.3C278.6,390.6,278.3,389.6,278,388.6z"/>
	<path id="XMLID_2448_" class="st14" d="M229.1,163.2c-1.8,0-3.6,0.2-5.4,0c-0.6-0.1-1-1-1.6-1.6c3.8-3.7,7.5-7.4,11.3-11.1
		c3.6-3.5,7.8-5.7,13-5.5c1.2,1.4,2.5,2.9,3.7,4.3c-1.7,0.6-3.5,1.2-5.4,1.9c-0.1,1.5-0.3,3-0.4,4.8c-1.9-0.2-3.3-0.3-4.6-0.4
		c-1.2,0.1-2.5,0.3-3.8,0.4c0.5,1.7,0.9,3,1.4,4.6c-2,0-3.6,0-5.2,0C231.1,161.5,230.1,162.3,229.1,163.2z"/>
	<path id="XMLID_2447_" class="st15" d="M271.1,238.5c-0.1-0.6-0.1-1.3-0.2-1.9c0.7-1.3,1.3-2.4,2.6-0.5c0.6,0.9,1.2,1.8,1.8,2.7
		c1.2,2,2.5,4,3.7,6l0,0c-0.1,0.5-0.1,1-0.2,1.5c0,0.4,0.1,0.9,0.1,1.3l-0.1-0.1c0.8,9.2,1.6,18.4,2.5,27.6c0.1,0.6,1.3,1,2.1,1.6
		c-0.5,0.4-1,0.8-1.5,1.1c-2.8-0.1-5.6-0.2-8.4-0.3c-0.1-0.3-0.1-0.6,0-0.9c0.9-1.2,2.7-2.5,2.6-3.5
		C274.5,261.4,272.8,249.9,271.1,238.5z"/>
	<path id="XMLID_2446_" class="st16" d="M282.6,122.3c0,5.7-0.9,6.7-6.1,6.5c-1.6,0-3.3-0.3-4.9-0.4c-1.3-0.1-2.6-0.2-5.4-0.5
		c3.5,3.5,6.8,2.9,9.8,4.1c-0.6,1.3-1.2,2.7-1.8,4c-8.7-1.7-13.1-8.9-18.7-14.6l0.3-0.4c2.7,0.1,5.5,0,8.2,0.3
		c3,0.3,5.9,1.3,8.9,1.4C276.1,122.9,279.4,122.5,282.6,122.3z"/>
	<path id="XMLID_2445_" class="st17" d="M281.5,135c1.4-1.8,2.7-3.9,4.3-5.5c2.4-2.3-0.3-6.8,3.8-8.2c-1.8-2.9,0.5-6.3-1.5-9.3
		c-0.6-0.8,0.4-2.7,0.7-4.3c-2-1-4.1-2-6.4-3.1c0.3-1,0.6-2,1-3.4c-2-0.3-4-0.5-6-0.8l0,0c1.1-1.8,2.2-3.6,3.3-5.4
		c1.5-0.3,2.9-0.6,4.4-1c2.2,1.6,4.5,3.2,6.7,4.8c-1.3,1.9-2.5,3.9-3.9,6c0.8,0.6,2.1,1,2.2,1.6c0.3,4,3.8,7.2,2.5,11.9
		c-0.8,2.7,0.6,6.1,1,9.2l0,0c-5.6-0.6-5.7,4.6-8.2,7.9C284.2,135.2,282.8,135.1,281.5,135z"/>
	<path id="XMLID_2444_" class="st18" d="M299,406.2c0.1-0.5,0.2-0.9,0.3-1.4c1.6-2.1,3.3-4.3,4.6-6c-1.4-5.4-6.4,2.5-7.8-3.4
		c2.6-0.3,5-0.6,7.3-0.9c4.3-4.5-4.7-7-0.8-11.7c-2.7,0.1-4.7,0.3-6.7,0.3c-1.9,0-3.1-1-3-3.1c1.5-2.5-1.7-4.7-1.9-4.6
		c-5,2.4-3-2-4.8-3.9c2.9-0.2,4.7-0.3,6.5-0.4c6.9,4.4,12.4,9.5,14,18.2c1,5.9,0,11-3.3,15.9c-0.4,0.3-0.8,0.6-1.3,0.9
		c-0.4,0.2-0.9,0.3-1.3,0.5C300.1,406.4,299.5,406.3,299,406.2z"/>
	<path id="XMLID_2443_" class="st19" d="M289.3,159.9c2.8,0.1,5.1,0.8,5.3,4.2c0.3,4.4,2.6,4.3,5.6,2.4c0.5,0.1,1,0.1,1.5,0.2
		c0.3,0.5,0.6,1.1,0.9,1.6c-2.1,2.7,0.1,4.9,0.9,7.2c-0.1,1.4-0.2,2.8-0.2,4.2c-0.5,0.6-1.4,1.7-1.6,1.6c-1.6-0.9-3.2-1.9-5.4-3.4
		c1.2-0.6,2.1-1,2.9-1.4c0.2,0.1,0.4,0.3,0.5,0.4c-0.2-0.1-0.4-0.2-0.6-0.4c-2.5-3.7-6-3.5-9.7-2.3l0,0c-0.9-0.5-1.8-1.1-2.7-1.6
		c-1.9-0.2-3.8-0.4-5.6-0.5c-0.1-0.8-0.1-1.7-0.2-2.2c3.8-0.5,7.1-0.9,11.7-1.5c-3.9-2.2-6.5-3.9-9.6-1.9c-0.4-0.5-0.9-1-1.3-1.5
		l0,0c1.3-2.5,3.6-2.6,6-2.4C290.1,162.9,289.6,161.3,289.3,159.9z"/>
	<path id="XMLID_2442_" class="st20" d="M298.9,342.2c0.8,1,1.6,2,2.4,2.9c-1.2,1.5-2.4,3.1-3.4,4.3c1.1,1.3,1.8,2.1,3.4,4.1
		c-3.5-0.3-5.5-0.5-7.6-0.7c0.1-3.3,0.1-3.3-4.1-1.1c1.7,0.5,2.9,0.8,4.1,1.1c-1.1,2.1-2.2,4.2-3.4,6.3c-2.2-1.9-4.5-3.8-6.7-5.6
		c-0.5-1-0.9-2.1-1.4-3.1c1.3-0.1,2.7-0.1,4-0.2c0-7.3,0-7.3,4.5-11.7C294,343.5,294.2,343.6,298.9,342.2z"/>
	<path id="XMLID_2441_" class="st21" d="M236.7,109.9c0-1,0-2,0-3c0.8-1.4,1.3-3.9,3.4-1.1c0.3,0.4,0.6,0.8,0.9,1.2
		c0.5,0.6,0.9,1.2,1.4,1.8c0.8,1.1,1.6,2.2,2.3,3.3c-0.1,1.4-0.5,2.9-0.1,4.2c2.9,8.9,6,17.7,9,26.5c-1,0.3-2,0.6-3,0.9
		c-0.5,0.2-0.9,0.4-1.4,0.6c0-0.3-0.1-0.7-0.2-1c-3.3-9.4-6.6-18.9-9.9-28.3C238.6,113.1,237.6,111.5,236.7,109.9z"/>
	<path id="XMLID_2440_" class="st22" d="M195.9,134.6c2,0.4,4,1,6,1.3c5.6,0.7,11.2,1.4,17.7,2.1c-2.7,3.8-5.8,1.8-8.9,2.6
		c2.4,1.2,4.2,2.1,6,3c-1.7,3.8-5.5,3.9-8.7,5.1c-0.6,0.3-1.3,0.7-1.9,1l-0.1,0c-1.4-1.6-0.6-2.4,1-3c1.9-0.8,3.9-1.5,5.8-2.2
		c-0.1-0.5-0.2-0.9-0.4-1.4c-2.3,0.1-4.5,0.3-6.8,0.2c-5.5-0.2-11.3,0.3-13.5-6.7c-0.2-0.7-2-0.8-3.1-1.2c-0.1-0.5-0.1-0.9,0-1.4
		C191.3,134.2,193.6,134.4,195.9,134.6z"/>
	<path id="XMLID_2439_" class="st23" d="M250.8,451.9c-0.5-5.3,3.7-7.6,6.7-10.7c2.1,3,7,3.3,7.4,8.4c-3,0.4-5.9,0.9-8.8,1.3
		c0,0.3,0.1,0.7,0.1,1c3.2,0.9,6.4,1.8,9.6,2.7c0,0.4,0,0.8,0.1,1.3c-2,0.4-3.9,0.9-6.1,1.4c0.8,0.9,1.6,1.8,2.5,2.8
		c-6.5,1.5-6.5,1.5-8.8-3.3C252.7,455,251.7,453.5,250.8,451.9z"/>
	<path id="XMLID_2438_" class="st24" d="M275.4,414.3c2,1.2,3.9,2.3,5.9,3.5c4.4,2.6,7,6.1,5.5,11.5c-1.1-1.6-2.2-3.1-3.4-4.7
		c-2.3,2.4-7,0.9-8.8,5.9c3.8,0.5,7.2,1,10.7,1.5c-8.1,4.3-12.3,2.4-14-6.4c0.1-0.5,0.3-1,0.4-1.5
		C273,420.9,274.2,417.6,275.4,414.3z"/>
	<path id="XMLID_2437_" class="st25" d="M295.9,100.6c3.6,2.6,5.5,6.2,6.3,10.5c-0.8,0.3-2.3,0.6-2.4,1c-0.4,4-0.5,8.1-0.9,12.2
		c-0.2,1.8-0.7,3.6-1.5,5.2c-0.9,1.9-2.1,3.5-3.2,5.3c-1.5-0.2-3-0.4-4.7-0.7c1.4-2.4,2.6-4.5,3.9-6.5l0,0c0.7-0.6,2.1-1.1,2.1-1.7
		c-0.2-7.9,1.5-16.1-3.8-23C293.5,101.9,294.7,101.2,295.9,100.6z"/>
	<path id="XMLID_2436_" class="st26" d="M313.3,297.3c0.1,2.5,0.1,5,0.2,7.4c-6.7,4.6-13,10.1-22,9.5c-0.5-0.5-1-0.9-1.5-1.4
		c0.7-2.4,1.4-4.9,2.1-7.4c1.6,1.4,3.5,3.1,6.7,5.9c-0.3-3.7-0.4-5.8-0.6-7.9c3.6-0.1,7.1-0.2,9.9-0.2
		C310.1,300.9,311.7,299.1,313.3,297.3z"/>
	<path id="XMLID_2435_" class="st27" d="M189,135.4c1.1,0.4,2.9,0.5,3.1,1.2c2.2,7,8,6.5,13.5,6.7c2.3,0.1,4.5-0.1,6.8-0.2
		c0.1,0.5,0.2,0.9,0.4,1.4c-1.9,0.7-3.9,1.5-5.8,2.2c-1.6,0.6-2.4,1.5-1,3C195.8,152.8,188,146.3,189,135.4z"/>
	<path id="XMLID_2434_" class="st28" d="M250.8,451.9c0.9,1.6,1.9,3.2,2.7,4.8c2.3,4.8,2.3,4.8,8.8,3.3c-0.9-1-1.7-1.9-2.5-2.8
		c2.2-0.5,4.2-0.9,6.1-1.4c0-0.4,0-0.8-0.1-1.3c-3.2-0.9-6.4-1.8-9.6-2.7c0-0.3-0.1-0.7-0.1-1c2.9-0.4,5.8-0.9,8.8-1.3
		c-0.4-5.1-5.3-5.4-7.4-8.4c0.3-0.3,0.6-0.4,1-0.3c1.2,0,2.4,0.1,3.5,0.1c0.9,0.2,1.8,0.4,2.6,0.6c0.1,0.4,0.1,0.8,0.2,1.2
		c0.2,0.6,0.5,1.1,0.7,1.7c4.7,7.8,4.2,12-1.8,17.1c-5.4,4.5-11.6,2.6-13.3-4.3C250.1,455.7,250.7,453.7,250.8,451.9z"/>
	<path id="XMLID_2433_" class="st29" d="M254.7,167c0.5,8.6-3.5,15.7-7.7,22.6c-1.1,1.9-3.3,3.1-4.9,4.7c-1-0.1-2-0.2-3-0.3
		c3.1-2.7-2.6-2.6-1.4-4.9c2.4-0.5,4.9-1,7.7-1.6c-0.9-2.5-1.6-4.1-2.2-5.8c0.5-0.4,1-0.9,1.5-1.3l0,0c0.2-1.3,0.4-2.6,0.7-4.3
		c1.4-0.5,3.3-1.2,5-1.8c1-2.7,1.8-5.1,2.7-7.5C253.6,166.8,254.1,166.9,254.7,167z"/>
	<path id="XMLID_2432_" class="st30" d="M292.6,371.1c-1.8,0.1-3.6,0.2-6.5,0.4c1.8,1.9-0.2,6.3,4.8,3.9c0.2-0.1,3.4,2.1,1.9,4.6
		c-2.8-0.2-5.6-0.5-9.5-0.8c3,1.7,5,2.9,7,4c0,0.4-0.1,0.8-0.1,1.3c-2.8,0.5-5.6,1-9.5,1.6c-0.6-5.4-1.8-10.3,1.6-15.2
		c-1.6-0.4-3.1-0.8-4.7-1.2c1.1-0.3,2.3-0.6,3.4-0.8C285,369.6,288.8,370.3,292.6,371.1z"/>
	<path id="XMLID_2431_" class="st31" d="M281.8,277.7c0.5-0.4,1-0.8,1.5-1.1c2.9,0.2,5.7,0.3,8.6,0.5c2.1,1.4,4.3,2.6,6.4,4.1
		c1.8,1.3,3.4,2.8,5.1,4.2c-0.2,0.5-0.4,0.9-0.6,1.4c-4.3-0.4-8.7-0.8-13-1.1l-0.7-0.1l-0.7,0c-0.9-0.1-1.9-0.2-2.8-0.3l0,0
		c-1.3-1.5-2.5-3.1-3.8-4.6C281.7,279.6,281.7,278.6,281.8,277.7z"/>
	<path id="XMLID_2430_" class="st32" d="M278.7,328.4c-0.3-10.9-0.6-21.9-1-32.8c1.2,2.5,2.4,5.1,3.6,7.6c0.8,1.6,1.6,3.2,2.4,4.7
		c-0.3,8-0.5,15.9-0.8,23.9C281.5,330.7,280.1,329.6,278.7,328.4z"/>
	<path id="XMLID_2429_" class="st33" d="M217.1,57.9c4.8,9,9.6,18.1,14.4,27.1c-0.8-0.2-1.6-0.3-2.4-0.5c-1-0.6-2.1-1.2-3.1-1.7
		c-3.6-7.3-7.2-14.6-10.9-21.9c-0.3-0.6-0.7-1.2-1-1.8L214,59c-0.3-0.5-0.7-0.9-1-1.4c-0.2-0.4-0.3-0.8-0.3-1.2
		c-0.4-0.6-0.7-1.2-1.1-1.8l0,0c-0.3-0.5-0.7-1-1-1.5c0,0-0.1-0.2-0.1-0.2c0.5-0.9,1.1-1.7,1.6-2.6l0,0c0.4,0.5,0.9,1.1,1.3,1.6l0,0
		c0.4,0.5,0.8,1.1,1.2,1.6l0,0c0.5,0.9,0.9,1.9,1.4,2.8l-0.1,0C216.1,56.9,216.6,57.4,217.1,57.9z"/>
	<path id="XMLID_2428_" class="st34" d="M263.4,424.6c-0.9,0.4-1.8,0.8-2.7,1.3c-0.6-0.3-1.3-0.5-2.4-1c1.4-1.7,2.6-3.2,3.7-4.5
		c-2.5-0.8-4.8-1.6-7.7-2.6c3.3-1.4,5.6-2.4,7.8-3.3c-1.8-1.9-3.2-3.3-4.6-4.8c3.9-3.4,8.2-4.3,13-1.8c0,0.4,0,0.9,0,1.3
		c-0.7,1.9-1.4,3.9-2.1,5.8c-1.4,0.9-3.6,1.5-4.1,2.8C263.4,419.8,263.6,422.3,263.4,424.6z"/>
	<path id="XMLID_2427_" class="st35" d="M250.5,293.5c4.2-2.3,8.2-3,12.1,0.9c1,1,3.3,0.8,5.2,1.1c-0.2,2.4-4.5,3.3-2.4,6.4
		c-2.9,0.6-5.8,1.2-8.7,1.9c-0.9-0.8-1.9-1.5-2.8-2.3c0.6-3.1-1.2-4.9-3.5-6.5C250.5,294.5,250.5,294,250.5,293.5z"/>
	<path id="XMLID_2426_" class="st36" d="M285.1,94c-1.5,0.3-2.9,0.6-4.4,1c-7.4-2.6-14.7-0.5-22.6,0.1c0.4,1.5,0.6,2.6,0.9,3.6
		c-3.2-1.2-6.5-2.5-9.7-3.7C261.1,89.6,272.9,87.8,285.1,94z"/>
	<path id="XMLID_2425_" class="st37" d="M257.4,409.6c1.4,1.5,2.8,2.9,4.6,4.8c-2.2,0.9-4.5,1.9-7.8,3.3c2.9,1,5.2,1.7,7.7,2.6
		c-1.1,1.4-2.4,2.9-3.7,4.5c1.2,0.5,1.8,0.8,2.4,1c-3.9,2.1-6.9,0.3-9.2-2.7c-2.2-2.9-1.8-6.2,1.1-9.6
		C253.9,412,255.8,410.9,257.4,409.6z"/>
	<path id="XMLID_2424_" class="st38" d="M270.4,409.1c0-0.4,0-0.9,0-1.3c1-5.3,2.1-10.6,2.9-15.9c0.2-1.6-0.6-3.4-0.9-5.1
		c4.3-3.1,4.4-3.1,5.7,1.9c0.3,1,0.6,2,0.9,3c0.1,0.9,0.2,1.8,0.3,2.7c-0.2,0.1-0.5,0.2-0.7,0.2c-1.5,6.1-3,12.1-4.5,18.2
		C272.8,411.5,271.6,410.3,270.4,409.1z"/>
	<path id="XMLID_2423_" class="st39" d="M294.4,134.7c1.1-1.8,2.3-3.4,3.2-5.3c0.7-1.6,1.3-3.4,1.5-5.2c0.4-4,0.5-8.1,0.9-12.2
		c0-0.4,1.5-0.6,2.4-1c4.1,10.7,1.6,20-6.7,24.9C295.2,135.6,294.8,135.1,294.4,134.7z"/>
	<path id="XMLID_2422_" class="st40" d="M226,82.8c1,0.6,2.1,1.2,3.1,1.7c-0.6,0.5-1.2,1-1.8,1.5c-3.6-0.6-6.8-0.5-9.3,3
		c-1.3,1.8-3.7,2.8-5.5,4.2c-0.1,1-0.2,1.9-0.3,2.9c-3.2,4-6.3,8-9.5,12c-1.2,2.2-2.4,4.5-3.6,6.7c-1,0.4-2,0.8-2.9,1.2
		c0.1-1,0.1-1.9,0.2-2.9l0.1,0c0.5-0.5,0.9-1,1.4-1.5c4.1-6.5,7.7-13.4,12.6-19.3C214.2,87.7,219,83.1,226,82.8z"/>
	<path id="XMLID_2421_" class="st41" d="M227.3,86c0.6-0.5,1.2-1,1.8-1.5c0.8,0.2,1.6,0.3,2.4,0.5c2.4,4.5,4.9,8.9,7.7,14.1
		c0.5,0.1,2,0.4,3.6,0.8c0,1.3-2.6,2.1-0.5,4c1.1,1,2.6,3.1,0.3,4.8c-0.5-0.6-0.9-1.2-1.4-1.8c-0.3-0.4-0.6-0.8-0.9-1.2
		c-2.2-2.7-2.6-0.3-3.4,1.1c-1.2-2-2.4-4.1-3.6-6.1c1.9-3.3,0.7-5.6-2.3-7.3l0,0c-0.8-1.5-1.7-3-2.5-4.5l0,0
		c0.1-0.5,0.1-0.9,0.2-1.4C228.1,87,227.7,86.5,227.3,86z"/>
	<path id="XMLID_2420_" class="st42" d="M253.5,386.6c5.3-2.3,10.6-0.2,15.9-0.1c0.5,0.5,0.9,1,1.4,1.5c-2.1,5-6.6,5.5-11,5.3
		C255.9,393.2,253.2,391.1,253.5,386.6z"/>
	<path id="XMLID_2419_" class="st43" d="M291.5,314.2c8.9,0.5,15.3-4.9,22-9.5c-0.5,1.8-0.7,3.7-1.6,5.3
		C307.3,318.7,300.6,320.1,291.5,314.2z"/>
	<path id="XMLID_2418_" class="st21" d="M281.1,368.8c-1.1,0.3-2.3,0.6-3.4,0.8c-0.4,0.1-0.9,0.1-1.3,0c0.4-8.9,0.7-17.7,1.1-26.6
		c0-0.5,0-1.1,0-1.6c1.3,2.6,2.6,5.1,3.8,7.7c0.3,0.5,0.7,0.9,1,1.4c0.5,1,0.9,2.1,1.4,3.1C280.5,358.3,282,363.7,281.1,368.8z"/>
	<path id="XMLID_2417_" class="st44" d="M295.9,100.6c-1.2,0.6-2.4,1.3-4.1,2.2c5.3,7,3.5,15.1,3.8,23c0,0.5-1.3,1.1-2.1,1.7
		c-0.4-3.1-1.8-6.5-1-9.2c1.3-4.7-2.2-7.8-2.5-11.9c0-0.5-1.3-1-2.2-1.6c1.4-2.1,2.6-4,3.9-6C293.1,99.4,294.5,100,295.9,100.6z"/>
	<path id="XMLID_2416_" class="st45" d="M281.3,349.1c-1.3-2.6-2.6-5.1-3.8-7.7c-0.1-1.2-0.4-2.5-0.4-3.7c0-2.9,0.2-5.7,0.3-8.6
		c0.3-0.3,0.7-0.5,1.2-0.6c1.4,1.2,2.8,2.3,4.2,3.5c0.8,1.5,1.6,3,2.4,4.6c-0.9,2.6-2,5.1-2.8,7.7
		C282,345.7,281.7,347.4,281.3,349.1z"/>
	<path id="XMLID_2415_" class="st46" d="M298.6,232.1c-0.8,0.2-1.9,0.9-2.4,0.6c-3.7-2.1-6.7-0.8-9.3,1.2c-2.8-1.5-5.4-2.9-8.3-4.5
		c2.7-0.7,5.2-1.3,8.6-2.2c-1.9-0.5-3-0.7-4.1-1c4.5-0.9,9-1.3,13.2,1.3c-0.6,0.1-1.2,0.3-2.3,0.5
		C295.7,229.6,297.2,230.8,298.6,232.1z"/>
	<path id="XMLID_2414_" class="st47" d="M254.7,167c-0.5-0.1-1-0.2-1.5-0.3c0-0.8-0.3-2.4-0.1-2.4c2.7-0.7,5.7-2.7,7.3,1.6
		c-0.1,1-0.2,1.9-0.3,2.9c0.8,1.1,2.3,2.2,2.3,3.4c-0.1,4.3,2.1,5.8,6,6c0.8,0.1,1.5,1,2.2,1.5c-0.9-0.1-1.9-0.1-2.8-0.2
		c-0.2,0.1-0.6,0.2-0.6,0.3c0.1,0.4,0.2,0.7,0.4,1.1c0,0.5,0,0.9-0.1,1.4c-0.6,0-1.2,0.1-1.8,0.1c-0.4-0.1-0.7-0.2-1-0.5
		c-0.4-0.4-0.8-0.9-1.2-1.3c-1.4-1.1-2.7-2.2-4.1-3.3C257.7,173.8,256.2,170.4,254.7,167z"/>
	<path id="XMLID_2413_" class="st48" d="M213.4,181.8c1.7,0.7,3.5,1.4,5,2c0,1.7-0.4,3.5,0.1,4.9c0.9,2.6,2.5,5,3.4,7.6
		c0.3,0.8-1,2.1-1.6,3.2C214.7,194.8,211,189.4,213.4,181.8z"/>
	<path id="XMLID_2412_" class="st49" d="M277.4,329c-0.1,2.9-0.3,5.7-0.3,8.6c0,1.2,0.3,2.5,0.4,3.7c0,0.5,0,1.1,0,1.6
		c-1.5,1.3-2.9,2.6-4.4,4c-0.5,0.4-1.1,0.8-1.6,1.3l0,0c-0.4-1-0.9-2.1-1.3-3.1l0,0c4.9-1.6,4.4-5.5,4.3-9.3c-4.6-2.6-7,0.2-9.5,3.1
		c-1-0.2-2.1-0.4-3.1-0.7c2.6-3.1,5.8-5.2,9.9-6.1C273.8,331.8,275.6,330.1,277.4,329z"/>
	<path id="XMLID_2411_" class="st50" d="M278.8,246.1c0.1-0.5,0.1-1,0.2-1.5c1.5,1.5,2.8,3.2,4.5,4.4c2,1.4,4.2,2.7,6.5,3.6
		c1.8,0.7,4.3-0.3,5,2.7c0.1,0.3,2.2,0.5,3.1,0.1c3-1.2,5.9-2.7,8.8-4.1l0,0c0,0.5,0,1-0.1,1.6c-7.7,6.9-19.5,5.9-25.7-2.2
		c-0.8-1.1-1.6-2.2-2.5-3.4l0.1,0.1C278.9,247,278.9,246.6,278.8,246.1z"/>
	<path id="XMLID_2410_" class="st51" d="M264.7,441.7c-0.9-0.2-1.8-0.4-2.6-0.6c-0.1-0.5-0.2-1-0.3-1.4c1.1-3.7,2.4-7.3,3.3-11.1
		c0.3-1.3-0.3-2.8-0.5-4.2c1.6-1.1,3.2-2.3,4.8-3.4c0.8,1,1.6,2.1,2.4,3.1c-0.1,0.5-0.3,1-0.4,1.5c-1.2,3.1-2.4,6.2-3.7,9.3
		C266.8,437.2,265.7,439.5,264.7,441.7z"/>
	<path id="XMLID_2409_" class="st52" d="M298.6,232.1c-1.5-1.3-2.9-2.5-4.7-4c1.1-0.3,1.7-0.4,2.3-0.5c5.4,3.7,11.2,7.1,12.2,14.4
		c0.4,3.1-0.2,6.3-0.3,9.5c-0.4,0-0.8-0.1-1.2-0.1l0,0c0.2-3.2,1.3-6.5-2.1-9c-0.8-0.6-0.5-2.5-0.8-4.1c-1.8-0.5-3.8-1.2-6.2-1.9
		C299.3,234.8,302.2,233.8,298.6,232.1z"/>
	<path id="XMLID_2408_" class="st53" d="M298.2,303.4c0.2,2.1,0.3,4.3,0.6,7.9c-3.1-2.8-5.1-4.5-6.7-5.9c-0.7,2.5-1.4,4.9-2.1,7.4
		c-1.4-1.1-2.8-2.1-4.2-3.2c0.2-0.5,0.3-1.1,0.5-1.6c0-0.5,0-1,0-1.4c0.6-1.4,1.2-2.8,1.8-4.2l0,0c1.3-0.3,1.9-2.6,4.1-0.9
		c1.5,1.2,3.8,1.2,5.8,1.7L298.2,303.4z"/>
	<path id="XMLID_2407_" class="st54" d="M290.4,359.2c1.1-2.1,2.2-4.2,3.4-6.3l0,0c2,0.2,4.1,0.4,7.6,0.7c-1.6-2-2.3-2.8-3.4-4.1
		c1-1.3,2.2-2.8,3.4-4.3c0.5,2,1.4,4.1,1.4,6.1C302.6,357.8,297.7,360.9,290.4,359.2z"/>
	<path id="XMLID_2406_" class="st55" d="M272.2,188.6c2.6,1,5.3,1.8,7.8,3.1c8.1,4,14.1,3.1,20.2-3.3c1.1-1.2,2.6-1.9,4-2.9
		c-0.5,5.2-4.1,7.9-8.5,9.2C286.9,197.4,278.7,196,272.2,188.6z"/>
	<path id="XMLID_2405_" class="st53" d="M313.3,297.3c-1.6,1.8-3.2,3.6-5.2,5.9c-2.8,0.1-6.3,0.1-9.9,0.2c0,0-0.1-0.1-0.1-0.1
		c0.2-2.3,0.5-4.6,0.7-6.9c0.4,0,0.9,0,1.3,0.1c5.2,2.3,8.4,1.3,12-3.7C312.5,294.3,312.9,295.8,313.3,297.3z"/>
	<path id="XMLID_2404_" class="st56" d="M211.9,50.3c-0.5,0.9-1.1,1.7-1.6,2.6c-4.5-6.5-9-12.9-13.5-19.4c-0.1-0.1,0.2-0.4,0.3-0.6
		C201.7,35.1,209.1,43.7,211.9,50.3z"/>
	<path id="XMLID_2403_" class="st57" d="M242.5,108.7c2.3-1.7,0.8-3.8-0.3-4.8c-2.1-2,0.5-2.7,0.5-4l0,0c0.6,0.2,1.2,0.3,1.8,0.5
		l0.2,0.1c1.2,5.3,7.3,2.1,10.3,5.7c-3.1,1.3-6.9-0.6-9,3.2c2,0.9,3.6,1.6,5.2,2.3c-0.3,1.2-0.6,2.4-0.8,3.5c-0.5,0-0.9-0.1-1.4,0
		l0,0c-0.5-0.5-1-1-1.6-1.5c-0.9-0.5-1.7-1.1-2.6-1.6C244,110.9,243.3,109.8,242.5,108.7z"/>
	<path id="XMLID_2402_" class="st58" d="M249.1,227.7c0.6,0.3,1.2,0.5,2.5,1.1c-5.1,4-7.2,8.6-5.6,14.9c0.8,3.1,1.8,5.1,4.5,6.6
		c1.7,0.9,2.7,2.1,0.4,3.6C241.2,247.5,240.6,237.3,249.1,227.7z"/>
	<path id="XMLID_2401_" class="st59" d="M281.3,349.1c0.4-1.7,0.6-3.4,1.1-5c0.8-2.6,1.8-5.1,2.8-7.7c2.4,0.6,4.8,1.2,7.2,1.8
		c-0.5,0.1-1.1,0.2-1.6,0.3c-4.5,4.4-4.5,4.4-4.5,11.7c-1.3,0.1-2.7,0.1-4,0.2C282,350,281.7,349.6,281.3,349.1z"/>
	<path id="XMLID_2400_" class="st60" d="M271.8,424.1c-0.8-1-1.6-2.1-2.4-3.1c-0.4-2-0.7-4.1-1.1-6.1c0.7-1.9,1.4-3.8,2.1-5.8
		c1.2,1.2,2.4,2.4,3.6,3.6c0.5,0.5,0.9,1.1,1.4,1.6C274.2,417.6,273,420.9,271.8,424.1z"/>
	<path id="XMLID_2399_" class="st44" d="M294.4,134.7c0.4,0.5,0.8,0.9,1.2,1.4c-3.4,0.7-6.7,1.4-10.1,2.1c-1.2-0.6-2.4-1.1-3.5-1.8
		c-0.3-0.2-0.3-0.9-0.4-1.4c1.4,0.1,2.7,0.2,3.8,0.3c2.6-3.2,2.6-8.4,8.2-7.9c-1.2,2.1-2.5,4.1-3.9,6.5
		C291.3,134.2,292.8,134.4,294.4,134.7z"/>
	<path id="XMLID_2398_" class="st61" d="M195.9,134.6c-2.3-0.2-4.6-0.4-6.9-0.6c-0.7-5.7,0.9-10.7,4-15.4l0.4,0.2
		c0.8,0.5,1.5,1,2.3,1.4c-0.2,2.4-0.4,4.7-0.7,7.1c-1.3,0.7-2.6,1.4-3.9,2.1c1.2,0.7,2.4,1.4,3.6,2.1
		C195.1,132.6,195.5,133.6,195.9,134.6z"/>
	<path id="XMLID_2397_" class="st62" d="M285.4,432c-3.4-0.5-6.9-1-10.7-1.5c1.8-5,6.5-3.5,8.8-5.9c1.1,1.6,2.2,3.1,3.4,4.7
		C286.4,430.2,285.9,431.1,285.4,432z"/>
	<path id="XMLID_2396_" class="st63" d="M281.2,303.3c-1.2-2.5-2.4-5.1-3.6-7.6c-0.3-0.9,0-2.6-1.9-1.4c-0.4-0.5-0.7-1-1.1-1.5
		c0.1-0.5,0.1-0.9,0.2-1.4c0.5-0.4,1-0.9,1.5-1.3l0,0c1.8,0.6,3.7,1.3,5.5,1.9c0.3,2.9,0.6,5.8,0.8,8.7c-0.1,0.4-0.1,0.9-0.1,1.3
		C282.2,302.4,281.7,302.9,281.2,303.3z"/>
	<path id="XMLID_2395_" class="st57" d="M249.3,95c3.2,1.2,6.5,2.5,9.7,3.7l0,0c-1.1,1.7-2.2,2.3-4.5,1.9c-3.2-0.6-6.5-0.2-9.8-0.2
		l-0.2-0.1c-0.4-0.5-0.7-1-1.1-1.5C244.4,96.1,246.5,95.1,249.3,95z"/>
	<path id="XMLID_2394_" class="st64" d="M256.7,303.8c2.9-0.6,5.8-1.2,8.7-1.9c2.6-2.2,5.1-4.3,7.7-6.5c0.5,0,1,0.1,1.5,0.1
		c-0.2,0.5-0.4,1-0.6,1.5c-0.3,0.5-0.6,0.9-0.9,1.4C267.7,305.1,264.3,306.2,256.7,303.8z"/>
	<path id="XMLID_2393_" class="st65" d="M261.9,338.3c1,0.2,2.1,0.4,3.1,0.7c4.1,0.1,5,2.8,5.2,6.2l0,0c-3.5-0.4-7.4,0.3-9.6-3.6
		C261,340.4,261.5,339.4,261.9,338.3z"/>
	<path id="XMLID_2392_" class="st66" d="M260.6,341.5c2.1,4,6.1,3.2,9.6,3.6c0.4,1,0.9,2.1,1.3,3.1c-4.4,4.7-5.1,4.9-10.2,1.6
		c0.1-0.9,0.1-1.7,0.5-3.1c4,3.6,4,3.6,6.4,0.1c-2.2-0.2-4.1-0.4-6.4-0.1c-0.7,0.4-1.1,0.4-1.6,0.3
		C260.3,345.3,260.5,343.4,260.6,341.5z"/>
	<path id="XMLID_2391_" class="st67" d="M239,194c1,0.1,2,0.2,3,0.3c-3.9,2.1-7.9,4.3-11.8,6.4c-0.5-0.2-0.9-0.5-1.4-0.7
		C231.6,196.9,233.5,192.4,239,194z"/>
	<path id="XMLID_2390_" class="st68" d="M268.3,414.9c0.4,2,0.7,4.1,1.1,6.1c-1.6,1.1-3.2,2.3-4.8,3.4c-0.4,0.2-0.8,0.2-1.2,0.2
		c0.2-2.3,0-4.8,0.9-6.8C264.7,416.5,266.9,415.8,268.3,414.9z"/>
	<path id="XMLID_2389_" class="st69" d="M250.7,143.5c1-0.3,2-0.6,3-0.9c2.3,1.5,4.6,3,6.9,4.4c-0.1,0.6-0.2,1.2-0.3,1.8
		c-0.9-0.5-1.8-1.1-2.7-1.6c-0.5,0.4-1,0.8-1.5,1.2l-0.1,0.1C254.2,146.8,252.5,145.1,250.7,143.5z"/>
	<path id="XMLID_2388_" class="st5" d="M299,406.2c0.6,0.1,1.2,0.2,1.8,0.3c-3.8,4.2-7.7,2.3-11.6,0.1c0.8-0.3,1.7-0.9,2.5-0.9
		C294.1,405.7,296.5,406,299,406.2z"/>
	<path id="XMLID_2387_" class="st70" d="M290.9,338.6c0.5-0.1,1.1-0.2,1.6-0.3c2.1,1.3,4.3,2.6,6.4,3.9
		C294.2,343.6,294,343.5,290.9,338.6z"/>
	<path id="XMLID_2386_" class="st71" d="M249,115c0.5,0,0.9,0,1.4,0c1.8,1.1,3.6,2.2,5.5,3.4c0,0.9,0,1.7,0,2.6l-0.3,0.4
		C253.3,119.3,251.1,117.2,249,115z"/>
	<path id="XMLID_2385_" class="st55" d="M265.6,182.3c0.6,0,1.2-0.1,1.8-0.1c1.7,2.2,3.4,4.3,5.1,6.5c-2.2-1.7-4.4-3.4-6.6-5.1
		C265.8,183.2,265.7,182.8,265.6,182.3z"/>
	<path id="XMLID_2384_" class="st72" d="M281.2,303.3c0.5-0.4,1-0.9,1.5-1.3c1.2,1.6,2.5,3.1,3.7,4.7c0,0.5,0,1,0,1.4
		c-0.6,0-1.1,0-1.7,0.1c-0.3-0.1-0.6-0.1-1-0.1C282.9,306.4,282.1,304.9,281.2,303.3z"/>
	<path id="XMLID_2383_" class="st3" d="M303.5,175.5c-0.9-2.3-3-4.5-0.9-7.2c0.8,2,1.6,3.9,2.4,5.9C304.5,174.6,304,175,303.5,175.5
		z"/>
	<path id="XMLID_2382_" class="st6" d="M250.5,294.9c2.2,1.6,4,3.4,3.5,6.5C251.5,300,250.1,297.9,250.5,294.9z"/>
	<path id="XMLID_2381_" class="st69" d="M250.2,149.3c-1.2-1.4-2.5-2.9-3.7-4.3c0.4-0.2,0.8-0.3,1.2-0.2c0.6,0.1,1.1,0.1,1.7,0.2
		c2.9,0.9,3.2,2.4,1,4.5L250.2,149.3z"/>
	<path id="XMLID_2380_" class="st55" d="M303.5,175.5c0.5-0.4,1-0.9,1.5-1.3c-0.1,1.9-0.3,3.8-0.4,5.7c-0.5,0-0.9-0.1-1.4-0.2
		C303.4,178.3,303.4,176.9,303.5,175.5z"/>
	<path id="XMLID_2379_" class="st73" d="M274.6,295.6c-0.5,0-1-0.1-1.5-0.1c0.5-0.9,1.1-1.8,1.6-2.7c0.4,0.5,0.7,1,1.1,1.5
		C275.4,294.7,275,295.1,274.6,295.6z"/>
	<path id="XMLID_2378_" class="st23" d="M261.8,439.7c0.1,0.5,0.2,1,0.3,1.4c-1.2,0-2.4-0.1-3.5-0.1
		C259.7,440.5,260.7,440.1,261.8,439.7z"/>
	<path id="XMLID_2377_" class="st65" d="M261.5,347.2c-0.1,0.9-0.1,1.7-0.2,2.6c-0.4-0.9-0.7-1.8-1.1-2.7
		C260.6,347.2,261,347.2,261.5,347.2z"/>
	<path id="XMLID_2376_" class="st74" d="M284.6,308.1c0.6,0,1.1,0,1.7-0.1c-0.2,0.5-0.3,1.1-0.5,1.6
		C285.4,309.1,285,308.6,284.6,308.1z"/>
	<path id="XMLID_2375_" class="st56" d="M215.7,56.4c-0.5-0.9-0.9-1.9-1.4-2.8C214.8,54.5,215.3,55.4,215.7,56.4z"/>
	<path id="XMLID_2374_" class="st61" d="M196.3,113.2c-0.1,1-0.1,1.9-0.2,2.9l0,0c-0.4,0-0.8,0-1.1,0.1l-0.3-0.4
		C195.2,115,195.7,114.1,196.3,113.2z"/>
	<path id="XMLID_2373_" class="st61" d="M193,118.7c0.5-0.9,1.1-1.9,1.6-2.8c0,0,0.3,0.4,0.3,0.4c-0.5,0.9-1,1.8-1.5,2.6L193,118.7z
		"/>
	<path id="XMLID_2372_" class="st66" d="M271.4,348.2c0.5-0.4,1.1-0.8,1.6-1.3C272.5,347.4,272,347.8,271.4,348.2z"/>
	<path id="XMLID_2371_" class="st5" d="M302,406c0.4-0.3,0.9-0.6,1.3-0.9C302.9,405.4,302.5,405.7,302,406z"/>
	<path id="XMLID_2370_" class="st3" d="M301.7,166.7c-0.5-0.1-1-0.1-1.5-0.2c0.4-0.4,0.9-0.8,1.3-1.2
		C301.7,165.7,301.8,166.2,301.7,166.7z"/>
	<path id="XMLID_2369_" class="st51" d="M265.6,444.6c-0.2-0.6-0.5-1.1-0.7-1.7C265.1,443.5,265.4,444,265.6,444.6z"/>
	<path id="XMLID_2368_" class="st1" d="M307,251.4c0.4,0,0.8,0.1,1.2,0.1c-0.4,0.5-0.8,1-1.2,1.5C306.9,252.4,307,251.9,307,251.4z"
		/>
	<path id="XMLID_2367_" class="st75" d="M197.7,111.7c-0.5,0.5-0.9,1-1.4,1.5C196.8,112.7,197.3,112.2,197.7,111.7z"/>
	<path id="XMLID_2366_" class="st71" d="M247.4,113.6c0.5,0.5,1,1,1.6,1.5C248.4,114.5,247.9,114,247.4,113.6z"/>
	<path id="XMLID_2365_" class="st56" d="M213.2,51.9c-0.4-0.5-0.9-1.1-1.3-1.6C212.3,50.8,212.8,51.4,213.2,51.9z"/>
	<path id="XMLID_2364_" class="st56" d="M214.3,53.5c-0.4-0.5-0.8-1.1-1.2-1.6C213.6,52.4,214,53,214.3,53.5z"/>
	<path id="XMLID_2363_" class="st56" d="M210.5,53.1c0.3,0.5,0.7,1,1,1.5C211.1,54.1,210.8,53.6,210.5,53.1z"/>
	<path id="XMLID_2362_" class="st56" d="M211.5,54.6c0.4,0.6,0.7,1.2,1.1,1.8C212.2,55.8,211.9,55.2,211.5,54.6z"/>
	<path id="XMLID_2361_" class="st14" d="M249.4,145c-0.6-0.1-1.1-0.1-1.7-0.2c0.5-0.6,1-1.1,1.5-1.7c0.1,0.3,0.1,0.7,0.2,1
		C249.3,144.3,249.3,144.6,249.4,145z"/>
	<path id="XMLID_2360_" class="st56" d="M217.1,57.9c-0.5-0.5-0.9-1.1-1.4-1.6C216.1,56.8,216.6,57.4,217.1,57.9z"/>
	<path id="XMLID_2359_" class="st56" d="M213,57.6c0.3,0.5,0.7,0.9,1,1.4C213.6,58.6,213.3,58.1,213,57.6z"/>
	<path id="XMLID_2358_" class="st56" d="M214,59.1c0.3,0.6,0.7,1.2,1,1.8C214.7,60.3,214.4,59.7,214,59.1z"/>
	<path id="XMLID_2357_" class="st41" d="M243.4,98.9c0.4,0.5,0.7,1,1.1,1.5c-0.6-0.2-1.2-0.3-1.8-0.5
		C242.8,99.4,243.1,99.1,243.4,98.9z"/>
	<path id="XMLID_2356_" class="st27" d="M206,149.7c0.6-0.3,1.3-0.7,1.9-1C207.3,149.1,206.6,149.4,206,149.7z"/>
	<path id="XMLID_2355_" class="st6" d="M273,298.5c0.3-0.5,0.6-0.9,0.9-1.4C273.6,297.6,273.3,298,273,298.5z"/>
	<path id="XMLID_2354_" class="st76" d="M275.2,238.7c-0.6-0.9-1.2-1.8-1.8-2.7c-1.3-1.9-1.9-0.8-2.6,0.5
		c-0.4-5.3-0.8-10.5-1.2-15.8c1.1,3,2.2,5.9,3.4,9.3c0.5-0.2,1.7-0.7,2.9-1.2c0.7,3.4,1.3,6.7,2,10.1
		C277.1,238.8,276.2,238.7,275.2,238.7z"/>
	<path id="XMLID_2353_" class="st50" d="M275.2,238.7c0.9,0,1.9,0,2.8,0.1c0.3,2,0.6,3.9,0.9,5.9
		C277.7,242.7,276.5,240.7,275.2,238.7z"/>
	<path id="XMLID_2352_" class="st75" d="M199,114.9c1.2-2.2,2.4-4.5,3.6-6.7c2.6,0.1,5.2,0.1,7.8,0.1c0.7,0,1.7-0.5,2-0.2
		c5.6,4.5,12,3,18.2,2.6c0.8,0,1.6,0.6,3.4,1.3c-1.5,1.8-2.6,3-3.7,4.3c-2.6,0.3-5.2,0.7-7.8,1c0,0.4,0,0.8-0.1,1.3
		c2,1.1,3.9,2.2,5.9,3.2c0,0.5-0.1,0.9-0.1,1.4c-2.5-0.3-5.2-0.3-7.5-1.2c-1.2-0.4-1.9-2.3-3.3-4.1C212,117.1,205.1,118.7,199,114.9
		z"/>
	<path id="XMLID_2351_" class="st75" d="M193.4,118.9c0.5-0.9,1-1.8,1.5-2.6c0.4-0.1,0.8-0.2,1.1-0.1c0.2,0.6,0.4,1.7,0.8,1.8
		c4,0.9,8.1,1.6,12.6,2.5c-2.6,2.8-4.6,5.3-7.1,7.3c-2.2,1.8-3.9,0.5-4.8-2.2c1.4-0.3,2.6-0.6,4.4-1.1c-2.3-1.5-4.3-2.8-6.2-4
		C195,119.8,194.2,119.4,193.4,118.9z"/>
	<path id="XMLID_2350_" class="st22" d="M194.7,131.6c-1.2-0.7-2.4-1.4-3.6-2.1c1.3-0.7,2.6-1.4,3.9-2.1
		C195,128.8,194.8,130.2,194.7,131.6z"/>
	<path id="XMLID_2349_" class="st77" d="M270.4,179.7c-0.7-0.5-1.4-1.4-2.2-1.5c-3.8-0.3-6.1-1.8-6-6c0-1.1-1.5-2.2-2.3-3.4
		c7.1,1.1,14.1,2.2,21.2,3.2c1.9,0.2,3.8,0.4,5.6,0.5c0.9,0.5,1.8,1.1,2.7,1.6l0,0c-4.4,2.5-9,0-13.5,0.3c-2.3,0.1-4.7,0.2-7,1.3
		c1.9,1,3.9,2,5.8,2.9c-1,0.4-2,0.8-3,1.1C271.4,179.8,270.9,179.7,270.4,179.7z"/>
	<path id="XMLID_2348_" class="st55" d="M271.9,179.8c1-0.4,2-0.8,3-1.1C273.8,179,272.8,179.4,271.9,179.8z"/>
	<path id="XMLID_2347_" class="st55" d="M267.4,180.8c-0.1-0.3-0.3-0.7-0.4-1.1c0-0.1,0.4-0.2,0.6-0.3
		C267.5,179.9,267.5,180.4,267.4,180.8z"/>
	<path id="XMLID_2346_" class="st78" d="M230.9,93.5c3,1.7,4.1,4,2.3,7.3c-0.7-0.7-1.2-1.8-2-1.9c-6.3-1-12.7-1.9-19.1-2.8
		c0.1-1,0.2-1.9,0.3-2.9c4.8,0.7,9.6,1.6,14.5,2.1C228.2,95.4,229.6,94.1,230.9,93.5z"/>
	<path id="XMLID_2345_" class="st2" d="M228.4,121.8c-2-1.1-3.9-2.2-5.9-3.2c0-0.4,0-0.8,0.1-1.3c2.6-0.3,5.2-0.7,7.8-1
		C232.7,119.1,230.9,120.6,228.4,121.8z"/>
	<path id="XMLID_2344_" class="st73" d="M282,292c-1.8-0.6-3.7-1.3-5.5-1.9c-1.8-0.9-3.6-1.7-5.3-2.5c1.8-1.1,3.8-2.4,6.5-4.2
		c-1.7-2.4-3-4.2-4.2-6c2.8,0.1,5.6,0.2,8.4,0.3c0,0.9-0.1,1.9-0.1,2.8c-0.3,2.1-0.5,4.1,2.4,4.6c-0.1,0.9-0.1,1.8-0.2,2.7l0,0
		C283.2,289.2,282.6,290.6,282,292z"/>
	<path id="XMLID_2343_" class="st73" d="M276.5,290.1c-0.5,0.4-1,0.9-1.5,1.3C275.4,290.9,275.9,290.5,276.5,290.1z"/>
	<path id="XMLID_2342_" class="st79" d="M229.4,191.7c0.1-4-3.8-2.4-5.5-4c1.8-0.5,3.4-1,4.8-1.5c-3-3.6-5.9-6.9-8.3-9.7
		c0.7-3.3,1.2-5.8,1.8-9c1.5-0.1,3.2-0.1,5-0.2l0,0c0,1.2-0.4,3.3,0.1,3.6c3.5,2-0.8,4-0.2,5.2c3.3,1.8,6.1,3.3,8.9,4.9l0,0
		c-0.5,0.4-1,0.9-1.6,1.3l0,0c-2.8,2.2-0.4,3.1,1,4.3C233.5,188.3,231.5,190,229.4,191.7z"/>
	<path id="XMLID_2341_" class="st80" d="M229.4,191.7c2-1.7,4.1-3.4,6.1-5.2c-0.3-1.4-0.6-2.9-1-4.3l0,0c0.5-0.4,1-0.9,1.6-1.3l0,0
		c1.5-0.8,2.9-1.7,4.4-2.5c1.4,0.6,2.8,1.2,4.1,1.8l0,0c-0.5,0.4-1,0.9-1.5,1.3c0.6,1.7,1.3,3.3,2.2,5.8c-2.8,0.6-5.3,1.1-7.7,1.6
		c-1.2,2.3,4.4,2.2,1.4,4.9c-5.5-1.6-7.4,3-10.3,6c-1-0.5-2-1-2.6-1.3C227.3,196.2,228.4,194,229.4,191.7z"/>
	<path id="XMLID_2340_" class="st79" d="M229.1,163.2c1-0.9,2.1-1.7,3.1-2.6c0,1.2-0.1,3.5,0.1,3.5c4.4,0.7,3.7,4.9,5.8,7.2
		c-0.3,0.4-0.6,0.8-1,1.3c-3.3-1.7-6.5-3.5-9.8-5.2l0,0C228.3,166.1,230.5,165.5,229.1,163.2z"/>
	<path id="XMLID_2339_" class="st81" d="M257.6,147.2c0.9,0.5,1.8,1.1,2.7,1.6c6.6,1.4,13.2,2.8,19.1,4c2,2.4,3.8,4.6,5.6,6.7
		c-2-0.5-4.1-1.2-6.1-1.4c-2.7-0.2-5.4,0.1-8,0.1l0,0c-1.7-1.1-3.9-1.8-5.1-3.3c-2.3-2.8-5.2-3.5-8.5-3.6l0,0
		c-0.4-0.5-0.9-1-1.3-1.5c0-0.5,0-0.9,0.1-1.4l0.1-0.1C256.6,148,257.1,147.6,257.6,147.2z"/>
	<path id="XMLID_2338_" class="st82" d="M270.9,158.3c2.7-0.1,5.4-0.3,8-0.1c2.1,0.2,4.1,0.9,6.1,1.4c1.4,0.1,2.8,0.3,4.2,0.4
		c0.4,1.4,0.8,2.9-1.5,2.6c-2.5-0.3-4.7-0.1-6,2.4C277.3,164,273,162.9,270.9,158.3z"/>
	<path id="XMLID_2337_" class="st83" d="M277.4,100.4c1.7,2.7,3.3,5.4,5.2,8.5c-0.2,2.4-0.5,5.4-0.8,8.6c1.4,0.4,3.1,0.9,6.5,1.9
		c-2.2,1.5-3.2,2.2-4.3,2.9c0.2-0.8,0.4-1.7,0.6-2.5c-3.3-0.6-6.1-1.1-10.3-1.8c2.3-1.8,3.3-2.6,5.5-4.4c-7.3-2.7-13.8-3.7-20.3-4.8
		c0.6-0.9,1.1-1.8,1.7-2.7c0.2,0.1,0.4,0.3,0.6,0.4c-0.2-0.1-0.4-0.2-0.6-0.4c0-1.6,0-3.1,0-5.7c3,0.3,5.5,0.7,8,0.6
		c2.2,0,4.5-0.5,6.7-0.8C276.4,100.3,276.9,100.3,277.4,100.4L277.4,100.4z"/>
	<path id="XMLID_2336_" class="st84" d="M259.5,108.8c6.5,1.2,13,2.1,20.3,4.8c-2.2,1.7-3.3,2.6-5.5,4.4c4.2,0.7,7.1,1.2,10.3,1.8
		c-0.2,0.9-0.4,1.7-0.6,2.5c-0.5,0-0.9-0.1-1.4-0.1c-3.2,0.2-6.5,0.6-9.7,0.4c-3-0.2-5.9-1.1-8.9-1.4c-2.7-0.3-5.4-0.2-8.2-0.3
		c0-0.9,0-1.7,0-2.6c2.5-1,5.1-2,8.4-3.2c-2.9-1.1-5-1.8-7.4-2.7C257.9,111,258.7,109.9,259.5,108.8z"/>
	<path id="XMLID_2335_" class="st55" d="M263.4,180.5c0.4,0.4,0.8,0.9,1.2,1.3C264.1,181.4,263.8,180.9,263.4,180.5z"/>
	<path id="XMLID_2334_" class="st72" d="M282,292c0.6-1.4,1.2-2.8,1.8-4.1c0,0.9-0.1,1.9-0.1,3.2c4.1,0.4,8.2,0.5,12.2,1.2
		c2.7,0.5,5.3,1.8,8,2.8c-0.1,0.5-0.3,0.9-0.4,1.4c-1.1,0-2.2,0.1-3.3,0.1c-0.4-0.1-0.9-0.1-1.3-0.1c-1.6-0.2-3.2-0.4-4.8-0.5
		c-5-0.1-5.9,1-5.8,6.6l0,0c-1.7-0.7-2.7-3.7-5.4-1.8C282.5,297.8,282.3,294.9,282,292z"/>
	<path id="XMLID_2333_" class="st72" d="M283.8,287.9c0.1-0.9,0.1-1.8,0.2-2.7c0.5,0,1,0,1.5,0l0,0c0.9,0.1,1.9,0.2,2.8,0.3l0.7,0
		l0.7,0.1c0.3,1.5,0.7,2.9-1.7,2.7C286.6,288.1,285.2,288,283.8,287.9z"/>
	<path id="XMLID_2332_" class="st5" d="M279.2,394.3c-0.1-0.9-0.2-1.8-0.3-2.7c0.4-0.1,0.8-0.2,1.2-0.3
		C279.8,392.3,279.5,393.3,279.2,394.3z"/>
	<path id="XMLID_2331_" class="st5" d="M286.4,405c0.1-0.2,0.3-0.4,0.4-0.5c-0.1,0.2-0.2,0.4-0.3,0.6L286.4,405z"/>
	<path id="XMLID_2330_" class="st85" d="M227.3,167.3c3.3,1.7,6.5,3.5,9.8,5.2c0.3-0.4,0.6-0.8,1-1.3c-2.1-2.3-1.4-6.4-5.8-7.2
		c-0.2,0-0.1-2.3-0.1-3.5c1.6,0,3.2,0,5.2,0c-0.5-1.7-0.9-2.9-1.4-4.6c1.3-0.2,2.6-0.3,3.8-0.4c-0.6,4.3,5.7,1.9,5.7,6.1
		c-1.3,0.7-2.7,1.5-5.7,3.1c3.7,0.7,5.6,1.1,7.6,1.4l0,0c-0.1,0.5-0.1,0.9-0.1,1.4c-3.1,2.5-6.2,4.9-9.3,7.4
		c1.2,1.6,1.9,2.5,2.6,3.4c-1.5,0.8-2.9,1.7-4.4,2.5c-2.8-1.5-5.6-3-8.9-4.9c-0.6-1.2,3.7-3.2,0.2-5.2
		C226.9,170.6,227.3,168.6,227.3,167.3z"/>
	<path id="XMLID_2329_" class="st69" d="M247.3,166.2c-2-0.4-3.9-0.7-7.6-1.4c3-1.6,4.4-2.4,5.7-3.1c-0.1-4.2-6.3-1.8-5.7-6.1
		c1.4,0.1,2.8,0.2,4.6,0.4c0.2-1.8,0.3-3.3,0.4-4.8c1.9-0.7,3.6-1.3,5.4-1.9l0.1,0.1c0.7,2,1.4,3.9,2.2,6.2
		c-1.9,0.7-3.5,1.4-4.3,1.7c-0.3,2.2-0.6,3.9-0.8,5.7C247.3,164,247.3,165.1,247.3,166.2z"/>
	<path id="XMLID_2328_" class="st86" d="M278.8,246.1c0.2,0.4,0.2,0.9,0.1,1.3C278.8,247,278.8,246.6,278.8,246.1z"/>
	<path id="XMLID_2327_" class="st10" d="M277.4,100.4c-0.5,0-1-0.1-1.5-0.1c-0.9-0.1-1.8-0.2-2.8-0.3c-1.6-3.6-2.5-3.9-7-2.1
		c-2.4,0.3-4.8,0.6-7.2,0.8l0,0c-0.3-1.1-0.5-2.1-0.9-3.6c7.9-0.6,15.2-2.7,22.6-0.1C279.6,96.8,278.5,98.6,277.4,100.4z"/>
	<path id="XMLID_2326_" class="st87" d="M270.9,158.3c2.2,4.6,6.5,5.7,10.8,6.7l0,0c0.4,0.5,0.9,1,1.3,1.5c3.1-2,5.7-0.3,9.6,1.9
		c-4.6,0.6-7.9,1-11.7,1.5c0,0.5,0.1,1.3,0.2,2.2c-7.1-1.1-14.1-2.2-21.2-3.2c0.1-1,0.2-1.9,0.3-2.9c3.5-0.2,7.4,2.3,10.1-1.9
		C270.5,162.1,270.7,160.2,270.9,158.3L270.9,158.3z"/>
	<path id="XMLID_2325_" class="st3" d="M289.5,174.2c-0.9-0.5-1.8-1.1-2.7-1.6C287.7,173.1,288.6,173.6,289.5,174.2z"/>
	<path id="XMLID_2324_" class="st82" d="M283,166.5c-0.4-0.5-0.9-1-1.3-1.5C282.1,165.5,282.6,166,283,166.5z"/>
	<path id="XMLID_2323_" class="st3" d="M299.2,176.5c0.2,0.1,0.4,0.2,0.6,0.4C299.6,176.7,299.4,176.6,299.2,176.5L299.2,176.5z"/>
	<path id="XMLID_2322_" class="st88" d="M293.8,352.9c-1.2-0.3-2.4-0.6-4.1-1.1C293.8,349.7,293.8,349.7,293.8,352.9L293.8,352.9z"
		/>
	<path id="XMLID_2321_" class="st89" d="M270.4,164c-2.7,4.2-6.7,1.8-10.1,1.9c-1.6-4.3-4.6-2.3-7.3-1.6c-0.2,0,0.1,1.6,0.1,2.4
		c-0.9,2.4-1.7,4.8-2.7,7.5c-1.7,0.6-3.7,1.3-5,1.8c-0.3,1.7-0.5,3-0.7,4.3c-1.4-0.6-2.8-1.2-4.1-1.8c-0.7-0.9-1.4-1.8-2.6-3.4
		c3.1-2.5,6.2-5,9.3-7.4c0.2-0.1,0.6-0.3,0.6-0.3c-0.1-0.4-0.3-0.7-0.5-1l0,0c0-1.1,0-2.2,0.1-3.3c0.2-1.7,0.5-3.5,0.8-5.7
		c0.8-0.3,2.4-0.9,4.3-1.7c-0.8-2.3-1.5-4.3-2.2-6.2c2.2-2,1.9-3.5-1-4.5c0-0.3,0-0.6,0-0.9c0.5-0.2,0.9-0.4,1.4-0.6
		c1.8,1.7,3.5,3.3,5.3,5c0,0.5,0,0.9-0.1,1.4c0.4,0.5,0.9,1,1.3,1.5c0,0,0,0,0,0c-0.3,2.3,0,3.9,2.8,4.7c2,0.6,3.7,2.5,5.4,3.9
		c0.1,0.1-0.2,0.8-0.3,1.6c-0.9-0.3-1.7-0.6-2.5-0.8c-0.8-0.1-1.6-0.1-3.1-0.1C264.2,164.1,264.2,164.1,270.4,164z"/>
	<path id="XMLID_2320_" class="st57" d="M240.2,105.7c0.3,0.4,0.6,0.8,0.9,1.2C240.8,106.5,240.5,106.1,240.2,105.7z"/>
	<path id="XMLID_2319_" class="st89" d="M243.2,181.6c0.5-0.4,1-0.9,1.5-1.3C244.2,180.7,243.7,181.1,243.2,181.6z"/>
	<path id="XMLID_2318_" class="st12" d="M285.5,285.1c-0.5,0-1,0-1.5,0c-2.8-0.5-2.6-2.5-2.4-4.6C282.9,282,284.2,283.6,285.5,285.1
		z"/>
	<path id="XMLID_2317_" class="st12" d="M288.3,285.4c-0.9-0.1-1.9-0.2-2.8-0.3C286.4,285.2,287.4,285.3,288.3,285.4z"/>
	<path id="XMLID_2316_" class="st90" d="M230.9,93.5c-1.3,0.7-2.7,2-4,1.8c-4.8-0.5-9.7-1.4-14.5-2.1c1.9-1.4,4.3-2.4,5.5-4.2
		c2.5-3.5,5.7-3.7,9.3-3c0.4,0.5,0.9,1,1.3,1.5c-0.1,0.5-0.1,0.9-0.2,1.4l0,0c-2.3,0.1-5-1.2-6.6,2.1
		C224.4,93.9,227.9,92.8,230.9,93.5L230.9,93.5z"/>
	<path id="XMLID_2315_" class="st78" d="M230.9,93.4c-3-0.6-6.4,0.4-9.1-2.5c1.6-3.3,4.3-2,6.6-2.1
		C229.2,90.4,230.1,91.9,230.9,93.4z"/>
	<path id="XMLID_2314_" class="st78" d="M228.4,88.9c0-0.5,0.1-0.9,0.2-1.4C228.5,88,228.5,88.5,228.4,88.9z"/>
	<path id="XMLID_2313_" class="st66" d="M270.2,345.1c-0.1-3.4-1.1-6.1-5.2-6.2c2.4-2.9,4.9-5.7,9.5-3.1
		C274.6,339.7,275.1,343.6,270.2,345.1z"/>
	<path id="XMLID_2312_" class="st74" d="M288.2,302.5c-0.1-5.6,0.8-6.7,5.8-6.6c1.6,0,3.2,0.3,4.8,0.5c-0.2,2.3-0.5,4.6-0.7,6.9
		c-2-0.5-4.3-0.6-5.8-1.7C290.1,299.9,289.5,302.2,288.2,302.5z"/>
	<path id="XMLID_2311_" class="st74" d="M282.8,300.7c2.6-1.9,3.6,1.1,5.4,1.8c-0.6,1.4-1.2,2.8-1.8,4.2c-1.2-1.6-2.5-3.1-3.7-4.7
		C282.7,301.5,282.7,301.1,282.8,300.7z"/>
	<path id="XMLID_2310_" class="st91" d="M259,98.8c2.4-0.3,4.8-0.6,7.2-0.8c2.3,0.7,4.6,1.4,7,2.1c0.9,0.1,1.8,0.2,2.8,0.3
		c-2.2,0.3-4.5,0.7-6.7,0.8c-2.5,0-5-0.4-8-0.6c0,2.6,0,4.1,0,5.7l0,0c-0.6,0.9-1.1,1.8-1.7,2.7c-0.8,1.1-1.6,2.2-2.7,3.7
		c2.4,0.9,4.4,1.6,7.4,2.7c-3.3,1.3-5.8,2.3-8.4,3.2c-1.8-1.1-3.6-2.2-5.5-3.4c0.3-1.1,0.5-2.2,0.8-3.5c-1.6-0.7-3.3-1.4-5.2-2.3
		c2.1-3.8,5.9-1.9,9-3.2c-2.9-3.6-9.1-0.4-10.3-5.7c3.3,0,6.6-0.4,9.8,0.2C256.8,101,257.9,100.4,259,98.8z"/>
	<path id="XMLID_2309_" class="st65" d="M262,346.4c1.9,0.2,3.9,0.3,6.1,0.5C265.7,350.4,265.7,350.4,262,346.4z"/>
	<path id="XMLID_2308_" class="st8" d="M257.6,147.2c-0.5,0.4-1,0.8-1.5,1.2C256.6,148,257.1,147.6,257.6,147.2z"/>
	<path id="XMLID_2307_" class="st85" d="M234.6,182.2c0.3,1.4,0.6,2.9,1,4.3C234.2,185.4,231.7,184.4,234.6,182.2z"/>
	<path id="XMLID_2306_" class="st85" d="M236.1,181c-0.5,0.4-1,0.9-1.6,1.3C235.1,181.8,235.6,181.4,236.1,181z"/>
	<path id="XMLID_2305_" class="st82" d="M270.4,164c-6.2,0.1-6.2,0.1-10.8-3.2c1.5,0,2.3-0.1,3.1,0.1c0.8,0.1,1.7,0.5,2.5,0.8
		c0.2-0.8,0.5-1.5,0.3-1.6c-1.8-1.4-3.4-3.3-5.4-3.9c-2.8-0.8-3.2-2.4-2.8-4.7c3.3,0.1,6.2,0.8,8.5,3.6c1.2,1.5,3.4,2.2,5.1,3.3
		C270.7,160.2,270.5,162.1,270.4,164z"/>
	<path id="XMLID_2304_" class="st82" d="M257.2,151.4c-0.4-0.5-0.9-1-1.3-1.5C256.4,150.4,256.8,150.9,257.2,151.4z"/>
	<path id="XMLID_2303_" class="st91" d="M261.2,106.1c0.2,0.1,0.4,0.2,0.6,0.4C261.6,106.3,261.4,106.2,261.2,106.1L261.2,106.1z"/>
	<path id="XMLID_2302_" class="st69" d="M247.4,166.3c0.2,0.3,0.4,0.7,0.5,1c0,0.1-0.4,0.2-0.6,0.3
		C247.3,167.2,247.3,166.7,247.4,166.3z"/>
	<path id="XMLID_2301_" class="st83" d="M273.1,100c-2.3-0.7-4.6-1.4-7-2.1C270.6,96.1,271.5,96.3,273.1,100z"/>
</g>
</svg>
