<?xml version="1.0" encoding="utf-8"?>
<!-- Generator: Adobe Illustrator 19.0.0, SVG Export Plug-In . SVG Version: 6.00 Build 0)  -->
<svg version="1.1" id="Layer_1" xmlns="http://www.w3.org/2000/svg" xmlns:xlink="http://www.w3.org/1999/xlink" x="0px" y="0px"
	 viewBox="0 0 500 500" style="enable-background:new 0 0 500 500;" xml:space="preserve">
<style type="text/css">
	.st0{fill:#698471;}
	.st1{fill:#76947C;}
	.st2{fill:#5F7D66;}
	.st3{fill:#698874;}
	.st4{fill:#A79C97;}
	.st5{fill:#65826F;}
	.st6{fill:#A79D99;}
	.st7{fill:#8DA28F;}
	.st8{fill:#778E7A;}
	.st9{fill:#BFCCB7;}
	.st10{fill:#A0B597;}
	.st11{fill:#89A388;}
	.st12{fill:#AEBFA6;}
	.st13{fill:#5A745F;}
	.st14{fill:#89A08A;}
	.st15{fill:#798D7C;}
	.st16{fill:#5F7C6C;}
	.st17{fill:#6A8972;}
	.st18{fill:#6A8670;}
	.st19{fill:#57705E;}
	.st20{fill:#576658;}
	.st21{fill:#7B967E;}
	.st22{fill:#849F80;}
	.st23{fill:#B6C3AC;}
	.st24{fill:#627967;}
	.st25{fill:#5D7A67;}
	.st26{fill:#9CB395;}
	.st27{fill:#9CAD95;}
	.st28{fill:#5B7562;}
	.st29{fill:#6F8273;}
	.st30{fill:#6E8779;}
	.st31{fill:#BDCAB6;}
	.st32{fill:#B1A6A0;}
	.st33{fill:#546856;}
	.st34{fill:#657366;}
	.st35{fill:#8AA18B;}
	.st36{fill:#556C5F;}
	.st37{fill:#C0CAB7;}
	.st38{fill:#7D9780;}
	.st39{fill:#A9BCA1;}
	.st40{fill:#748C7A;}
	.st41{fill:#758B7B;}
	.st42{fill:#6A8872;}
	.st43{fill:#AFBFA6;}
	.st44{fill:#586E60;}
	.st45{fill:#6A7A6D;}
	.st46{fill:#839A88;}
	.st47{fill:#7E9281;}
	.st48{fill:#7B907D;}
	.st49{fill:#91A88D;}
	.st50{fill:#90A794;}
	.st51{fill:#7D9380;}
	.st52{fill:#4F5C4E;}
	.st53{fill:#95AA96;}
	.st54{fill:#62725F;}
	.st55{fill:#8EA28D;}
	.st56{fill:#978D86;}
	.st57{fill:#687F6D;}
	.st58{fill:#7A8E7D;}
	.st59{fill:#5D6C5F;}
	.st60{fill:#889E84;}
	.st61{fill:#616D5F;}
	.st62{fill:#717E6E;}
	.st63{fill:#4D564C;}
	.st64{fill:#7F8C7C;}
	.st65{fill:#67715F;}
	.st66{fill:#5F6D5E;}
	.st67{fill:#788776;}
	.st68{fill:#636E5B;}
	.st69{fill:#5C7A66;}
	.st70{fill:#7E967D;}
	.st71{fill:#637F6B;}
	.st72{fill:#4B6A53;}
	.st73{fill:#64826F;}
	.st74{fill:#5C745F;}
	.st75{fill:#607863;}
	.st76{fill:#8CA888;}
	.st77{fill:#829C80;}
	.st78{fill:#6A856B;}
	.st79{fill:#56715A;}
	.st80{fill:#567058;}
	.st81{fill:#678571;}
	.st82{fill:#60816E;}
	.st83{fill:#597561;}
	.st84{fill:#819D81;}
	.st85{fill:#A7BA9D;}
	.st86{fill:#97B18E;}
	.st87{fill:#94AF8F;}
	.st88{fill:#637C69;}
	.st89{fill:#8FA884;}
	.st90{fill:#5D7962;}
	.st91{fill:#547663;}
	.st92{fill:#486A56;}
	.st93{fill:#52715E;}
	.st94{fill:#5F7E6E;}
	.st95{fill:#617E64;}
	.st96{fill:#749177;}
	.st97{fill:#78927B;}
	.st98{fill:#668467;}
	.st99{fill:#718F78;}
	.st100{fill:#738E76;}
	.st101{fill:#8BA888;}
	.st102{fill:#7D9B7E;}
	.st103{fill:#658272;}
	.st104{fill:#5E7B6B;}
	.st105{fill:#728E77;}
	.st106{fill:#99B290;}
	.st107{fill:#8FA885;}
	.st108{fill:#62816C;}
	.st109{fill:#65826B;}
	.st110{fill:#64806B;}
	.st111{fill:#728B73;}
	.st112{fill:#6B8970;}
	.st113{fill:#6B8578;}
	.st114{fill:#5C7864;}
	.st115{fill:#637A62;}
	.st116{fill:#607C5B;}
	.st117{fill:#99A699;}
</style>
<g id="XMLID_1772_">
	<path id="XMLID_2020_" class="st0" d="M232.8,370.5c1.6-1.4,3.1-3,4.3-4.3c5.2,1.9,10.1,3.7,15.1,5.5c6.6,3,12.6,7.6,20.7,9.7
		c-2-6-7.1-4.8-10.2-6.9c-3.4-2.3-6.9-4.4-10.4-6.7c-2.1,0-4.3-0.1-6.9-0.1c-3.9-4.5,0.8-7,2.9-10.1c2.3-3.3,5.2-2.4,8.1-0.8
		c2.4,1.3,4.8,2.6,7.8,4.1c0.5-5.9-6.1-5-6.9-10c2.9-2.2,6.3-4.8,9.7-7.4l0,0c-0.5,1.9-1.9,4.1-1.3,5.6c1.1,2.8,2.8,6.6,5.2,7.5
		c8.4,3.2,17.3,5.2,23.6,12.4c0.7,0.8,2.6,0.5,4,0.6c0.2,0.7,0.5,1.5,0.7,2.2c-1.4,0.5-2.9,1.6-4.2,1.3c-2.3-0.5-4.4-1.9-7.5-2.1
		c1.4,2,2.8,3.9,4.2,6c-2.4,1.4-4.7,2.8-7,4.1c-4.4,1.9-8.7,3.9-13.1,5.5c-3.3,1.2-6.8,1.8-10.1,3c-1.9,0.7-3.6,1.9-5.4,2.8
		c-4.2-2.2-8.3-4.4-12.5-6.6c-0.5,0.5-0.9,0.9-1.4,1.4c0.8,2.1,1.6,4.3,2.4,6.4c-2.1,2-6.6-4.7-7.3,2.1c-1,0.7-2,1.5-3,2.2
		c-1.7-4.6-5.7-4.6-9.5-4.7c-4.3,0-6.5-2.1-7.2-6c3.2-3.1,6.1-6.1,9.1-9.1c-0.2-0.4-0.5-0.8-0.7-1.3c-1.9,0.8-3.8,1.6-5.7,2.4
		c-0.1-0.1-0.2-0.4-0.2-0.6c0.1-0.5,0.2-1.1,0.4-1.6c3.3-2.6,6.5-5.3,9.8-7.9C231.3,369.9,232.6,370.8,232.8,370.5z M265.1,387.2
		c-4.4-6.1-6.6-7.3-13.7-7.2C255.6,382.1,259.7,384.3,265.1,387.2z M250.5,360.9c2.8,2.1,5.7,4.2,8.5,6.3
		C258.1,362.2,253.9,362.1,250.5,360.9z M245.5,377c-1.8-5.5-4.9-5.7-10-5.3C239.4,373.9,241.9,375.2,245.5,377z M274.9,374.1
		c0.2-0.3,0.4-0.6,0.6-1c-3.2-2-6.3-4-9.5-6c-0.3,0.6-0.6,1.2-1,1.8C268.4,370.6,271.6,372.3,274.9,374.1z"/>
	<path id="XMLID_2017_" class="st1" d="M165,201.3c7.3,5.5,14.6,11.1,22.9,17.4c-2.6,0-4.3,0-6.1,0c-0.3,1.9-0.7,4-1,6
		c-1.3-0.5-2.5-1.1-3.8-1.3c-0.6-0.1-1.3,0.5-2.8,1.1c4.1,2.2,7.5,4,11.3,6c-0.6-1.5-1.2-2.8-1.8-4.2c5.4-3.2,8.4,0.9,13.2,3.8
		c-2.8,1.2-4.6,2-7,3c1.8,2.1,3.2,3.6,4.8,5.3c-2.8,4.7-2.1,8.5,4.3,10.9c-2.2,0.5-3.4,0.8-5.2,1.3c1,1.8,1.9,3.4,2.8,5
		c0.8,0.9,1.6,2.7,2.4,2.7c4.6,0,7.1,3.3,10.1,5.7c0.2,3.3,0.3,6.5,0.5,9.8l-0.2,0c-4.4-1.3-9.8,0.8-13.7-4.8
		c2.5-0.3,4.4-0.5,7.9-0.8c-4.3-2-6.9-3.2-9.5-4.4c-3.8-2.1-7.6-3.4-7.3-9.6c0.1-2.6-4.3-6.2-7.5-8c-3.9-2.3-8.6-3.2-13-4.7
		c0.7-0.9,1.5-2.8,2-2.7c4.2,0.5,8.8-0.2,12,4c1.6,2.1,4.2,2.7,6.9-0.3c-6.2-4-13.3-7-15.4-15l0,0c-2.1-2.3-4.2-4.6-7.2-7.7
		c3.7-0.2,6.2-0.4,9.6-0.6c-4.9-4.5-9.3-8.6-13.7-12.8c0.8-1.5,1.6-3,2.4-4.4C163.6,201.7,164.3,201.5,165,201.3z M164.9,205.4
		c-0.2-0.1-0.5-0.1-0.7-0.1c0,0.2-0.1,0.6-0.1,0.6c0.2,0.1,0.5,0.1,0.7,0.1C164.8,205.8,164.9,205.5,164.9,205.4z"/>
	<path id="XMLID_2014_" class="st2" d="M156.9,362.5c8,2.7,15.6,5.6,22.1,11.3c2.4,2.2,6.3,2.7,9.5,4c-1,2-2,3.9-3,5.9
		c-0.3,0.5-0.5,0.9-0.8,1.4c-1.2,0-2.4,0-3.7,0c-1-1.2-1.9-2.7-3.2-3.5c-5.5-3.1-11.1-6.1-16.8-8.9c-2-1-4.4-1.3-7-1
		c8.9,4.7,16.5,11.9,26.9,13.3c0.7,1,1.4,2,2.1,3c-1.3,2.5-2.5,4.9-3.8,7.4c-2.3,0.7-4.6,1.4-6.9,2.1c-5.3-2.5-5.3-2.3-14.4-1
		c-3.3,0.5-4.7-2.3-5.2-5.1c-0.6-3.7-0.7-7.5-1.4-11.2c-0.5-2.3-1.7-4.4-2.7-6.5c-0.5-4.7-1.1-9.4-1.6-14.2
		C151.1,358.3,153.7,361.4,156.9,362.5z M178.9,390.9c-8.7-4.6-16.1-8.5-23.5-12.4C156,385.9,167.3,392.5,178.9,390.9z"/>
	<path id="XMLID_2013_" class="st3" d="M315.7,297.8c-0.4,0.2-0.7,0.5-0.8,0.9c2.5,2.9,5,5.7,8,9.1c-5.4,1.5-10.5,2.9-14.6,4
		c-1.4,2.4-2.5,4.1-3.5,6c-0.6,1.1-1,2.4-1.6,3.5c2.6,1.1,4.3,2.9,4.5,5.9c0.1,1.1,1.3,2.1,2,3.2c4.8,1.6,9.6,3.2,15,5
		c-1.9-3.4-3-6.7-7.3-7.3c-2.8-0.4-4.2-2.2-2.9-5.8c3.5,1.1,7,4.7,11.5,0.3c-3.8-2.4-7.2-4.5-10.9-6.8c6.9-0.5,11.6,1.6,17.2,7.7
		c6.8,2.9,13.5,6,20.4,8.6c1.5,0.6,3.5-0.4,5.3-0.7c-0.4-0.3-0.8-0.5-1.3-0.7c-5.4-3.1-11.9-3.8-16.4-8.7c-2.3-2.5-5.1-4.4-7.7-6.6
		c0.2-0.4,0.3-0.8,0.5-1.1c2.2,0.6,4.4,1.3,6.7,1.9c2.3,0.5,4.5,1.1,6.8,1.6l0,0c-1.2-1.3-2.4-2.5-3.6-3.8l0,0c-0.7-1-1.4-2-2.2-3
		l0,0c0.3-0.5,0.5-1,0.8-1.5h0c0.5-1,1.1-2,1.6-3c-0.9-0.8-1.7-2-2.7-2.2c-2.8-0.5-3.3-2.3-3.2-4.6c1.6-1.2,2.8-2.5,0.1-3.8
		c-2.3,0.8-4.5,1.7-6.8,2.5c-0.1,2.4-0.2,4.7-0.3,7.1C323.1,304.1,322.1,303.6,315.7,297.8z"/>
	<path id="XMLID_2012_" class="st4" d="M228.6,327.2c-1.5,2.6-3.1,5.2-4.5,7.9c-12,23.3-25.5,45.8-40.7,67.1
		c-0.8,1.1-1.4,2.4-2.2,3.5c2.8-0.4,5.5-0.9,8.3-1.3c3.5-3.1,7.1-6.3,10.6-9.4c-1.3-5.4,3.1-8.5,5.2-12.4c4.4-8.3,9.8-16,14.4-24.3
		c5.1-9.2,9.8-18.7,14.7-28.1C232.5,329.3,230.5,328.3,228.6,327.2z"/>
	<path id="XMLID_2011_" class="st5" d="M357.5,261.4c-0.9,0.8-1.9,1.5-2.8,2.3c-0.6,1.6-0.8,3.4-1.8,4.7c-1.5,1.8-3.5,3.2-5.3,4.8
		c1.6,1.5,3.2,3,4.3,4c-2.2,3.6-3.8,6.1-5.3,8.7c1.7-0.5,3.4-1,6-1.8c4.6,2.7,7.1,7.6,6.4,14.1c1,0.5,2,1.1,2.9,1.6
		c1.1-0.6,2.5-1.9,3.4-1.6c5.6,2,11.1,4.3,16.7,6.5c0.7-0.2,1.5-0.5,2.2-0.7c-1.7-1.6-3.4-3.1-5.1-4.7c-8.2-0.8-13.1-6.7-20-12.1
		c4.8-0.8,7.3,0.3,10,2.6c2.8,2.5,6.4,4.6,12.3,2c-7.1-2.6-12.1-5.6-15.4-10.9c2.8,0.7,5.3,2.1,7.8,3.3c2.1,1,4.2,1.7,6.4,2.5
		c-1.2-1.3-2.4-2.5-3.7-3.8c-2.3-2.1-4.3-5.1-7-6c-5.2-1.7-8.5-5.2-12.5-9c9.1-0.7,9.3-0.5,14.1,4.7c1.8,2,4.2,3.4,6.3,5
		c0-1.2,0-2.5,0-3.7c-4.3-5.5-10.4-8.2-16.7-10.5C359.6,262.8,358.6,262,357.5,261.4z"/>
	<path id="XMLID_2010_" class="st6" d="M147.5,444.8c-7.6,7.2-15.2,14.4-22.7,21.5c-1.8,3.9,2,2.9,3.5,4c9-7.6,18.6-14.6,26.7-23
		c10.5-10.8,19.8-22.7,29.7-34.1c-2-1.7-4-3.4-6-5c-2,2.2-3.9,4.4-5.9,6.6c-4.3,7.1-8.8,14.2-13,21.5
		C157.5,440.1,152.2,444,147.5,444.8z"/>
	<path id="XMLID_2009_" class="st7" d="M319.4,154.6c0.5-3,1.1-6,1.6-9.1c-1.8-0.9-3.5-1.9-5.5-2.9c-1.1,0.6-2.5,1.4-3.9,2.1
		c-0.5-0.3-1-0.5-1.4-0.8c0.2-0.5,0.5-1,0.7-1.5c-1-0.5-2-1-2.9-1.5c-0.3,1.7-0.6,3.5-0.8,5c-3.8-0.6-7.1-1.1-10.3-1.6
		c3.8,2.9,7.6,5.8,12.3,9.3c-3.1,1.5-5,2.4-7.8,3.8c3.9,2.6,7,4.6,10.3,6.8c-1.9,1.8-4.6,3.1-4.7,4.6c-0.3,4-3.4,4.6-5.7,6.2l0,0
		c0.2,0.8,0.5,1.5,0.7,2.3c-1.1,5.6-1.1,5.6,7.3,8.6c1.7-1.3,3.3-2.6,5-3.9c1.4-7,2.8-14,4.2-20.9c-2-1.6-3.9-3.2-6-4.9
		C315.4,155.6,317.4,155.1,319.4,154.6z"/>
	<path id="XMLID_2008_" class="st8" d="M303.3,321.4c0.5-1.2,1-2.4,1.6-3.5c1-1.8,2.1-3.6,3.5-6c4.1-1.1,9.2-2.5,14.6-4
		c-3-3.4-5.5-6.2-8-9.1c-0.5,0.2-1.2,0.2-1.5,0.5c-10.6,9.2-21.1,18.5-31.7,27.8c0.1,0.2,0.2,0.7,0.2,0.7c-0.4,0.2-0.8,0.4-1.2,0.6
		c-0.9,0.7-1.9,1.5-2.8,2.2c1.7,0.3,3.4,0.6,5.1,0.9c2.5,0.6,5.1,1.3,7.7,1.9c0.6,0.1,1.4-0.3,2.6-0.6c-1.3-1.7-2.4-3-4.4-5.6
		c5.8,1.4,10.3,2.4,15.1,3.5C303.6,326.7,303.5,324.1,303.3,321.4z"/>
	<path id="XMLID_2007_" class="st9" d="M323.6,100.2c-0.6-8.2-0.7-16.5-1.9-24.6c-1.2-8.7-3.2-17.3-5.4-25.8
		c-1.5-5.8-3.9-11.3-5.9-16.9c-1.2,1.2-2.5,2.4-3.7,3.6c0.9,5.5,1.7,11,2.6,16.5c2.9,1.4,4.8,3.2,4,7c-0.4,1.7-0.1,3.8,0.5,5.5
		c1.4,3.7,0.7,6.8-1.2,10c0.7,1.6,1.9,3.1,1.9,4.7c0.1,3.9-1.6,8.3-0.2,11.5c1.5,3.4,5.6,5.6,8.6,8.3
		C323.1,100,323.4,100.1,323.6,100.2z"/>
	<path id="XMLID_2006_" class="st10" d="M154.3,224.2c-1.2,4.9-2.4,9.9-3.6,14.8c0.8,1.6,2.8,4,2.3,4.6c-3,4.2,1.7,5.7,2.5,8.5
		c-3.6,4.6-3.9,9.5-2.3,15.2c0.9,3.2,1.4,8-0.3,10.1c-3.8,4.9-3.2,9.5-2,14.6c1-0.7,2-1.5,3.1-2.2c1.2-0.5,2.4-1,3.5-1.5
		c-0.8-2.2-1.5-4.1-2.5-7c3.7,1.7,6.4,2.8,9.7,4.3c-2.5-2.9-4.4-5-6.2-7.3c-0.6-0.8-1.2-2.7-1.1-2.8c4.7-2.5-0.2-5.5,0.3-9.1
		c3.8,1.4,7.1,2.6,10.4,3.8c-4.7-3.8-10.5-6.3-10.8-14.2c1.9,0.2,3.4,0.3,5,0.4c-1.1-2-2.3-4-3.5-6c1.8-0.7,3.1-1.2,5.2-2
		c-2.3-0.9-3.5-1.4-4.9-1.9c-0.5-7-0.9-13.9-1.4-20.8C156.6,225.2,155.5,224.7,154.3,224.2z"/>
	<path id="XMLID_2005_" class="st11" d="M154.3,224.2c1.1,0.5,2.3,1,3.4,1.5c1.8,1.6,3.7,3.1,5.3,4.5c-3.4,7.1-3.4,7.1,3.2,11.3
		l0.1-0.1c0.7-0.9,1.5-2.8,2-2.7c4.2,0.5,8.8-0.2,12,4c1.6,2.1,4.2,2.7,6.9-0.3c-6.2-4-13.3-7-15.4-15c-0.8,0.7-1.7,1.3-2.5,2
		c-0.2-0.4-0.4-0.8-0.6-1.1c1-0.3,2-0.5,3.1-0.8c-2.1-2.3-4.2-4.6-7.2-7.7c3.7-0.2,6.2-0.4,9.6-0.6c-4.9-4.5-9.3-8.6-13.7-12.8
		C158.4,212.3,156.4,218.2,154.3,224.2z"/>
	<path id="XMLID_2004_" class="st12" d="M151,291.9c-1.1-5.1-1.8-9.7,2-14.6c1.7-2.2,1.2-6.9,0.3-10.1c-1.6-5.6-1.3-10.5,2.3-15.2
		c-0.8-2.8-5.5-4.3-2.5-8.5c0.5-0.7-1.5-3-2.3-4.6c-1.2,7.8-2.8,15.6-3.5,23.4c-1.3,14.2-2.2,28.5-2.9,42.8c-0.2,3.5,0.9,7,1.4,10.5
		c1.8-1.6,3.6-3.1,5.2-4.5c-0.2-3.6-1.7-8.4-0.2-9.8C154.8,297.7,149,294.9,151,291.9z"/>
	<path id="XMLID_2003_" class="st13" d="M179.3,395.5c-2.3,0.7-4.6,1.4-6.9,2.1c-2.4,0.8-4.8,1.5-7.3,2.4c0.4,1,0.9,2.2,1.4,3.4
		c-6.2,5.8-7.9-6-13.5-3c-1.7,2.1,2.2,6.8-2.9,7.9c-0.2,1.3-0.3,2.5-0.5,3.8c0.7,0.1,1.9,0.2,2,0.4c0.4,4.1,0.7,8.1,1,12.2
		c1,0.5,2,1,3,1.6c0.5-0.9,0.9-2.6,1.4-2.6c8.1-0.2,8.1-0.2,10.5-8.5c-4.1-2.1-8.2-4.3-12.4-6.5c6.2-2,9.8,2.7,15,4.6
		c2.5-4.7,4.8-9.1,7.2-13.6c0.4,0.1,0.8,0.1,1.2,0.2c0.1,0.8,0.1,1.6,0.2,2.5c1.1-2.6,2.2-5.2,3.3-7.7
		C181,394.9,180.2,395.2,179.3,395.5z"/>
	<path id="XMLID_2002_" class="st14" d="M205.3,328.2c4.5-12.5,5.3-25.6,5.6-38.7c-1.1-0.5-2.1-1-3.2-1.5c-3-1.5-5.9-3.1-8.9-4.6
		c0,3.1-1.2,7.9,0.3,9.1c4.3,3.3-1.9,5.6,0.1,8.1c1.1,1.5,2.3,3.1,4.2,5.7c-2.4-1.1-3.3-1.5-4.3-2c-1,2-2.1,3.9-3.1,5.9
		c1.4,1.9,2.8,3.8,4.5,6c-2.3,1-3.9,1.6-6.4,2.7C198.3,322.2,201.8,325.2,205.3,328.2z"/>
	<path id="XMLID_2001_" class="st15" d="M237.5,328.1c8.2-3.6,14.3-10.1,19.5-16.9c7.3-9.5,13.5-19.9,20.2-29.9l-0.7-0.4l-0.7-0.4
		c-2-0.2-5.6-0.7-5.7-0.4c-1.4,6-7.3,7-10.9,10.6c-0.2,4.2-4.4,6.8-4.2,11.5c0,0.8-2.1,2.4-2.2,5c-0.1,2.4-2.6,5.1-4.6,7
		c-1,0.9-3.4,0.2-5.1,0.3C241.3,319,235.9,322.1,237.5,328.1z"/>
	<path id="XMLID_2000_" class="st16" d="M251.7,237.5c-0.3,2.5-0.6,5-0.9,7.6c2.6-1,2.4,1,2.7,2.5c0.8,3.3,0.9,7.1,4.9,8.6
		c0.3-0.5,0.5-1,0.8-1.4c0.8-4.1,1.5-8.1,2.5-12.1c0.1-0.3,1.5-0.3,2.3-0.5c2.9-5.3-3.8-6.4-4.9-10.9c2.5,1.3,4.4,2.3,6.4,3.4
		c4.3-5.4-1.3-6.1-4.9-9c3.7,0.2,5.9,0.2,7.9,0.3c1.1-3.1,1.9-5.7,2.8-8.2l0-0.1c-0.2-0.7-0.5-1.4-0.7-2.2l0,0
		c-0.2-0.7-0.5-1.5-0.7-2.2c-0.5-0.3-1-0.5-1.5-0.8c-0.7-1-1.4-2-2.2-3c-1.5-0.8-2.9-1.6-4.4-2.3c-0.4,2-0.8,4-1.3,6.6
		c1.6,1.6,3.7,3.9,6.3,6.6c-3.2-1-5.7-1.8-8.5-2.7c-0.9,4.9-1.3,9.2-2.5,13.3C255.2,233.3,253.1,235.4,251.7,237.5z"/>
	<path id="XMLID_1999_" class="st8" d="M346.6,285.7c1.6-2.6,3.1-5.1,5.3-8.7c-1.1-1-2.7-2.5-4.3-4l0,0c-2.1,2-3.9,4.8-7.5,3.6
		c-8.6,6.5-17.7,12.4-24.4,21.1c6.4,5.8,7.3,6.3,14.6,7.8c0.1-2.4,0.2-4.7,0.3-7.1c2.3-0.9,4.5-1.7,6.8-2.5
		c-3.7-6.9-1.4-10.2,7.7-11C345.6,285.3,346.1,285.5,346.6,285.7z"/>
	<path id="XMLID_1998_" class="st17" d="M147.2,359.7c3.9-1.4,6.5,1.8,9.7,2.8c8,2.7,15.6,5.6,22.1,11.3c2.4,2.2,6.3,2.7,9.5,4
		c1.3-3.7,2.7-7.5,4-11.2c-7.4-2.4-13.7-7.8-21.6-8.8c11.8,8.2,13.9,10.1,14.8,14.7c-6.5-6.8-17.2-6.6-23.3-14.2
		c1.7-1.7,2.9-2.9,4.5-4.6c-1.7-1.1-2.8-1.8-3.9-2.5c-2.3,0.5-4.9,1.9-6.8,1.2c-2.9-1-5.3-3.4-7.9-5.2c-0.4,0.5-0.8,1.1-1.2,1.6
		C147.2,352.4,147.2,356,147.2,359.7z"/>
	<path id="XMLID_1997_" class="st18" d="M377.4,273.8c0,1.2,0,2.5,0,3.7c2.5,1.3,4.9,2.6,7.4,3.9c0.7-0.2,1.5-0.4,2.2-0.6
		c0.5,0.3,1,0.5,1.4,0.8c0.2,0.7,0.5,1.5,0.7,2.2c-1.2,0-2.5,0-3.7,0c-0.7,0.2-1.5,0.4-2.2,0.7l0,0c-1.7-0.3-3.5-0.6-5.2-0.9
		c-0.5-0.3-1-0.5-1.5-0.7c1.2,1.3,2.4,2.5,3.7,3.8c1.2,1.2,2.4,2.5,3.6,3.7c-0.3,0.5-0.5,1-0.8,1.5c-0.3,0.5-0.5,1-0.8,1.5
		c0.2,0.7,0.5,1.5,0.7,2.2l0,0c1.1,3.7-0.4,4.7-3.8,3.6l0,0c1.7,1.6,3.4,3.1,5.1,4.7c0.5,0.2,1,0.4,1.5,0.6c1.1-1.9,2.1-3.7,3.2-5.6
		c0-1,0.3-2.2-0.2-3c-3.4-5.8-3.4-5.7,1.1-9.9c1.2-1.1,1.6-2.9,2.4-4.4c-0.7-2.2-1.4-4.5-2.1-6.7v0c-4.1-2.5-4.2-2.5-1.4-4.5
		c0.5,0.2,1,0.5,1.5,0.7c1.2,0,2.5,0.1,3.7,0.1c-0.2-1.2,0.1-3-0.6-3.6c-3.3-2.8-6.8-5.2-10.3-7.8l-0.2,0c0.7,1.5,1.4,3,2.2,4.9
		c-6.7,0.7-10.9-6.7-17.9-4.4c7.2,4.7,11.2,12.2,19.2,14.5c0.1,0.2,0.4,0.6,0.4,0.7c-0.3,0.3-0.7,0.5-1.1,0.8l0,0
		c-1.2-0.1-2.5-0.1-3.7-0.2c-0.9-0.5-1.9-1-2.8-1.5C378.5,274.3,378,274.1,377.4,273.8L377.4,273.8z"/>
	<path id="XMLID_1996_" class="st19" d="M358.1,331.5c-1.8,0.3-3.8,1.2-5.3,0.7c-6.9-2.6-13.6-5.7-20.4-8.6
		c-1.4,0.6-2.8,1.2-5.2,2.2c8.3,4.5,18.5,3.4,23.3,13.6c-7.8-2.7-14.7-5.1-21.5-7.5c-0.2,0.5-0.4,0.9-0.5,1.4
		c5.2,2.8,10.4,5.5,16.8,8.9c-5.5,3.9-10.2,7.2-14.9,10.4c-0.3,0.5-0.5,1-0.8,1.4c-0.8,1.5-1.6,2.9-2.4,4.4c1.1-0.6,2.1-1.3,3.2-1.9
		c0.6-0.3,1.2-0.7,1.7-1c10.6-8.4,21.3-16.6,31.6-25.4c4.6-3.9,8.2-8.8,12.3-13.3c0.5-1.1,1.1-2.2,1.6-3.4l0-0.1
		c-2.2,1.9-4.4,3.7-6.6,5.6c-2.4,2-4.7,4.1-7.1,6.1C361.8,327.2,359.9,329.3,358.1,331.5z"/>
	<path id="XMLID_1995_" class="st20" d="M178.6,402.4c-0.1-0.8-0.1-1.6-0.2-2.5c-0.4-0.1-0.8-0.1-1.2-0.2c-2.4,4.5-4.7,8.9-7.2,13.6
		c-5.3-1.9-8.8-6.6-15-4.6c4.2,2.2,8.3,4.4,12.4,6.5c-2.4,8.3-2.4,8.3-10.5,8.5c-0.5,0-0.9,1.7-1.4,2.6c1.2,2,2.4,4,3.9,6.4
		c-7.7,0.4-7.9,0.2-6.8-8c-0.3-4.1-0.6-8.2-1-12.2c0-0.2-1.3-0.3-2-0.4c-0.1,6.3-0.9,12.6,0,18.7c0.6,4.5-0.7,8-2.2,11.8
		c0,0.7,0.1,1.4,0.1,2.1l0,0.1c4.7-0.8,10.1-4.7,12.4-8.7c4.2-7.2,8.6-14.3,13-21.5C174.8,410.6,176.7,406.5,178.6,402.4z"/>
	<path id="XMLID_1994_" class="st21" d="M261.4,186.2c-0.4,2.2-0.9,4.4-1.3,6.7c0.7,1,1.4,2,2.1,3c2,1.1,4,2.6,4.6-1.3
		c0.2-1,0.9-2,1.4-2.9c1.9,0,3.7,0,6.4,0c-1.6-1.1-2.5-1.7-3.4-2.2c-1.5-0.9-2.9-1.9-5.3-3.4c5.1-2.1,9.3-3.8,13.3-5.7
		c0.9-0.4,1.3-1.7,1.9-2.6c1.6-5.4,3.2-10.9,4.8-16.3c-3.4-1.8-6.9-3.6-10.3-5.4c1.2,1.6,2.4,3.3,3.8,5.1c-1.5,0.6-2.9,1.2-4.5,1.8
		c1.4,2.8,2.7,5.3,3.8,7.5c-2.6,1.9-5.3,2.9-6.5,4.9C269.3,179.8,266,183.6,261.4,186.2z"/>
	<path id="XMLID_1993_" class="st22" d="M205.3,328.2c-3.5-3-7-6-11.1-9.5c2.5-1,4.1-1.7,6.4-2.7c-1.7-2.3-3.1-4.1-4.5-6
		c-0.7-1-1.4-2-2.2-3l0,0c-3.7,0.4-7.5,0.8-11.2,1.4c-0.1,0,0,1.4-0.1,2.1c1.6,1.3,4.5,1.3,4.6,4.8c-2.4-0.7-4.2-1.3-6.1-1.9
		c-0.5,1-1,2-1.6,2.9c3.4,2.2,6.8,4.4,10.1,6.7c-0.4,0.6-0.8,1.3-1.1,1.9c-4.5-2.4-9-4.8-13.5-7.1c-0.3,0.5-0.5,1-0.8,1.5
		c0.7,1,1.4,2,2.1,3c1.6,2.7-1.1,3.2-2.3,4.4c1.5,0.8,3,1.6,4.5,2.4c0.5-1,1-1.9,1.5-2.9c0.1-3.5,2.5-2.2,4-1.6
		c3.7,1.7,7.3,3.7,10.9,5.6c0-2.7,1.2-4.3,4.1-3.3c2,0.7,3.9,1.8,5.9,2.8C205.2,329.2,205.3,328.7,205.3,328.2z"/>
	<path id="XMLID_1992_" class="st23" d="M306.7,36.5c1.2-1.2,2.5-2.4,3.7-3.6c-2.5-5.2-4.6-10.6-7.7-15.4c-4.1-6.4-11-6.2-14.4,0.6
		c-2.7,5.3-3.7,11.4-5.5,17.2c-0.1,1.3-0.2,2.5-0.3,3.8c-0.2,0.5-0.4,1-0.4,1.5c1.1,1.2,2.3,2.5,3.4,3.7c0.5-1.3,1.5-2.6,1.4-3.8
		c-0.6-7,1.6-12.9,6-18.1c9.9,2.5,9.9,2.5,12.1,12.4C305.1,35.4,306.1,35.9,306.7,36.5z"/>
	<path id="XMLID_1991_" class="st24" d="M282.9,331.4c-1.7-0.3-3.4-0.6-5.1-0.9c-13.4,10.8-26.8,21.6-40.1,32.5
		c-2.5,2-4.8,4.3-7.2,6.5c0.8,0.4,2,1.3,2.3,1.1c1.6-1.4,3.1-3,4.3-4.3c5.2,1.9,10.1,3.7,15.1,5.5c0-1.3,0.1-2.5,0.1-3.8
		c-2.1,0-4.3-0.1-6.9-0.1c-3.9-4.5,0.8-7,2.9-10.1c2.3-3.3,5.2-2.4,8.1-0.8c2.4,1.3,4.8,2.6,7.8,4.1c0.5-5.9-6.1-5-6.9-10
		c2.9-2.2,6.3-4.8,9.7-7.4c3.6-3.3,7.1-6.5,10.9-10c2.9,1.7,5.8,4.8,9.7,0.7C286,333.4,284.5,332.4,282.9,331.4z"/>
	<path id="XMLID_1990_" class="st25" d="M326.9,358.4c0.8-1.5,1.6-2.9,2.4-4.4c-2,0.2-4,0.4-6,0.7l0,0c-0.2,1.3,0.1,3.1-0.6,3.7
		c-2.9,2.5-5.8,3-8.5-0.6c-0.4-0.6-1.8-0.5-3.8-0.9c1.6,2.7,2.5,4.5,4.4,7.8c-8.6-3.8-15.5-6.8-23.3-10.2
		c2.6,9.7,12.3,6.7,17.4,12.5c-3.7,1.9-6.8,3.4-9.9,5c-1.4,0.5-2.9,1.6-4.2,1.3c-2.3-0.5-4.4-1.9-7.5-2.1c1.4,2,2.8,3.9,4.2,6
		c-2.4,1.4-4.7,2.8-7,4.1c0.2,0.7,0.3,1.4,0.5,2.1C300.1,376.6,314.1,368.5,326.9,358.4z"/>
	<path id="XMLID_1989_" class="st16" d="M259.2,290.6c3.6-3.5,9.5-4.6,10.9-10.6c0.1-0.3,3.7,0.3,5.7,0.4c1.3-1.2,2.5-2.5,3.8-3.7
		c0.3-0.5,0.5-1,0.8-1.4c0.5-2.1,0.6-4.3,1.5-6.2c1.5-3.2-0.2-4.6-2.7-5.8c-6-2.6-11.7-2.6-16.5,2.6l0,0c2.5,3.1,5.1,6.2,6.9,8.4
		C265.7,280.6,262.4,285.6,259.2,290.6z"/>
	<path id="XMLID_1988_" class="st26" d="M151,291.9c-2,3,3.9,5.8-0.3,9.5c-1.5,1.4,0,6.2,0.2,9.8c-1.6,1.4-3.4,2.9-5.2,4.5l0,0
		c1.5,0.2,3.7-0.2,2.7,2.4c-0.9,2.2-2.2,4.2-3.3,6.3c0.2,4.1,0.4,8.2,0.6,12.2c1.9-1,3.8-2,5.8-3c1-0.4,1.9-0.8,2.9-1.3
		c-1.1-2.7-2.4-5.3-3.2-8.1c-0.3-0.9,0.8-2.2,1.3-3.3c1.2-2.3,2.5-4.7,3.6-6.9c-0.8-1.3-1.7-2.5-2-3c2.5-2,4.3-3.4,6.1-4.9
		c-1.6-1.3-3.4-2.4-4.5-4.1c-0.3-0.4,1.9-2.5,2.2-2.8c-1.5-3.6-2.7-6.6-4-9.6C153,290.5,152,291.2,151,291.9z"/>
	<path id="XMLID_1987_" class="st27" d="M406.9,261.1c0.3-0.5,0.5-1,0.6-1.5c-4-3.2-8.9-5.6-7.4-12.3c0.3-1.2-1.6-3.1-2.8-4.4
		c-1.4-1.6-3.2-2.9-4.8-4.3c-3.2,1.5-6.4,2.9-9.6,4.4c0.2,0.6,0.3,1.3,0.5,1.9l0.1,0.1c7.7,1.3,15.2,6.8,14.2,12.3
		c-0.8,4.1,1.9,5.1,3.3,8.3c-1.7,3.2-3.5,6.7-5.4,10.2c1.8,1,3.7,2,5.5,3.1c1.6-4.2,3.3-8.4,4.9-12.5c-0.6-0.9-1.3-1.8-1.7-2.8
		C402.8,260.1,404.6,260.3,406.9,261.1z"/>
	<path id="XMLID_1986_" class="st28" d="M379,274.6c0.9,0.5,1.9,1,2.8,1.5c1.2,0.1,2.5,0.1,3.7,0.2l0,0c0.3-0.5,0.5-1,0.7-1.5
		c-8-2.3-12-9.9-19.2-14.5c7.1-2.3,11.2,5.2,17.9,4.4c-0.9-1.9-1.6-3.4-2.2-4.9c-3.7-1.3-7.5-2.5-11.2-3.8c0-0.5,0.1-1.1,0.1-1.6
		c2.1-0.7,4.2-1.5,6.2-2.2c-0.4-1.8-0.8-3.4-1.2-5c-6.4,4.7-12.9,9.5-19.3,14.2c1.1,0.6,2.1,1.5,3.2,1.9c6.3,2.3,12.4,5,16.7,10.5
		l0,0C378,274.1,378.5,274.3,379,274.6z"/>
	<path id="XMLID_1985_" class="st29" d="M237.5,396c-1,0.7-2,1.5-3,2.2c-2.9,0.8-5.8,1.5-8.4,2.2c-4.2-3.2-8.5-6.2-12.4-9.6
		c-1.3-1.1-1.7-3.2-2.6-4.9c-1.3,1.2-2.6,2.4-3.9,3.6c0.1,1.9,0.3,3.9,0.4,5.8c3.9,3.2,7.9,6.3,11.8,9.5c11.8-2.8,23.6-5.7,35.4-8.5
		l-0.2-0.7c-2.3,0.1-4.6,0.3-7,0.3C244.3,396,240.9,396,237.5,396z"/>
	<path id="XMLID_1984_" class="st30" d="M297.3,239c0.5-0.4,0.7-0.8,0.7-1.4c-0.4-0.4-1.1-0.9-1-1.2c1.4-6.5,2.8-13.1,4.4-20.2
		c-0.5-0.5-1.9-1.7-3.2-3c-1.2,0-2.5-0.1-3.7-0.1l0,0c-0.5,1-1,2-1.5,2.9c-1.7,3.8-1.7,5.2-0.1,9.8c-2.3-0.8-4.5-1.5-7.6-2.5
		c1.4,2.6,2.2,3.9,3,5.3c1.5,4,0.7,9,4.9,12l0,0c0.3-0.5,0.5-1,0.8-1.4C295.1,239.1,296.2,239.1,297.3,239z"/>
	<path id="XMLID_1983_" class="st31" d="M285.6,44.2c-1.1-1.2-2.3-2.5-3.4-3.7c-0.8,2.6-1.9,5.2-2.3,7.9c-1.5,9.5-2.7,19-4.1,28.5
		c2.3-2,4.7-4,7-6c1.8-1.3,3.7-2.4,2.5-5.2c-0.5-1.2-1.2-2.7-0.8-3.7C286.4,56.2,286.5,50.3,285.6,44.2z"/>
	<path id="XMLID_1982_" class="st32" d="M128.2,470.4c-1.5-1.1-5.3,0-3.5-4c-10.6,6.4-21.1,12.9-31.6,19.4c-0.6,0.4-0.8,1.2-1.3,1.9
		C99.4,489.8,117.3,481.2,128.2,470.4z"/>
	<path id="XMLID_1981_" class="st33" d="M150,408.3c5.1-1.1,1.2-5.8,2.9-7.9c5.6-3,7.4,8.8,13.5,3c-0.5-1.2-1-2.4-1.4-3.4
		c2.5-0.8,4.9-1.6,7.3-2.4c-5.3-2.5-5.3-2.3-14.4-1c-3.3,0.5-4.7-2.3-5.2-5.1c-0.6-3.7-0.7-7.5-1.4-11.2c-0.5-2.3-1.7-4.4-2.7-6.5
		c0,2.7,0,5.3,0.1,8C149.2,390.6,149.6,399.5,150,408.3z"/>
	<path id="XMLID_1980_" class="st34" d="M207.6,395.4c-0.1-1.9-0.3-3.9-0.4-5.8c-2.4,1.8-4.7,3.7-7.1,5.5c-3.5,3.1-7.1,6.3-10.6,9.4
		c-1.3,2.6-2.6,5.3-3.9,7.9c3.5-0.6,7-0.9,10.4-1.7c5.1-1.2,10.1-2.8,15.1-4.1c0.2-0.4,0.5-0.9,0.7-1.3l0,0
		c-4.1-0.9-8.2-1.8-12.7-2.8C200.8,397.2,202.7,394.3,207.6,395.4L207.6,395.4z"/>
	<path id="XMLID_1979_" class="st35" d="M261.4,186.2c4.6-2.7,7.9-6.5,10.7-11c1.2-2,3.9-3,6.5-4.9c-1.1-2.2-2.4-4.7-3.8-7.5
		c1.6-0.7,3-1.2,4.5-1.8c-1.3-1.8-2.6-3.5-3.8-5.1l0,0c-0.5-0.3-1-0.5-1.5-0.8c-0.5-0.3-1-0.5-1.5-0.8c-1.3,6-2.5,12-3.9,18.7
		c-1.5-0.8-3.2-1.7-5-2.7C262.9,175.7,262.2,181,261.4,186.2z"/>
	<path id="XMLID_1978_" class="st36" d="M258.5,256.2c-4-1.5-4.1-5.3-4.9-8.6c-0.4-1.5-0.1-3.5-2.7-2.5c-2,8.9-4,17.8-5.9,26.6
		c0,0.8,0.1,1.5,0.1,2.3l0,0c1.9,0.2,3.7,0.5,5.6,0.7c0.5-1,1-2,1.6-2.9c-1.6-0.5-4.6,0.7-3.8-2.5c0.7-2.8,2.9-1.6,4.7-0.8
		c0.2,0.1,0.5,0.3,0.7,0.4C255.3,264.6,256.9,260.4,258.5,256.2z"/>
	<path id="XMLID_1977_" class="st37" d="M392.5,238.5c1.6,1.4,3.3,2.7,4.8,4.3c1.2,1.3,3.1,3.2,2.8,4.4c-1.5,6.7,3.4,9.1,7.4,12.3
		c0.3-4.5,1.3-9.2,0.9-13.6C407.6,238.5,400,235.2,392.5,238.5z"/>
	<path id="XMLID_1976_" class="st38" d="M314.3,182.1c-1.7,1.3-3.4,2.6-5,3.9c-8.4-3.1-8.4-3.1-7.3-8.6c-0.2-0.8-0.5-1.5-0.7-2.3
		l0,0c-3.4-1.8-6.8-3.6-10.3-5.4c-0.8,2.7-1.6,5.4-2.4,8.1c4.5,2.4,9,4.7,12.8,6.7c0.1,3.2,0.2,5.4,0.3,7.6l0,0.1
		c3.5,1.9,6.6,2.8,8-2.4c0.2-0.6,1.8-0.8,2.8-1.2C313.1,186.5,313.7,184.3,314.3,182.1z"/>
	<path id="XMLID_1975_" class="st39" d="M323.6,100.2c-0.2-0.1-0.5-0.2-0.7-0.4c-3-2.7-7.1-4.9-8.6-8.3c-1.4-3.2,0.3-7.6,0.2-11.5
		c0-1.6-1.3-3.1-1.9-4.7c0,0-0.2,0.1-0.2,0.1c-5.1,3.8-0.8,10.7-5.6,14.5c2.1,2.8,6,4.7,2.9,8.6c0.5,0.3,0.9,0.6,1.4,0.9
		c3.3,2.7,6.6,5.5,10,8.2c0.5,0.4,1.6,0.2,2.4,0.2c0.2-0.5,0.4-1,0.6-1.6c-0.2-0.6-0.4-1.3-0.6-1.9l-0.1-0.2
		c-0.1-0.8-0.2-1.5-0.3-2.3C323.4,101.2,323.6,100.8,323.6,100.2z"/>
	<path id="XMLID_1974_" class="st40" d="M211.1,386c0.8,1.7,1.3,3.8,2.6,4.9c3.9,3.4,8.2,6.4,12.4,9.6c2.6-0.7,5.5-1.5,8.4-2.2
		c-1.7-4.6-5.7-4.6-9.5-4.7c-4.3,0-6.5-2.1-7.2-6c3.2-3.1,6.1-6.1,9.1-9.1c-0.2-0.4-0.5-0.8-0.7-1.3c-1.9,0.8-3.8,1.6-5.7,2.4
		c-0.1-0.1-0.2-0.4-0.2-0.6c0.1-0.5,0.2-1.1,0.4-1.6C217.5,380.2,214.3,383.1,211.1,386z"/>
	<path id="XMLID_1973_" class="st41" d="M271.2,106.6c-1.4,10.7-2.7,21.4-4.1,32c1.8-3.3,3.5-6.6,5.5-10.4c1,1.1,1.9,2.1,2.8,3.1
		c0.3-0.5,0.5-1,0.8-1.4c0-1.2,0-2.5,0.1-3.7c0.8-1.5,1.6-2.9,2.3-4.4l0,0c-0.5-0.3-1-0.5-1.5-0.8c0-1.2,0.1-2.4,0.1-3.6
		c-0.5-1.5-0.9-3.1-1.4-4.6c1-0.7,2-1.5,3-2.2c0.2-0.5,0.5-1,0.7-1.5C276.8,108.1,274,107.4,271.2,106.6z"/>
	<path id="XMLID_1972_" class="st42" d="M177.4,181.4c-1.8,2.1-3.7,4.2-5.5,6.3c-0.4,1-0.8,2.1-1.2,3.1c1.4-0.4,2.8-0.9,4.3-1.3
		l0.1,0c2.7,0.9,5.6,1.6,8.1,2.8c6.5,3.3,12.9,7,20.6,6.8l0-0.1c-4.3-2.3-8.6-4.5-12.8-6.8c-3.8-2.2-4.1-4-1.7-8.4l0-0.1
		C185.3,183,181.3,182.2,177.4,181.4z"/>
	<path id="XMLID_1971_" class="st43" d="M282.7,71c-2.3,2-4.7,4-7,6c-1.2,8.2-2.5,16.3-3.7,24.5c1.7-0.5,3.6-0.8,5.1-1.6
		c0.7-0.4,0.9-1.8,1.3-2.8c-0.4-1-1.2-2.7-1.1-2.8c3.7-2,3.2-4.8,1.8-7.9c0-0.1,1.2-0.8,1.8-1.2c0.5-1,1-1.9,1.6-2.9l0,0
		c-0.2-0.7-0.5-1.5-0.7-2.2l0,0C282.1,77,282.4,74,282.7,71z"/>
	<path id="XMLID_1970_" class="st44" d="M262.2,195.9c-0.7-1-1.4-2-2.1-3c-2.5,13.2-4.9,26.4-7.4,39.6c0,0.8-0.1,1.6-0.1,2.4
		c-0.3,0.9-0.5,1.8-0.8,2.6c1.4-2.2,3.4-4.2,4.2-6.6c1.2-4.1,1.7-8.5,2.5-13.3c2.8,0.9,5.3,1.7,8.5,2.7c-2.6-2.7-4.8-5-6.3-6.6
		c0.5-2.6,0.9-4.6,1.3-6.6c-1.1-3.1-0.2-4.7,3.2-3.8c1.2,0.3,2.3,1.1,3.5,1.7c0.3-0.5,0.5-1,0.8-1.5
		C267,201,264.6,198.4,262.2,195.9z"/>
	<path id="XMLID_1969_" class="st45" d="M312.5,188.7c-1,0.4-2.6,0.6-2.8,1.2c-1.5,5.2-4.6,4.2-8,2.4c7.3,5.4,2.9,12.3,2.6,18.6
		c-2,0.8-4,1.5-6,2.2c1.4,1.3,2.7,2.5,3.2,3c-1.6,7.1-3,13.7-4.4,20.2c-0.1,0.3,0.7,0.8,1,1.2c3.8-12.3,7.6-24.7,11.4-37
		C310.6,196.6,311.5,192.6,312.5,188.7z"/>
	<path id="XMLID_1968_" class="st46" d="M275.4,131.3c-0.9-1-1.8-1.9-2.8-3.1c-2,3.8-3.8,7.1-5.5,10.4c-0.5,4-1,7.9-1.5,11.9
		c2.3,1.3,4.7,2.5,7,3.8c0.5,0.3,1,0.5,1.5,0.8c0.3-0.5,0.5-1,0.8-1.5l0,0c-1-0.7-2.1-1.3-3.1-2c0.2-0.3,0.3-0.6,0.5-0.9
		c1.1,0.5,2.3,1,3.4,1.5c0.5,0.2,1,0.5,1.4,0.7c0.5-1,1-1.9,1.6-2.9l0,0c-0.5-0.3-1-0.5-1.5-0.8c-0.5-0.2-1-0.5-1.5-0.7
		c-0.5-0.3-1-0.5-1.5-0.8c-4.4-4,0.1-3.1,2-3.6C274.1,140,272.9,135.7,275.4,131.3z"/>
	<path id="XMLID_1967_" class="st47" d="M323.1,127.7c0.2-5.4,0.5-10.9,0.7-16.3c-2.5,0.8-5,1.7-7.6,2.5c-0.5-1.1-1.1-2.2-1.6-3.4
		c-1.7,2.2-3.5,4.4-5.2,6.6c2.8,1.9,5.7,3.8,8.5,5.7c-2.1,1.1-3.6,0.7-5,0.8c-0.3,0-0.5,1.6-0.8,2.5
		C315.8,126.6,319.5,127.2,323.1,127.7z"/>
	<path id="XMLID_1966_" class="st48" d="M197.9,356.3c2.1-7.7,4.3-15.3,6.4-23c-1.9,1.6-3.9,3.1-6,4.8c-1.1-0.7-2.7-1.7-4.3-2.7
		c-0.2,6.2-0.3,12.4-0.5,18.6c-0.3,1.1-0.4,3-0.9,3.1c-3.5,1-1.7,3.1-1.4,5c0.5,0.3,0.9,0.5,1.4,0.7
		C194.4,360.7,196.2,358.5,197.9,356.3z"/>
	<path id="XMLID_1965_" class="st49" d="M278.4,97c-0.4,1-0.6,2.4-1.3,2.8c-1.5,0.8-3.4,1.1-5.1,1.6c-0.3,1.7-0.6,3.4-0.8,5.2
		c2.8,0.8,5.6,1.5,8.5,2.3c0.1-1.6,0.3-3.2,0.5-5.8c4.5,0.8,9.1,1.5,13.1,2.2c-1.5-2.1-3.1-4.4-4.7-6.7
		C285.5,96.6,282.6,93.1,278.4,97z"/>
	<path id="XMLID_1964_" class="st50" d="M323.1,127.7c-3.7-0.5-7.4-1-11-1.6l0,0c0.2,0.7,0.5,1.5,0.7,2.2c-0.1,3.9-3.4,2.1-5.3,2.9
		c0.4,6.1,0.4,6.1-4.6,5.1l0,0c1.7,1.5,3.4,3.1,5.1,4.6c1,0.5,2,1,2.9,1.5c0.5-1.8,1.1-3.6,1.7-5.8c4.2,1.6,6.8,0.3,7.6-4.1
		c0.1-0.5,1.3-0.7,2-1C322.6,130.3,322.9,129,323.1,127.7z"/>
	<path id="XMLID_1963_" class="st51" d="M400.9,278.7c-1.8-1-3.7-2-5.5-3.1l-0.1,0c2.5,3.8-2.3,3.8-3.1,5.9
		c-0.8,1.5-1.3,3.3-2.4,4.4c-4.5,4.3-4.5,4.1-1.1,9.9c0.4,0.8,0.1,2,0.2,3C392.9,292.2,396.9,285.5,400.9,278.7z"/>
	<path id="XMLID_1962_" class="st52" d="M237.5,328.1c-1.7-6,3.7-9.2,5.6-13.7c0.5-1.1,1-2.2,1.4-3.3c-0.5-1.4-1.5-2.7-1.4-4
		c0.1-4.4,0.7-8.8,1-13.2c-1-0.4-2.1-0.9-3.1-1.3c0.2,1.3,0.4,2.7,0.6,4c0.1,0.6,0.2,1.2,0.2,1.7l-0.3,0.2c-0.2,2.6-0.2,5.3-0.5,7.9
		c-0.2,1.9-0.8,3.7-1.2,5.5c-1.1,5.8-3.5,10.7-9.8,12.3c-0.5,1-1,2-1.5,3c2,1,3.9,2.1,5.9,3.1C235.5,329.6,236.5,328.9,237.5,328.1z
		"/>
	<path id="XMLID_1961_" class="st53" d="M272.7,154.4c-2.3-1.3-4.7-2.5-7-3.8c-0.6,6.6-1.3,13.2-1.9,19.8c1.8,0.9,3.6,1.9,5,2.7
		C270.1,166.3,271.4,160.3,272.7,154.4z"/>
	<path id="XMLID_1960_" class="st18" d="M376.8,247.2c0.4,1.6,0.7,3.2,1.2,5c-2,0.7-4.1,1.5-6.2,2.2c0,0.5-0.1,1.1-0.1,1.6
		c3.7,1.3,7.5,2.5,11.2,3.8l0.2,0c1.9-0.8,3.8-1.6,7-2.9c-3.7-3.2-6.8-5.8-9.8-8.4c1-1.2,2.1-2.4,3.1-3.6l-0.1-0.1l-0.7-0.3
		l-0.7-0.4C380.2,245.1,378.5,246.1,376.8,247.2z"/>
	<path id="XMLID_1959_" class="st29" d="M285.3,383.5c-0.2-0.7-0.3-1.4-0.5-2.1c-4.4,1.9-8.7,3.9-13.1,5.5c-3.3,1.2-6.8,1.8-10.1,3
		c-1.9,0.7-3.6,1.9-5.4,2.8c-0.5,1-1,1.9-1.5,2.9l0.2,0.7C265.4,393.1,276.1,390,285.3,383.5z"/>
	<path id="XMLID_1958_" class="st42" d="M201.2,182.5c-2.4-4.3-5.8-7.1-11-7.2c1.6,1.6,3.3,3.2,4.9,4.9c-1.9,1.2-3.9,2.4-5.8,3.7
		l0,0c1.5,6.7,7.8,6.5,12.5,8.5c-0.4-2-1-3.9-1.2-5.9C200.5,185.1,200.9,183.8,201.2,182.5z"/>
	<path id="XMLID_1957_" class="st54" d="M211.4,245.9c1.1-12.6-0.6-24.9-3.3-37.1c-0.7,0.3-1.5,0.5-2.2,0.8c-1.2,1-2.5,2-3.3,2.8
		c1.5,2.1,4.1,4.1,4.3,6.3c0.7,9.4,3.4,18.7,1.9,28.3c0.5,0.3,0.9,0.5,1.4,0.8l0,0C210.6,247.1,211,246.5,211.4,245.9z"/>
	<path id="XMLID_1956_" class="st55" d="M314.6,110.6c0.6,1.1,1.1,2.3,1.6,3.4c2.6-0.9,5.1-1.7,7.6-2.5c-0.1-1.2-0.2-2.5-0.2-3.7
		c-0.8-0.1-1.9,0.2-2.4-0.2c-3.4-2.6-6.7-5.4-10-8.2c-1.3,2.4-2.6,4.9-3.8,7.3c0.2,0.7,0.5,1.5,0.7,2.3c0.5,0.2,1,0.5,1.4,0.8
		c0.5,0.2,1,0.5,1.5,0.8l0,0c0.7-0.2,1.4-0.4,2.1-0.6C313.6,110.1,314.1,110.3,314.6,110.6z"/>
	<path id="XMLID_1955_" class="st56" d="M230.1,324.2c6.4-1.6,8.7-6.5,9.8-12.3c0.4-1.9,1-3.7,1.2-5.5c0.3-2.6,0.4-5.3,0.5-7.9
		C237.8,307.1,233.9,315.7,230.1,324.2z"/>
	<path id="XMLID_1954_" class="st57" d="M241,292.5c1,0.4,2.1,0.9,3.1,1.3c2.1-6.4,4.3-12.7,6.4-19.1c-1.9-0.2-3.7-0.5-5.6-0.7
		C243.6,280.2,242.3,286.4,241,292.5z"/>
	<path id="XMLID_1953_" class="st47" d="M322.4,131.5c-0.7,0.3-2,0.6-2,1c-0.8,4.4-3.5,5.7-7.6,4.1c-0.7,2.2-1.2,4-1.7,5.8
		c-0.2,0.5-0.5,1-0.7,1.5c0.5,0.3,1,0.5,1.4,0.8c1.4-0.8,2.8-1.5,3.9-2.1c1.9,1,3.7,2,5.5,2.9C321.5,140.9,321.9,136.2,322.4,131.5z
		"/>
	<path id="XMLID_1952_" class="st58" d="M189.2,183.8c2-1.2,4-2.5,5.8-3.7c-1.6-1.6-3.2-3.2-4.9-4.9c-5.6-0.8-9.3,2.4-12.8,6.1
		C181.3,182.2,185.3,183,189.2,183.8z"/>
	<path id="XMLID_1951_" class="st59" d="M279.2,263.4c2.5,1.2,4.1,2.6,2.7,5.8c-0.9,1.9-1,4.1-1.5,6.2c6.4-7.5,8.9-16.9,13.2-25.5
		c1.2-2.4,1.7-5.2,2.5-7.8c-0.4-0.3-0.9-0.6-1.4-0.8c-0.5-0.2-1-0.4-1.5-0.7l0,0c-0.1,1.3-0.1,2.5-0.2,3.8c-2.3,5.6-4.7,11.3-7,16.9
		c-2,0.2-3.9,0.4-5.9,0.6C279.7,262.4,279.5,262.9,279.2,263.4z"/>
	<path id="XMLID_1950_" class="st60" d="M151.6,333.7c-1.9,1-3.8,2-5.8,3c0.4,4,0.9,8,1.3,12c0.4-0.5,0.8-1.1,1.2-1.6
		c1-0.7,2-1.5,3-2.2c-0.1-0.2-0.4-0.6-0.3-0.7c0.3-0.3,0.7-0.5,1.1-0.8c1.8-2.2,3.6-4.4,5.4-6.6c-0.5-0.3-1-0.5-1.5-0.8
		c-1.5,0.3-2.9,0.6-4.4,0.9c0.5-0.8,1-1.6,1.5-2.4C152.6,334.3,152.1,334,151.6,333.7z"/>
	<path id="XMLID_1949_" class="st14" d="M194.1,335.4c1.6,1,3.2,2,4.3,2.7c2.1-1.7,4-3.2,6-4.8c0.2-1.2,0.4-2.5,0.6-3.7
		c-2-0.9-3.9-2.1-5.9-2.8c-2.8-1-4,0.5-4.1,3.3c3.8,3.9-2.1,2.7-2.3,4.5l0,0C193.1,334.9,193.6,335.2,194.1,335.4z"/>
	<path id="XMLID_1948_" class="st61" d="M209.1,264.1c0.2,3.3,0.3,6.5,0.5,9.8c0.8-0.3,1.6-0.5,2.4-0.8c-0.2-8.2-0.4-16.4-0.6-24.6
		c-0.5-0.2-0.9-0.5-1.4-0.7l0,0C209.8,253.2,209.5,258.6,209.1,264.1z"/>
	<path id="XMLID_1947_" class="st62" d="M197.9,356.3c-1.7,2.2-3.5,4.4-5.2,6.6c-0.1,1.2-0.1,2.5-0.2,3.7c-1.3,3.7-2.7,7.5-4,11.2
		c-1,2-2,3.9-3,5.9c0.5,0.2,0.9,0.5,1.3,0.7C190.5,375.1,194.2,365.7,197.9,356.3z"/>
	<path id="XMLID_1946_" class="st63" d="M185.6,412.4c1.3-2.6,2.6-5.3,3.9-7.9c-2.8,0.4-5.5,0.9-8.3,1.3l0,0
		c-0.6,0.4-1.3,0.8-1.9,1.2c-0.3,0.3-0.5,0.7-0.6,1.1c2,1.7,4,3.4,6,5C185,413,185.4,412.7,185.6,412.4z"/>
	<path id="XMLID_1945_" class="st64" d="M212.1,273c-0.8,0.3-1.6,0.5-2.4,0.8l-0.2,0c0,1.9,0.3,3.8-0.2,5.5c-0.4,1.5-1.8,2.7-2.8,4
		l0,0c0.5,1.5,1,3,1.4,4.5c1.1,0.5,2.1,1,3.2,1.5C211.3,284,211.7,278.5,212.1,273z"/>
	<path id="XMLID_1944_" class="st65" d="M201.2,182.5c-0.2,1.3-0.7,2.7-0.6,3.9c0.2,2,0.8,3.9,1.2,5.9c0.7,2.2,1.3,4.5,2,6.7l0,0.1
		c0.5,0.3,1,0.5,1.6,0.8c0.4,0.2,0.8,0.5,1.2,0.7C205.6,194.3,205.6,187.7,201.2,182.5z"/>
	<path id="XMLID_1943_" class="st34" d="M219.4,404.8c-3.9-3.2-7.9-6.3-11.8-9.5l0,0c-1.2,2.7,0.6,3.7,2.4,5.2c1.1,1,1.3,3,1.9,4.6
		l0,0c0.5,0.2,0.9,0.4,1.4,0.6l0.1,0c0.7-0.2,1.5-0.3,2.2-0.5l0.1,0c0.8-0.1,1.6-0.3,2.4-0.4C218.5,405.1,219,405.1,219.4,404.8z"/>
	<path id="XMLID_1942_" class="st11" d="M170.6,190.8c0.4-1,0.8-2.1,1.2-3.1c-3,4.7-6,9.5-9,14.2c0.7-0.2,1.4-0.5,2.1-0.7
		c0.3-0.5,0.5-1,0.8-1.5C167.4,196.8,169,193.8,170.6,190.8z"/>
	<path id="XMLID_1941_" class="st66" d="M347.6,273.1c1.8-1.6,3.8-3,5.3-4.8c1-1.2,1.2-3.1,1.8-4.7c-2.6,2.3-5.2,4.6-7.9,6.9
		C347.1,271.4,347.4,272.3,347.6,273.1L347.6,273.1z"/>
	<path id="XMLID_1940_" class="st67" d="M319.4,154.6c-2,0.5-4.1,1-6.9,1.7c2.1,1.7,4,3.3,6,4.9c0.3-1,0.6-2,0.8-3
		c0-0.8,0-1.5-0.1-2.3C319.5,155.5,319.5,155.1,319.4,154.6z"/>
	<path id="XMLID_1939_" class="st12" d="M145.2,324.5c1.1-2.1,2.4-4.1,3.3-6.3c1-2.7-1.2-2.2-2.7-2.4
		C145.5,318.7,145.4,321.6,145.2,324.5z"/>
	<path id="XMLID_1938_" class="st20" d="M186.8,384.4c-0.4-0.2-0.9-0.5-1.3-0.7c-0.3,0.5-0.5,0.9-0.8,1.4c-0.5,1-1,2-1.6,3
		c-1.3,2.5-2.5,4.9-3.8,7.4c0.9-0.3,1.7-0.6,2.6-0.9C183.5,391.2,185.2,387.8,186.8,384.4z"/>
	<path id="XMLID_1937_" class="st68" d="M206.5,200.6c-0.4-0.2-0.8-0.5-1.2-0.7c0,2.5-0.1,5-0.1,7.4c0.3,0.8,0.5,1.5,0.8,2.3
		c0.7-0.3,1.5-0.5,2.2-0.8C207.6,206.1,207,203.3,206.5,200.6z"/>
	<path id="XMLID_1936_" class="st5" d="M380.4,311.1c0.6-0.1,0.9-0.5,0.9-1.1c0-1.4-0.1-2.7-0.1-4.1c-1.9,0.7-3.8,1.3-6.3,2.2
		c1.3,1.5,2.3,2.6,3.2,3.7C378.8,311.6,379.6,311.4,380.4,311.1z"/>
	<path id="XMLID_1935_" class="st5" d="M347.6,273.1c-0.3-0.8-0.5-1.7-0.8-2.5c-2.2,2-4.5,4.1-6.7,6.1
		C343.8,277.9,345.5,275.1,347.6,273.1z"/>
	<path id="XMLID_1934_" class="st19" d="M381.2,306c0,1.4,0.1,2.7,0.1,4.1c1.5-1.9,2.9-3.7,4.4-5.6c-0.5-0.2-1-0.4-1.5-0.6
		c-0.7,0.2-1.5,0.5-2.2,0.7C381.7,305,381.5,305.5,381.2,306z"/>
	<path id="XMLID_1933_" class="st37" d="M406.9,261.1c-2.3-0.8-4.1-1-2.8,2.3c0.4,1,1.1,1.9,1.7,2.8
		C406.2,264.5,406.5,262.8,406.9,261.1z"/>
	<path id="XMLID_1932_" class="st59" d="M279.6,276.8c-1.3,1.2-2.5,2.5-3.8,3.7l0.7,0.4l0.7,0.4
		C278.1,279.8,278.8,278.3,279.6,276.8z"/>
	<path id="XMLID_1931_" class="st45" d="M294.6,241.3c0.5,0.3,0.9,0.5,1.4,0.8c0.4-1,0.9-2.1,1.3-3.1c-1.1,0-2.3,0.1-3.4,0.1
		C294.2,239.8,294.4,240.6,294.6,241.3z"/>
	<path id="XMLID_1930_" class="st31" d="M282.5,39c0.1-1.3,0.2-2.5,0.3-3.8C282.7,36.5,282.6,37.8,282.5,39z"/>
	<path id="XMLID_1929_" class="st19" d="M380.4,311.1c-0.8,0.2-1.6,0.5-2.3,0.7c-0.2,0.5-0.5,1-0.8,1.4l0,0.1
		c0.4,0.2,0.8,0.4,1.3,0.7C379.2,313.1,379.8,312.1,380.4,311.1z"/>
	<path id="XMLID_1928_" class="st69" d="M378.6,314.1c-0.4-0.2-0.8-0.5-1.3-0.7c-0.5,1.1-1.1,2.2-1.6,3.4
		C376.7,315.9,377.6,315,378.6,314.1z"/>
	<path id="XMLID_1927_" class="st16" d="M252.5,234.9c0-0.8,0.1-1.6,0.1-2.4C252.6,233.3,252.5,234.1,252.5,234.9z"/>
	<path id="XMLID_1926_" class="st70" d="M381.9,244l0.7,0.4l0.7,0.3c-0.2-0.6-0.3-1.3-0.5-1.9C382.4,243.2,382.1,243.5,381.9,244z"
		/>
	<path id="XMLID_1925_" class="st71" d="M210.2,247.7c0.5,0.2,0.9,0.5,1.4,0.7c0-0.8-0.1-1.7-0.1-2.5
		C211,246.5,210.6,247.1,210.2,247.7z"/>
	<path id="XMLID_1924_" class="st57" d="M245,274c0-0.8-0.1-1.5-0.1-2.3C244.9,272.5,244.9,273.3,245,274z"/>
	<path id="XMLID_1923_" class="st72" d="M241.9,298.3c-0.1-0.6-0.2-1.2-0.2-1.7C241.7,297.1,241.8,297.7,241.9,298.3z"/>
	<path id="XMLID_1922_" class="st7" d="M319.3,155.9c0,0.8,0,1.5,0.1,2.3C319.4,157.4,319.3,156.7,319.3,155.9z"/>
	<path id="XMLID_1921_" class="st24" d="M280.7,328.3c0.4-0.2,0.8-0.3,1.2-0.6c0.1,0-0.1-0.5-0.2-0.7
		C281.4,327.5,281,327.9,280.7,328.3z"/>
	<path id="XMLID_1920_" class="st25" d="M331.9,355.4c-0.6,0.3-1.2,0.7-1.7,1C330.7,356.1,331.3,355.8,331.9,355.4z"/>
	<path id="XMLID_1919_" class="st9" d="M323.6,104.2c0.2,0.6,0.4,1.3,0.6,1.9C324,105.5,323.8,104.8,323.6,104.2z"/>
	<path id="XMLID_1918_" class="st9" d="M323.2,101.7c0.1,0.8,0.2,1.5,0.3,2.3C323.4,103.2,323.3,102.5,323.2,101.7z"/>
	<path id="XMLID_1917_" class="st29" d="M218.1,404.9c-0.8,0.1-1.6,0.3-2.4,0.4C216.5,405.1,217.3,405,218.1,404.9z"/>
	<path id="XMLID_1916_" class="st29" d="M215.6,405.3c-0.7,0.2-1.5,0.3-2.2,0.5C214.1,405.6,214.9,405.4,215.6,405.3z"/>
	<path id="XMLID_1915_" class="st29" d="M213.3,405.8c-0.4-0.2-0.9-0.4-1.4-0.6c-0.3,0.4-0.5,0.9-0.7,1.3
		C211.9,406.3,212.6,406,213.3,405.8z"/>
	<path id="XMLID_1914_" class="st6" d="M179.3,407c0.6-0.4,1.3-0.8,1.9-1.2C180.6,406.2,179.9,406.6,179.3,407z"/>
	<path id="XMLID_1913_" class="st6" d="M147.5,444.8c0-0.7-0.1-1.4-0.1-2.1C147.4,443.4,147.4,444.1,147.5,444.8z"/>
	<path id="XMLID_1910_" class="st73" d="M301.6,341.4c-1.8-1-4.1-1-5.9-1.2c-0.2-1.5-0.6-2.5-0.9-3.5c-0.2,0.7-0.5,1.5-0.5,2.2
		c0,0.3,0.7,0.6,1.5,1.2c-0.3,0.7-0.7,2.4-0.2,2.7c8.1,4.6,16.3,9.1,24.6,13.4c0.7,0.3,2.2-1,3.3-1.5c-0.2,1.3,0.1,3.1-0.6,3.7
		c-2.9,2.5-5.8,3-8.5-0.6c-0.4-0.6-1.8-0.5-3.8-0.9c1.6,2.7,2.5,4.5,4.4,7.8c-8.6-3.8-15.5-6.8-23.3-10.2
		c2.6,9.7,12.3,6.7,17.4,12.5c-3.7,1.9-6.8,3.4-9.9,5c-0.2-0.7-0.5-1.5-0.7-2.2c-1.9-4.1-5.5-6.6-9.2-8.6c-5-2.7-10.5-4.7-15.7-7.2
		c-0.8-0.4-1.4-1.3-3.2-3.1c3.6,0.4,5.8,0.7,8.7,1c-0.2-4.5-0.7-7.4-5.9-7.2c-2.1,0.1-4.2-0.7-6.3-1.1l0,0c3.6-3.3,7.1-6.5,10.9-10
		c2.9,1.7,5.8,4.8,9.7,0.7c-1.6-1.1-3.2-2.1-4.7-3c2.5,0.6,5.1,1.3,7.7,1.9c0.6,0.1,1.4-0.3,2.6-0.6c-1.3-1.7-2.4-3-4.4-5.6
		c5.8,1.4,10.3,2.4,15.1,3.5c-0.2-3.8-0.4-6.5-0.6-9.2c2.6,1.1,4.3,2.9,4.5,5.9c0.1,1.1,1.3,2.1,2,3.2c-2.9,2.1-2.5,4.1,0.4,5.7
		c1.4,0.7,3.2,0.9,4.7,0.7c3.3-0.3,5.8,0.6,8.5,4.5c-4.3-0.6-7.4-1.1-10.5-1.6c3.8,7.7,11.8,8.4,17.4,12.7c-0.3,0.5-0.5,1-0.8,1.4
		c-2,0.2-4,0.4-6,0.7C316.2,350.2,309,345.7,301.6,341.4z M304.8,352.5c-8.5-4.4-17-8.6-25.6-12.8c-0.8-0.4-2,0.2-4.6,0.5
		c11.8,6.2,22.1,11.7,32.5,17.2c0.3-0.6,0.7-1.2,1-1.8C307.1,354.5,306.1,353.1,304.8,352.5z"/>
	<path id="XMLID_1909_" class="st25" d="M298.5,369.8c-1.9-4.1-5.5-6.6-9.2-8.6c-5-2.7-10.5-4.7-15.7-7.2c-0.8-0.4-1.4-1.3-3.2-3.1
		c3.6,0.4,5.8,0.7,8.7,1c-0.2-4.5-0.7-7.4-5.9-7.2c-2.1,0.1-4.2-0.7-6.3-1.1c-0.5,1.9-1.9,4.1-1.3,5.6c1.1,2.8,2.8,6.6,5.2,7.5
		c8.4,3.2,17.3,5.2,23.6,12.4C295.2,370,297.1,369.6,298.5,369.8z"/>
	<path id="XMLID_1908_" class="st40" d="M254.6,395.6c0.5-1,1-1.9,1.5-2.9c-4.2-2.2-8.3-4.4-12.5-6.6c-0.5,0.5-0.9,0.9-1.4,1.4
		c0.8,2.1,1.6,4.3,2.4,6.4c-2.1,2-6.6-4.7-7.3,2.1c3.4,0,6.8,0,10.2-0.1C250,395.9,252.3,395.7,254.6,395.6z"/>
	<path id="XMLID_1907_" class="st74" d="M252.3,368c0,1.3-0.1,2.5-0.1,3.8c6.6,3,12.6,7.6,20.7,9.7c-2-6-7.1-4.8-10.2-6.9
		C259.3,372.4,255.7,370.2,252.3,368z"/>
	<path id="XMLID_1906_" class="st75" d="M251.4,380c4.1,2.2,8.3,4.4,13.7,7.2C260.7,381.1,258.5,379.9,251.4,380z"/>
	<path id="XMLID_1905_" class="st24" d="M259,367.2c-0.9-5-5.1-5.1-8.5-6.3C253.3,363,256.2,365.1,259,367.2z"/>
	<path id="XMLID_1904_" class="st24" d="M235.5,371.8c4,2.1,6.4,3.4,10,5.3C243.6,371.5,240.5,371.3,235.5,371.8z"/>
	<path id="XMLID_1903_" class="st24" d="M265.1,368.9c3.3,1.7,6.6,3.5,9.8,5.2c0.2-0.3,0.4-0.6,0.6-1c-3.2-2-6.3-4-9.5-6
		C265.7,367.7,265.4,368.3,265.1,368.9z"/>
	<path id="XMLID_1902_" class="st42" d="M205.9,209.6c-0.3-0.8-0.5-1.5-0.8-2.3c-2.1-1-4.2-2.1-6.4-3.1c-2.1-1-4.4-1.7-6.4-3
		c-5.9-3.8-11.6-7.8-17.4-11.7l-0.1,0c1.3,1.8,2.7,3.7,4.2,5.8c-2.8,0.7-4.9,1.3-8.5,2.2c3,2.1,4.7,3.3,6.5,4.5
		c1.8,1.2,3.6,2.4,5.4,3.6c-0.3,0.3-0.5,0.7-0.8,1c-5.3-2.3-10.6-4.5-15.9-6.8c-0.3,0.5-0.6,1-0.8,1.5c7.3,5.5,14.6,11.1,22.9,17.4
		c-2.6,0-4.3,0-6.1,0c-0.3,1.9-0.7,4-1,6c1,0.5,2,1.1,3,1.6c5.4-3.2,8.4,0.9,13.2,3.8c-2.8,1.2-4.6,2-7,3c1.8,2.1,3.2,3.6,4.8,5.3
		c-2.8,4.7-2.1,8.5,4.3,10.9c-2.2,0.5-3.4,0.8-5.2,1.3c1,1.8,1.9,3.4,2.8,5c2.7-1.5,5.5-3.1,8.4-4.7c-2.8-1.8-5-3.2-7.3-4.7
		c0.2-0.4,0.4-0.8,0.6-1.2c3.5,0.6,7,1.3,10.5,1.9c1.5-9.6-1.2-18.8-1.9-28.3c-0.2-2.2-2.8-4.2-4.3-6.3
		C203.4,211.6,204.7,210.6,205.9,209.6z"/>
	<path id="XMLID_1901_" class="st76" d="M194.1,263.8c-3.8-2.1-7.6-3.4-7.3-9.6c0.1-2.6-4.3-6.2-7.5-8c-3.9-2.3-8.6-3.2-13-4.7
		l-0.1,0.1c-1.3,0.9-2.6,1.7-3.9,2.6c3.1,2.7,5.9,5.2,8.9,7.8c-2.8,2.4-7.9,0.8-6,6c1.2,0,2.5,0,3.7,0.1c2.5-1.1,4-0.3,4.4,2.3
		c1,0.5,2,1,2.9,1.6c0.5,0.3,1,0.5,1.5,0.8l0.1,0c2-0.1,4.2-0.7,6-0.1c2.8,0.9,5.4,2.6,8.2,3.7C192.3,266.3,193.4,264.6,194.1,263.8
		z"/>
	<path id="XMLID_1900_" class="st77" d="M194.1,263.8c-0.7,0.8-1.8,2.5-2.2,2.4c-2.8-1.1-5.3-2.8-8.2-3.7c-1.8-0.6-4,0-6,0.1
		c5.8,3.1,11.7,6.2,17.5,9.3c2.6,1.4,4.7,2.9,2.9,6.3c-2.9-1.1-5.7-2.2-8.5-3.3c-0.3,0.6-0.6,1.3-1,1.9c3.4,2.2,6.8,4.4,10.1,6.5
		c3,1.5,5.9,3.1,8.9,4.6c-0.5-1.5-1-3-1.4-4.5c-1.5-1-3-1.9-5.1-3.3c4.7-0.3,4.7-0.3,5.2,3.3c1-1.3,2.4-2.5,2.8-4
		c0.5-1.7,0.2-3.7,0.2-5.5c-4.4-1.3-9.8,0.8-13.7-4.8c2.5-0.3,4.4-0.5,7.9-0.8C199.4,266.2,196.8,265,194.1,263.8z"/>
	<path id="XMLID_1899_" class="st71" d="M208.8,246.9c-3.5-0.6-7-1.3-10.5-1.9c-0.2,0.4-0.4,0.8-0.6,1.2c2.3,1.5,4.6,2.9,7.3,4.7
		c-2.9,1.6-5.6,3.2-8.4,4.7c0.8,0.9,1.6,2.7,2.4,2.7c4.6,0,7.1,3.3,10.1,5.7c0.3-5.4,0.7-10.9,1-16.3
		C209.7,247.5,209.2,247.2,208.8,246.9z"/>
	<path id="XMLID_1898_" class="st78" d="M183.8,226.2c-1-0.5-2-1.1-3-1.6c-1.3-0.5-2.5-1.1-3.8-1.3c-0.6-0.1-1.3,0.5-2.8,1.1
		c4.1,2.2,7.5,4,11.3,6C184.9,228.9,184.4,227.6,183.8,226.2z"/>
	<path id="XMLID_1897_" class="st11" d="M164.8,206c0-0.2,0.1-0.6,0.1-0.6c-0.2-0.1-0.5-0.1-0.7-0.1c0,0.2-0.1,0.6-0.1,0.6
		C164.3,206,164.6,206,164.8,206z"/>
	<path id="XMLID_1896_" class="st79" d="M155.3,378.5c0.6,7.4,12,14,23.5,12.4C170.1,386.3,162.8,382.4,155.3,378.5z"/>
	<path id="XMLID_1895_" class="st80" d="M181,385.1c-1-1.2-1.9-2.7-3.2-3.5c-5.5-3.1-11.1-6.1-16.8-8.9c-2-1-4.4-1.3-7-1
		C163,376.5,170.6,383.7,181,385.1L181,385.1z"/>
	<path id="XMLID_1894_" class="st80" d="M183.1,388.1c0.5-1,1-2,1.6-3c-1.2,0-2.4,0-3.7,0l0,0C181.7,386.1,182.4,387.1,183.1,388.1z
		"/>
	<path id="XMLID_1893_" class="st25" d="M309.8,330.5c-2.9,2.1-2.5,4.1,0.4,5.7c1.4,0.7,3.2,0.9,4.7,0.7c3.3-0.3,5.8,0.6,8.5,4.5
		c-4.3-0.6-7.4-1.1-10.5-1.6c3.8,7.7,11.8,8.4,17.4,12.7c4.7-3.3,9.3-6.5,14.9-10.4c-6.4-3.4-11.6-6.1-16.8-8.9
		c0.2-0.5,0.4-0.9,0.5-1.4c6.9,2.4,13.8,4.8,21.5,7.5c-4.8-10.2-15-9.1-23.3-13.6c2.5-1,3.9-1.6,5.2-2.2c-5.6-6.1-10.3-8.2-17.2-7.7
		c3.7,2.3,7.1,4.4,10.9,6.8c-4.5,4.4-7.9,0.9-11.5-0.3c-1.4,3.6,0,5.4,2.9,5.8c4.3,0.6,5.4,3.8,7.3,7.3
		C319.4,333.7,314.6,332.1,309.8,330.5z"/>
	<path id="XMLID_1892_" class="st69" d="M377.3,313.3c0.3-0.5,0.5-1,0.8-1.4c-0.9-1.1-1.9-2.2-3.2-3.7c2.6-0.9,4.5-1.5,6.3-2.2
		c0.3-0.5,0.5-1,0.8-1.4c-5.5-2.2-11-4.6-16.7-6.5c-0.8-0.3-2.2,1-3.4,1.6c-0.4,1.4-0.8,2.8-1.1,3.8c-6.5,0.7-8.7-7.5-16.7-5.6
		c6.1,4,11,7.1,16,10.3c-0.2,0.4-0.4,0.8-0.6,1.2c-7.4-3.2-14.8-6.3-22.2-9.5c-0.1,2.3,0.4,4.1,3.2,4.6c1,0.2,1.8,1.4,2.7,2.2
		c4.1,3.2,10.3,3.3,11.9,10.1c-4.5-2.4-9-4.7-13.5-7.1h0c-0.3,0.5-0.5,1-0.8,1.5l0,0c0.7,1,1.4,2,2.2,3l0,0c1.2,1.3,2.4,2.5,3.6,3.8
		l0,0c4.8,4.3,10.8,5.9,16.9,7.1c2.4-2,4.7-4.1,7.1-6.1C372.9,317,375.1,315.2,377.3,313.3z"/>
	<path id="XMLID_1891_" class="st81" d="M337.3,299.8c7.4,3.2,14.8,6.3,22.2,9.5c0.2-0.4,0.4-0.8,0.6-1.2c-4.9-3.2-9.8-6.4-16-10.3
		c8-1.9,10.2,6.3,16.7,5.6c0.3-0.9,0.7-2.4,1.1-3.8c-1-0.5-2-1.1-2.9-1.6c-3-1.3-6-2.7-9-3.9c-4.8-1.9-6-3.9-4.8-9
		c-9.1,0.8-11.5,4.1-7.7,11C340.1,297.4,338.9,298.6,337.3,299.8z"/>
	<path id="XMLID_1890_" class="st19" d="M339.9,316.3c-2.2-0.6-4.4-1.3-6.7-1.9c-0.2,0.4-0.3,0.8-0.5,1.1c2.6,2.2,5.4,4.2,7.7,6.6
		c4.5,4.8,11.1,5.6,16.4,8.7c1.4-4.9-2.8-5.5-5.5-6.3C346.4,323,342.8,320.2,339.9,316.3z"/>
	<path id="XMLID_1889_" class="st82" d="M339.9,316.3c3,3.9,6.6,6.7,11.4,8.2c2.7,0.8,7,1.4,5.5,6.3c0.4,0.2,0.8,0.5,1.3,0.7
		c1.9-2.2,3.7-4.4,5.6-6.5c-6.1-1.2-12.1-2.8-16.9-7.1C344.4,317.4,342.1,316.8,339.9,316.3z"/>
	<path id="XMLID_1888_" class="st82" d="M341.6,309.6c4.5,2.4,9,4.7,13.5,7.1c-1.6-6.8-7.8-6.9-11.9-10.1
		C342.7,307.6,342.1,308.6,341.6,309.6z"/>
	<path id="XMLID_1887_" class="st82" d="M346.7,317.9c-1.2-1.3-2.4-2.5-3.6-3.8C344.2,315.3,345.4,316.6,346.7,317.9z"/>
	<path id="XMLID_1886_" class="st82" d="M343,314.1c-0.7-1-1.4-2-2.2-3C341.6,312,342.3,313.1,343,314.1z"/>
	<path id="XMLID_1885_" class="st82" d="M340.8,311c0.3-0.5,0.5-1,0.8-1.5C341.3,310.1,341.1,310.6,340.8,311z"/>
	<path id="XMLID_1884_" class="st83" d="M383.8,290.3c-1.2-1.2-2.4-2.5-3.6-3.7c-2.1-0.8-4.3-1.6-6.4-2.5c-2.5-1.2-5-2.6-7.8-3.3
		c3.3,5.3,8.3,8.3,15.4,10.9c-5.9,2.7-9.5,0.5-12.3-2c-2.7-2.3-5.2-3.4-10-2.6c6.8,5.3,11.7,11.3,20,12.1l0,0
		c1.3-1.2,2.5-2.4,3.8-3.6l0,0c-0.2-0.7-0.5-1.5-0.7-2.2c0.2-0.5,0.5-1,0.8-1.5C383.3,291.3,383.5,290.8,383.8,290.3z"/>
	<path id="XMLID_1883_" class="st28" d="M388.5,281.5c-0.5-0.3-1-0.5-1.4-0.8c-0.7,0.2-1.5,0.4-2.2,0.6c-2.5-1.3-4.9-2.6-7.4-3.9
		c-2.1-1.7-4.5-3.1-6.3-5c-4.8-5.2-5-5.4-14.1-4.7c4,3.8,7.3,7.3,12.5,9c2.7,0.9,4.7,3.9,7,6c0.5,0.2,1,0.5,1.5,0.7
		c1.7,0.3,3.5,0.6,5.2,0.9l0,0c0.7-0.2,1.5-0.4,2.2-0.7c1.2,0,2.5,0,3.7,0C388.9,283,388.7,282.3,388.5,281.5z"/>
	<path id="XMLID_1882_" class="st69" d="M345.1,285c-1.1,5.2,0,7.1,4.8,9c3.1,1.2,6,2.6,9,3.9c0.7-6.5-1.8-11.4-6.4-14.1
		c-2.7,0.8-4.3,1.3-6,1.8C346.1,285.5,345.6,285.3,345.1,285z"/>
	<path id="XMLID_1881_" class="st84" d="M291.1,169.7c3.4,1.8,6.8,3.6,10.3,5.4c2.4-1.6,5.5-2.2,5.7-6.2c0.1-1.5,2.7-2.8,4.7-4.6
		c-3.3-2.2-6.4-4.2-10.3-6.8c2.7-1.3,4.7-2.3,7.8-3.8c-4.7-3.5-8.5-6.4-12.3-9.3l-0.2,0c-0.2,0.5-0.4,0.9-0.7,1.4
		c-0.8,2.5-1.7,5-2.4,7.5c-1.1,4.1-2.2,8.2-3.1,12.4C290.3,167,290.9,168.4,291.1,169.7z"/>
	<path id="XMLID_1880_" class="st84" d="M308,141c-1.7-1.5-3.4-3.1-5.1-4.6c-1.8-0.4-2.9-4.6-5.3-0.9c-0.3,1.7-0.5,3.4-0.8,5.1
		c-0.5,1-1,2-1.6,3l0,0c0.5,0.2,0.9,0.5,1.4,0.8l0.2,0c3.3,0.5,6.6,1,10.3,1.6C307.5,144.4,307.7,142.7,308,141z"/>
	<path id="XMLID_1879_" class="st84" d="M311.7,144.8c-0.5-0.3-1-0.5-1.4-0.8C310.7,144.3,311.2,144.5,311.7,144.8z"/>
	<path id="XMLID_1878_" class="st84" d="M301.3,175.1c0.2,0.8,0.5,1.5,0.7,2.3C301.8,176.6,301.6,175.9,301.3,175.1z"/>
	<path id="XMLID_1877_" class="st85" d="M282.7,71c-0.3,3-0.6,6-0.9,9c5.3-4.6,6.4-7.5,6-15.4c0-0.5,0.1-1.4,0.3-1.5
		c3.9-1.4,1.1-3.9,1.2-6.1c0.1-5.5,0.2-11,1-16.5c0.5-3.3,2.4-6.5,3.6-9.8c6.4-0.1,8.6,1.3,8.6,7.5c0,5.5,1.1,10.3,3.7,15
		c1.6,2.9,1.9,5.8-3.1,7.8c6.6,2,6,7,7.2,11.2c2.9-6.7-1.2-12.9-1-19.5c-0.9-5.5-1.7-11-2.6-16.5c-0.6-0.6-1.5-1.1-1.7-1.7
		c-2.2-9.9-2.2-9.9-12.1-12.4c-4.3,5.2-6.5,11.1-6,18.1c0.1,1.2-0.9,2.5-1.4,3.8c1,6,0.9,12-1.1,17.9c-0.4,1,0.4,2.5,0.8,3.7
		C286.4,68.6,284.5,69.7,282.7,71z"/>
	<path id="XMLID_1876_" class="st39" d="M309.3,52.9c-0.2,6.5,3.9,12.8,1,19.5c0.7,1,1.4,2,2.1,3c0,0,0.2-0.1,0.2-0.1
		c2-3.1,2.7-6.3,1.2-10c-0.7-1.7-0.9-3.8-0.5-5.5C314.1,56.2,312.2,54.4,309.3,52.9z"/>
	<path id="XMLID_1875_" class="st86" d="M176.3,261.9c-1-0.5-2-1.1-2.9-1.6c-2.7,1.6-3.2-1.1-4.4-2.3c-1.2,0-2.5,0-3.7-0.1
		c-1.2,0.9-2.4,1.8-3.5,2.7c-0.3-0.3-0.6-0.6-0.9-0.9c0.5-1.1,1-2.2,1.5-3.4c-1.5-0.1-3-0.3-5-0.4c0.3,7.9,6,10.5,10.8,14.2
		c-3.3-1.2-6.6-2.4-10.4-3.8c-0.5,3.6,4.3,6.7-0.3,9.1c-0.1,0.1,0.5,2,1.1,2.8c1.8,2.3,3.7,4.4,6.2,7.3c-3.3-1.5-5.9-2.7-9.7-4.3
		c1.1,2.9,1.7,4.8,2.5,7c-1.2,0.5-2.4,1-3.5,1.5c1.3,3,2.5,6.1,4,9.6c-0.3,0.4-2.4,2.4-2.2,2.8c1.1,1.6,3,2.8,4.5,4.1
		c0.2-1.3,0.4-2.6,0.6-3.8c2.5,0,4.4,0,8.3,0c-4.3-2.9-6.9-4.7-9.5-6.5c9.9,0,17.3,6.4,25.7,10c0.3-0.5,0.6-1,1-1.5
		c-4.2-3.4-8.4-6.9-13.6-11.1c6.4,0.1,7.8,0.1,10.3,2.8c4.4,4.7,10,6.7,16.1,8c1,0.4,2,0.9,4.3,2c-1.9-2.6-3.1-4.1-4.2-5.7
		c-6.8-1.1-11.4-5.4-15.8-11.5c4.1,1.5,7.5,2.8,10.9,4c-3.7-6-10.6-7.3-16.1-11.8c2.5-1,4.5-1.7,6.3-2.6c0.5-0.2,0.6-1.1,1.2-2.4
		c-2.8,0.5-4.9,0.8-5.8,1c-3.6-3.4-6.4-6.1-9.4-8.8c-2-1.8-4.2-3.5-6.3-5.2l-0.7,0.4l-0.1-0.4l0.8,0c4,0.8,7.9,1.7,11.9,2.5
		c0.3-0.5,0.5-1,0.8-1.5l0,0C176.8,263.4,176.5,262.6,176.3,261.9z"/>
	<path id="XMLID_1874_" class="st87" d="M162.2,256.3c-0.5,1.1-1,2.2-1.5,3.4c0.3,0.3,0.6,0.6,0.9,0.9c1.2-0.9,2.4-1.8,3.5-2.7
		c-1.9-5.2,3.2-3.6,6-6c-3-2.6-5.8-5.1-8.9-7.8c1.3-0.9,2.6-1.8,3.9-2.6c-6.6-4.2-6.6-4.2-3.2-11.3c-1.7-1.4-3.5-3-5.3-4.5
		c0.5,6.9,0.9,13.9,1.4,20.8c1.4,0.5,2.6,1,4.9,1.9c-2.1,0.8-3.4,1.3-5.2,2C160,252.4,161.1,254.4,162.2,256.3z"/>
	<path id="XMLID_1873_" class="st1" d="M171.8,227.5c-1,0.3-2,0.5-3.1,0.8c0.2,0.4,0.4,0.8,0.6,1.1
		C170.2,228.8,171,228.1,171.8,227.5L171.8,227.5z"/>
	<path id="XMLID_1872_" class="st88" d="M152.5,424.7c-1.1,8.1-0.9,8.4,6.8,8c-1.4-2.4-2.6-4.4-3.9-6.4
		C154.5,425.8,153.5,425.3,152.5,424.7z"/>
	<path id="XMLID_1871_" class="st76" d="M176.2,265.6c-4-0.8-7.9-1.7-11.9-2.5c2.1,1.7,4.3,3.4,6.3,5.2c2.9,2.7,5.8,5.4,9.4,8.8
		c0.9-0.1,3-0.5,5.8-1c-0.6,1.3-0.7,2.2-1.2,2.4c-1.9,0.9-3.8,1.6-6.3,2.6c5.5,4.5,12.4,5.8,16.1,11.8c-3.4-1.2-6.7-2.5-10.9-4
		c4.4,6.1,9,10.4,15.8,11.5c-2-2.5,4.2-4.8-0.1-8.1c-1.5-1.1-0.3-5.9-0.3-9.1c-3.4-2.2-6.8-4.4-10.1-6.5c0.3-0.6,0.6-1.3,1-1.9
		c2.8,1.1,5.6,2.2,8.5,3.3c1.8-3.4-0.3-4.9-2.9-6.3c-5.9-3.1-11.7-6.2-17.5-9.3l-0.1,0c-0.2,0.5-0.5,1-0.7,1.5l0,0
		c1.9,1.1,3.8,2.2,5.6,3.4c-0.2,0.4-0.5,0.8-0.7,1.1C180,267.6,178.1,266.6,176.2,265.6z"/>
	<path id="XMLID_1870_" class="st89" d="M199.2,304.2c-6-1.3-11.6-3.2-16.1-8c-2.5-2.7-3.9-2.7-10.3-2.8c5.1,4.2,9.4,7.7,13.6,11.1
		c-0.3,0.5-0.6,1-1,1.5c-8.4-3.6-15.8-10-25.7-10c2.6,1.8,5.2,3.5,9.5,6.5c-3.9,0-5.8,0-8.3,0c-0.2,1.2-0.4,2.5-0.6,3.8
		c1.3,0.4,2.6,1.2,3.8,1.2c3.8-0.1,7.6-0.5,11.2-0.8c0.5,3.4,0.9,5.8,1.3,8.2c0.5,0.3,1,0.5,1.4,0.8c0.5,0.3,1,0.5,1.5,0.8
		c0.5-1,1-2,1.5-2.9c0.5-1,1-2,1.6-2.9c0-0.7-0.1-2.1,0.1-2.1c3.7-0.5,7.5-0.9,11.2-1.4c0.3,0,0.5,0,0.8,0c-0.3,0-0.5,0-0.8,0
		c0.7,1,1.4,2,2.2,3C197.1,308.1,198.2,306.1,199.2,304.2z"/>
	<path id="XMLID_1869_" class="st90" d="M244.6,311.1c-0.5,1.1-1,2.2-1.4,3.3c1.7,0,4.1,0.6,5.1-0.3c2-1.9,4.6-4.6,4.6-7
		c0.1-2.6,2.3-4.2,2.2-5c-0.3-4.6,3.9-7.3,4.2-11.5c3.2-5,6.4-10,10.4-16.2c-1.8-2.2-4.3-5.3-6.9-8.4c-4.5,4.3,0.8,7.5,1.8,11
		c-1.8,0.5-3.8,0.5-4.3,1.3c-1.2,1.8-1.5,4-2.4,6c-1.1,2.8-1.8,7.2-3.7,7.9c-4.3,1.6-4.6,4.9-5.7,8.1
		C247.1,304,245.9,307.6,244.6,311.1z"/>
	<path id="XMLID_1868_" class="st91" d="M262.2,195.9c2.4,2.6,4.8,5.1,7.2,7.7c3.4,0.6,6.8,1.3,11.1,2.1c-0.6,4.7-1.2,9.3-1.9,15
		c-2.9-1.2-5-2.1-7.2-3c-0.9,2.6-1.7,5.1-2.8,8.2c-2-0.1-4.2-0.2-7.9-0.3c3.5,2.9,9.2,3.6,4.9,9c-2-1.1-3.9-2-6.4-3.4
		c1.1,4.5,7.9,5.5,4.9,10.9c2,1.1,4,2.1,6,3.2c0.6-0.5,1.7-1.4,1.8-1.3c3.4,4,8.3,1.8,12.3,3.1l0,0c0.3-0.5,0.5-1,0.8-1.5l0,0
		c-3.6-3.1-7.3-6.2-12.2-10.5c4.6,0.7,7.2,1.1,9.9,1.5c-1-2.5-1.7-4.5-2.4-6.1c3.3-0.8,5.6-1.4,8-2.1c-0.8-1.4-1.5-2.8-3-5.3
		c3.1,1,5.2,1.7,7.6,2.5c-1.6-4.5-1.6-6,0.1-9.8c-1-1.8-0.5-2.8,1.5-2.9l0,0c-1.2-3.8-2.3-7.5-3.5-11.3c0-0.3,0-0.5,0-0.8
		c0,0.3,0,0.5,0,0.8c2.5,1.1,4.9,1.4,8-1.5c-3.4-1.8-6-3-8.4-4.5c-1.9-1.3-3.6-3-5.3-4.5c-1.7-1.5-3.3-3.1-5-4.6
		c-0.3,0.4-0.6,0.9-0.8,1.3c-1.2,0-2.5,0-3.7,0l0,0c0.7,2.1,1.3,4.3,2.6,8.4c-4.5-2.2-7.3-3.5-10-4.8c-0.5,1-1.3,1.9-1.4,2.9
		C266.1,198.5,264.1,197,262.2,195.9z"/>
	<path id="XMLID_1867_" class="st72" d="M244.6,311.1c1.3-3.6,2.5-7.2,3.8-10.8c1.1-3.2,1.4-6.5,5.7-8.1c2-0.7,2.6-5.1,3.7-7.9
		c0.8-2,1.2-4.3,2.4-6c0.6-0.8,2.5-0.8,4.3-1.3c-0.9-3.5-6.3-6.6-1.8-11l0,0c1.6-4.2,3.2-8.4,4.8-12.6c-3.1-1.8-6.2-3.6-8.3,1.3
		c-0.3,0.5-0.5,1-0.8,1.4c-1.6,4.2-3.2,8.4-4.8,12.6c-0.5,1-1,2-1.5,3c-0.5,1-1,2-1.6,2.9c-2.1,6.4-4.3,12.8-6.4,19.1
		c-0.4,4.4-0.9,8.8-1,13.2C243.1,308.4,244.1,309.8,244.6,311.1z"/>
	<path id="XMLID_1866_" class="st92" d="M271.3,217.7c2.2,0.9,4.4,1.8,7.2,3c0.7-5.7,1.3-10.3,1.9-15c-4.3-0.8-7.7-1.5-11.1-2.1
		c-0.3,0.5-0.5,1-0.8,1.5c1.2,1,3,1.7,3.6,3c1.4,3,0,4-3,2.9c-0.3,0.5-0.5,1-0.8,1.5c0.5,0.3,1,0.5,1.5,0.8c0.2,0.7,0.5,1.5,0.7,2.2
		l0,0C270.8,216.2,271,216.9,271.3,217.7L271.3,217.7z"/>
	<path id="XMLID_1865_" class="st93" d="M259.2,254.8c2-4.9,5.1-3.2,8.3-1.3l0.1-0.1c0.9-0.9,1.8-2.6,2.8-2.7
		c2.6-0.2,5.3,0.3,8.4,0.5c-3.4-2.3-6.1-4.1-8.8-5.9c-2-1.1-4-2.1-6-3.2c-0.8,0.2-2.2,0.2-2.3,0.5
		C260.8,246.7,260,250.7,259.2,254.8z"/>
	<path id="XMLID_1864_" class="st94" d="M269.2,211c3,1.1,4.4,0.1,3-2.9c-0.6-1.3-2.4-2-3.6-3c-1.2-0.6-2.3-1.4-3.5-1.7
		c-3.5-0.9-4.3,0.7-3.2,3.8c1.5,0.8,2.9,1.6,4.4,2.3C267.2,209.9,268.2,210.4,269.2,211z"/>
	<path id="XMLID_1863_" class="st44" d="M269.2,211c-1-0.5-2-1-2.9-1.5c0.7,1,1.4,2,2.2,3C268.7,211.9,268.9,211.5,269.2,211z"/>
	<path id="XMLID_1862_" class="st44" d="M270.6,215.5c-0.2-0.7-0.5-1.5-0.7-2.2C270.1,214,270.3,214.7,270.6,215.5z"/>
	<path id="XMLID_1861_" class="st44" d="M271.3,217.7c-0.2-0.7-0.5-1.4-0.7-2.2C270.8,216.2,271,216.9,271.3,217.7z"/>
	<path id="XMLID_1860_" class="st95" d="M192.5,366.6c0.1-1.2,0.1-2.5,0.2-3.7c-0.5-0.2-1-0.5-1.4-0.7c-6.7-5.2-14.1-9-22.2-11.7
		c-1.5-0.7-3-1.5-4.4-2.2c-0.5,1-1,2-1.6,2.9l0,0c1.1,0.7,2.3,1.5,3.9,2.5c-1.6,1.6-2.9,2.9-4.5,4.6c6.1,7.6,16.8,7.5,23.3,14.2
		c-0.9-4.6-3-6.5-14.8-14.7C178.9,358.8,185.1,364.2,192.5,366.6z"/>
	<path id="XMLID_1859_" class="st96" d="M151.3,344.9c-1,0.7-2,1.5-3,2.2c2.6,1.8,5,4.2,7.9,5.2c1.9,0.7,4.5-0.8,6.8-1.2l0,0
		c-0.5-0.3-1-0.5-1.5-0.8c-1-0.5-1.9-1-2.9-1.6C156.3,347.5,153.8,346.2,151.3,344.9L151.3,344.9z"/>
	<path id="XMLID_1858_" class="st70" d="M383.4,244.8c-1.1,1.2-2.1,2.4-3.1,3.6c3,2.6,6.1,5.2,9.8,8.4c-3.2,1.3-5.1,2.1-7,2.9
		c3.5,2.6,7,5,10.3,7.8c0.7,0.6,0.4,2.4,0.6,3.6c-1.2,0-2.5-0.1-3.7-0.1c-0.5-0.2-1-0.5-1.5-0.7c0.5,1.5,0.9,3,1.4,4.5v0
		c1.7,0.3,3.5,0.6,5.2,0.9l0.1,0c1.9-3.5,3.7-7,5.4-10.2c-1.3-3.2-4.1-4.2-3.3-8.3C398.6,251.7,391.1,246.1,383.4,244.8z"/>
	<path id="XMLID_1857_" class="st97" d="M395.3,275.7c-1.7-0.3-3.5-0.6-5.2-0.9c0.7,2.3,1.4,4.5,2.1,6.8
		C393,279.5,397.8,279.5,395.3,275.7z"/>
	<path id="XMLID_1856_" class="st5" d="M382.9,295.6c-1.3,1.2-2.5,2.4-3.8,3.6C382.6,300.3,384.1,299.3,382.9,295.6z"/>
	<path id="XMLID_1855_" class="st97" d="M390.1,274.8c-0.5-1.5-0.9-3-1.4-4.5C385.9,272.3,386,272.4,390.1,274.8z"/>
	<path id="XMLID_1854_" class="st5" d="M383.2,284.4c-1.7-0.3-3.5-0.6-5.2-0.9C379.7,283.8,381.5,284.1,383.2,284.4z"/>
	<path id="XMLID_1853_" class="st97" d="M390.2,271.1c1.2,0,2.5,0.1,3.7,0.1C392.7,271.1,391.4,271.1,390.2,271.1z"/>
	<path id="XMLID_1852_" class="st5" d="M385.6,276.2c-1.2-0.1-2.5-0.1-3.7-0.2C383.1,276.1,384.3,276.2,385.6,276.2z"/>
	<path id="XMLID_1851_" class="st5" d="M386.4,274.8c-0.2,0.5-0.5,1-0.7,1.5c0.4-0.3,0.8-0.5,1.1-0.8
		C386.8,275.4,386.5,275,386.4,274.8z"/>
	<path id="XMLID_1850_" class="st5" d="M379,274.6c-0.5-0.3-1-0.5-1.5-0.8C378,274.1,378.5,274.3,379,274.6z"/>
	<path id="XMLID_1849_" class="st5" d="M388.5,281.5c0.2,0.7,0.5,1.5,0.7,2.2C388.9,283,388.7,282.3,388.5,281.5z"/>
	<path id="XMLID_1848_" class="st5" d="M384.8,281.4c0.7-0.2,1.5-0.4,2.2-0.6C386.3,281,385.5,281.2,384.8,281.4z"/>
	<path id="XMLID_1847_" class="st5" d="M385.4,283.7c-0.7,0.2-1.5,0.4-2.2,0.7C383.9,284.2,384.7,283.9,385.4,283.7z"/>
	<path id="XMLID_1846_" class="st5" d="M383.8,290.3c-0.3,0.5-0.5,1-0.8,1.5C383.3,291.3,383.5,290.8,383.8,290.3z"/>
	<path id="XMLID_1845_" class="st5" d="M382.3,293.3c0.2,0.7,0.5,1.5,0.7,2.2C382.7,294.8,382.5,294.1,382.3,293.3z"/>
	<path id="XMLID_1844_" class="st98" d="M280.2,186.7c1.7,1.5,3.3,3.1,5,4.6c3.5-0.7,7.1-1.4,10.6-2.1c-1.4-0.8-2.9-1.6-4.3-2.2
		c-4.5-2-5.4-5-2.8-9.1c0.8-2.7,1.6-5.4,2.4-8.1c-0.2-1.3-0.8-2.7-0.5-3.9c0.9-4.2,2-8.3,3.1-12.4c0.7-2.5,1.6-5,2.4-7.5
		c-0.2-0.7-0.5-1.5-0.7-2.2l0,0c-6.7,0.3-11.2-4.9-17.7-6c3.7,3.4,7.4,6.9,12.1,11.2c-1,3.3-2.4,7.9-3.8,12.5
		c-1.6,5.4-3.2,10.9-4.8,16.3C280.8,180.7,280.5,183.7,280.2,186.7z"/>
	<path id="XMLID_1843_" class="st99" d="M285.9,161.4c1.4-4.6,2.8-9.2,3.8-12.5c-4.7-4.4-8.4-7.8-12.1-11.2c6.4,1.2,11,6.3,17.7,6
		c0.5-1,1-2,1.6-3c-5.7-2.3-12.9-2.5-14-10.6c-2.5-0.1-4.5-0.1-6.6-0.2c-0.3,0.5-0.5,1-0.8,1.4c-2.6,4.5-1.3,8.7,0.9,12.8
		c-1.9,0.5-6.4-0.5-2,3.6c0.5,0.3,1,0.5,1.5,0.8c0.5,0.3,1,0.5,1.5,0.7c0.5,0.3,1,0.5,1.5,0.8l0,0c1,1.8,0.5,2.8-1.6,2.9
		c-0.5-0.2-1-0.5-1.4-0.7c-0.3,0.5-0.5,0.9-0.8,1.4l0,0c0.2,0.7,0.5,1.5,0.7,2.2l0,0C279.1,157.7,282.5,159.5,285.9,161.4z"/>
	<path id="XMLID_1842_" class="st100" d="M280.2,186.7c0.3-3,0.6-6,1-9c-0.6,0.9-1.1,2.2-1.9,2.6c-4.1,1.9-8.2,3.5-13.3,5.7
		c2.4,1.5,3.8,2.5,5.3,3.4c1.5-0.5,3-0.9,4.5-1.4l0,0c1.2,0,2.5,0,3.7,0C279.6,187.5,279.9,187.1,280.2,186.7z"/>
	<path id="XMLID_1841_" class="st98" d="M275.7,188c-1.5,0.5-3,0.9-4.5,1.4c0.9,0.6,1.8,1.2,3.4,2.2c-2.7,0-4.5,0-6.4,0
		c2.8,1.3,5.5,2.6,10,4.8C277,192.3,276.3,190.1,275.7,188z"/>
	<path id="XMLID_1840_" class="st101" d="M151.6,333.7c0.5,0.3,1,0.6,1.5,0.9c1,0.5,1.9,1,2.9,1.5c0.5,0.3,1,0.5,1.5,0.8
		c1.7,0.3,3.4,0.5,5.2,0.8c-1.7-2.2-3.3-4.5-5.4-7.2c6.2-1.6,10.8,0.5,15.2,3.1c1,0.5,1.9,1,2.9,1.6c2.8-2.1,0.4-3.3-1-4.2
		c-3.1-2-6.3-3.7-9.9-5.7c4.6-3,7-0.3,9.6,1.5c1.3-1.2,3.9-1.6,2.3-4.4c-0.7-1-1.4-2-2.1-3c0.3-0.5,0.5-1,0.8-1.5
		c-1.4-2-2.8-4-4.3-6.2c-1.2,1.4-1.9,2.3-2.7,3.2c-1.2-0.9-2.3-1.7-3.3-2.4c-1.2,0-2.5-0.1-3.7-0.1c-0.3,2.1-0.6,4.1-1,7
		c-2.2,0.5-4.8,1.1-7.4,1.8c-0.5,1.1-1.5,2.4-1.3,3.3c0.8,2.8,2.1,5.4,3.2,8.1C153.5,332.8,152.5,333.3,151.6,333.7z"/>
	<path id="XMLID_1839_" class="st86" d="M164.7,312.3c1.1,0.8,2.1,1.6,3.3,2.4c0.8-0.9,1.5-1.8,2.7-3.2c1.5,2.2,2.9,4.2,4.3,6.2
		c4.5,2.4,9,4.8,13.5,7.1c0.4-0.6,0.8-1.3,1.1-1.9c-3.4-2.2-6.8-4.4-10.1-6.7c-0.5-0.3-1-0.5-1.5-0.8l-0.7-0.4l-0.7-0.4
		c-0.4-2.4-0.7-4.8-1.3-8.2c-3.6,0.3-7.4,0.7-11.2,0.8c-1.3,0-2.5-0.8-3.8-1.2c-1.8,1.5-3.6,2.9-6.1,4.9c0.3,0.4,1.1,1.7,2,3
		c-1.2,2.2-2.4,4.6-3.6,6.9c2.6-0.6,5.2-1.2,7.4-1.8c0.4-2.9,0.7-4.9,1-7c0.2-0.9,0.4-1.7,0.6-2.6
		C162.6,310.6,163.7,311.5,164.7,312.3z"/>
	<path id="XMLID_1838_" class="st102" d="M174.1,326.6c-2.6-1.8-5-4.6-9.6-1.5c3.6,2,6.8,3.7,9.9,5.7c1.4,0.9,3.8,2.1,1,4.2
		c2.4,5.8,8.1,3.9,12.6,6.2c-1.4-3.8-7.7-3-5.8-8.3c-1.2-1.3-2.4-2.6-3.6-3.8C177.1,328.3,175.6,327.5,174.1,326.6z"/>
	<path id="XMLID_1837_" class="st96" d="M192.6,334.6c0.3-1.8,6.1-0.6,2.3-4.5c-3.6-1.9-7.2-3.9-10.9-5.6c-1.4-0.7-3.8-1.9-4,1.6
		C184.2,329,188.4,331.8,192.6,334.6z"/>
	<path id="XMLID_1836_" class="st101" d="M192.6,334.6c-4.2-2.8-8.3-5.6-12.5-8.5c-0.5,1-1,1.9-1.5,2.9c1.2,1.3,2.4,2.6,3.6,3.8
		c1.7,0.3,3.5,0.6,5.2,0.8C189.1,334,190.8,334.3,192.6,334.6L192.6,334.6z"/>
	<path id="XMLID_1835_" class="st86" d="M182.7,310.5c-0.5,1-1,2-1.6,2.9c1.9,0.6,3.8,1.2,6.1,1.9
		C187.2,311.9,184.3,311.8,182.7,310.5z"/>
	<path id="XMLID_1834_" class="st96" d="M174.3,319.3c0.7,1,1.4,2,2.1,3C175.7,321.3,175,320.3,174.3,319.3z"/>
	<path id="XMLID_1833_" class="st93" d="M267.5,253.5c-1.6,4.2-3.2,8.4-4.8,12.6c4.8-5.2,10.4-5.2,16.5-2.6c0.3-0.5,0.5-1,0.8-1.5
		c-3.1-4.3-6.3-8.5-12.4-8.5L267.5,253.5z"/>
	<path id="XMLID_1832_" class="st103" d="M295.8,189.1c-3.5,0.7-7,1.4-10.6,2.1c1.8,1.5,3.4,3.3,5.3,4.5c2.4,1.6,5.1,2.8,8.4,4.5
		c-3.1,2.9-5.5,2.5-8,1.5l0,0c1.2,3.8,2.3,7.5,3.5,11.3c1.2,0,2.5,0.1,3.7,0.1c2-0.7,4-1.5,6-2.2c0.3-6.3,4.8-13.3-2.6-18.6l0-0.1
		C299.7,191.2,297.8,190.2,295.8,189.1z"/>
	<path id="XMLID_1831_" class="st104" d="M288.2,228.5c-2.4,0.6-4.8,1.2-8,2.1c0.6,1.6,1.4,3.6,2.4,6.1c-2.7-0.4-5.3-0.8-9.9-1.5
		c4.9,4.2,8.5,7.3,12.2,10.5c-0.2-1-0.4-2.1-0.6-3.5c3.1,0.8,5.9,1.5,8.7,2.2c0.1-1.3,0.1-2.5,0.2-3.8
		C289,237.6,289.8,232.6,288.2,228.5z"/>
	<path id="XMLID_1830_" class="st103" d="M294.5,213c-2,0.2-2.6,1.2-1.5,2.9C293.5,215,294,214,294.5,213z"/>
	<path id="XMLID_1829_" class="st104" d="M294.6,241.3c-0.2-0.7-0.5-1.4-0.7-2.2c-0.3,0.5-0.5,1-0.8,1.4
		C293.6,240.8,294.1,241.1,294.6,241.3z"/>
	<path id="XMLID_1828_" class="st29" d="M211.9,405.2c-0.6-1.6-0.8-3.6-1.9-4.6c-1.8-1.5-3.6-2.5-2.4-5.2c-4.9-1.1-6.9,1.8-8.5,6.9
		C203.6,403.3,207.8,404.2,211.9,405.2z"/>
	<path id="XMLID_1827_" class="st21" d="M275.6,155.9c-0.2-0.7-0.5-1.5-0.7-2.2c-0.3,0.5-0.5,1-0.8,1.5
		C274.6,155.4,275.1,155.7,275.6,155.9z"/>
	<path id="XMLID_1826_" class="st57" d="M252.1,271.8c0.5-1,1-2,1.5-3c-0.2-0.1-0.5-0.3-0.7-0.4c-1.8-0.8-4-1.9-4.7,0.8
		C247.5,272.5,250.6,271.3,252.1,271.8z"/>
	<path id="XMLID_1825_" class="st105" d="M295.8,189.1c2,1,4,2,5.9,3.1c-0.1-2.2-0.2-4.5-0.3-7.6c-3.8-2-8.3-4.4-12.8-6.7
		c-2.7,4.1-1.7,7.1,2.8,9.1C292.9,187.6,294.3,188.4,295.8,189.1z"/>
	<path id="XMLID_1824_" class="st106" d="M312.4,75.4c-0.7-1-1.4-2-2.1-3c-1.1-4.2-0.6-9.2-7.2-11.2c4.9-2,4.7-4.9,3.1-7.8
		c-2.6-4.7-3.7-9.5-3.7-15c0-6.2-2.2-7.6-8.6-7.5c-1.3,3.3-3.1,6.4-3.6,9.8c-0.8,5.4-1,11-1,16.5c0,2.1,2.8,4.6-1.2,6.1
		c-0.3,0.1-0.4,1-0.3,1.5c0.4,7.9-0.7,10.8-6,15.4l0,0c0.2,0.7,0.5,1.5,0.7,2.2l0,0c1,1.8,0.5,2.8-1.6,2.9c-0.6,0.4-1.8,1.1-1.8,1.2
		c1.4,3.1,1.9,5.9-1.8,7.9c-0.1,0.1,0.7,1.8,1.1,2.8c4.1-3.9,7.1-0.5,10.2,1.7c0.3-0.4,0.6-0.9,0.9-1.3c1.4-0.6,2.8-1.2,4.7-2.1
		c-4.1-2.2-7.5-4-11.7-6.2c7-4.5,10.5,2.7,15.5,2.7c-0.7-1.8-1.3-3.5-2-5.3c2-0.1,3.2,0.4,4,1.3c3.3,3.5,6.4,7.2,9.6,10.8
		c3.1-3.9-0.8-5.7-2.9-8.6C311.6,86.2,307.3,79.2,312.4,75.4z"/>
	<path id="XMLID_1823_" class="st107" d="M309.7,98.5c-3.2-3.6-6.4-7.2-9.6-10.8c-0.8-0.9-2-1.4-4-1.3c0.7,1.8,1.3,3.5,2,5.3
		c-5,0-8.5-7.2-15.5-2.7c4.2,2.2,7.6,4,11.7,6.2c-2,0.9-3.3,1.5-4.7,2.1c3.3,3.2,6.7,6.2,11.8,6.6c2,0.2,3.9,1.7,5.9,2.7
		c1.3-2.4,2.6-4.9,3.8-7.3C310.7,99.1,310.2,98.8,309.7,98.5z"/>
	<path id="XMLID_1822_" class="st105" d="M307.3,106.6c-2-0.9-3.9-2.5-5.9-2.7c-5.1-0.4-8.4-3.4-11.8-6.6c-0.3,0.5-0.6,0.9-0.9,1.3
		c1.6,2.3,3.2,4.6,4.7,6.7c-4.1-0.7-8.7-1.5-13.1-2.2c-0.2,2.6-0.4,4.2-0.5,5.8c-0.2,0.5-0.5,1-0.7,1.5c5,2.3,10.1,4.7,15.9,7.4
		c0.8-0.5,2.4-1.4,4-2.4c1.5-0.4,3-0.9,4.5-1.3c-0.8-2.5-1.6-4.9-2.9-8.8c3,1.4,5.3,2.5,7.5,3.5
		C307.8,108.1,307.6,107.4,307.3,106.6z"/>
	<path id="XMLID_1821_" class="st105" d="M297.6,135.5c2.4-3.7,3.6,0.4,5.3,0.9l0,0c1.5-1.7,3.1-3.4,4.6-5.1c1.8-0.8,5.2,1,5.3-2.9
		c-0.2-0.7-0.5-1.5-0.7-2.2l0,0c0.3-0.9,0.5-2.5,0.8-2.5c1.5-0.1,2.9,0.3,5-0.8c-2.8-1.9-5.7-3.8-8.5-5.7l-0.1,0
		c-0.7,1.5-1.5,2.9-2.2,4.4c0.5,2.3,1,4.5,1.8,8.4c-11-8.1-23.4-9.8-33-17.3c0.5,1.5,0.9,3.1,1.4,4.6c5.6,3.6,11.3,7.2,16.9,10.8
		c1.3,0.4,2.7,0.7,4,1.1c-0.3,0.7-0.8,1.9-0.8,1.9c-1.3-0.4-2.6-1-3.9-1.6c-0.9,1.5-1.9,2.9-2.8,4.4
		C293.6,134.6,295.6,135.1,297.6,135.5z"/>
	<path id="XMLID_1820_" class="st108" d="M297.6,135.5c-2-0.5-3.9-0.9-7-1.7c0.9-1.5,1.9-2.9,2.8-4.4c0.3-0.5,0.5-1,0.8-1.4
		c-5.6-3.6-11.3-7.2-16.9-10.8c0,1.2-0.1,2.4-0.1,3.6c0.5,0.3,1,0.5,1.5,0.8l0,0c1,0.8,2.1,1.6,4,3.1c-3,0.6-4.7,0.9-6.4,1.3
		c0,1.2,0,2.5-0.1,3.7c2.1,0.1,4.1,0.1,6.6,0.2c1.1,8.1,8.3,8.3,14,10.6C297.1,138.9,297.3,137.2,297.6,135.5z"/>
	<path id="XMLID_1819_" class="st109" d="M275.9,112.6c9.5,7.5,22,9.2,33,17.3c-0.8-3.8-1.3-6.1-1.8-8.4c-0.5-0.2-1-0.5-1.5-0.7
		c-0.2,0.5-0.5,0.9-0.7,1.4c0.1,0.3,0.2,0.6,0.2,1c-0.1-0.3-0.2-0.6-0.4-0.9c-1.3-0.4-2.6-0.9-4-1.3c0.6-0.6,1.3-1.2,1.9-1.7
		c-1.2-1.3-2.5-2.5-3.7-3.8c-1.6,1-3.2,1.9-4,2.4c-5.8-2.7-10.9-5-15.9-7.4C277.9,111.2,276.9,111.9,275.9,112.6z"/>
	<path id="XMLID_1818_" class="st105" d="M276.3,126.1c1.7-0.3,3.4-0.7,6.4-1.3c-1.9-1.5-3-2.3-4-3.1
		C277.9,123.1,277.1,124.6,276.3,126.1z"/>
	<path id="XMLID_1817_" class="st105" d="M278.6,121.6c-0.5-0.3-1-0.5-1.5-0.8C277.6,121.1,278.1,121.4,278.6,121.6z"/>
	<path id="XMLID_1816_" class="st110" d="M175,189.5c5.8,3.9,11.5,7.9,17.4,11.7c1.9,1.3,4.2,2,6.4,3c2.1,1,4.3,2.1,6.4,3.1
		c0-2.5,0.1-5,0.1-7.4c-0.5-0.3-1-0.5-1.6-0.8c-7.7,0.2-14-3.5-20.6-6.8C180.6,191.1,177.7,190.4,175,189.5z"/>
	<path id="XMLID_1815_" class="st1" d="M165.8,199.8c5.3,2.3,10.6,4.5,15.9,6.8c0.3-0.3,0.5-0.7,0.8-1c-1.8-1.2-3.6-2.4-5.4-3.6
		c-1.7-1.2-3.5-2.4-6.5-4.5c3.6-0.9,5.7-1.5,8.5-2.2c-1.5-2.1-2.9-4-4.2-5.8c-1.4,0.4-2.9,0.9-4.3,1.3
		C169,193.8,167.4,196.8,165.8,199.8z"/>
	<path id="XMLID_1814_" class="st110" d="M203.7,199.1c-0.7-2.2-1.3-4.5-2-6.7c-4.8-1.9-11-1.7-12.5-8.5c-2.4,4.4-2.1,6.2,1.7,8.4
		C195.1,194.6,199.4,196.8,203.7,199.1z"/>
	<path id="XMLID_1813_" class="st85" d="M280.9,85.1c2.1-0.1,2.6-1.1,1.6-2.9C282,83.2,281.4,84.2,280.9,85.1z"/>
	<path id="XMLID_1812_" class="st85" d="M282.5,82.2c-0.2-0.7-0.5-1.5-0.7-2.2C282,80.7,282.2,81.4,282.5,82.2z"/>
	<path id="XMLID_1811_" class="st21" d="M274.9,153.6c0.3-0.5,0.5-0.9,0.8-1.4c-1.1-0.5-2.3-1-3.4-1.5c-0.2,0.3-0.3,0.6-0.5,0.9
		C272.9,152.3,273.9,153,274.9,153.6z"/>
	<path id="XMLID_1810_" class="st21" d="M277.2,152.9c2.1-0.1,2.6-1.1,1.6-2.9C278.2,151,277.7,152,277.2,152.9z"/>
	<path id="XMLID_1809_" class="st21" d="M278.7,150c-0.5-0.3-1-0.5-1.5-0.8C277.8,149.5,278.2,149.7,278.7,150z"/>
	<path id="XMLID_1808_" class="st21" d="M275.8,148.5c-0.5-0.3-1-0.5-1.5-0.8C274.8,147.9,275.3,148.2,275.8,148.5z"/>
	<path id="XMLID_1807_" class="st111" d="M308.1,108.9c-2.3-1.1-4.5-2.1-7.5-3.5c1.3,3.9,2.1,6.3,2.9,8.8c0.7,0.9,1.4,1.9,2.1,2.8
		c0.7-0.2,1.4-0.4,2.1-0.7c0.6,0.3,1.1,0.6,1.7,0.8l0.1,0c1.7-2.2,3.5-4.4,5.2-6.6c-0.5-0.3-1-0.5-1.5-0.7c-0.7,0.2-1.4,0.4-2.1,0.6
		l0,0c-0.5-0.3-1-0.5-1.5-0.8C309,109.4,308.5,109.1,308.1,108.9z"/>
	<path id="XMLID_1806_" class="st96" d="M192.6,334.6c-1.7-0.3-3.5-0.6-5.2-0.9c-1.7-0.3-3.5-0.6-5.2-0.8c-1.9,5.3,4.4,4.5,5.8,8.3
		c-4.5-2.3-10.3-0.4-12.6-6.2c-1-0.5-1.9-1-2.9-1.6c-0.8,0.7-1.7,1.3-2.5,2c0.4,2.8,5.8,4,2.1,8c-3.2-2-6.3-3.9-9.5-5.8
		c-1.7-0.3-3.4-0.5-5.2-0.8c-1.8,2.2-3.6,4.4-5.4,6.6l0,0.1c2.2,0.5,4.4,1.1,6.6,1.6c1.5,0.8,2.9,1.5,4.4,2.3c0.5,0.3,1,0.5,1.5,0.8
		c1.5,0.7,3,1.5,4.4,2.2c3.4-2,6.7-4.1,9.1-5.5c6.1,3.6,10.8,6.3,15.4,9.1c0.2-6.2,0.3-12.4,0.5-18.6
		C193.6,335.2,193.1,334.9,192.6,334.6z"/>
	<path id="XMLID_1805_" class="st112" d="M193.6,354c-4.7-2.8-9.4-5.5-15.4-9.1c-2.3,1.4-5.7,3.5-9.1,5.5c8,2.7,15.4,6.6,22.2,11.7
		c-0.3-1.8-2-4,1.4-5C193.2,357,193.3,355.1,193.6,354z"/>
	<path id="XMLID_1804_" class="st84" d="M307.5,131.3c-1.5,1.7-3.1,3.4-4.6,5.1C308,137.4,308,137.4,307.5,131.3z"/>
	<path id="XMLID_1803_" class="st47" d="M312.1,126.1c0.2,0.7,0.5,1.5,0.7,2.2C312.6,127.6,312.3,126.9,312.1,126.1z"/>
	<path id="XMLID_1802_" class="st105" d="M309.5,109.7c0.5,0.3,1,0.5,1.5,0.8C310.5,110.2,310,109.9,309.5,109.7z"/>
	<path id="XMLID_1801_" class="st105" d="M311,110.4c0.7-0.2,1.4-0.4,2.1-0.6C312.4,110,311.7,110.2,311,110.4z"/>
	<path id="XMLID_1800_" class="st113" d="M293,244.4c-2.8-0.7-5.7-1.4-8.7-2.2c0.2,1.4,0.4,2.4,0.6,3.5l0,0c-0.3,0.5-0.5,1-0.8,1.5
		l0,0c-1.7,3.2-3.4,6.4-5.2,9.9c3,1.8,5.1,3,7.1,4.2C288.3,255.6,290.6,250,293,244.4z"/>
	<path id="XMLID_1799_" class="st16" d="M285.9,261.3c-2.1-1.2-4.1-2.4-7.1-4.2c1.9-3.5,3.6-6.7,5.2-9.9c-4-1.3-8.9,0.8-12.3-3.1
		c0,0-1.2,0.9-1.8,1.3c2.7,1.8,5.5,3.7,8.8,5.9c-3-0.2-5.7-0.7-8.4-0.5c-1,0.1-1.9,1.7-2.8,2.7c6.1,0,9.3,4.2,12.4,8.5
		C282,261.7,284,261.5,285.9,261.3z"/>
	<path id="XMLID_1798_" class="st96" d="M156,336c-1-0.5-1.9-1-2.9-1.5c-0.5,0.8-1,1.6-1.5,2.4C153.1,336.6,154.5,336.3,156,336z"/>
	<path id="XMLID_1797_" class="st96" d="M152.1,343.4c-0.4,0.3-0.8,0.5-1.1,0.8c-0.1,0.1,0.2,0.5,0.3,0.7l0.1,0
		C151.6,344.4,151.9,343.9,152.1,343.4L152.1,343.4z"/>
	<path id="XMLID_1796_" class="st114" d="M308.2,355.6c-1.1-1.1-2.1-2.4-3.4-3.1c-8.5-4.4-17-8.6-25.6-12.8c-0.8-0.4-2,0.2-4.6,0.5
		c11.8,6.2,22.1,11.7,32.5,17.2C307.5,356.8,307.8,356.2,308.2,355.6z"/>
	<path id="XMLID_1795_" class="st24" d="M295.4,339.9c0,1-0.3,2.7,0.2,3c8.1,4.6,16.3,9.1,24.6,13.4c0.7,0.3,2.2-1,3.3-1.5l0,0
		c-7.3-4.4-14.4-9-21.8-13.3C299.9,340.4,297.5,340.4,295.4,339.9z"/>
	<path id="XMLID_1794_" class="st24" d="M296.1,340.5c-0.6-1.8-1-2.8-1.3-3.8c-0.2,0.7-0.5,1.5-0.5,2.2
		C294.3,339.3,295,339.6,296.1,340.5z"/>
	<path id="XMLID_1793_" class="st87" d="M168.9,258c1.3,1.2,1.7,3.9,4.4,2.3C172.9,257.7,171.4,256.9,168.9,258z"/>
	<path id="XMLID_1792_" class="st87" d="M177,264.1c0.3-0.5,0.5-1,0.7-1.5c-0.5-0.3-1-0.5-1.5-0.8
		C176.5,262.6,176.8,263.4,177,264.1z"/>
	<path id="XMLID_1791_" class="st76" d="M206.4,283.4c-0.4-3.6-0.4-3.6-5.2-3.3C203.4,281.4,204.9,282.4,206.4,283.4L206.4,283.4z"
		/>
	<path id="XMLID_1790_" class="st99" d="M295.3,143.7c0.2,0.7,0.5,1.5,0.7,2.2c0.2-0.5,0.5-0.9,0.7-1.4
		C296.2,144.2,295.8,143.9,295.3,143.7z"/>
	<path id="XMLID_1789_" class="st87" d="M176.2,265.6c1.9,1,3.8,2,5.7,3c0.2-0.4,0.5-0.8,0.7-1.1c-1.9-1.1-3.8-2.2-5.6-3.4
		C176.7,264.6,176.5,265.1,176.2,265.6z"/>
	<polygon id="XMLID_1788_" class="st76" points="164.3,263.1 163.5,263.1 163.7,263.5 	"/>
	<path id="XMLID_1787_" class="st14" d="M193.9,307c0.3,0,0.5,0,0.8,0C194.5,307,194.2,307,193.9,307L193.9,307z"/>
	<path id="XMLID_1786_" class="st22" d="M176.6,314.8l0.7,0.4l0.7,0.4C177.6,315.4,177.1,315.1,176.6,314.8z"/>
	<path id="XMLID_1785_" class="st98" d="M279.4,188c-1.2,0-2.5,0-3.7,0C276.9,188,278.1,188,279.4,188z"/>
	<path id="XMLID_1784_" class="st103" d="M291,201.8c0-0.3,0-0.5,0-0.8C291,201.2,291,201.5,291,201.8L291,201.8z"/>
	<path id="XMLID_1783_" class="st104" d="M284,247.1c0.3-0.5,0.5-1,0.8-1.5C284.6,246.1,284.3,246.6,284,247.1z"/>
	<path id="XMLID_1782_" class="st17" d="M164.7,348.2c-0.5-0.3-1-0.5-1.5-0.8c-0.5,1-1,1.9-1.5,2.9c0.5,0.3,1,0.5,1.5,0.8
		C163.6,350.1,164.2,349.2,164.7,348.2z"/>
	<path id="XMLID_1781_" class="st17" d="M152.1,343.5c-0.3,0.5-0.5,0.9-0.7,1.4c2.4,1.3,4.9,2.6,7.3,3.9c0-1.2,0-2.4,0-3.7
		C156.5,344.6,154.3,344,152.1,343.5z"/>
	<path id="XMLID_1780_" class="st95" d="M158.8,345.1c0,1.2,0,2.4,0,3.7c1,0.5,1.9,1,2.9,1.6c0.5-1,1-1.9,1.5-2.9
		C161.7,346.6,160.2,345.9,158.8,345.1z"/>
	<path id="XMLID_1779_" class="st102" d="M162.6,337.6c3.1,1.9,6.3,3.9,9.5,5.8c3.7-4-1.8-5.2-2.1-8c0.8-0.6,1.6-1.3,2.5-2
		c-4.5-2.5-9-4.6-15.2-3.1C159.3,333.2,161,335.4,162.6,337.6z"/>
	<path id="XMLID_1778_" class="st26" d="M164.7,312.3c-1-0.9-2.1-1.8-3.1-2.7c-0.2,0.9-0.4,1.7-0.6,2.6
		C162.2,312.3,163.5,312.3,164.7,312.3z"/>
	<path id="XMLID_1777_" class="st115" d="M309.2,117.1c-0.6-0.3-1.1-0.6-1.7-0.8c-0.4,0.7-0.9,1.3-1.3,2c-0.3-0.4-0.5-0.9-0.8-1.3
		c-0.7-0.9-1.4-1.9-2.1-2.8c-1.5,0.4-3,0.9-4.5,1.3c1.2,1.3,2.5,2.5,3.7,3.8c1,0.5,1.9,1.1,2.9,1.6c0.5,0.2,1,0.5,1.5,0.7
		C307.8,120.1,308.5,118.6,309.2,117.1z"/>
	<path id="XMLID_1776_" class="st116" d="M294.1,128c-0.2,0.5-0.5,1-0.8,1.4c1.3,0.6,2.6,1.1,3.9,1.6c0.1,0,0.5-1.3,0.8-1.9
		C296.8,128.7,295.5,128.4,294.1,128z"/>
	<path id="XMLID_1775_" class="st105" d="M305.5,120.8c-1-0.5-1.9-1.1-2.9-1.6c-0.6,0.6-1.3,1.2-1.9,1.7c1.3,0.4,2.6,0.9,4,1.3
		l0.1,0C305,121.8,305.3,121.3,305.5,120.8z"/>
	<path id="XMLID_1774_" class="st105" d="M304.7,122.3c0.1,0.3,0.2,0.6,0.4,0.9c-0.1-0.3-0.2-0.6-0.2-1L304.7,122.3z"/>
	<path id="XMLID_1773_" class="st117" d="M305.5,117c0.3,0.4,0.5,0.9,0.8,1.3c0.4-0.7,0.9-1.3,1.3-2
		C306.9,116.5,306.2,116.7,305.5,117z"/>
</g>
</svg>
