<?xml version="1.0" encoding="utf-8"?>
<!-- Generator: Adobe Illustrator 19.0.0, SVG Export Plug-In . SVG Version: 6.00 Build 0)  -->
<svg version="1.1" id="Layer_1" xmlns="http://www.w3.org/2000/svg" xmlns:xlink="http://www.w3.org/1999/xlink" x="0px" y="0px"
	 viewBox="0 0 64 64" style="enable-background:new 0 0 64 64;" xml:space="preserve">
<style type="text/css">
	.st0{fill:url(#XMLID_54_);}
</style>
<g id="XMLID_186_">
	<g id="XMLID_175_">
		<linearGradient id="XMLID_54_" gradientUnits="userSpaceOnUse" x1="4.7202" y1="31.9634" x2="59.2798" y2="31.9634">
			<stop  offset="0" style="stop-color:#DFC474"/>
			<stop  offset="0.2398" style="stop-color:#AD8328"/>
			<stop  offset="0.5153" style="stop-color:#735724"/>
			<stop  offset="0.8571" style="stop-color:#DFC474"/>
		</linearGradient>
		<path id="XMLID_178_" class="st0" d="M32,63.5l-0.2-0.1L4.7,47.7V16.2L32,0.5l27.3,15.7v31.5L32,63.5z M5.5,47.3L32,62.5
			l26.5-15.3V16.7L32,1.4L5.5,16.7V47.3z"/>
	</g>
	<g id="XMLID_176_">
		<g id="XMLID_328_">
			<path id="XMLID_336_" d="M20.5,35c0,0,0.1,0,0.1,0c0.1,0,0.1,0,0,0.1c-0.2,0.4-0.5,0.7-0.9,0.9c-0.3,0.2-0.7,0.3-1.1,0.3
				c-0.5,0-1-0.2-1.3-0.5c-0.4-0.3-0.7-0.7-0.9-1.2s-0.5-1.1-0.7-1.7c-0.2-0.7-0.3-1.4-0.5-2.1c0-0.1,0-0.1,0.1-0.1
				c0.1,0,0.2-0.1,0.3-0.1c0.2,0,0.3-0.1,0.4-0.1c0,0,0.1,0,0.2,0c0.1,0,0.2,0,0.3,0.1c0.1,0,0.2,0,0.4,0c0.2,0,0.3,0,0.5-0.1
				c0.5-0.1,0.9-0.4,1.2-0.8c0.3-0.4,0.4-1,0.4-1.7c0-0.3-0.1-0.7-0.2-1c-0.1-0.3-0.3-0.6-0.5-0.8c-0.2-0.2-0.5-0.4-0.8-0.6
				c-0.3-0.1-0.7-0.2-1.1-0.3c-0.3,0.4-0.6,0.9-0.8,1.5c-0.2,0.6-0.5,1.2-0.7,2c-0.4,1.3-0.8,2.4-1.2,3.4c-0.5,0.9-1,1.7-1.6,2.3
				s-1.2,1-1.8,1.3c-0.7,0.3-1.4,0.4-2.1,0.4c-0.8,0-1.4-0.2-1.8-0.6C6.1,35.4,6,34.9,6,34.3c0-0.5,0.2-1,0.5-1.4
				c0.3-0.4,0.7-0.7,1.1-0.9c0.1,0,0.2,0,0.1,0.1c-0.7,0.4-1,0.9-1,1.6c0,0.6,0.2,1,0.5,1.4c0.4,0.3,0.9,0.5,1.6,0.5
				c0.6,0,1.1-0.1,1.6-0.2c0.4-0.1,0.8-0.4,1.2-0.8c0.4-0.4,0.7-1,1-1.8c0.3-0.8,0.7-1.8,1-3.1c0.5-2,1.3-3.4,2.2-4.3
				c-1.1,0-2,0.2-2.8,0.6c-0.8,0.4-1.5,1-2,1.8c0,0-0.1,0-0.1,0c0,0,0-0.1,0-0.1c0.6-0.8,1.3-1.5,2.2-2c0.9-0.5,2.1-0.8,3.4-0.8
				c0.4-0.3,0.9-0.5,1.5-0.7c0.1,0,0.1,0,0.1,0.1c0,0,0,0.1-0.1,0.1c-0.3,0.1-0.6,0.2-0.9,0.5c0.5,0,0.9,0.1,1.3,0.2
				c0.4,0.2,0.7,0.4,1,0.6c0.3,0.3,0.5,0.6,0.6,0.9c0.1,0.3,0.2,0.7,0.2,1c0,0.5-0.1,0.9-0.3,1.3c-0.2,0.4-0.4,0.7-0.8,1
				c-0.3,0.3-0.7,0.5-1.2,0.6c-0.5,0.1-1,0.2-1.6,0.1c0.2,0.9,0.4,1.7,0.6,2.3c0.2,0.6,0.4,1.1,0.7,1.5c0.3,0.4,0.5,0.6,0.9,0.8
				c0.3,0.2,0.7,0.2,1,0.2C19.9,35.6,20.2,35.4,20.5,35z"/>
			<path id="XMLID_334_" d="M21.4,34c0-0.5,0.1-0.9,0.4-1.3c0.3-0.4,0.6-0.6,1.1-0.8c0.1,0,0.1,0,0.1,0.1c0,0.1,0,0.1,0,0.2
				c-0.2,0.1-0.4,0.3-0.5,0.5c-0.1,0.2-0.2,0.5-0.2,0.9c0,0.7,0.3,1.3,0.8,1.7c0.5,0.4,1.2,0.6,2.1,0.6c1.1,0,1.9-0.2,2.4-0.7
				c0.5-0.4,0.7-1,0.7-1.7c0-0.7-0.1-1.2-0.4-1.7c-0.3-0.5-0.6-1-0.9-1.4c-0.3-0.4-0.6-0.9-0.9-1.3c-0.3-0.4-0.4-1-0.4-1.5
				c0-0.3,0.1-0.6,0.2-1c0.1-0.3,0.4-0.6,0.6-0.8c0.3-0.2,0.6-0.4,0.9-0.6c0.4-0.1,0.8-0.2,1.2-0.2c0.6,0,1.1,0.1,1.4,0.4
				c0.3,0.3,0.5,0.6,0.5,0.9c0,0.2-0.1,0.4-0.3,0.7c-0.2,0.3-0.3,0.5-0.5,0.8c0,0-0.1,0-0.1,0c0,0,0-0.1,0-0.1
				c0.1-0.1,0.1-0.2,0.2-0.3c0-0.1,0.1-0.3,0.1-0.5c0-0.2,0-0.4-0.1-0.5c-0.1-0.2-0.2-0.3-0.4-0.4c-0.2-0.1-0.3-0.2-0.5-0.3
				c-0.2-0.1-0.4-0.1-0.6-0.1c-0.6,0-1,0.1-1.3,0.4c-0.3,0.3-0.4,0.6-0.4,1.1c0,0.4,0.1,0.7,0.2,1c0.1,0.3,0.3,0.6,0.5,0.9
				c0.2,0.3,0.4,0.6,0.6,0.9c0.2,0.3,0.4,0.6,0.6,1c0.2,0.3,0.4,0.7,0.5,1.1c0.1,0.4,0.2,0.8,0.2,1.2c0,0.5-0.1,0.9-0.3,1.3
				c-0.2,0.4-0.5,0.8-0.9,1.1c-0.4,0.3-0.9,0.5-1.4,0.7c-0.5,0.2-1.1,0.3-1.7,0.3c-1.1,0-2-0.2-2.6-0.7C21.7,35.2,21.4,34.7,21.4,34
				z"/>
			<path id="XMLID_332_" d="M43.6,27c0,0.9-0.2,1.8-0.6,2.5c-0.4,0.8-1,1.5-1.6,2.3c-0.7,0.7-1.4,1.5-2.3,2.2
				c-0.9,0.7-1.7,1.5-2.6,2.4c-0.2,0-0.3-0.2-0.2-0.5c0.2-0.7,0.4-1.4,0.5-2.2c0.1-0.8,0.2-1.5,0.3-2.3c0-0.8,0-1.5-0.1-2.2
				c-0.1-0.7-0.2-1.3-0.5-1.8c-0.2-0.5-0.5-0.9-0.9-1.3c-0.4-0.3-0.8-0.5-1.4-0.5c-0.8,0-1.5,0.3-2,0.9c-0.5,0.6-0.9,1.6-1.3,2.9
				c0,0-0.1,0.1-0.1,0.1c0,0-0.1,0-0.1-0.1c0.2-0.7,0.3-1.3,0.6-1.8c0.2-0.6,0.5-1,0.8-1.4c0.3-0.4,0.7-0.7,1.1-0.9
				c0.4-0.2,0.9-0.3,1.5-0.3c0.5,0,1,0.1,1.4,0.4c0.4,0.3,0.7,0.6,1,1.1c0.3,0.5,0.4,1,0.6,1.7c0.1,0.6,0.2,1.3,0.2,2.1
				c0,0.8-0.1,1.5-0.2,2.4c-0.1,0.8-0.3,1.6-0.5,2.5c0.8-0.7,1.6-1.3,2.2-1.9c0.7-0.6,1.2-1.2,1.7-1.8c0.4-0.6,0.8-1.2,1-1.8
				c0.2-0.6,0.4-1.2,0.4-1.9c0-0.6-0.1-1-0.4-1.3c-0.2-0.3-0.5-0.5-0.9-0.5c-0.2,0-0.4,0.1-0.5,0.2c-0.1,0.1-0.2,0.3-0.3,0.5
				c-0.1,0-0.2,0-0.2-0.1c0.1-0.2,0.1-0.3,0.3-0.5c0.1-0.2,0.2-0.3,0.4-0.4c0.1-0.1,0.3-0.2,0.4-0.3c0.1-0.1,0.2-0.1,0.4-0.1
				c0.3,0,0.5,0.1,0.8,0.2c0.2,0.1,0.4,0.3,0.6,0.5c0.2,0.2,0.3,0.4,0.4,0.7C43.5,26.5,43.6,26.7,43.6,27z"/>
			<path id="XMLID_329_" d="M54.5,24.9c0.5,0.1,1,0.2,1.5,0.4c0.4,0.2,0.8,0.5,1.1,0.8c0.3,0.3,0.5,0.6,0.7,1
				c0.2,0.4,0.2,0.8,0.2,1.2c0,0.6-0.1,1.1-0.3,1.6c-0.2,0.5-0.5,0.9-0.9,1.3c-0.4,0.4-0.9,0.6-1.4,0.8c-0.6,0.2-1.2,0.3-1.9,0.3
				c-0.8,0-1.4-0.2-1.9-0.6c-0.7,1.6-1.6,2.8-2.6,3.5c-1,0.7-2.1,1.1-3.2,1.1c-1,0-1.7-0.2-2.2-0.7c-0.5-0.5-0.7-1.1-0.7-1.9
				c0-0.2,0-0.5,0.1-0.7c0.1-0.2,0.2-0.4,0.3-0.7c0.1-0.2,0.3-0.4,0.5-0.6c0.2-0.2,0.4-0.3,0.7-0.4c0,0,0.1,0,0.1,0c0,0,0,0.1,0,0.1
				c-0.4,0.2-0.6,0.4-0.8,0.8c-0.2,0.3-0.2,0.7-0.2,1c0,0.3,0.1,0.6,0.2,0.9c0.1,0.3,0.3,0.5,0.5,0.8c0.2,0.2,0.5,0.4,0.9,0.5
				c0.4,0.1,0.8,0.2,1.3,0.2c0.6,0,1.1-0.1,1.5-0.2c0.4-0.1,0.8-0.4,1.2-0.7c0.3-0.4,0.7-0.8,1-1.4c0.3-0.6,0.6-1.4,0.9-2.3
				c-0.2-0.3-0.4-0.7-0.4-1.1c0,0,0-0.1,0.1-0.1c0,0,0.1,0,0.1,0c0.1,0.3,0.2,0.6,0.4,0.9c0-0.2,0.1-0.3,0.1-0.5
				c0-0.2,0.1-0.3,0.1-0.5c0.3-1.1,0.6-1.9,1-2.6c0.4-0.7,0.8-1.3,1.2-1.7c-0.1,0-0.1,0-0.3,0c-1.3,0-2.3,0.3-3.2,0.9
				c-0.9,0.6-1.4,1.5-1.8,2.6c0,0-0.1,0-0.1,0c0,0-0.1-0.1-0.1-0.2c0.4-1.2,1.1-2.1,2-2.8c0.9-0.7,2.2-1,3.7-1H54
				c0.4-0.3,1-0.5,1.5-0.7c0.1,0,0.1,0,0.1,0.1c0,0.1,0,0.1-0.1,0.1C55.1,24.5,54.8,24.7,54.5,24.9z M53.6,32c0.5,0,0.9-0.1,1.3-0.2
				c0.4-0.2,0.7-0.4,1-0.7c0.3-0.3,0.5-0.6,0.7-1c0.2-0.4,0.2-0.8,0.2-1.3c0-0.8-0.3-1.6-0.8-2.1c-0.5-0.6-1.2-1-2.2-1.1
				c-0.6,0.7-1.1,1.9-1.5,3.4c-0.1,0.5-0.3,0.9-0.4,1.4c-0.1,0.4-0.3,0.8-0.5,1.2C52.1,31.8,52.8,32,53.6,32z"/>
		</g>
	</g>
</g>
</svg>
