<?xml version="1.0" encoding="utf-8"?>
<!-- Generator: Adobe Illustrator 19.0.0, SVG Export Plug-In . SVG Version: 6.00 Build 0)  -->
<svg version="1.1" id="Layer_1" xmlns="http://www.w3.org/2000/svg" xmlns:xlink="http://www.w3.org/1999/xlink" x="0px" y="0px"
	 viewBox="0 0 500 500" style="enable-background:new 0 0 500 500;" xml:space="preserve">
<style type="text/css">
	.st0{fill:#758A78;}
	.st1{fill:#7F927E;}
	.st2{fill:#728A73;}
	.st3{fill:#5F7A67;}
	.st4{fill:#617B65;}
	.st5{fill:#576E61;}
	.st6{fill:#637968;}
	.st7{fill:#98AC8E;}
	.st8{fill:#82987E;}
	.st9{fill:#687D6B;}
	.st10{fill:#829C7A;}
	.st11{fill:#ACA29C;}
	.st12{fill:#677F6F;}
	.st13{fill:#6D8272;}
	.st14{fill:#8EA585;}
	.st15{fill:#A69D98;}
	.st16{fill:#78926D;}
	.st17{fill:#8DA483;}
	.st18{fill:#495B51;}
	.st19{fill:#759078;}
	.st20{fill:#708374;}
	.st21{fill:#B0A7A2;}
	.st22{fill:#829880;}
	.st23{fill:#7C8E81;}
	.st24{fill:#7B8A7C;}
	.st25{fill:#A6B89C;}
	.st26{fill:#94A690;}
	.st27{fill:#95A691;}
	.st28{fill:#717F72;}
	.st29{fill:#536854;}
	.st30{fill:#687E6F;}
	.st31{fill:#758A7D;}
	.st32{fill:#AFA5A0;}
	.st33{fill:#B1A8A5;}
	.st34{fill:#809480;}
	.st35{fill:#6F8476;}
	.st36{fill:#778774;}
	.st37{fill:#8F9F8E;}
	.st38{fill:#B1A8A3;}
	.st39{fill:#B2C0A8;}
	.st40{fill:#5E6C60;}
	.st41{fill:#4B5C4A;}
	.st42{fill:#7D8C7C;}
	.st43{fill:#B0BCA6;}
	.st44{fill:#97AC8C;}
	.st45{fill:#586956;}
	.st46{fill:#889B89;}
	.st47{fill:#4A5743;}
	.st48{fill:#A8B89E;}
	.st49{fill:#697A69;}
	.st50{fill:#808877;}
	.st51{fill:#AFA6A1;}
	.st52{fill:#798777;}
	.st53{fill:#7A8E7B;}
	.st54{fill:#637367;}
	.st55{fill:#5D6858;}
	.st56{fill:#BFB6B1;}
	.st57{fill:#62775E;}
	.st58{fill:#717D6F;}
	.st59{fill:#8A9D87;}
	.st60{fill:#5A6C57;}
	.st61{fill:#7A8A78;}
	.st62{fill:#89998E;}
	.st63{fill:#4B5A4A;}
	.st64{fill:#636B5D;}
	.st65{fill:#809282;}
	.st66{fill:#758674;}
	.st67{fill:#62695A;}
	.st68{fill:#70806B;}
	.st69{fill:#7A9371;}
	.st70{fill:#617065;}
	.st71{fill:#747965;}
	.st72{fill:#5C7362;}
	.st73{fill:#566F5B;}
	.st74{fill:#6C8371;}
	.st75{fill:#68836E;}
	.st76{fill:#616C5B;}
	.st77{fill:#58775C;}
	.st78{fill:#5A725C;}
	.st79{fill:#8EA683;}
	.st80{fill:#69846D;}
	.st81{fill:#7B9575;}
	.st82{fill:#6A8765;}
	.st83{fill:#789472;}
	.st84{fill:#6E8B64;}
	.st85{fill:#86A07C;}
	.st86{fill:#DCDAD9;}
	.st87{fill:#638465;}
	.st88{fill:#899C89;}
	.st89{fill:#678462;}
	.st90{fill:#647D6B;}
	.st91{fill:#708A6D;}
</style>
<g id="XMLID_12_">
	<path id="XMLID_1771_" class="st0" d="M212.1,220.4c6.9-3.2,13.7-6.8,21.9-5.4c5.9,1,10.6,3.2,11.7,9.8c-3.5-0.8-3.7,1.3-3,3.8
		c1.1,3.8,0.3,6.7-1.9,10.4c-4.5,7.5-10.7,9.8-19.3,8.8c0.7,1.7,1,2.5,1.4,3.3c-7.4,3.4-13.6,1.8-19-4.3c-1.9-2.2-4.7-3.7-7-5.5
		c0-1-0.1-1.9-0.1-2.9c4.6-5.3,9.2-10.7,13.7-16C211,221.8,211.5,221.1,212.1,220.4z"/>
	<path id="XMLID_1770_" class="st1" d="M197,226c-2.6-1.7-5.1-3.5-7.7-5.2c-0.8-1.3-1.6-2.6-3-4.8c4,2.4,7,4.1,10.2,6
		c-1.3-4.2-2.4-8-3.6-12c-4.3-0.5-8.5-2.1-10-7.6c-0.2-0.8-1.9-1.1-2.9-1.7c-1.7-5,1.9-3.2,4.8-3.2c-1.6-2.9-2.9-5.4-4.1-7.6
		c1.2-1.7,3.2-3.4,3-4.6c-0.9-5.6,3.3-7.7,6.5-10.5c4.1,1.4,8.2,2.7,12.2,4.4c1.2,0.5,3.1,2.7,2.9,3.1c-2.1,3.5,1.2,4.9,2.2,7.3
		c1.3,3,2.2,6.2,2.8,9.5c0.5,2.7,0.2,5.6,0.2,8.4l0,0c-1.6,2.1-3.1,4.3-4.7,6.4c-2.5,3.8-5,7.6-7.5,11.4
		C197.9,225.3,197.4,225.6,197,226z"/>
	<path id="XMLID_1769_" class="st2" d="M143.6,365.3c10.3-2.3,20.1-7.7,31.2-4.3c0.9,2.6,1.7,5.1,2.9,8.5c-3.7-2.2-4.8-6.9-10.9-5.9
		c5.4,6.8,10.1,12.6,14.7,18.6c1.7,2.1,3,4.5,4.5,6.8c-0.6,1.3-1.1,2.6-1.7,3.9c-1.4,1.2-2.8,2.4-4.3,3.6c-2.4,2-4.9,4.1-7.3,6.1
		c-0.7-3-1.3-6-2.1-9.6c2.1,1.3,3.6,2.2,5.2,3.1c1.6-3.5,1.3-6.3-2.5-6.6c-4.2-0.4-8.5,0.1-13.5,0.3c3.4,5,6.6,9.5,9.6,14.2
		c0.3,0.4-0.6,1.6-1,2.4l0,0c-1.3-0.5-2.6-1.1-3.9-1.6c-2.2-9.2-10.2-14.2-14.6-20.2c0.4-3,1.5-5.4,0.7-6.9c-1.5-3-4-5.5-6-8.1
		C144.3,368.1,143.9,366.7,143.6,365.3z"/>
	<path id="XMLID_1768_" class="st3" d="M125.5,244.4c1.9-1.7,3.7-3.3,5.6-5c2.1,0.4,4.3,1,6.4,1c11.9-0.3,18.4,4.4,22.2,15.8
		c1.2,3.5,3,6.8,4.5,10.2c0,0,0-0.3,0-0.3c-0.4,3.6-0.8,7.2-1.3,10.8c-0.5,0.4-0.9,0.9-1.4,1.3c-0.5,0.3-1,0.7-1.4,1.1
		c-0.8-0.9-1.7-1.9-2.5-2.8c-0.4-0.5-0.8-1-1.2-1.5c-1.3-0.6-2.6-1.1-3.9-1.7c0.9,2.7,1.8,5.5,2.8,8.2c-3.2-1.1-5.5-3.3-7.8-5.4
		c-4.5-4-6.4-10.6-13-12.4c-4.7-2.3-8.1-5.4-7-11.3l0,0c1.2,0.4,2.4,0.8,4.1,1.4c-0.7-3.4-1.1-5.9-1.9-8.2c-0.1-0.3-1.9,0-3,0
		C126.2,245.4,125.8,244.9,125.5,244.4z"/>
	<path id="XMLID_1767_" class="st4" d="M143.6,365.3c0.3,1.4,0.6,2.8,0.9,4.1c-0.5,0.4-0.9,0.8-1.4,1.2c-3.5-1.2-6.6-1.5-7,3.5
		c-2.2,0.2-4.5,0.3-7.5,0.6c1,2.3,1.2,3.7,2,4.4c6.3,5.5,13.7,10.1,14.8,19.5c0.1,0.6,1.5,1,2.2,1.7c2.4,2.4,4.8,4.9,7.2,7.4
		c-6.8,0.8-13.5,1.7-20.3,2.5c-5.2-6.8-10.4-13.6-15.5-20.5c-0.6-0.8-0.1-2.4-0.1-3.6c0.8-3,1.6-6.1,2.4-9.1c1-1,1.9-1.9,2.9-2.9
		C130.7,371.2,137.2,368.2,143.6,365.3z"/>
	<path id="XMLID_1766_" class="st5" d="M349.8,79.1c0.9,0.1,1.8,0.2,2.6,0.2c0,0.9-0.1,1.8-0.1,2.7c-4.7,0.9-9.4,1.8-14.1,2.7
		c-4.3,0.9-3.5,4-3,7c-1.8-0.1-3.6-0.2-5.4-0.2c-0.3-0.5-0.7-0.9-1.2-1.3c-1.1-1.8-2.2-3.6-3.3-5.5c7.8-1.4,11.2-7.2,15.7-12.8
		c-4.2-3-7.3-5.1-10.4-7.3c-0.4,0.4-0.9,0.7-1.3,1.1c0.8,3,1.6,5.9,2.8,10.3c-3.4-4-5.8-6.8-8.2-9.7c2-1.9,1.8-3.9,0-5.7
		c-1.9-1.9-3.9-3.6-6.5-6c8.1-0.8,2-11.6,10.3-11.8c2.4,1.9,4.9,3.9,7.7,6c4.1-6.9-7.9-4.1-4.2-10.5c2.9-0.4,6.5-0.9,10-1.4
		c3.4,4.3,6.8,8.6,5.1,15.2c-2.7-1.2-4.8-2.1-7-3.1c-3.2,5.7,3.4,7.8,3.6,13.2c-7.1-2.5-6.5-11.6-13-13.4
		c-0.2,11.9,7.4,18.1,16.2,23.3C342.8,77.9,342.9,78,349.8,79.1z"/>
	<path id="XMLID_1765_" class="st6" d="M283.1,187.7c-9.8,7.4-25.3,6.9-32.5-2.2c-1.2-1.5-3.4-2.1-5.1-3.2c0.4-0.1,0.7-0.4,0.9-0.8
		c0.5-2.9,1-5.8,1.6-9.6c4.1,0.9,7.3,1.5,10,2.1c-0.8-2.3-1.7-4.8-2.6-7.4l0,0c0.9,0.1,1.8,0.1,2.7,0.2c0.5-0.4,1-0.7,1.5-1.1
		c1.4-0.3,2.7-0.7,4.1-1c4.4,0.3,8.9,0.7,13.3,1c-1,4.8-5.9,1.7-8.3,3.8c1.4,2.1,3.9,4,3.9,6C272.5,182.8,277,185.8,283.1,187.7z"/>
	<path id="XMLID_1764_" class="st7" d="M215.4,294.4c4.4,2.2,7.6,5.3,8.2,10.5c-1.5,0.5-4,0.5-4.5,1.5c-1.6,3.3-2.3,7-3.9,10.3
		c-0.9,1.8-2.8,3.1-4.4,4.7c0.8,2,1.8,4.3,2.8,6.6c-7.7,6.9-16.7,10.9-27.2,10.9c0-1,0.5-2.4,0-3c-1.5-1.8-3.3-3.4-5.1-5.1
		c0.7-3.5,3.5-2,5.5-2.2c1.7,1.6,3.5,3.2,4.9,4.5c3.6-2.4,6.5-4.3,10.2-6.8c0.4-4.9,0.8-10.7,1.3-17c1.7,0.9,3.8,2,6,3.1
		c-0.1-3.1-5.3-5.3-1.5-8.9c3.1-1.1,6.1-2.2,9.5-3.4c-0.3-0.9-0.8-2.3-1.2-3.7C215.8,295.7,215.6,295.1,215.4,294.4z"/>
	<path id="XMLID_1763_" class="st8" d="M136.4,316.6c-2.1-1.4-4.3-2.6-6.2-4.2c-12.6-10.2-19.9-22.8-17.4-39.6
		c0.6-3.9,1.4-7.8,2.1-11.8c0.8,0,1.6,0,2.4,0.1c4.6,1,6.9,3,3.1,7.5c-2.9,3.4-1.4,6.2,1.1,9c1.2,1.5,2.4,2.9,3.6,4.4
		c-0.3,3.7-0.6,7.4-1,11.6c4.4,6.7,9.4,14.2,14.3,21.7C137.7,315.7,137,316.2,136.4,316.6z"/>
	<path id="XMLID_1762_" class="st9" d="M335.2,91.7c-0.5-3-1.3-6.1,3-7c4.7-0.9,9.4-1.8,14.1-2.7c4.9,5,7.9,12,15.1,14.8
		c-11.6,9.3-20.8,8.4-29.6-2.5C337.1,93.3,336.1,92.5,335.2,91.7z"/>
	<path id="XMLID_1761_" class="st10" d="M104.6,301.8c5.6,2.3,7,7.5,8.6,12.6c-1.8,0.7-3.6,1.4-5.5,2c1.8,3.8,5.5,6.5,5.5,13
		c-2.4-2.9-3.6-4.2-4.7-5.5c-1.4-1.7-2.7-3.4-4.2-5c-4.8-5-6.5-4.9-11.9,0.5c-0.4-0.5-0.8-0.9-1.2-1.4c-1.7-0.3-3.3-0.6-6.8-1.3
		c2.2,4.1,3.4,6.2,4.3,7.8c-3.3,2.8-6.4,5.4-8.8,7.5c-1.1,4.7-2.1,8.8-3.1,12.9c-1.6-2.1-3.2-4.2-4.9-6.4c1.8-1,3-1.7,4.1-2.4
		c-1.1-3.2-2.2-6.1-3.1-8.9c1.8-1.3,4.5-2.1,4.7-3.4c0.8-4.7,6.3-5.8,7.3-10.2c5.1,2.4,6.8-4.3,11.2-4.2c3.1,0,6.1-0.7,9.2-1.1
		c0.3-0.6,1-1.2,0.9-1.7C105.8,305.1,105.1,303.4,104.6,301.8z"/>
	<path id="XMLID_1760_" class="st11" d="M197,226c0.4-0.3,0.9-0.6,1.3-1c1.6,0.7,3.2,1.3,3.9,1.6c-2,4.3-3.7,8.1-5.5,11.9
		c0,1,0.1,1.9,0.1,2.9c-8.8,14-17.6,28.1-26.5,42.1c-1.3,2.1-3,3.9-4.5,5.9c-0.3-2.3-0.5-4.6-0.8-7c0.1-0.8,0.1-1.6,0.2-2.4
		c0-0.5-0.2-1-0.5-1.5c0.3-0.5,0.6-1,1-1.5c3.7-5.7,7.5-11.3,11.2-17c5.5-8.6,11-17.2,16.3-25.9C194.8,231.6,195.8,228.7,197,226z"
		/>
	<path id="XMLID_1759_" class="st12" d="M228.5,164.5c-8.6-10.4-8.9-21.8-4.4-33.9c8.1-1.4,12,0.7,14.8,7.8c-1.1-1-2.1-2-3.2-3
		c-0.6,0.3-1.2,0.6-1.7,0.9c1.6,3.4,2.8,7.1,4.9,10.1c3.1,4.4,6.9,8.3,10.4,12.5c-1.3,1.2-2.2,2.1-3.1,2.9l0,0
		c-1.2-1.4-2.5-2.9-3.7-4.3c-2-2.5-3.1-0.7-4.1,1c-3.7-4.4-7.5-8.8-11.2-13.2c-0.6,0.2-1.3,0.5-1.9,0.7c0.3,2.9,0.4,5.8,0.9,8.7
		C226.9,158,227.8,161.2,228.5,164.5z"/>
	<path id="XMLID_1758_" class="st13" d="M346.1,71.9c-8.8-5.2-16.3-11.4-16.2-23.3c6.5,1.8,5.9,10.9,13,13.4
		c-0.2-5.3-6.8-7.5-3.6-13.2c2.2,1,4.3,1.9,7,3.1c1.7-6.6-1.7-10.9-5.1-15.2c0.5-0.4,1-0.7,1.5-1.1c2.1,2.5,4.2,5,6.5,7.3
		c0.8,0.8,2.1,1,3.2,1.5c0.4,1.3,0.7,2.6,1.1,3.9c-0.3,0.1-0.5,0.2-0.8,0.3c0.3,0,0.6-0.1,0.9-0.1c2.6,6.2,0.3,11.8-2.4,17.3
		c-0.2-0.3-0.5-0.4-0.8-0.5c-1.2,0.7-2.4,1.4-3.6,2.1c0.5,0.3,0.9,0.5,1.4,0.8C347.5,69.5,346.8,70.7,346.1,71.9z"/>
	<path id="XMLID_1757_" class="st14" d="M181.3,330.9c1.7,1.7,3.6,3.2,5.1,5.1c0.5,0.6,0,2,0,3c-7,0-14,0-21.1-0.1
		c-6.7-0.1-12.7-2-17.5-7c0.2-2.5,0.4-5.1,0.5-7.6c2.2,1.1,4.5,2.1,6.9,3.2c1.6-1.3,3.1-2.6,4.9-4.1c1.6,1.9,2.8,3.3,4,4.7
		c1.3,1,2.6,2,4,3.2c1.1-2.1,1.9-3.6,3-5.7c1.9,1.9,3.4,3.4,4.9,4.9C177.8,330.6,179.6,330.7,181.3,330.9z"/>
	<path id="XMLID_1756_" class="st15" d="M212.1,220.4c-0.5,0.7-1.1,1.3-1.6,2c-1.8,0.6-3.5,1-2.9-2c0.3-1.4,0.6-2.8,0.8-4.2
		c0.7-3,1.4-6.1,2.1-9.1l0,0c0.5-0.4,1-0.8,1.5-1.2c0.4-0.4,0.8-0.9,1.2-1.3l0,0.2c7.9-9.4,15.8-18.9,23.5-28.4
		c0.5-0.6-0.3-2.2-0.5-3.4c0.8,0.1,1.7,0.2,2.5,0.3c2.5,2.7,5.1,5.4,7.6,8.1c-0.2,0.4-0.5,0.7-0.9,0.8c-2,0.3-4.9-0.2-5.7,0.9
		C230.3,195.5,221.2,208,212.1,220.4z"/>
	<path id="XMLID_1755_" class="st16" d="M92.4,319.4c5.3-5.4,7.1-5.5,11.9-0.5c1.5,1.6,2.8,3.3,4.2,5c1.1,1.3,2.3,2.7,4.7,5.5
		c0-6.6-3.7-9.2-5.5-13c1.8-0.7,3.7-1.4,5.5-2c6.5,9.7,4,20.7,4,31.3c0,0-0.7,0.1-0.7,0.1c-2.5-2.6-5.2-5.1-7.4-7.9
		c-2.5-3.1-4.4-6.8-7.1-9.7C99.1,324.9,95.6,322.3,92.4,319.4z"/>
	<path id="XMLID_1754_" class="st17" d="M105.4,308.5c-3.1,0.4-6.1,1.1-9.2,1.1c-4.4-0.1-6.1,6.6-11.2,4.2
		c-0.9,4.4-6.5,5.5-7.3,10.2c-0.2,1.3-2.9,2.2-4.7,3.4c1,2.8,2,5.6,3.1,8.9c-1.2,0.7-2.4,1.4-4.1,2.4c1.7,2.2,3.3,4.3,4.9,6.4l0,0
		c-2.7,0.7-5.4,1.3-8.2,2c-1.7-1.1-3.4-2.1-5-3.2c-0.6-3.6-1.2-7.2-1.9-10.8c3-0.6,6-1.3,9.3-2c-0.2-1.3-1-3-0.6-3.5
		c3.5-4.1,3.1-10.4,8.8-13.5c3.3-1.9,5.1-6.4,7.6-9.7l0,0c4.7,5.8,9.7,0.9,15.1,0.3C103,305.7,104.2,307.1,105.4,308.5z"/>
	<path id="XMLID_1753_" class="st18" d="M342.7,35.8c-0.5,0.4-1,0.7-1.5,1.1c-3.5,0.5-7.1,1-10,1.4c-3.7,6.4,8.4,3.6,4.2,10.5
		c-2.8-2.2-5.3-4.2-7.7-6c-8.3,0.2-2.2,11-10.3,11.8c2.6,2.4,4.7,4.1,6.5,6c1.8,1.8,1.9,3.8,0,5.7c-3.8,1-2.8,6-2.5,6.2
		c6.9,2.4,1,4.7,0.9,8.2c-2.9-2.5-4.7-4.1-6.5-5.7c-2.4-10.5-2.9-20.6,3.8-30.3c4.6-6.6,10.3-10.4,18-11.9c0.7,0.1,1.3,0.2,2,0.4
		c0.6,0.3,1.1,0.5,1.7,0.8C341.8,34.5,342.3,35.1,342.7,35.8z"/>
	<path id="XMLID_1752_" class="st19" d="M121.4,277.6c-2.6-2.7-4-5.6-1.1-9c3.8-4.5,1.6-6.5-3.1-7.5c-0.4-0.5-0.8-1-1.2-1.5
		c0.2-0.8,0.4-1.6,0.6-2.4c4.5-0.6,4.5-4.7,5.9-7.7c1.4-1.2,2.8-2.5,4.1-3.7c1,0,2.9-0.3,3,0c0.7,2.3,1.2,4.8,1.9,8.2
		c-1.7-0.6-2.9-1-4.1-1.4c-0.1-0.3-0.1-0.6-0.2-0.9c0.1,0.3,0.1,0.6,0.2,0.9c-1,5.9,2.4,9,7,11.3l0,0c0.4,1.4,0.7,2.7,1.1,4.1
		c1.6,1.9,3.2,3.9,4.8,5.8c-0.7,0.9-1.5,1.7-1.9,2.2c-4-3.1-7.6-5.8-12.5-9.5c1.7,5.7,2.5,9.7,7.3,10.7c-0.1,0.9-0.1,1.8-0.2,2.6
		l0,0.1c-3.6,1.1-5.9-0.8-7.9-3.4C123.3,274.1,122.4,276,121.4,277.6z"/>
	<path id="XMLID_1751_" class="st20" d="M282.9,96.3c0.2-1.7,0.3-3.4,0.5-5c2.6-0.3,5.1-0.7,7.3-0.9c0.2-2.2,0.3-3.7,0.6-7.1
		c3,3.6,4.8,5.6,6.5,7.7c-3.1,3-3.1,3,2.8,4.9c-1.2-2-2-3.4-2.8-4.9c3-0.9,6-1.9,9.1-2.8c0.4,3.9,0.7,7.7,1.1,11.6
		c-0.5,1.4-1.1,2.8-1.6,4.2c-1.3-1.2-2.7-2.4-4-3.6c-6.8,6.9-6.8,6.9-15.2,6.8C288.7,99.7,288.6,99.4,282.9,96.3z"/>
	<path id="XMLID_1750_" class="st21" d="M124.2,374.1c-1,1-1.9,1.9-2.9,2.9c-2.1,0.6-4.8,2.5-4.3-2.2c0.1-0.7,0.2-1.3,0.2-2
		c0.1-1,0.2-2,0.4-3c0.3-1.8,0.6-3.5,0.8-5.3c1.4-1.3,3.2-2.3,4-3.8c5.5-11.1,10.9-22.3,16.3-33.5c1.2,0.7,2.5,1.3,3.7,2
		c0.6,0.3,1.2,0.5,1.8,0.8c-0.3,0.3-0.5,0.7-0.8,1.1c-5.7,12-11.5,24-17.1,36C125.4,369.3,124.9,371.8,124.2,374.1z"/>
	<path id="XMLID_1749_" class="st22" d="M185.9,388.9c-1.5-2.3-2.8-4.7-4.5-6.8c-4.6-6-9.3-11.8-14.7-18.6c6.1-1.1,7.2,3.6,10.9,5.9
		c-1.1-3.3-2-5.9-2.9-8.5c5.1-2,8.8,1.5,13,3.4c0.9,0.3,1.8,0.6,2.7,0.9l0.1,0c-0.1,2.8-1.7,2.8-3.8,2c-2.5-1.1-5-2.2-7.5-3.3
		c-0.3,0.6-0.6,1.1-1,1.7c2.2,2,4.5,4,6.6,6.2c5,5.3,11,10.3,6.5,19c-0.4,0.8,1.2,2.6,1.8,4c-0.3,0.6-0.7,1-1.3,1.3
		C189.9,393.7,187.9,391.3,185.9,388.9z"/>
	<path id="XMLID_1748_" class="st23" d="M431,37.6c-4.5,5.4-10.6,3.7-16.3,3.8c0.8-4.7-3.5-9.7,0.8-14.8c3.3,2.4,6.4,4.7,9.6,7
		c0.3-0.4,0.5-0.7,0.8-1.1c-2.2-3.8-4.4-7.7-6.6-11.5c0.4-0.4,0.7-0.8,1.1-1.2c2.3,1.4,4.6,2.9,7.1,4.4c0.1-1.7,0.2-3.2,0.2-5
		c7.6,4.7,7.5,4.7,5.2,11.4C432.2,32.9,431.7,35.3,431,37.6z"/>
	<path id="XMLID_1747_" class="st24" d="M372.6,50.1c-0.8-2.9-1.5-5.9-2.3-8.8c-1.7-6.6-0.9-12.3,5.5-16c-0.4,2.5-0.8,5-1.2,7.5
		c4.4-0.1,7.4,5.7,13.8,2.6c-3.1-4.1-5.9-7.7-8.7-11.4c11.7,3.5,13.9,9.3,7.2,19.2c-0.6,0.3-1.2,0.7-1.8,1
		C381,46.2,376.8,48.1,372.6,50.1z"/>
	<path id="XMLID_1746_" class="st25" d="M59.5,327.5c-0.9-5.8,0.6-11.1,3.9-15.9c1.1,0.5,2.7,1.7,3.1,1.3c4.2-3.4,8-7.2,12.2-10.7
		c1.8-1.5,4-2.7,6.2-3.5c2.5-1,5.3-1.4,7.9-2c1.2,1.6,2.5,3.3,3.8,5c-3.6,0.9-6.7,1.7-9.8,2.6l0,0c-1.2-0.1-3-0.9-3.5-0.4
		c-7.1,7.7-16.5,13.8-18,25.3C63,328.5,61.3,328,59.5,327.5z"/>
	<path id="XMLID_1745_" class="st26" d="M227.3,125.3c2.3-2.4,4.5-4.8,6.8-7.2c10.6,1.9,21.7,2.7,29.7,11.6c0,0.9,0.1,1.8,0.1,2.7
		c-2.9,1.6-5.9,3.3-8.9,5c-0.2-2.8-0.4-6.3-0.8-11.8c-3.2,3.7-5,5.9-6.9,8.1c-3.5-3.3-6.9-6.5-9.6-9.1
		C233.6,124.9,230.5,125.1,227.3,125.3z"/>
	<path id="XMLID_1744_" class="st27" d="M193.2,394.7c-0.6-1.4-2.2-3.2-1.8-4c4.5-8.7-1.5-13.7-6.5-19c-2.1-2.2-4.4-4.1-6.6-6.2
		c0.3-0.6,0.6-1.1,1-1.7c2.5,1.1,5,2.2,7.5,3.3c2,0.9,3.6,0.9,3.8-2C203.1,371.8,204.3,385.3,193.2,394.7z"/>
	<path id="XMLID_1743_" class="st28" d="M431,37.6c0.6-2.4,1.2-4.8,2-7c2.3-6.7,2.4-6.7-5.2-11.4c-0.1,1.9-0.2,3.4-0.2,5
		c-2.5-1.6-4.8-3-7.1-4.4c-0.4,0.4-0.7,0.8-1.1,1.2c2.2,3.8,4.4,7.7,6.6,11.5c-0.3,0.4-0.5,0.7-0.8,1.1c-3.1-2.3-6.3-4.6-9.6-7
		c-4.4,5.1,0,10.1-0.8,14.8c-0.5,0-0.9-0.2-1.2-0.7c-1.1-1.2-2.1-2.3-3.2-3.5c-0.6-1-1.3-2-1.9-3c0.3-0.4,0.6-0.8,0.9-1.3
		c0.3-0.8,0.6-1.5,0.9-2.3c2.9-11.8,7.2-15.3,17.7-14.4c9.3,0.8,13.4,8.5,8.5,16.5C435.2,34.7,432.9,36,431,37.6z"/>
	<path id="XMLID_1742_" class="st29" d="M160.7,303.3c7.6-8.5,18-11.5,28.4-14.2c2.8-0.7,6,0.1,9,0.2c0.8,1,1.7,2.1,2.5,3.1
		c-5.4-0.3,0,4.9-3.3,6c-2.7-1.7-5.6-3.6-8.8-5.7c-1.4,3.2-2.4,5.4-3.4,7.5c-0.9-0.1-1.8-0.1-2.7-0.2l0,0c-1.4,1-2.8,2.1-4.7,3.5
		c-1.8-0.8-4.2-2-6.4-3c-3.4,1.6-6.5,3.1-9.5,4.5C161.5,304.5,161.1,303.9,160.7,303.3z"/>
	<path id="XMLID_1741_" class="st30" d="M315.9,74.9c1.8,1.6,3.6,3.2,6.5,5.7c0.1-3.5,6.1-5.7-0.9-8.2c-0.3-0.1-1.3-5.2,2.5-6.2
		c2.4,2.9,4.8,5.7,8.2,9.7c-1.2-4.4-2-7.4-2.8-10.3c0.4-0.4,0.9-0.7,1.3-1.1c3.1,2.2,6.2,4.4,10.4,7.3c-4.6,5.6-7.9,11.4-15.7,12.8
		c1.1,1.9,2.2,3.7,3.3,5.5c-1.3-0.8-2.7-1.6-4-2.4C321.7,83.5,318.8,79.2,315.9,74.9z"/>
	<path id="XMLID_1740_" class="st31" d="M238.7,173.3c-0.8-0.1-1.7-0.2-2.5-0.3c-2.6-2.8-5.1-5.7-7.7-8.5c-0.7-3.3-1.6-6.6-2.2-9.9
		c-0.5-2.9-0.6-5.8-0.9-8.7c0.6-0.2,1.3-0.5,1.9-0.7c3.7,4.4,7.5,8.8,11.2,13.2l0.6,0.7l0.6,0.7c0.8,1,1.6,2,2.4,2.9l0,0
		c-0.2,2.7-0.5,5.3-0.7,8C240.6,171.6,239.6,172.5,238.7,173.3z"/>
	<path id="XMLID_1739_" class="st32" d="M289.2,128.3c-9.9,10.6-19.9,21.3-29.8,31.9c1.3-3.5,2.5-7,3.8-10.6
		c0.7-2.2,1.4-4.5,2.1-6.7c7.7-7.3,15.4-14.6,23.1-21.9C288.6,123.4,288.9,125.9,289.2,128.3z"/>
	<path id="XMLID_1738_" class="st33" d="M94.1,441.7c3.9-13,7.9-26.1,11.8-39.1c0.6,0.9,1.2,1.8,1.8,2.7c0.4,1.5,0.9,3,1.3,4.5
		c-3.4,10.3-6.8,20.6-10.2,30.9c-0.2,0.9-0.5,1.8-0.7,2.7l0,0.1c-0.1,0.8-0.2,1.5-0.3,2.3c-0.2,0.5-0.5,1-0.8,1.5
		c-0.2,0.9-0.4,1.8-0.6,2.7l0,0c-0.2,0.8-0.3,1.6-0.5,2.4l-0.1,0.3c-1.3,0.3-2.6,0.6-3.9,0.9l0.1,0c0.1-0.9,0.2-1.8,0.3-2.7l0,0.1
		c0.1-0.9,0.3-1.8,0.4-2.6l0-0.1c0.4-1.3,0.9-2.6,1.3-4c0,0,0,0.1,0,0.1C94,443.5,94.1,442.6,94.1,441.7z"/>
	<path id="XMLID_1737_" class="st34" d="M393.6,51.7c1.3,0.5,2.5,0.9,3.8,1.4c0.4,0.9,0.7,1.7,1.3,3.2c-2.9,0.3-5.4,0.6-7.8,0.8
		c1.6,3.2,3,6,4.9,9.6c-4.4-1.8-7.5-3-10.5-4.1c-0.1,3.4-0.1,6.1-0.2,8.8c-7-0.4-11.8-3.6-14-10.5c0.4-0.4,0.8-0.9,1.2-1.3
		c2.4-1.2,4.9-2.4,7.3-3.5c2.2,0.5,4.8,1.9,6.6,1.2C389.1,56.2,391.3,53.7,393.6,51.7z"/>
	<path id="XMLID_1736_" class="st35" d="M283.1,187.7c-6.1-1.8-10.5-4.8-10.6-12.2c0-1.9-2.4-3.9-3.9-6c2.4-2.1,7.3,1.1,8.3-3.8
		c3.3,2.1,6.6,4.2,9.9,6.4c0.2,1.6,0.3,3.2,0.5,4.8c-3.5,2.4-3.4,5.8-2.9,9.4C284,186.8,283.5,187.2,283.1,187.7z"/>
	<path id="XMLID_1735_" class="st36" d="M63.6,343.8c1.7,1.1,3.4,2.1,5,3.2c4.6,9.4,13.5,14.2,21.5,21.1c1.1-1.8,1.8-3,2.6-4.3
		c1.9,4.2,3.8,8.4,5.7,12.6C82.2,370.5,69.2,361.1,63.6,343.8z"/>
	<path id="XMLID_1734_" class="st37" d="M385.3,71.4c0.1-2.7,0.1-5.4,0.2-8.8c2.9,1.2,6,2.4,10.5,4.1c-1.9-3.7-3.3-6.5-4.9-9.6
		c2.4-0.2,4.9-0.5,7.8-0.8c-0.6-1.5-1-2.4-1.3-3.2c5.6,1.7,6.8,6.1,6.2,11.1c-0.6,4.8-4.1,7.5-10.1,8.1
		C390.8,72.5,388,71.8,385.3,71.4z"/>
	<path id="XMLID_1733_" class="st38" d="M372.5,59.7c-0.4,0.4-0.8,0.8-1.2,1.3c-5.9,4.1-11.9,8-17.6,12.4c-1.7,1.3-2.6,3.8-3.9,5.7
		c-6.9-1-7-1.2-3.7-7.1c0.7-1.2,1.3-2.4,2-3.6c0.7-1,1.5-1.9,2.2-2.9c0.3,0.1,0.6,0.3,0.8,0.5c7.1-4.3,14.2-8.7,21.3-13
		C372.5,55.2,372.5,57.5,372.5,59.7z"/>
	<path id="XMLID_1732_" class="st39" d="M92.9,296.7c-2.7,0.7-5.4,1.1-7.9,2c-2.2,0.8-4.4,2-6.2,3.5c-4.2,3.4-8,7.3-12.2,10.7
		c-0.4,0.3-2.1-0.8-3.1-1.3c6.2-14,17.2-20.4,29.7-17.3C93,295.1,92.9,295.9,92.9,296.7z"/>
	<path id="XMLID_1731_" class="st40" d="M109,409.8c-0.4-1.5-0.9-3-1.3-4.5c1,0.1,2,0.2,3.1,0.3c2.8,4,6,6.8,11.6,5.8
		c2.9-0.5,6.1,0.8,9.1,1.3c1-0.8,2-1.6,3-2.5c6.8-0.8,13.5-1.7,20.3-2.5c3.2-1,6.5-2,9.7-3c1.3,0.5,2.6,1.1,3.9,1.6
		c-1,0.8-1.9,1.7-2.9,2.5l-0.1-0.1c-0.9,0-1.8,0.1-2.7,0.1c-10,2.2-19.8,5.4-29.9,6.4C124.7,416.1,115.9,416,109,409.8z"/>
	<path id="XMLID_1730_" class="st41" d="M110.8,405.6c-1-0.1-2-0.2-3.1-0.3c-0.6-0.9-1.2-1.8-1.8-2.7c1.9-6.5,3.7-13,5.9-20.5
		c-0.3-0.5-1.5-2.3-2.7-4.1c1.2-1.3,4.4,0.5,4.3-3.3c-0.1-2,0.5-5.3,4.2-4.8c-0.1,1-0.2,2-0.4,3c-0.1,0.7-0.2,1.3-0.2,2
		c-0.5,4.6,2.2,2.8,4.3,2.2c-0.8,3-1.6,6.1-2.4,9.1c-4.8,1.3-5.9,4.6-4.7,9l0,0c-0.6,2.2-1.2,4.4-1.9,6.6l0,0
		c-0.5,0.4-1,0.8-1.4,1.2C110.9,403.8,110.8,404.7,110.8,405.6z"/>
	<path id="XMLID_1729_" class="st42" d="M367.4,96.8c-7.2-2.7-10.2-9.7-15.1-14.8c0-0.9,0.1-1.8,0.1-2.7c6.7-2.8,11.3,1,15.3,5.3
		C371.3,88.4,371.9,92.8,367.4,96.8z"/>
	<path id="XMLID_1728_" class="st43" d="M263.7,129.7c-7.9-8.9-19-9.6-29.7-11.6c2.1-1.2,4.2-2.8,6.5-3.5
		C253,110.6,260.6,115.7,263.7,129.7z"/>
	<path id="XMLID_1727_" class="st21" d="M324.6,87.8c1.3,0.8,2.7,1.6,4,2.4c0.5,0.3,0.9,0.7,1.2,1.3c-8.7,8-17.3,16.1-26,24.1
		c-0.5,0.5-1,1-1.5,1.5c1.2-3.6,2.4-7.3,3.6-10.9c0.1-0.7,0.2-1.5,0.3-2.2c0.5-1.4,1.1-2.8,1.6-4.2
		C315.3,98.3,319.1,91.8,324.6,87.8z"/>
	<path id="XMLID_1726_" class="st44" d="M59.5,327.5c1.7,0.5,3.5,1,5.9,1.7c1.5-11.5,10.9-17.6,18-25.3c0.5-0.5,2.3,0.2,3.5,0.4
		c-2.5,3.3-4.3,7.8-7.6,9.7c-5.7,3.2-5.3,9.5-8.8,13.5c-0.5,0.5,0.3,2.2,0.6,3.5c-3.2,0.7-6.2,1.3-9.3,2
		C61,331.2,60.3,329.4,59.5,327.5z"/>
	<path id="XMLID_1725_" class="st45" d="M306,106.2c-1.2,3.6-2.4,7.3-3.6,10.9c-1,1.3-2,2.7-3.1,3.9c-2.7,2.7-5.6,5.2-8.4,7.8
		c-0.6,0-1.2-0.2-1.7-0.6c-0.3-2.4-0.5-4.8-0.8-7.2c0.7-2.2,1.4-4.4,2-6.5c3.3-1.5,6.6-3,9.8-4.6C302.2,108.8,304.1,107.4,306,106.2
		z"/>
	<path id="XMLID_1724_" class="st46" d="M180.1,200.6c1,0.6,2.7,0.9,2.9,1.7c1.5,5.5,5.6,7.1,10,7.6c1.2,4,2.3,7.8,3.6,12
		c-3.2-1.8-6.1-3.6-10.2-6c1.4,2.2,2.2,3.5,3,4.8c-5.2-3.4-9.8-7.2-11.3-13.6c0.7,0.4,1.4,0.9,2.7,1.7
		C180.5,205.7,180.3,203.2,180.1,200.6z"/>
	<path id="XMLID_1723_" class="st47" d="M160.7,303.3c0.4,0.6,0.8,1.2,1.2,1.7c-0.7,0.8-1.9,2.5-2.1,2.4c-3.1-1.8-7.9-2.8-5.4-8.3
		c1-0.8,2-1.6,3-2.4c0.3-1.8-0.1-4.3,1-5.3c4.1-4,3.4-7.5,0-11.3c-0.7-0.8-0.5-2.3-0.7-3.5c0.8,0.9,1.7,1.9,2.5,2.8
		c0.3,0.1,0.8,0.3,0.8,0.2c0.3-0.4,0.4-0.9,0.6-1.4c0.5-0.4,0.9-0.8,1.4-1.3c0.6,0.5,1.2,1,1.8,1.5c0.3,0.4,0.5,0.9,0.5,1.5
		c-0.1,0.8-0.1,1.6-0.2,2.4c0.3,2.3,0.5,4.6,0.8,7C164.2,294,162.4,298.7,160.7,303.3z"/>
	<path id="XMLID_1722_" class="st48" d="M213.5,328c-1-2.3-1.9-4.6-2.8-6.6c1.6-1.7,3.6-2.9,4.4-4.7c1.6-3.3,2.3-7,3.9-10.3
		c0.5-1,2.9-1,4.5-1.5C224.5,314.5,223,323,213.5,328z"/>
	<path id="XMLID_1721_" class="st49" d="M290.9,128.8c2.8-2.6,5.7-5.2,8.4-7.8c1.2-1.2,2.1-2.6,3.1-3.9c0.5-0.5,1-1,1.5-1.5
		c2.6,0.1,5.3,0.3,7.9,0.4c0.9,0.1,1.8,0.2,2.7,0.3l0,0c-0.6,1.4-1.1,2.8-1.7,4.1l0,0c-6.1-3.2-9.3,1-12.7,4.7
		c1.9,6.8,6.8,6.4,11.8,5.9c0.8,1.2,1.6,2.4,2.3,3.5c-5.4,0.5-10.3-0.5-15-3.5C296.9,129.6,293.7,129.6,290.9,128.8z"/>
	<path id="XMLID_1720_" class="st50" d="M212,206c-0.5,0.4-1,0.8-1.5,1.2c0-2.8,0.3-5.7-0.2-8.4c-0.5-3.2-1.5-6.5-2.8-9.5
		c-1-2.3-4.4-3.8-2.2-7.3c0.2-0.3-1.6-2.5-2.9-3.1c-4-1.7-8.1-2.9-12.2-4.4l0,0c0.5-0.5,1-1,1.5-1.4c13.7,0.6,24,12.7,22.3,26.2
		c-0.2,1.8-0.5,3.6-0.8,5.5l0-0.2C212.7,205,212.3,205.4,212,206z"/>
	<path id="XMLID_1719_" class="st51" d="M408.4,34.2c0.6,1,1.3,2,1.9,3c-0.4,0.5-0.7,1.1-1.1,1.6c-4.5,2.4-9.1,4.7-13.5,7.4
		c-1.5,0.9-2.3,3-3.5,4.5c-2.6-0.4-5.1-0.9-7.7-1.3c0.2-1.7,0.4-3.5,0.6-5.2c0.6-0.3,1.2-0.7,1.8-1c4.1-1.8,8.1-3.7,12.2-5.4
		C402.2,36.5,405.3,35.4,408.4,34.2z"/>
	<path id="XMLID_1718_" class="st52" d="M180.1,200.6c0.2,2.5,0.4,5.1,0.6,8.1c-1.3-0.8-2-1.2-2.7-1.7c-1.7-8.5-4-17.3,2-25
		c2.5-3.3,6.1-5.8,9.2-8.7c0.3,0.4,0.7,0.8,1,1.2l0,0c-3.2,2.9-7.3,4.9-6.5,10.5c0.2,1.3-1.8,2.9-3,4.6c1.2,2.2,2.5,4.7,4.1,7.6
		C182,197.5,178.4,195.7,180.1,200.6z"/>
	<path id="XMLID_1717_" class="st53" d="M247.3,133.6c1.9-2.2,3.7-4.4,6.9-8.1c0.4,5.6,0.6,9,0.8,11.8c3-1.7,6-3.3,8.9-5
		c0.3,2.3,0.6,4.6,0.9,6.9c-0.7,0.3-1.3,0.7-2,1c-0.5,0.4-0.9,0.9-1.4,1.3c-1.9,0.8-3.7,1.5-5.6,2.3l0,0c-1.5-1-4.3,0.7-4.7-3
		c-0.3-2.5-2.5-4.7-3.8-7.1L247.3,133.6z"/>
	<path id="XMLID_1716_" class="st54" d="M306.9,88.2c-3,0.9-6,1.9-9.1,2.8l0,0c-1.8-2.1-3.5-4.1-6.5-7.7c-0.3,3.4-0.4,4.9-0.6,7.1
		c-2.1,0.3-4.7,0.6-7.3,0.9c1.5-2.4,2.5-5.1,4.4-7C294,78.1,301.6,79.8,306.9,88.2z"/>
	<path id="XMLID_1715_" class="st55" d="M164.3,266.5c-1.5-3.4-3.3-6.7-4.5-10.2c-3.9-11.4-10.4-16.1-22.2-15.8
		c-2.1,0-4.3-0.6-6.4-1c5.3-4.5,11.3-3.6,16.6-0.8C158.7,244.4,165.1,253.4,164.3,266.5z"/>
	<path id="XMLID_1714_" class="st53" d="M227.3,125.3c3.2-0.2,6.4-0.5,10.5-0.8c2.7,2.5,6.1,5.8,9.6,9.1l0,0.2
		c-2.4,2-4.8,3.9-7.2,5.9c-0.4-0.4-0.8-0.9-1.1-1.3c-2.8-7.1-6.7-9.1-14.8-7.8C225.2,128.9,226.2,127.1,227.3,125.3z"/>
	<path id="XMLID_1713_" class="st56" d="M91.8,453.6c1.3-0.3,2.6-0.6,3.9-0.9c-1.8,10.3-3.6,20.7-5.4,31c0,0.1-0.5,0.2-0.8,0.3
		C87.2,477.6,88.4,462.5,91.8,453.6z"/>
	<path id="XMLID_1712_" class="st57" d="M117.6,369.9c-3.8-0.5-4.3,2.8-4.2,4.8c0.2,3.8-3,2-4.3,3.3l0,0c-0.4-0.7-0.8-1.4-1.3-2.1
		c0,0-0.1-0.3-0.1-0.3c3.8-6.2-4.9-8.9-4.4-15c4.1,1.7,6,7.1,11.5,5.5c-1.1-2.6-1.9-4.8-2.8-7c1.4-0.9,2.7-1.7,4-2.5
		c0.4,0.5,0.8,0.9,1.3,1.3l0,0c0,0.9,0.1,1.9,0.1,2.8c0.3,1.3,0.6,2.6,0.9,3.9C118.2,366.3,117.9,368.1,117.6,369.9z"/>
	<path id="XMLID_1711_" class="st58" d="M222.8,251.2c-0.3-0.8-0.7-1.6-1.4-3.3c8.6,1,14.8-1.3,19.3-8.8c2.2-3.7,3-6.5,1.9-10.4
		c-0.7-2.5-0.5-4.5,3-3.8C248.8,239.8,239.9,250.1,222.8,251.2z"/>
	<path id="XMLID_1710_" class="st59" d="M306,106.2c-1.9,1.2-3.7,2.6-5.7,3.6c-3.2,1.7-6.5,3.1-9.8,4.6c-1.7-2.8-3.4-5.6-5.1-8.5
		c0.6,0.4,1.2,0.8,1.8,1.2c8.4,0.1,8.4,0.1,15.2-6.8c1.3,1.2,2.7,2.4,4,3.6C306.2,104.7,306.1,105.5,306,106.2z"/>
	<path id="XMLID_1709_" class="st60" d="M385.2,44.2c-0.2,1.7-0.4,3.5-0.6,5.2c-1.6,2.2-3.1,4.5-4.7,6.7c-2.4,1.2-4.9,2.4-7.3,3.5
		c0-2.3-0.1-4.5-0.1-6.8c0.1-1,0.1-1.9,0.2-2.9C376.8,48.1,381,46.2,385.2,44.2z"/>
	<path id="XMLID_1708_" class="st44" d="M92.9,296.7c0.1-0.8,0.1-1.6,0.2-2.4c3.8,2.5,7.7,5,11.5,7.4c0.6,1.7,1.3,3.3,1.7,5
		c0.1,0.5-0.6,1.1-0.9,1.7c-1.2-1.4-2.3-2.8-3.3-3.9c-5.4,0.7-10.4,5.5-15.1-0.3c3.1-0.8,6.2-1.6,9.8-2.6
		C95.4,300,94.1,298.4,92.9,296.7z"/>
	<path id="XMLID_1707_" class="st61" d="M185.9,388.9c2,2.4,4,4.7,6,7.1c-4.6,6.1-10.9,9.3-18.2,10.7l-0.2-0.6
		c-0.3-1.2-0.6-2.4-0.9-3.5c2.4-2,4.9-4.1,7.3-6.1c1.9,0.6,3.8,1.2,5.7,1.8c-0.5-1.8-0.9-3.6-1.4-5.4
		C184.8,391.6,185.4,390.3,185.9,388.9z"/>
	<path id="XMLID_1706_" class="st62" d="M379.8,24c2.8,3.7,5.6,7.3,8.7,11.4c-6.4,3-9.4-2.7-13.8-2.6c0.4-2.5,0.8-5,1.2-7.5
		C377.1,24.8,378.4,24.4,379.8,24z"/>
	<path id="XMLID_1705_" class="st63" d="M263.2,149.6c-1.3,3.5-2.5,7-3.8,10.6c-0.6,1.2-2.4,2.5,0.5,3.1c-0.1,0.8-0.3,1.6-0.4,2.4
		c-0.5,0.4-1,0.7-1.5,1.1c-0.9-0.1-1.8-0.1-2.7-0.2l0,0c-1.1-2.3-2.3-4.7-3.4-7c2.5-3,4.9-6,7.4-9c0.5-0.3,0.9-0.7,1.3-1.1
		C261.4,149.5,262.3,149.6,263.2,149.6z"/>
	<path id="XMLID_1704_" class="st57" d="M98.4,376.4c-1.9-4.2-3.8-8.4-5.7-12.6l0,0c2.6-0.6,4.2-0.1,6,2.5c2.4,3.5,6,6.2,9.1,9.3
		l0.1,0.3c-0.1,0.8-0.2,1.6-0.3,2.4C104,379.9,101.1,378.9,98.4,376.4z"/>
	<path id="XMLID_1703_" class="st64" d="M286.8,172.1c-3.3-2.1-6.6-4.2-9.9-6.4c-4.4-0.3-8.9-0.7-13.3-1c-0.4-0.5-0.9-1-1.3-1.5
		c0.7-0.3,1.3-0.6,2-0.9c0.7-0.2,1.4-0.3,2.2-0.5C277.7,160.6,281.9,162.7,286.8,172.1z"/>
	<path id="XMLID_1702_" class="st65" d="M314.2,134.6c-0.8-1.2-1.6-2.4-2.3-3.5c-3.8-3.9-2.1-7.4,0.9-10.7l0,0
		c2.9,3.6,7.3,6.6,5.6,12.4C317,133.4,315.6,134,314.2,134.6z"/>
	<path id="XMLID_1701_" class="st66" d="M318.4,132.8c1.7-5.8-2.7-8.7-5.6-12.4c0.6-1.4,1.1-2.8,1.7-4.1c8.6-0.4,9.3,0.1,11.2,8
		c-0.9,0.8-1.8,1.5-3.3,2.4c-0.4-7.1-0.4-7.1-5.9-6c1.9,2.2,3.6,4.2,5.9,6c1,0.3,1.4,0.7,1.8,1.2
		C322.2,129.5,320.3,131.2,318.4,132.8z"/>
	<path id="XMLID_1700_" class="st67" d="M200.7,292.5c-0.8-1-1.7-2.1-2.5-3.1c5.7,1.7,11.5,3.3,17.2,5c0.2,0.7,0.4,1.3,0.6,2
		C210.5,296.6,204.4,299.1,200.7,292.5z"/>
	<path id="XMLID_1699_" class="st68" d="M379.9,56.2c1.6-2.2,3.1-4.5,4.7-6.7c2.6,0.4,5.1,0.9,7.7,1.3c0.5,0.2,1,0.5,1.4,0.9
		c-2.4,2-4.5,4.5-7.2,5.7C384.7,58.1,382.1,56.7,379.9,56.2z"/>
	<path id="XMLID_1698_" class="st69" d="M142.4,329.3c-1.2-0.7-2.5-1.3-3.7-2c-0.8-3.5-1.6-7.1-2.3-10.6c0.7-0.5,1.3-0.9,2-1.4
		c0.4,1.4,0.7,2.7,1.1,4.1c0.9,0.1,1.7,0.1,2.6,0.2l0.1,0.1C142.2,322.8,142.3,326,142.4,329.3z"/>
	<path id="XMLID_1697_" class="st5" d="M342.7,35.8c-0.5-0.7-0.9-1.3-1.4-2c7.5-0.3,9.4,5,11,10.8c-1.1-0.5-2.4-0.7-3.2-1.5
		C347,40.8,344.9,38.2,342.7,35.8z"/>
	<path id="XMLID_1696_" class="st70" d="M287.1,107.2c-0.6-0.4-1.2-0.8-1.8-1.2c-0.8-3.2-1.6-6.5-2.4-9.7
		C288.6,99.4,288.7,99.7,287.1,107.2z"/>
	<path id="XMLID_1695_" class="st71" d="M117.4,357.8c-0.5-0.4-0.9-0.9-1.3-1.3c-0.7-2.8-1.3-5.5-2-8.3c0.8-0.8,1.6-1.6,2.4-2.4
		c0,0,0.7-0.1,0.7-0.1C117.3,349.7,117.4,353.7,117.4,357.8z"/>
	<path id="XMLID_1694_" class="st55" d="M164.8,278.6c-0.6-0.5-1.2-1-1.8-1.5c0.4-3.6,0.8-7.2,1.3-10.8c0.5,3.6,1,7.3,1.5,10.9
		C165.3,277.6,165,278.1,164.8,278.6z"/>
	<path id="XMLID_1693_" class="st72" d="M263.2,149.6c-0.9,0-1.7-0.1-2.6-0.1c0.3-2.6,0.6-5.2,0.9-7.9c0.5-0.4,0.9-0.9,1.4-1.3
		c0.6,0.5,1.1,1,1.7,1.6c0.2,0.4,0.5,0.7,0.8,1C264.6,145.1,263.9,147.4,263.2,149.6z"/>
	<path id="XMLID_1692_" class="st3" d="M122.5,249.6c-1.4,3-1.4,7.1-5.9,7.7c1.1-2.6,2.1-5.2,3.2-7.8
		C120.7,249.5,121.6,249.5,122.5,249.6z"/>
	<path id="XMLID_1691_" class="st6" d="M284.5,186.3c-0.6-3.6-0.6-7,2.9-9.4C288.2,180.6,287.6,183.8,284.5,186.3z"/>
	<path id="XMLID_1690_" class="st69" d="M148.4,324.2c-0.2,2.5-0.4,5.1-0.5,7.6c-0.5-0.2-1-0.5-1.4-0.9c-0.5-0.6-0.9-1.2-1.4-1.8
		c-1.9-3.6-0.8-5.3,3.2-5.1L148.4,324.2z"/>
	<path id="XMLID_1689_" class="st55" d="M122.5,249.6c-0.9,0-1.8-0.1-2.7-0.1c1.9-1.7,3.8-3.3,5.7-5c0.4,0.5,0.8,0.9,1.1,1.4
		C125.2,247.1,123.8,248.3,122.5,249.6z"/>
	<path id="XMLID_1688_" class="st73" d="M262.3,163.2c0.4,0.5,0.9,1,1.3,1.5c-1.4,0.3-2.7,0.7-4.1,1c0.1-0.8,0.3-1.6,0.4-2.4
		C260.7,163.3,261.5,163.2,262.3,163.2z"/>
	<path id="XMLID_1687_" class="st23" d="M409.2,38.9c0.4-0.5,0.7-1.1,1.1-1.6c1.1,1.2,2.1,2.3,3.2,3.5
		C412.1,40.1,410.7,39.5,409.2,38.9z"/>
	<path id="XMLID_1686_" class="st65" d="M323,126.6c0.9-0.8,1.8-1.5,2.7-2.3c-0.5,1.2-1,2.4-1.6,3.6
		C323.8,127.5,323.4,127,323,126.6z"/>
	<path id="XMLID_1685_" class="st74" d="M264.5,141.9c-0.6-0.5-1.1-1-1.7-1.6c0.7-0.3,1.3-0.7,2-1
		C264.7,140.2,264.6,141,264.5,141.9z"/>
	<path id="XMLID_1684_" class="st56" d="M93.9,444.4c-0.4,1.3-0.9,2.6-1.3,4C93,447,93.5,445.7,93.9,444.4z"/>
	<path id="XMLID_1683_" class="st61" d="M165.5,408.8c1-0.8,1.9-1.7,2.9-2.5l0,0c0.3,0.4,0.7,0.7,1.2,0.9l0,0.6
		C168.2,408.2,166.9,408.5,165.5,408.8z"/>
	<path id="XMLID_1682_" class="st61" d="M173.7,406.7c-1.4,0.4-2.7,0.8-4.1,1.1c0,0,0-0.6,0-0.6c1.3-0.4,2.6-0.7,3.9-1.1
		L173.7,406.7z"/>
	<path id="XMLID_1681_" class="st66" d="M314.5,116.3c-0.9-0.1-1.8-0.2-2.7-0.3C312.7,116.1,313.6,116.2,314.5,116.3z"/>
	<path id="XMLID_1680_" class="st5" d="M339.7,33c-0.7-0.1-1.3-0.2-2-0.4C338.3,32.8,339,32.9,339.7,33z"/>
	<path id="XMLID_1679_" class="st3" d="M116,259.6c0.4,0.5,0.8,1,1.2,1.5c-0.8,0-1.6,0-2.4-0.1C115,260.5,115.4,260,116,259.6z"/>
	<path id="XMLID_1678_" class="st51" d="M410.2,30.7c-0.3,0.8-0.6,1.5-0.9,2.3C409.6,32.2,409.9,31.4,410.2,30.7z"/>
	<path id="XMLID_1677_" class="st1" d="M190.2,174.6c-0.3-0.4-0.7-0.8-1-1.2c0.9-0.1,1.7-0.2,2.6-0.2
		C191.2,173.7,190.7,174.1,190.2,174.6z"/>
	<path id="XMLID_1676_" class="st75" d="M162.8,408.9c0.9,0,1.8-0.1,2.7-0.1C164.5,408.8,163.6,408.8,162.8,408.9z"/>
	<path id="XMLID_1675_" class="st71" d="M117.5,360.7c0-0.9-0.1-1.9-0.1-2.8C117.5,358.8,117.5,359.7,117.5,360.7z"/>
	<path id="XMLID_1674_" class="st56" d="M92.1,450.9c-0.1,0.9-0.2,1.8-0.3,2.7C92,452.8,92,451.9,92.1,450.9z"/>
	<path id="XMLID_1673_" class="st56" d="M92.6,448.4c-0.1,0.9-0.3,1.8-0.4,2.6C92.3,450.1,92.4,449.2,92.6,448.4z"/>
	<path id="XMLID_1672_" class="st56" d="M95.8,452.4c0.2-0.8,0.3-1.6,0.5-2.4C96.1,450.8,96,451.6,95.8,452.4z"/>
	<path id="XMLID_1671_" class="st56" d="M96.3,450c0.2-0.9,0.4-1.8,0.6-2.7C96.7,448.1,96.5,449,96.3,450z"/>
	<path id="XMLID_1670_" class="st14" d="M145.1,329.1c0.5,0.6,0.9,1.2,1.4,1.8c-1,0.1-2,0.1-3,0.2c0.2-0.4,0.5-0.7,0.8-1.1
		C144.5,329.7,144.8,329.4,145.1,329.1z"/>
	<path id="XMLID_1669_" class="st56" d="M94.1,441.7c-0.1,0.9-0.1,1.9-0.2,2.8C94,443.5,94.1,442.6,94.1,441.7z"/>
	<path id="XMLID_1668_" class="st56" d="M97.7,445.8c0.1-0.8,0.2-1.5,0.3-2.3C98,444.2,97.8,445,97.7,445.8z"/>
	<path id="XMLID_1667_" class="st56" d="M98.1,443.3c0.2-0.9,0.5-1.8,0.7-2.7C98.6,441.6,98.3,442.5,98.1,443.3z"/>
	<path id="XMLID_1666_" class="st41" d="M107.5,378.2c0.1-0.8,0.2-1.6,0.3-2.4c0.4,0.7,0.8,1.4,1.3,2.1
		C108.6,378.3,108.1,378.4,107.5,378.2z"/>
	<path id="XMLID_1665_" class="st27" d="M190.5,365.2c-0.9-0.3-1.8-0.6-2.7-0.9C188.7,364.6,189.6,364.9,190.5,365.2z"/>
	<path id="XMLID_1664_" class="st6" d="M266.4,161.9c-0.7,0.2-1.4,0.3-2.2,0.5C265,162.2,265.7,162,266.4,161.9z"/>
	<path id="XMLID_1663_" class="st76" d="M208.4,216.3c-0.3,1.4-0.5,2.8-0.8,4.2c-0.6,3,1.1,2.6,2.9,2c-4.6,5.3-9.1,10.7-13.7,16
		c1.7-3.8,3.5-7.6,5.5-11.9c-0.7-0.3-2.3-0.9-3.9-1.6c2.5-3.8,5-7.6,7.5-11.4C206.7,214.5,207.5,215.4,208.4,216.3z"/>
	<path id="XMLID_1662_" class="st50" d="M208.4,216.3c-0.9-0.9-1.7-1.8-2.6-2.7c1.6-2.1,3.1-4.3,4.7-6.4
		C209.8,210.2,209.1,213.2,208.4,216.3z"/>
	<path id="XMLID_1661_" class="st75" d="M164.5,404.7c-3.2,1-6.5,2-9.7,3c-2.4-2.5-4.8-5-7.2-7.4c-0.7-0.7-2.1-1-2.2-1.7
		c-1.1-9.5-8.6-14-14.8-19.5c-0.8-0.7-1-2.1-2-4.4c3.1-0.2,5.3-0.4,7.5-0.6c2.8,2.1,5.5,4.2,8.3,6.3c0.4-0.4,0.8-0.8,1.3-1.1
		c-0.9-2.9-1.7-5.7-2.6-8.6c0.5-0.4,0.9-0.8,1.4-1.2c2.1,2.7,4.6,5.2,6,8.1c0.7,1.5-0.3,3.9-0.7,6.9
		C154.3,390.4,162.4,395.4,164.5,404.7z"/>
	<path id="XMLID_1660_" class="st75" d="M173.6,406.1c-1.3,0.4-2.6,0.7-3.9,1.1c-0.5-0.2-0.9-0.5-1.2-0.9c0.3-0.8,1.2-2,1-2.4
		c-3-4.6-6.1-9.1-9.6-14.2c5.1-0.1,9.3-0.7,13.5-0.3c3.8,0.4,4.1,3.1,2.5,6.6c-1.6-1-3.1-1.8-5.2-3.1c0.8,3.6,1.4,6.6,2.1,9.6
		C173,403.8,173.3,405,173.6,406.1z"/>
	<path id="XMLID_1659_" class="st22" d="M184.2,392.9c0.5,1.8,0.9,3.6,1.4,5.4c-1.9-0.6-3.8-1.2-5.7-1.8
		C181.4,395.3,182.8,394.1,184.2,392.9z"/>
	<path id="XMLID_1658_" class="st77" d="M157.7,276.6c0.2,1.2,0,2.7,0.7,3.5c3.4,3.9,4.1,7.3,0,11.3c-1.1,1-0.7,3.5-1,5.3
		c-5.7-7.6-11.3-15.3-17-22.9c-1.6-1.9-3.2-3.9-4.8-5.8c-0.4-1.4-0.7-2.7-1.1-4.1l0,0c6.6,1.8,8.5,8.4,13,12.4
		c2.3,2.1,4.6,4.3,7.8,5.4c-0.9-2.7-1.8-5.5-2.8-8.2c1.3,0.6,2.6,1.1,3.9,1.7C156.8,275.6,157.3,276.1,157.7,276.6z"/>
	<path id="XMLID_1657_" class="st55" d="M156.4,275.1c-1.3-0.6-2.6-1.1-3.9-1.7C153.8,274,155.1,274.6,156.4,275.1z"/>
	<path id="XMLID_1656_" class="st55" d="M161.6,278.3c-0.2,0.5-0.4,0.9-0.6,1.4c0,0.1-0.5-0.2-0.8-0.2
		C160.6,279.1,161.1,278.7,161.6,278.3z"/>
	<path id="XMLID_1655_" class="st78" d="M114.3,395.1c-1.2-4.4-0.1-7.7,4.7-9c0,1.2-0.5,2.8,0.1,3.6c5,6.9,10.3,13.7,15.5,20.5
		c-1,0.8-2,1.6-3,2.5c-3.9-5.2-7.6-10.6-11.7-15.5C118.7,395.8,116.2,395.7,114.3,395.1z"/>
	<path id="XMLID_1654_" class="st2" d="M143.2,370.7c0.9,2.9,1.7,5.7,2.6,8.6c-0.4,0.4-0.8,0.8-1.3,1.1c-2.8-2.1-5.5-4.2-8.3-6.3
		C136.6,369.1,139.7,369.5,143.2,370.7z"/>
	<path id="XMLID_1653_" class="st73" d="M251.9,159.6c1.1,2.3,2.3,4.7,3.4,7c0.9,2.5,1.8,5,2.6,7.4c-2.7-0.6-5.9-1.2-10-2.1
		c-0.6,3.8-1.1,6.7-1.6,9.6c-2.5-2.7-5.1-5.4-7.6-8.1c0.9-0.8,1.8-1.7,2.8-2.5c2.2-1.7,4.3-3.5,2.1-6.6c0.9-0.8,1.8-1.6,2.8-2.4l0,0
		C248.2,161.1,250,160.3,251.9,159.6z"/>
	<path id="XMLID_1652_" class="st73" d="M255.3,166.6c0.9,0.1,1.8,0.1,2.7,0.2C257.1,166.7,256.2,166.7,255.3,166.6z"/>
	<path id="XMLID_1651_" class="st79" d="M207.7,303.6c-3.8,3.6,1.4,5.8,1.5,8.9c-2.2-1.1-4.2-2.2-6-3.1c-0.5,6.2-0.9,12.1-1.3,17
		c-3.7,2.5-6.6,4.4-10.2,6.8c-1.4-1.3-3.2-2.9-4.9-4.5l0,0c1.1-1.2,3.5-2.7,3.2-3.5c-1.4-5.1,4.5-3,5.1-4.7
		c-1.5-4.9-2.7-8.9-3.9-12.9l0,0c0.9,0.1,1.8,0.2,2.7,0.2l0,0c4.7,0.6,3.3-2.6,3.2-5C200.7,303,204.2,303.3,207.7,303.6z"/>
	<path id="XMLID_1650_" class="st80" d="M207.7,303.6c-3.5-0.3-7.1-0.6-10.6-0.9c-1.1,1.7-2.1,3.3-3.2,5l0,0
		c-0.9-0.1-1.8-0.2-2.7-0.2l0,0c-2.2-0.6-4.3-1.2-6.5-1.8c-0.8-1.9-1.5-3.7-2.3-5.6l0,0c0.9,0.1,1.8,0.1,2.7,0.2
		c1-2.2,1.9-4.3,3.4-7.5c3.2,2.1,6.1,3.9,8.8,5.7c3.3-1.1-2.1-6.3,3.3-6c3.7,6.6,9.8,4.1,15.3,3.9c0.5,1.4,1,2.9,1.2,3.7
		C213.9,301.4,210.8,302.5,207.7,303.6z"/>
	<path id="XMLID_1649_" class="st79" d="M181.3,330.9c-1.8-0.2-3.6-0.3-5.3-0.5c1.1-1.2,3.4-3.1,3.2-3.4c-3.5-4.8,1.1-8.2,1.3-12.2
		c0.7-0.1,1.4-0.2,2.1-0.3c1.5,4.7,2.9,9.4,4.4,14.1l0,0C184.8,328.9,182.1,327.4,181.3,330.9z"/>
	<path id="XMLID_1648_" class="st81" d="M139.4,319.4c-0.4-1.4-0.7-2.7-1.1-4.1c-4.9-7.5-9.9-14.9-14.3-21.7c0.3-4.2,0.7-7.9,1-11.6
		c1.5,2.4,2.7,5,4.5,7c2.3,2.7,5.1,4.9,7.7,7.4l0,0c0.6,2.6,1.9,5.3,1.7,7.9c-0.5,4.8,1.7,8.2,4.7,11.4l0,0
		c-0.1,0.9-0.1,1.8-0.2,2.7c-0.4,0.4-0.9,0.9-1.4,1.3l-0.1-0.1C141.1,319.5,140.2,319.4,139.4,319.4z"/>
	<path id="XMLID_1647_" class="st82" d="M137.2,296.4c-2.6-2.4-5.4-4.7-7.7-7.4c-1.8-2.1-3-4.7-4.5-7c-1.2-1.5-2.4-2.9-3.6-4.4
		c1-1.7,1.9-3.5,3.9-1.1c2.1,2.6,4.3,4.5,7.9,3.4C136.4,285,139.5,290.1,137.2,296.4z"/>
	<path id="XMLID_1646_" class="st83" d="M76.9,345c1-4.1,2-8.2,3.1-12.9c2.4-2,5.5-4.7,8.8-7.5c-0.9-1.7-2.1-3.8-4.3-7.8
		c3.4,0.6,5.1,0.9,6.8,1.3c-1,0.6-1.9,1.2-2.9,1.8c2.6,3.6,4.8,6.8,8.1,11.4c-3.8-0.4-5.6-0.6-9.3-1c4.3,9.4,9.6,16.4,14.6,23.5
		c-1.4,0.3-2.7,0.7-4.1,1c-0.1-0.3-0.1-0.6-0.2-0.9c0.1,0.3,0.1,0.6,0.2,0.9c-1.5,1.5-2.9,2.9-5.3,5.4c-2.6-3.1-4.6-5.8-7-8.1
		c-2.1-2.1-4.7-3.7-7-5.6C77.7,346,77.3,345.5,76.9,345L76.9,345z"/>
	<path id="XMLID_1645_" class="st84" d="M101.6,353.8c-5-7.2-10.3-14.2-14.6-23.5c3.7,0.4,5.5,0.6,9.3,1c-3.3-4.6-5.5-7.8-8.1-11.4
		c1-0.6,2-1.2,2.9-1.8c0.4,0.5,0.8,0.9,1.2,1.4c3.2,2.9,6.7,5.5,9.6,8.7c2.7,2.9,4.6,6.6,7.1,9.7c2.3,2.8,4.9,5.3,7.4,7.9
		c-0.8,0.8-1.6,1.6-2.4,2.4c-3.3-1.4-6.6-2.9-11-4.8c1.8,3.8,3,6.4,4.4,9.5C105.2,353.2,103.4,353.5,101.6,353.8z"/>
	<path id="XMLID_1644_" class="st55" d="M165.1,282.4c0.1-0.8,0.1-1.6,0.2-2.4C165.2,280.9,165.1,281.6,165.1,282.4z"/>
	<path id="XMLID_1643_" class="st72" d="M251.9,159.6c-1.9,0.7-3.7,1.5-5.6,2.2c0.9-0.9,1.8-1.7,3.1-2.9c-3.6-4.2-7.3-8.1-10.4-12.5
		c-2.1-3-3.3-6.7-4.9-10.1c0.6-0.3,1.2-0.6,1.7-0.9c1.1,1,2.1,2,3.2,3c0.4,0.5,0.7,0.9,1.1,1.3c1.4,1.7,2.6,3.4,4.1,4.9
		c4.6,4.7,6.5,4.6,11.7-0.8l0,0c1,2.3-0.8,6,3.4,6.7C256.8,153.6,254.3,156.6,251.9,159.6z"/>
	<path id="XMLID_1642_" class="st72" d="M246.3,161.8c-0.9,0.8-1.8,1.6-2.8,2.4c-0.5-0.5-0.9-0.9-1.4-1.4l0,0c-0.8-1-1.6-2-2.4-2.9
		l-0.6-0.7l-0.6-0.7c1-1.7,2-3.4,4.1-1C243.8,159,245.1,160.4,246.3,161.8z"/>
	<path id="XMLID_1641_" class="st5" d="M350.3,65.4c-0.7,1-1.5,1.9-2.2,2.9c-0.5-0.3-0.9-0.5-1.4-0.8
		C347.9,66.8,349.1,66.1,350.3,65.4z"/>
	<path id="XMLID_1636_" class="st5" d="M353.5,48.7c-0.3,0-0.6,0.1-0.9,0.1c0.3-0.1,0.5-0.2,0.8-0.3L353.5,48.7z"/>
	<path id="XMLID_1635_" class="st85" d="M186.9,328.6c-1.5-4.7-2.9-9.4-4.4-14.1c-0.7,0.1-1.4,0.2-2.1,0.3
		c-0.2,4.1-4.7,7.4-1.3,12.2c0.2,0.2-2.1,2.2-3.2,3.4c-1.5-1.5-3-3-4.9-4.9c-1.1,2-1.8,3.5-3,5.7c-1.4-1.1-2.7-2.1-4-3.2
		c4.6-3.6-3.6-7.1,0.3-11.1c1.9,0.6,3.9,1.2,8.3,2.5c-2.8-4.1-4.3-6.3-5.8-8.5l0-0.1c0.5-0.4,0.9-0.8,1.4-1.2
		c5.2,0.6,10.5,1.1,15.8,1.7c0.3-2.6,0.5-4.1,0.7-5.7c2.2,0.6,4.3,1.2,6.5,1.8c1.2,4,2.4,8.1,3.9,12.9c-0.6,1.8-6.5-0.4-5.1,4.7
		C190.3,326,188,327.5,186.9,328.6z"/>
	<path id="XMLID_1634_" class="st69" d="M166.9,310.9c1.5,2.2,3,4.4,5.8,8.5c-4.4-1.3-6.4-1.9-8.3-2.5c-3.9,4,4.3,7.5-0.3,11.1
		c-1.2-1.4-2.4-2.8-4-4.7c-1.8,1.5-3.3,2.8-4.9,4.1c-2.4-1.1-4.6-2.2-6.9-3.2c0,0,0-0.2,0-0.2c1.2-2.5,2.4-5,3.8-7.9
		c2.5,1.1,4.6,2,5.6,2.4c2.4-1.8,4.2-3.1,6.1-4.6C164.9,313,165.9,311.9,166.9,310.9z"/>
	<path id="XMLID_1633_" class="st86" d="M212,206c0.3-0.6,0.7-1,1.2-1.3C212.8,205.1,212.4,205.5,212,206z"/>
	<path id="XMLID_1629_" class="st10" d="M76.9,345.1c0.4,0.5,0.9,1,1.3,1.5c0.8,1,1.6,1.9,2.3,2.9c-1.9,5-1.3,6,4.7,8.5
		c2.5,2,5.1,4,7.6,6l0,0c-0.8,1.3-1.5,2.5-2.6,4.3c-8-6.9-16.9-11.7-21.5-21.1C71.4,346.4,74.1,345.7,76.9,345.1z"/>
	<path id="XMLID_1628_" class="st87" d="M137.2,296.4c2.2-6.3-0.8-11.4-4-16.4l0-0.1c0.1-0.9,0.1-1.8,0.2-2.6c-4.8-1-5.7-5-7.3-10.7
		c4.9,3.7,8.5,6.5,12.5,9.5c0.4-0.5,1.1-1.4,1.9-2.2c5.7,7.6,11.3,15.3,17,22.9c-1,0.8-2,1.6-3,2.4c-3.4-3.1-4.9-9.1-11.4-7.6
		C141.1,293.1,139.2,294.8,137.2,296.4L137.2,296.4z"/>
	<path id="XMLID_1627_" class="st3" d="M134.5,264c0.4,1.4,0.7,2.7,1.1,4.1C135.2,266.7,134.9,265.3,134.5,264z"/>
	<path id="XMLID_1625_" class="st82" d="M133.4,277.3c-0.1,0.9-0.1,1.8-0.2,2.6C133.3,279,133.4,278.2,133.4,277.3z"/>
	<path id="XMLID_1624_" class="st3" d="M127.5,252.6c-0.1-0.3-0.1-0.6-0.2-0.9C127.3,252.1,127.4,252.3,127.5,252.6L127.5,252.6z"/>
	<path id="XMLID_1623_" class="st88" d="M297.8,91c0.8,1.4,1.6,2.8,2.8,4.9C294.7,94,294.7,94,297.8,91C297.8,91,297.8,91,297.8,91z
		"/>
	<path id="XMLID_1622_" class="st89" d="M143,291.5c6.5-1.5,8,4.5,11.4,7.6c-2.5,5.5,2.2,6.5,5.4,8.3c0.2,0.1,1.4-1.5,2.1-2.4
		c3.1-1.4,6.1-2.9,9.5-4.5c2.2,1,4.7,2.2,6.4,3c1.8-1.4,3.3-2.4,4.7-3.5c0.8,1.9,1.5,3.7,2.3,5.6c-0.2,1.5-0.4,3-0.7,5.7
		c-5.3-0.6-10.5-1.1-15.8-1.7c-0.3-0.1-0.8-0.3-0.8-0.2c-0.2,0.4-0.4,0.9-0.5,1.4l0,0.1c-1,1-2,2.1-3.1,3c-1.8,1.5-3.7,2.8-6.1,4.6
		c-1-0.4-3.1-1.4-5.6-2.4c-1.4,2.9-2.6,5.4-3.8,7.9c-4-0.1-5.1,1.5-3.2,5.1c-0.3,0.3-0.6,0.6-0.8,0.9c-0.6-0.3-1.2-0.5-1.8-0.8
		c-0.1-3.2-0.2-6.4-0.3-9.6c0.5-0.4,0.9-0.8,1.4-1.3c0.1-0.9,0.1-1.8,0.2-2.7l0,0c2.5-1.9,3.6-3.7,1.7-7.1c-1.4-2.4-1.1-5.8-1.5-8.8
		c0-0.3,0.9-0.6,1.8-1.2c0.6,1.1,1,2.2,1.7,3.1c0.6,0.9,1.5,1.6,2.8,3C149,297.2,149,297.2,143,291.5z"/>
	<path id="XMLID_1621_" class="st57" d="M117,374.8c0.1-0.7,0.2-1.3,0.2-2C117.2,373.5,117.1,374.1,117,374.8z"/>
	<path id="XMLID_1620_" class="st89" d="M185.2,300.3c-0.9-0.1-1.8-0.1-2.7-0.2C183.4,300.2,184.3,300.2,185.2,300.3z"/>
	<path id="XMLID_1619_" class="st12" d="M242.2,162.8c0.5,0.5,0.9,0.9,1.4,1.4c2.2,3.1,0.1,4.9-2.1,6.6
		C241.7,168.1,242,165.5,242.2,162.8z"/>
	<path id="XMLID_1618_" class="st12" d="M239.8,159.9c0.8,1,1.6,2,2.4,2.9C241.4,161.9,240.6,160.9,239.8,159.9z"/>
	<path id="XMLID_1617_" class="st90" d="M114.3,395.1c1.9,0.6,4.4,0.7,5.5,2c4.2,5,7.9,10.3,11.7,15.5c-3.1-0.5-6.3-1.8-9.1-1.3
		c-5.7,1-8.8-1.8-11.6-5.8c0.1-0.9,0.1-1.8,0.2-2.7c0.5-0.4,1-0.8,1.4-1.2l0,0c2.2,2.1,3.6,5.8,8.1,4.2
		C120.8,400.8,116.6,398.5,114.3,395.1L114.3,395.1z"/>
	<path id="XMLID_1616_" class="st78" d="M114.3,395.1c2.3,3.4,6.5,5.6,6.3,10.8c-4.6,1.6-5.9-2.2-8.1-4.2
		C113.1,399.5,113.7,397.3,114.3,395.1z"/>
	<path id="XMLID_1615_" class="st78" d="M112.4,401.7c-0.5,0.4-1,0.8-1.4,1.2C111.5,402.5,111.9,402.1,112.4,401.7z"/>
	<path id="XMLID_1614_" class="st66" d="M312.8,120.4c-3,3.3-4.7,6.8-0.9,10.7c-5,0.5-9.9,0.8-11.8-5.9
		C303.5,121.4,306.7,117.3,312.8,120.4z"/>
	<path id="XMLID_1613_" class="st74" d="M255.9,143.9c-5.2,5.3-7,5.5-11.7,0.8c-1.5-1.5-2.7-3.3-4.1-4.9c2.4-2,4.8-3.9,7.2-5.9
		c1.3,2.3,3.5,4.6,3.8,7.1C251.6,144.6,254.3,142.9,255.9,143.9z"/>
	<path id="XMLID_1612_" class="st74" d="M259.2,150.6c-4.2-0.7-2.4-4.4-3.4-6.7c1.9-0.8,3.7-1.5,5.6-2.3c-0.3,2.6-0.6,5.2-0.9,7.9
		C260.2,149.9,259.7,150.3,259.2,150.6z"/>
	<path id="XMLID_1611_" class="st91" d="M92.7,363.8c-2.5-2-5.1-4-7.6-6c-1.6-2.8-3.1-5.6-4.7-8.5c-0.8-1-1.6-1.9-2.3-2.9
		c2.4,1.8,4.9,3.5,7,5.6c2.4,2.3,4.4,5,7,8.1c2.4-2.4,3.9-3.9,5.3-5.4l0,0c1.4-0.3,2.7-0.7,4.1-1c1.8-0.3,3.6-0.6,6-0.9
		c-1.4-3-2.7-5.7-4.4-9.5c4.3,1.9,7.6,3.3,11,4.8c0.7,2.8,1.3,5.5,2,8.3c-1.3,0.8-2.6,1.6-4,2.5c0.9,2.2,1.8,4.4,2.8,7
		c-5.5,1.6-7.4-3.7-11.5-5.5c-0.6,6.1,8.2,8.8,4.4,15c-3.1-3.1-6.6-5.8-9.1-9.3C97,363.7,95.3,363.2,92.7,363.8z"/>
	<path id="XMLID_1610_" class="st65" d="M321.7,126.9c-1.7-2-3.4-4-5.3-6.2C321.9,119.7,321.9,119.7,321.7,126.9z"/>
	<path id="XMLID_1609_" class="st8" d="M139.4,319.4c0.9,0.1,1.7,0.1,2.6,0.2C141.1,319.5,140.2,319.4,139.4,319.4z"/>
	<path id="XMLID_1607_" class="st85" d="M194,307.7c1.1-1.7,2.1-3.3,3.2-5C197.3,305.1,198.6,308.3,194,307.7z"/>
	<path id="XMLID_1605_" class="st85" d="M191.3,307.5c0.9,0.1,1.8,0.2,2.7,0.2C193.1,307.7,192.2,307.6,191.3,307.5z"/>
	<path id="XMLID_1602_" class="st82" d="M143,291.5c6,5.7,6,5.7,7.2,13.2c-1.4-1.4-2.2-2.1-2.8-3c-0.7-0.9-1.1-2-1.7-3.1
		c-0.9,0.6-1.8,0.9-1.8,1.2c0.3,3,0.1,6.3,1.5,8.8c1.9,3.4,0.8,5.2-1.7,7.1c-3-3.2-5.2-6.5-4.7-11.4c0.2-2.6-1.1-5.3-1.7-7.9
		C139.2,294.8,141.1,293.1,143,291.5z"/>
	<path id="XMLID_1600_" class="st82" d="M143.6,315.7c-0.1,0.9-0.1,1.8-0.2,2.7C143.5,317.5,143.6,316.6,143.6,315.7z"/>
	<path id="XMLID_1599_" class="st91" d="M97.5,354.8c-0.1-0.3-0.1-0.6-0.2-0.9C97.4,354.2,97.4,354.5,97.5,354.8L97.5,354.8z"/>
	<path id="XMLID_1598_" class="st69" d="M166.9,310.9c0.2-0.5,0.3-1,0.5-1.4c0-0.1,0.6,0.1,0.8,0.2
		C167.9,310.1,167.4,310.5,166.9,310.9z"/>
	<path id="XMLID_1594_" class="st83" d="M80.5,349.4c1.6,2.8,3.1,5.6,4.7,8.5C79.2,355.4,78.6,354.4,80.5,349.4z"/>
</g>
</svg>
