<?xml version="1.0" encoding="utf-8"?>
<!-- Generator: Adobe Illustrator 19.0.0, SVG Export Plug-In . SVG Version: 6.00 Build 0)  -->
<svg version="1.1" id="Layer_1" xmlns="http://www.w3.org/2000/svg" xmlns:xlink="http://www.w3.org/1999/xlink" x="0px" y="0px"
	 viewBox="0 0 500 500" style="enable-background:new 0 0 500 500;" xml:space="preserve">
<style type="text/css">
	.st0{fill:#5D806A;}
	.st1{fill:#85A27E;}
	.st2{fill:#65836A;}
	.st3{fill:#ADA4A0;}
	.st4{fill:#8AA483;}
	.st5{fill:#83A07C;}
	.st6{fill:#8CA581;}
	.st7{fill:#658067;}
	.st8{fill:#738D6D;}
	.st9{fill:#5C7965;}
	.st10{fill:#6C866D;}
	.st11{fill:#A59B97;}
	.st12{fill:#92AB87;}
	.st13{fill:#5B7B63;}
	.st14{fill:#93AA88;}
	.st15{fill:#466556;}
	.st16{fill:#849C7E;}
	.st17{fill:#6C8A72;}
	.st18{fill:#799072;}
	.st19{fill:#779072;}
	.st20{fill:#495E4D;}
	.st21{fill:#7B9273;}
	.st22{fill:#4F5F53;}
	.st23{fill:#5C6E59;}
	.st24{fill:#546353;}
	.st25{fill:#7E9878;}
	.st26{fill:#5D685C;}
	.st27{fill:#556D5A;}
	.st28{fill:#63755E;}
	.st29{fill:#66826C;}
	.st30{fill:#789176;}
	.st31{fill:#829D79;}
	.st32{fill:#7E9574;}
	.st33{fill:#4A5A48;}
	.st34{fill:#97AB8E;}
	.st35{fill:#4F574A;}
	.st36{fill:#8EA182;}
	.st37{fill:#769175;}
	.st38{fill:#45554A;}
	.st39{fill:#596855;}
	.st40{fill:#475448;}
	.st41{fill:#506154;}
	.st42{fill:#829073;}
	.st43{fill:#485147;}
	.st44{fill:#6E7F6A;}
	.st45{fill:#3D4943;}
	.st46{fill:#606B62;}
	.st47{fill:#759177;}
	.st48{fill:#3F5A4D;}
	.st49{fill:#5A635A;}
	.st50{fill:#585C4F;}
	.st51{fill:#B0A8A4;}
	.st52{fill:#48554D;}
	.st53{fill:#5D6153;}
	.st54{fill:#89A27E;}
	.st55{fill:#869F7C;}
	.st56{fill:#62725D;}
	.st57{fill:#486757;}
	.st58{fill:#6B8267;}
	.st59{fill:#57594A;}
	.st60{fill:#52705A;}
	.st61{fill:#39493B;}
	.st62{fill:#5D7D66;}
	.st63{fill:#616D5F;}
	.st64{fill:#4B6854;}
	.st65{fill:#5C7866;}
	.st66{fill:#516D58;}
	.st67{fill:#526C57;}
	.st68{fill:#506C58;}
	.st69{fill:#577660;}
	.st70{fill:#698B72;}
	.st71{fill:#547762;}
	.st72{fill:#4D6E5A;}
	.st73{fill:#8AAA85;}
	.st74{fill:#809C78;}
	.st75{fill:#8AA984;}
	.st76{fill:#809D79;}
	.st77{fill:#6B8A71;}
	.st78{fill:#7E9A7B;}
	.st79{fill:#5F7860;}
	.st80{fill:#728F73;}
	.st81{fill:#759276;}
	.st82{fill:#445F4F;}
	.st83{fill:#3F4D3F;}
	.st84{fill:#DEDCDA;}
	.st85{fill:#7F9C80;}
	.st86{fill:#7B967A;}
	.st87{fill:#829D7C;}
	.st88{fill:#6B8971;}
	.st89{fill:#59725C;}
	.st90{fill:#4B6755;}
	.st91{fill:#587562;}
	.st92{fill:#5E7C67;}
	.st93{fill:#758F74;}
	.st94{fill:#597764;}
	.st95{fill:#597763;}
	.st96{fill:#5E816B;}
	.st97{fill:#6B8C72;}
	.st98{fill:#4C6C5C;}
	.st99{fill:#587760;}
	.st100{fill:#809E7D;}
	.st101{fill:#648064;}
	.st102{fill:#55705B;}
	.st103{fill:#5B7C64;}
	.st104{fill:#456150;}
	.st105{fill:#76947A;}
	.st106{fill:#6E8B70;}
	.st107{fill:#52705E;}
	.st108{fill:#7B9C81;}
	.st109{fill:#3C574A;}
	.st110{fill:#55725D;}
</style>
<g id="XMLID_2026_">
	<path id="XMLID_2296_" class="st0" d="M157.4,332.2c4-8.8,1.5-18.3,2.8-27.3c0.7-4.6,2.5-9.2,4.1-13.6c0.5-1.4,2.2-3.4,3.2-3.3
		c7.9,0.6,7.6-5.5,8.4-10.3c1.6-8.9,2.9-17.9,4.3-26.8c0.2-1.3,0.4-2.5,0.6-3.8c0.3-1.9,0.6-3.8,0.9-5.7c2.6,0.4,5.2,0.8,7.7,1.2
		c2.7,3.7,2.2,9.8,8,11.2c0.8,2.4,1.8,4.2,4.9,2.6c0.3-0.2,1.6,1.5,2.4,2.4c-1.1,11.2-2.3,22.5-3.4,33.6c4.1,1,7.4,1.7,11.1,2.6
		c0.2-0.8,0.5-2,0.8-3.3c0.4,1.4,1.5,3.7,1,4.2c-6.1,5.3-3,12.7-4.8,19c-1.2,0.7-3.1,1.2-3.4,2.2c-0.6,1.8-0.4,4-0.5,6.3
		c-6.7-1.7-5.4-7.2-6.7-11.2c-4.1,0.5-3.7,3.8-3.3,5.8c1.7,7.5-1,13.8-5.6,22.2c-0.6-4.9-1-7.8-1.6-12.1c-1.7,8.1-5.3,12.3-13,10.4
		c-0.3-0.1-1,1.4-1.5,2.1c-2.5-1-5-2-7.5-3c-2.7-2.5-5.4-3-8,0.2c-1.1-0.7-2.1-1.4-3.2-2C156,334.7,156.7,333.4,157.4,332.2z
		 M193.4,310.7c0.6,0.2,1.1,0.4,1.7,0.6c2.1-4.3,4.2-8.7,6.8-14.2c-10.3-1.5-12.4-7.6-12.7-15.7c-2,6-5.1,11.9-5.7,18
		c-0.5,4.8,4.1,6.6,8.8,5.2C192.7,307.2,193,308.9,193.4,310.7z M187.1,260.5c-6.7,6.9-7.7,14.2-3.8,22.4
		C188.4,276,183.5,268.4,187.1,260.5z"/>
	<path id="XMLID_2295_" class="st1" d="M254.5,106.8c-7.4-11.3-16.8-19.5-30.8-21.3c-6.6-0.9-13.3-2-19.9-2.4
		c-2.3-0.2-4.8,1.3-7.2,2.1c-1.6,2.5-3.1,5-4.7,7.6c-0.2,1.3-0.4,2.6-0.6,3.9c2.3-0.7,4.2-0.8,3.5,2.6c1.7,1.2,3.4,2.3,4.6,3.1
		c-1.3,4.2-1.8,7.7-3.3,10.7c-3.3,6.3-1.1,13.2-2.7,19.6c1.4-0.4,2.7-0.9,4.1-1.3c1.2-7.6,2.4-15.2,3.7-23.3
		c5.7-1.5,10.7-2.9,16.5-4.4c-0.9,4-1.5,6.6-2.1,9.2c6.8-6.8,8.1-15.2,7.6-26c2.3,2.5,4.1,3.6,3.9,4.4c-1,5.7-1.6,11.6-3.8,16.9
		c-1.9,4.7-3,8.8-0.7,13.4c3.8,2.5,2.9,6.1,2.4,9.6c-0.8,5.2,0,10.2,2.6,14.8c2.1-6,2.4-12.3,7-19c0.3,4.3,1.6,7.9,0.4,9.2
		c-5.5,5.9-1.5,12.8-3.9,19.1c2-0.1,2.9-0.1,3.8-0.2l0,0c0.2-3.4,0.2-6.8,0.8-10.1c1.4-7.9,7.9-14.9,3.9-23.8c-0.3-0.7,2-2.4,3-3.7
		c0.7,0.2,1.4,0.4,2.1,0.6c-0.6,10.2-1.2,20.5-1.9,32.5c2.6-2.2,5.7-3.6,6.1-5.4c0.9-4.3,3.5-2.8,5.8-2.7c1.1-3.3,1.7-6.9,3.4-9.8
		c3.5-6.1,3.4-8.3-3-15.2c-1.5,6.9,1.9,14.9-6.4,20.2c0.8-5.2,1.4-9.3,2.2-13.4C252.2,118.3,253.4,112.6,254.5,106.8z"/>
	<path id="XMLID_2294_" class="st2" d="M378.3,349.3c-0.2-3.2-0.3-6.5-0.5-9.7c-0.3,0.6-0.5,1.2-0.8,1.7c-0.1,0.2-0.5,0.3-1.7,0.9
		c0.1-3.7,0.4-7,0.2-10.2c-0.1-1.6-1.2-3.2-1.8-4.8c-1.1,1-3,1.8-3.3,3c-2.4,7.9-4.5,16-6.8,24c-1.3-4.9-1.8-9.7-0.9-14.2
		c0.9-4.6,3.1-9,5-14.2c-1.9-2.5-4.1-5.4-6.3-8.3l0,0c-0.4,1.9-0.8,3.9-1.4,6.6c-1.2-2.3-2-3.8-2.7-5.3c-1.7,5.1,0,11.4-5.9,16.8
		c-0.2-5.7-0.5-10-0.4-14.3c0.1-4.3,2.7-5.3,6.5-4.4c0.5-3.2,1.1-6.4,1.6-9.6c-1.3-2.5-2.9-2.8-5.5-1.3c-1,0.6-2.7-0.1-4.1-0.2
		c-1,5.9-1.9,11.8-2.8,17.8c-0.7,0-1.4-0.1-2.1-0.1c-0.3-5-0.5-10.1-0.9-15.8c1.8-1.1,3.9-2.4,6-3.7c0.3-0.9,0.9-2.5,0.9-2.6
		c-6.3-2.4-12-7.8-19.6-4.5c0.6,4.2,1.6,8.3,1.6,12.5c0,2.3-1.1,5.5-2.9,6.8c-3.6,2.7-3.8,6.4-2.8,9.5c1.4,4.5-2.9,10.4,3.2,13.8
		c1.1,10.2,3.5,20.3,1.1,30.6c0.2,1,0.4,2,0.9,4.2c3-5.9,5.4-10.4,8.1-15.7c0.9,2.4,1.4,3.9,1.9,5.4c1.7-0.7,3.5-1.3,5.2-2
		c0.6,1.5,1.2,2.8,2.4,5.6c3-4.2,5.1-7.1,7.2-9.9c2.7,0.1,5.8,0.2,8.9,0.4C375.2,358.7,375.6,358.5,378.3,349.3z"/>
	<path id="XMLID_2293_" class="st3" d="M307.6,261.7c24.3,15.6,48.7,31.1,73,46.7c0.1-0.7,0.3-1.3,0.4-2c-1.4-3.4-2.7-6.8-4.1-10.2
		c-4.8-3.4-9.7-6.9-14.5-10.3c-1.9-1.4-3.8-2.9-5.7-4.3c-8-2.4-12.9-8.9-19.1-13.8l-0.2,0.9c-1.2-0.4-2.4-0.9-3.6-1.3l0.2,0.1
		c-11.9-6.5-23.7-13.1-35.7-19.6c-8.6-4.6-17-9.5-26-13.3c-5.9-2.5-9.3-6-10.1-12.2c-0.5,3-1,6-1.4,8.8c-7.9-0.3-1.8-6.2-4.8-7.9
		c-3,3.3-6.1,1.2-8.9-0.1c-24.5-11.2-50.2-18.8-75.9-26.7c-13.6-4.2-27.4-7.5-41.2-11.2c-0.3,2-0.7,4.1-1,6.1
		c54.7,14.8,108.8,31.1,159.2,59.4c-1.4,1.1-2.6,1.9-3.7,2.8c0.7,0.3,1.4,0.6,2.1,0.9c3.4-0.2,6.8-0.5,10.3-0.6
		C303.1,253.8,305.4,255.5,307.6,261.7z"/>
	<path id="XMLID_2292_" class="st4" d="M114.9,143c-5.4-3.3-10.5-7.8-16.4-9.7c-12.6-4-25.6-6-39-4.2c-4.5,7.3-13.1,10.8-16.8,18.8
		c-0.6,2.7-1.2,5.4-1.8,8.1c-3-4.1-4.2-7.5,1.8-8.1c-1.5-4.7-1.6-4.7-7.7-1.2c2.7,3.5,0.5,6.6-0.6,9.9c-1.2,3.9-3,8.5-2.1,12.1
		c1.5,5.5,0.1,10-1.4,14.9l-0.2,0.9l-0.1,0.9c-0.7,0.6-1.4,1.1-2.2,1.7c0.2,1.7,0.4,3.3,0.6,5c1-0.8,1.9-1.7,2.9-2.5
		c0.8-1.2,1.7-2.4,2.5-3.5l0,0c1.4-6.1,2.7-12.3,4.2-19c6,4.2,9.8,8.3,8.2,15.1l0,0c-0.1,0.6-0.2,1.3-0.3,1.9
		c-0.1,0.6-0.2,1.3-0.2,1.9c0.9,2.1,1.9,4.3,2.8,6.4l0,0c1.9-7.1,3.8-14.2,5.7-21.3c0.6,0.1,1.3,0.2,1.9,0.4c0.1,2.5,0.1,5,0.2,7.5
		c0.5,0,1.1,0.1,1.6,0.1c1.7-5.3,3.4-10.6,5.1-16c3.5-8.1,7-16.2,10.4-24.2c0.5,0.1,1,0.1,1.5,0.2c0.2,4.1,0.4,8.2,0.6,12.3
		c0.4,0,0.9,0.1,1.3,0.1c2-4.6,3.9-9.3,5.9-13.9c0.8,0.2,1.5,0.3,2.3,0.5c0.4,4.5,0.7,9.1,1.1,13.6c0.6-0.1,1.2-0.2,1.7-0.3
		c0.5-1.7,1-3.3,2-6.7c1.1,5.2,1.8,8.3,2.5,11.8c2.4-3.4,4.5-6.4,6.6-9.4c1.3,0,2.7-0.3,4-0.1c1.9,0.4,3.8,1.1,5.7,1.7l0,0
		c0.9-1.2,1.8-2.4,2.7-3.6c0.6-0.4,1.2-0.9,1.8-1.3C114.6,143.6,114.8,143.3,114.9,143z"/>
	<path id="XMLID_2291_" class="st5" d="M170.1,93.4c-1.5,1-2.9,1.9-4.4,2.9c0.1,1.1,0.4,3.1,0.2,3.2c-5.4,1.6-7.5,6.6-10.6,10.5
		c-5.2,6.5-7.2,13.8-5.1,22.1c0.6,2.4,0.5,5,0.7,7.5c1,1.6,2.7,3.1,2.8,4.8c0.2,3.8-0.2,7.2,5.2,7.3c0.9,0,1.8,2.7,2.9,4.5
		c1.7-2,3-3.5,5.5-6.3c0.1,6.7,0.2,11.7,0.2,16.8c0.7,0.1,1.3,0.1,2,0.2c0.4-1.5,0.8-2.9,1.3-4.4c0.9-1.2,1.7-2.4,2.6-3.5l0,0
		c0.5-0.8,0.9-1.6,1.4-2.4c0.2,0.9,0.3,1.8,0.5,2.7c-0.1,0.6-0.2,1.2-0.2,1.9c3.8,3.9,3.8-2.7,6.6-2.5c2.6,0.2,5.2-0.8,7.8-1.2
		c0.1-0.6,0.2-1.2,0.3-1.9c0.2-1.3,0.4-2.6,0.6-3.8c-0.8-3.4-1.5-6.9-2.3-10.3c-1,4.8-1.9,9.7-2.9,14.5c-0.7-0.1-1.3-0.1-2-0.2
		c-0.3-1.1-0.6-2.3-0.9-3.4c-1.9,1-3.5,3.7-6.1,1c-5.1-1.4-6-4.2-2.6-8.2c1.2-1.4,2.9-2.2,4.4-3.3c0.8-4.7,1-9.4,2.4-13.9
		c1.2-4.1,4.5-7.6,5.2-11.7c0.7-4.1-0.8-8.6-1.4-12.9c1-1.8,1.9-3.7,2.9-5.5c0.4-2.6,0.8-5.1,1.2-7.7c-1.5,2.6-2.9,5.2-4.5,8.1
		c-0.8-1.1-1.5-1.8-1.8-2.7c-0.4-1.1-0.6-2.3-0.8-3.4c-0.6-0.1-1.2-0.3-1.8-0.4c-2.5,7.4-5,14.9-7.5,22.3c-0.8-0.1-1.6-0.2-2.4-0.3
		c0.2-3,0.6-5.9,0.7-8.9C170.2,101.1,170.1,97.3,170.1,93.4z"/>
	<path id="XMLID_2290_" class="st6" d="M315.5,404.9c7.1-1.5,14.4-2.3,21.3-4.5c10.8-3.4,20.2-9.3,26.2-19.6
		c1.4-2.5,3.4-4.6,5.1-6.9c0.2-2.3,0.3-4.6,0.5-7.1c-7.8-0.8-7.2,6.6-11,11.7c-0.5-4.8-0.8-7.6-1.1-10.8c-1.8,3.2-3.3,5.9-5,8.9
		c-2-1.2-3.5-2-5.4-3.1c-0.8,1.6-1.5,3-2.1,4.4c-0.6,2.9-1.3,5.9-1.9,8.7c-7.9-1.1-6-6.6-6.2-11.9c-3.5,5.8-7.8,5.1-12.1,4.7
		c-3.9-0.4-7.8-0.8-12.9-1.3c-0.4-1.2-1-3.6-2.1-5.8c-0.3-0.6-2.2-0.4-3.3-0.5c-0.1,0.6-0.3,1.2-0.4,1.8c-1.6,5.1-7,0.2-8.8,4.4
		c-1.8-3.3-3-5.7-4.4-8.1c-1.9,1.2-3.2,2.1-4.5,3c0.1,3.3,0.2,6.6,0.4,9.9c0.9-0.1,1.9-0.2,3.7-0.4c-2.1,4.4-2.6,8.4,0.6,12.7
		c2.5-4.5,4.6-8.1,6.7-11.8c0.7,0.2,1.3,0.4,1.9,0.6c-0.7,4.6-1.5,9.2-2.3,14.3c9.9-2.4,7-10.8,10.2-16.9
		C310.1,389.9,308.5,398.8,315.5,404.9z"/>
	<path id="XMLID_2289_" class="st7" d="M46.6,186c0-0.6,0.1-1.3,0.2-1.9c0.1-0.6,0.2-1.3,0.3-1.9l0,0c-1.5,1.5-3.5,2.8-4.5,4.6
		c-1.6,3.1-2.6,6.6-3.8,9.9c-0.3,1.5-0.3,3.1-0.9,4.4c-0.4,0.9-1.6,1.4-2.4,2c-0.4-1.1-0.8-2.1-1.1-3.2l0,0c-1-0.4-2-0.8-3.9-1.7
		c1.1,3.9,1.9,6.7,2.7,9.4c2.3,3.3,2.3,3.3-1.5,5.5c0.6-2.2,1-3.8,1.5-5.5c-3.8,0.1-6.2,5.7-10.8,2.8c4.5,5.7,9,11.4,13.5,17.1
		c3.3-2.2,6.2-1.1,8.4,1.5c4.6,5.4,11,6.1,17.3,6.6c1.6,0.1,3.3-1.9,5-2.9c0.8-3.3,0.1-7.4,5-8.5c0.5,1.6,1,3.2,2.1,6.8
		c2-7,3.4-12,5-17.3c2.4,1.6,3.7,2.4,5.6,3.6c0.7-3,1.2-5.1,1.8-7.3c-2.3,0.7-4.6,0.9-5-2.3c-0.3-2.1-0.1-4.2-0.2-6.3
		c-0.3,0-0.6,0-0.9,0c-1.2,3.6-2.5,7.2-3.9,11.3c-3-2.2-5.2-3.8-7.3-5.5c0.4,4.4,0.8,8.8-2,13.4c-3.3-8-2.7-10.8,2-13.4
		c-1-2.1-1.9-4.3-2.9-6.4c-0.1-1.7-0.2-3.4-0.3-5.2c-2.6,5.2-10.4,3-11.6,8.8c-0.1-3.7-0.2-7.5-0.3-11.3c-1.8-0.4-3-0.7-4.3-0.9l0,0
		c-0.8,3.5-0.2,7.9-6.5,8.4C44.2,195.5,45.4,190.7,46.6,186z"/>
	<path id="XMLID_2288_" class="st8" d="M175,161.2c0.1-0.6,0.1-1.3,0.2-1.9c-0.6-0.1-1.2-0.2-1.9-0.3l0,0c-0.9,1.2-1.7,2.4-2.6,3.5
		c-0.4,1.5-0.8,2.9-1.3,4.4c-0.7-0.1-1.3-0.1-2-0.2c-0.1-5.1-0.1-10.1-0.2-16.8c-2.5,2.8-3.8,4.4-5.5,6.3c-1.1-1.8-2-4.5-2.9-4.5
		c-5.4-0.1-5.1-3.5-5.2-7.3c-0.1-1.6-1.8-3.2-2.8-4.8c-0.2,0.7-0.3,1.4-0.5,2.1c-0.7,11.4,6.7,18.8,12.9,27
		c7.6,9.8,19.1,13.3,29.3,18.8c2.2-0.2,4.4-0.9,6.4-0.5c9.9,1.9,18.7-0.2,26.6-6.7c1.3,1.5,2.4,2.9,3.1,3.8c3.6-1.7,7-2.7,9.7-4.7
		c2.6-1.9,4.6-4.9,6.8-7.3c0.8,0.5,1.7,1.5,2.2,1.4c1.1-0.4,2-1.4,3-2.1c0.8-1.2,1.7-2.4,2.5-3.5l0,0c0.9-4.2,1.7-8.5,7.3-8.7
		c-0.7-3.4-1.5-6.9-2.2-10.3c-0.6,2.1-1.2,4.3-2.1,7.8c-1.3-2.5-1.9-3.5-2.4-4.5c-2.7,1.6-5.4,3.1-8.1,4.7c-1,3.4-2,6.8-3,10.2
		c-0.7-0.1-1.4-0.3-2.1-0.4c0.1-4.6,0.1-9.3,0.2-14.7c-2.6,1.5-3.9,2.4-5.3,3.2l0,0c-0.3,3.8-0.9,7.6-0.9,11.5
		c0,3.6-1.1,6.1-4.8,8.9c0.1-5.5,0.1-9.7,0.2-13.9c-0.5-0.1-0.9-0.3-1.4-0.4c-1.8,2.9-3.7,5.8-5.5,8.7c-0.7-0.2-1.3-0.4-2-0.5
		c0-4.9,0-9.8-0.1-14.8c-1.3,0.7-2.4,1.2-3.5,1.8c-0.1,0.6-0.2,1.3-0.3,1.9c3.7,9.1-3.2,15.6-4.7,22.7c-6.2-1-11.6-1.9-16.7-2.7
		c-1.2,2.4-1.8,3.8-2.7,5.6c-6.3-3.6-12.4-7.1-17.7-10.1C175.1,169.4,175.1,165.3,175,161.2z"/>
	<path id="XMLID_2287_" class="st9" d="M129.4,171.7c-2.1-6.3-4.3-12.6-6.4-18.9c-0.4,2.4-0.8,4.9-1.2,7.6c-2,0.8-4.3,1.7-7.5,3
		c0.1-3.2,0-5.3,0.2-7.4c0.4-3.8-0.8-6.3-4.7-7.2l0,0c0.6,6.3-1.2,11.9-4.8,17c-1.1,7.6-2.3,15.3-3.4,22.9c-0.4,2.6-1.7,5.3-1.4,7.8
		c1,8.2,0.7,8.9-7.7,12.6c-0.6-0.8-1.3-1.5-1.9-2.2c-0.8,4.7-1.5,9.4-2.3,14.2c-0.7,4,0.3,7,4.6,8c1.3-4.1,2.7-8.2,4.3-13.2
		c1.6,2.8,3,5.1,4.6,7.7c1.8-1.7,3.1-3,4.5-4.3c-4.3-10.9,0.8-19.8,6.4-29c-1.9-1-3.4-1.7-6.1-3.1c2.2-3,4.2-5.7,6.2-8.4
		c0.4-2.6,0.8-5.1,1.2-7.7c-0.4,2.5,5.1,6.8-1.2,7.7c1.1,1.5,2.2,3,3.2,4.5c1.3,0.2,2.6,0.4,3.9,0.6c0.8-1.2,1.5-2.5,2.6-3.4
		c1.3-1.3,2.9-2.3,4.4-3.4C127.8,175.4,128.6,173.5,129.4,171.7z"/>
	<path id="XMLID_2286_" class="st10" d="M444.4,218.2c-1-11.8-6.4-21.8-12.8-31.5c-2.7,2-4.6,1.5-5.5-1.9c-0.3-1.2-1-2.2-1.5-3.3
		c-0.1,5.1,0.4,10.2-0.4,15.1c-0.6,3.9-2.9,7.4-4.3,11.1c-3.3-0.9-5.8-1.6-8.2-2.2c-0.3-2.6-0.7-5.3-1.3-10.2
		c-2.5,3.6-3.7,5.2-4.9,6.9c1,0.7,2.6,1.3,2.8,2.3c0.4,1.8-0.1,3.8-0.1,5.7c-0.1,7.6,1.1,8.7,9,8.5c0.4,0,0.8,0.9,1.2,1.4l0,0
		c1.2,0.9,2.4,1.7,3.5,2.6c1.2,0.1,2.8-0.2,3.6,0.5c3.1,2.3,6,4.9,8.9,7.5c1.8,0.8,3.8,4.2,5.4-0.3c0.1-0.4,1.7-0.3,2.6-0.4
		c-0.1-2.2-0.4-4.5-0.1-6.7C442.7,221.4,443.7,219.8,444.4,218.2z"/>
	<path id="XMLID_2285_" class="st11" d="M381.1,306.4c-0.1,0.7-0.3,1.3-0.4,2c7.9,6.1,15.8,12.2,23.5,18.4c1.1,0.9,1.5,2.7,2.3,4.1
		c2.2,0.8,4.4,2,6.7,2.4c3.2,0.6,3.9,1.8,2.2,4.5c2.4,1.5,5.2,2.6,7.1,4.5c15.4,15.1,30.6,30.5,45.9,45.7c0.6,0.8,1.2,1.5,1.8,2.3
		l0,0c0.6,0.7,1.2,1.4,1.8,2.1l0.1,0.1c0.5,0.6,1.1,1.2,1.6,1.8l0.3,0.4c0.4,0.6,0.9,1.2,1.3,1.9l0.2,0.3c1,0.9,2,1.8,3.1,2.8l0-0.1
		c0.6,0.7,1.1,1.5,1.7,2.2l0,0c0.5,0.8,1.1,1.5,1.6,2.3l0,0c0.9-1.2,1.8-2.4,2.6-3.6l0,0c-0.6-0.7-1.1-1.5-1.7-2.2l0,0
		c-0.6-0.7-1.2-1.3-1.7-2c0,0-0.2-0.2-0.2-0.2c-0.5-0.6-1-1.3-1.5-1.9l-0.2-0.3c-0.5-0.6-0.9-1.3-1.4-1.9c0,0-0.2-0.3-0.2-0.3
		c-0.5-0.6-0.9-1.3-1.4-1.9l-0.2-0.3c-0.5-0.6-0.9-1.3-1.4-1.9l-0.2-0.3c-1-1-2-2-3-2.9c-10.9-12.3-21.1-25.2-32.8-36.6
		c-13.6-13.2-28.6-25.1-43-37.4c-1.9-1.7-4.3-2.8-6.5-4.1C386.4,308.6,383.8,308,381.1,306.4z"/>
	<path id="XMLID_2284_" class="st12" d="M42.8,147.9c3.6-8,12.3-11.5,16.8-18.8c-15.4-1.4-28.2,5.8-41.2,12.3
		c-2.4,1.2-3.6,5.1-5.3,7.8c0.3,1.5,1.1,3.1,0.9,4.5c-0.5,4.4-1.3,8.7-1.9,13l0,0c0.8,2.5,1.6,5,3.1,9.4c1.8-5,3-8,4.1-11.2
		c2.3,1.2,3.9,1.9,4.4,2.2c4-7.1,7.7-13.8,11.4-20.4C41.1,143.2,41.2,143.2,42.8,147.9L42.8,147.9z"/>
	<path id="XMLID_2283_" class="st13" d="M213.3,291.8c0.4,1.4,1.5,3.7,1,4.2c-6.1,5.3-3,12.7-4.8,19c-0.1,2.7-0.2,5.5-0.3,8.2
		c-0.1,3.8,2.3,2.8,4.5,2.3c0.3-1.5,0.5-3.2,1-4.6c0.9-2.5,2.3-2.8,3.9-0.5c2-0.3,4.1-0.6,6.1-0.9c3.7,0.1,7.3,0.2,11.2,0.4
		c-0.7,4.2-1.2,7.5-1.7,10.8c4.1-3.9,8.1-7.8,12.2-11.7c-0.6-0.7-1.1-1.3-1.7-2c-1.8,0.7-3.5,1.4-6.5,2.5c-0.4-1.1-1.2-2.3-1.3-3.6
		c-0.1-1.5,0.4-3,0.8-4.5c1.5-5.2,4.1-10.4,4.2-15.7c0.2-5.8-0.5-11.4,2.7-16.8c0.6-0.9-0.7-3-1.4-5.3c-2,4.2-3.4,7.4-5.2,10.4
		c-0.2,0.4-2.4-0.3-3.7-0.5c-1.5,5.7-3.1,11.3-4.6,17c-0.8,4.7-1.5,9.4-2.3,14.1c-7,1.5-7,1.5-11.7-0.5c-2.3-2.3-2.7-4.7-1.1-7.7
		c3.1-6.2,6.7-12.3,4.5-19.8c-0.2-0.9,0.7-2.3,1.5-3.1c3.6-4.2,0.4-5.3-2.9-6.5C214.4,281.2,213.8,286.5,213.3,291.8z"/>
	<path id="XMLID_2282_" class="st14" d="M315.5,404.9c-7-6.1-5.4-15-7-23.7c-3.2,6.1-0.3,14.5-10.2,16.9c0.8-5.1,1.6-9.7,2.3-14.3
		c-0.7-0.2-1.3-0.4-1.9-0.6c-2.1,3.7-4.2,7.4-6.7,11.8c-3.3-4.4-2.7-8.4-0.6-12.7c-1.8,0.2-2.7,0.3-3.7,0.4
		c-0.9,0.8-1.8,1.6-3.6,3.2c-0.6-5.6-1.1-10-1.7-15c-2.3,2.1-4.1,3.8-6.9,6.4c-1-3.8-1.6-6.4-2.6-10.2c-1.6,4.1-2.9,7.3-4.1,10.5
		c-0.5,2.7-0.9,5.4-1.4,8.1c7.7,10.2,17.3,17.3,30.4,18.2C303.6,404.3,309.4,408.5,315.5,404.9z"/>
	<path id="XMLID_2281_" class="st15" d="M395.9,287.2c2.1-0.1,4.2-0.3,6.3-0.4c-4.6-3-1.7-6.8-2-10.9c5.2-0.2,10.7,0.9,12.2-5.6
		c-0.8-0.5-2.3-1.2-2.2-1.5c2.1-8.2-0.4-16.4,0.4-24.5c-1.5,1.5-2.9,3-4.4,4.6c-2.1-3.6-4-6.8-6.6-11.2c-4.9,7.9-1.8,14.4-1.1,20.6
		c-2.4,2.2-4.4,4.1-6.5,6c0.5,0.2,1,0.3,1.5,0.5c-1.1,6.6-2.1,13.2-3.2,19.7C392.2,285.5,394.1,286.4,395.9,287.2z"/>
	<path id="XMLID_2280_" class="st16" d="M401.3,157.5c-10.4-5.7-21.4-8.3-33.3-7.1c0.1,4.1,0.3,8.1,0.4,12.2c0.3,2,0.7,4,1,6.1
		c1,0.4,2.1,0.9,3.2,1.4c0.6-2.9,1.1-5.1,1.5-7.4c0.7,0,1.5,0,2.2,0.1c0.1,3.7,0.3,7.4,0.4,11.2c2.4-4.3,4.8-4.8,10-4.9
		c5.8-0.1,4,5.4,7.4,5.6c2.6-4.2,5.3-8.4,7.9-12.5C401.8,160.5,401.6,159,401.3,157.5z"/>
	<path id="XMLID_2279_" class="st17" d="M224.7,319.3c-2,0.3-4.1,0.6-6.1,0.9c-0.4,2.8-0.9,5.7-4.9,5.2c-2.1,0.5-4.6,1.5-4.5-2.3
		c0.1-2.7,0.2-5.5,0.3-8.2c-1.2,0.7-3.1,1.2-3.4,2.2c-0.6,1.8-0.4,4-0.5,6.3c-6.7-1.7-5.4-7.2-6.7-11.2c-4.1,0.5-3.7,3.8-3.3,5.8
		c1.7,7.5-1,13.8-5.6,22.2c-0.6-4.9-1-7.8-1.6-12.1c-1.7,8.1-5.3,12.3-13,10.4c-0.3-0.1-1,1.4-1.5,2.1c2.7,0.5,5.5,0.9,8.2,1.6
		c0.4,0.1,0.4,1.5,0.6,2.4c3.1,3.4,6.7,1.7,10.1,0.9c1.4-0.3,2.8-0.6,4.2-0.9l0,0c4.5-3.2,9-6.3,13.6-9.5c-0.2-1.7-0.4-3.3-0.6-5
		c1,0.4,2,0.8,3,1.2c0.6,0.1,1.2,0.2,1.9,0.3l0,0C218.1,327.5,221.4,323.4,224.7,319.3z"/>
	<path id="XMLID_2278_" class="st18" d="M22.4,210.4c4.6,2.9,7-2.8,10.8-2.8l0,0c-0.8-2.7-1.6-5.4-2.7-9.4c2,0.8,2.9,1.3,3.9,1.7
		c0.7-2.4,1-5.1,2.2-7.3c1.5-3,0.4-4.8-1.9-6.5l0,0c-0.8,1.2-1.7,2.4-2.5,3.5c-1,0.8-1.9,1.7-2.9,2.5c-0.2-1.7-0.4-3.3-0.6-5
		c0.7-0.6,1.4-1.1,2.2-1.7l0.1-0.9l0.2-0.9c-6.8-1.8-5.3,7.2-10.8,8.2c-3.9-8-12.6-14.2-8.2-25.1l0,0c-1.4-0.2-2.9-0.4-4.3-0.6
		c-0.9,15,4.9,28.1,11.8,40.9c0.4,0.4,0.8,0.8,1.3,1.2l0-0.3c0.6,0.8,1.2,1.7,1.8,2.5L22.4,210.4z"/>
	<path id="XMLID_2277_" class="st19" d="M343.7,377.9c0.7-1.4,1.3-2.8,2.1-4.4c1.9,1.1,3.4,1.9,5.4,3.1c1.7-3,3.2-5.7,5-8.9
		c0.3,3.2,0.6,6,1.1,10.8c3.9-5.1,3.2-12.5,11-11.7c-0.2,2.5-0.3,4.8-0.5,7.1c7.7-6.4,12.1-14.2,10.3-24.6
		c-2.7,9.2-3.1,9.4-12.5,8.6c-3.1-0.3-6.2-0.3-8.9-0.4c-2.1,2.8-4.2,5.7-7.2,9.9c-1.2-2.8-1.7-4.1-2.4-5.6c-1.7,0.7-3.5,1.3-5.2,2
		c-1.1,3.9-2.2,7.8-3.4,12.2C340.4,376.6,342.1,377.3,343.7,377.9z"/>
	<path id="XMLID_2276_" class="st20" d="M169,233c-1.3-0.1-2.7-0.7-3.7-0.2c-11.9,5.4-25.4,7.8-34.4,18.6c-0.3,0.6-0.7,1-1.4,1.1
		c-0.5,1-1,2-1.4,3c-0.2,1.6-0.4,3.3-0.5,4.9c1.8-2,3.5-4,5.5-6.2c0.7,4.8,1.4,9.1,2,13.4c1.5-4,2.6-7.8,2.7-11.6
		c0.2-8.3,1.2-9.6,9.6-10.3c2.7-0.2,5.4-1.1,8.6-1.8c-0.2,1.3-0.5,3.2-0.8,5c-0.2,1.9-0.3,3.8-0.7,5.7c-0.7,4,0.2,6.2,4.8,4.8
		c1.2-3.1,2.4-6.1,3.5-9.2c0.4-3.5,0.6-7,1.3-10.4c0.3-1.5,1.7-2.7,2.5-4.1c1,1.3,2,2.5,3,3.7c1-1.2,2-2.3,3-3.5
		c1-1.6,2.7-3.2-0.6-4.2l-0.6,0.4C170.6,232.3,169.8,232.7,169,233z"/>
	<path id="XMLID_2275_" class="st21" d="M226.2,236.4c-6.9-4.6-14.2-7.7-22.7-7.2c-0.5,0.8-1.6,2-1.4,2.4c3.1,5.6,0.5,10.6-1.1,15.8
		c-0.2,0.6,0.7,1.5,1.3,2.7c1.7-1.8,3.2-3.3,4.6-4.8c1.4-4,2.8-8,4.3-12c0,8.9-1.4,17.9,1.3,26.7c2.4-3.3,5.4-0.3,8-0.7
		c0.8-6.8,1.4-13.7,2.5-20.4C223.1,237.9,225.1,237.2,226.2,236.4z"/>
	<path id="XMLID_2274_" class="st13" d="M226.2,236.4c-1.1,0.8-3,1.5-3.2,2.5c-1,6.8-1.7,13.6-2.5,20.4c0.9,1.5,1.7,2.9,3.1,5.2
		c0.7-4.5,0.9-8,1.9-11.3c0.9-3-2.8-7.2,2.7-9.7c0.6,1.8,1.8,3.5,1.7,5c-0.5,5.3-1.5,10.6-2.3,15.9c0.1,3.3,0.2,6.6,0.3,10
		c-0.2,1.3-0.4,2.6-0.6,3.8c1.7,0.8,3.6,2,4.1-1.2c0.7-4.4,1.4-8.9,2.1-13.3c0.3,0.1,0.7,0.1,1,0.2c0.3,3.9,0.7,7.8,1,11.7
		c0.7-8.4,1.4-16.9,2.1-25.3c-0.6-1.7-5.7-1.1-2.6-4.8C232.1,242.5,229.1,239.4,226.2,236.4z"/>
	<path id="XMLID_2273_" class="st22" d="M415.4,337.9c1.7-2.7,1-3.9-2.2-4.5c-2.3-0.4-4.5-1.6-6.7-2.4c-7.5-1.5-14.9-3.5-22.5-4.3
		c-6.4-0.7-9.8-3.5-11-9.7c-0.4-2.1-1.9-3.9-2.9-5.9c-0.7,0.5-1.4,1.1-2.1,1.6c0.5,2.1,0.7,4.2,1.5,6.2c1.2,2.9,2.8,5.7,4.2,8.5
		c0.6,1.6,1.7,3.1,1.8,4.8c0.2,3.2-0.1,6.5-0.2,10.2c1.2-0.7,1.6-0.7,1.7-0.9c0.3-0.5,0.6-1.1,0.8-1.7c0.3-1.6,0.5-3.1,1-6
		c8.8,1.4,17.5,3,26.3,4.1C408.4,338.2,411.9,337.9,415.4,337.9z"/>
	<path id="XMLID_2272_" class="st23" d="M368,312.6c0.7-0.5,1.4-1.1,2.1-1.6c-0.5-0.8-1-1.5-1.5-2.3c-0.5-0.7-1.1-1.4-1.6-2.1
		l-0.1-0.1c-0.5-0.6-1-1.2-1.5-1.8c-0.2-0.6-0.6-0.9-1.3-0.9c-1.4-0.8-2.8-1.5-4.2-2.3c-0.2-0.5-0.6-0.7-1.2-0.6
		c-1.4-0.8-2.9-1.7-4.3-2.5c-0.3-0.5-0.7-0.6-1.1-0.3c-2.7-1-5.4-2-8.2-2.9c-4.5-2.9-9.2-4.5-14.6-2.6c-1.5,0.5-3.2,0.9-4.7,0.7
		c-13-2-24.5,2.1-35.3,8.7c0.7,0.2,1.4,0.3,2.1,0.5c1,1.6,3,3.3,2.9,4.9c0,3.7-1,7.4-1.5,11.1l0,0c1.8-3.9,5-7.8,5-11.7
		c0-6.3,3-7.7,7.9-8c3.9-1.5,8.1-4.5,11.1,2.6c0.9-4.5,2.6-7.2,7.1-5.4c1.3,0.2,2.7,0.4,4,0.6c0.6,0,1.2,0.1,1.8,0.1
		c7.6-3.3,13.3,2.1,19.6,4.5c0,0-0.6,1.7-0.9,2.6c-0.1,0.6-0.2,1.2-0.2,1.9c1.4,0.1,3.2,0.8,4.1,0.2c2.5-1.5,4.1-1.1,5.5,1.3
		c0.8,3.4,1.5,6.8,2.3,10.3l0,0C362.7,310,362.7,310,368,312.6z"/>
	<path id="XMLID_2271_" class="st24" d="M106.3,219.3c-1.4,1.3-2.7,2.6-4.5,4.3c-1.6-2.7-2.9-5-4.6-7.7c-1.6,5-3,9.1-4.3,13.2
		c-6.5,2.9-12.9,5.8-19.4,8.7c-0.1-0.6-0.1-1.3-0.2-1.9c-2.2-1-4.5-2-6.7-3c-1.7,1-3.4,3-5,2.9c-6.3-0.5-12.7-1.2-17.3-6.6
		c-2.2-2.6-5.1-3.8-8.4-1.5c7.4,5.9,15.1,11.2,24.9,12c12.7,1.1,24.9-0.3,35.5-8.2c6.9-5.2,13.6-10.8,20.3-16.2
		c-0.5-0.1-1.1-0.2-1.6-0.3c-0.6-0.1-1.3-0.2-1.9-0.4l-0.1,0C110.8,216,108.6,217.7,106.3,219.3z"/>
	<path id="XMLID_2270_" class="st25" d="M258.1,148.7c0.7,3.4,1.5,6.9,2.2,10.3c0.6,0.1,1.2,0.2,1.9,0.2c0.3-1.2,0.5-2.4,0.8-3.7
		c1.3-5,2.5-10,3.8-15.1c-0.2-12.6-5.1-23.6-12.2-33.7c-1.1,5.8-2.3,11.5-3.3,17.3c-0.7,4.1-1.3,8.2-2.2,13.4
		c8.3-5.3,4.9-13.3,6.4-20.2c6.4,7,6.5,9.2,3,15.2c-1.7,3-2.3,6.5-3.4,9.8c-0.1,0.7-0.2,1.3-0.3,2c1.4-1.8,2.7-3.5,5.1-6.6
		C259.1,142.5,258.6,145.6,258.1,148.7z"/>
	<path id="XMLID_2269_" class="st26" d="M256,223.4c3,1.8-3.1,7.6,4.8,7.9c0.5-2.9,0.9-5.8,1.4-8.8c-4-10.9-12.6-18.4-19.9-26.9
		c-2.7-3.2-5.6-6.1-8.4-9.2c-2.7,0.7-5.3,1.4-8,2.1c7.7,8.2,15.5,16.2,23,24.6C251.8,216.2,253.7,220,256,223.4z"/>
	<path id="XMLID_2268_" class="st27" d="M329.9,156.2c-10.1,6.3-21.3,11.2-28.7,21.2c0.5,0.1,1,0.2,1.6,0.3c1.6-0.9,3.1-1.8,4.9-2.8
		c1.6,11.8-4.2,20.6-9.1,29.7c1.8,5.6,3.6,11.2,5.3,16.7c0.6,0.1,1.2,0.2,1.7,0.3c1.6-14.2,3.3-28.5,4.9-42.7
		c0.3-5.9,3.1-9.9,8.7-12.4c3.9-1.8,7.5-4.6,11-7.1C330.6,159.1,330,157.3,329.9,156.2z"/>
	<path id="XMLID_2267_" class="st28" d="M226,188.6c2.7-0.7,5.3-1.4,8-2.1c6.2-3.7,12.8-7.1,18.6-11.3c3.5-2.5,5.9-6.4,8.8-9.7
		c0.6-0.7,1.1-1.3,1.7-2c0.6-0.3,0.9-0.8,0.9-1.4c0.7-1.3,1.4-2.6,2-4c0.2-1.3,0.4-2.6,0.6-3.9c-1.2,0.5-2.5,0.9-3.7,1.4
		c-0.3,1.2-0.5,2.4-0.8,3.7c-2.8,3.2-3.6,8.4-9.2,8.6l0,0c-0.8,1.2-1.7,2.4-2.5,3.5c-1,0.7-1.9,1.7-3,2.1c-0.5,0.2-1.5-0.9-2.2-1.4
		c-2.2,2.5-4.2,5.4-6.8,7.3c-2.7,2-6.1,3-9.7,4.7c-0.7-0.9-1.9-2.3-3.1-3.8c-7.9,6.5-16.7,8.5-26.6,6.7c-2-0.4-4.3,0.3-6.4,0.5
		c7.4,3.4,15.2,3.4,23,2.4C219.1,189.3,222.5,189,226,188.6z"/>
	<path id="XMLID_2266_" class="st29" d="M329.9,156.2c0.1,1.1,0.7,2.9,0.3,3.2c-3.5,2.6-7.1,5.3-11,7.1c-5.5,2.5-8.4,6.5-8.7,12.4
		c0.8,0.9,1.7,1.8,3,3.2c0.9-3.3,1.6-6.1,2.5-9.4c3.1,2.6,5.1,6.7,8.9,2.6c1.4-3,2.8-6,4.2-9.1c0.4,0.2,0.8,0.3,1.2,0.5
		c-0.5,3.1-1,6.1-1.5,9.2c1.2,0.8,2.3,1.7,3.5,2.5c2.2-6.5,4.3-13.1,6.7-19.5c0.2-0.5,1.6-0.5,2.5-0.7c0-1.2-0.4-2.9,0.2-3.5
		c2.9-2.6-0.4-2-1.2-2.7C336.9,153.4,333.4,154.8,329.9,156.2z"/>
	<path id="XMLID_2265_" class="st30" d="M340.4,152c0.8,0.7,4.1,0.1,1.2,2.7c-0.6,0.6-0.2,2.3-0.2,3.5l0,0
		c7.2,1.9,15.4,1.6,19.6,10.2c1.7-2.8,2.6-4.9,4-6.5c0.3-0.4,2.1,0.4,3.3,0.6l0.1-0.1c-0.1-4.1-0.3-8.1-0.4-12.2
		c-7.2,0.2-14.4,0.4-21.6,0.5c0.2,0.3,0.4,0.7,0.6,1c-0.2-0.3-0.5-0.6-0.7-0.9C344.4,151.3,342.4,151.7,340.4,152z"/>
	<path id="XMLID_2264_" class="st31" d="M206.9,245.3c-1.4,1.5-2.9,3-4.6,4.8c-0.6-1.2-1.5-2.1-1.3-2.7c1.6-5.2,4.2-10.2,1.1-15.8
		c-0.2-0.4,0.9-1.6,1.4-2.4c-1.3-0.1-2.5-0.2-3.8-0.4c-1.6,3.8-3.6,3.7-6,0.7c-0.6-0.1-1.3-0.1-1.9-0.2c-0.7,4.4-1.4,8.7-2.1,13.1
		c2.7,3.7,2.2,9.8,8,11.2c3.3-0.1,6.7-0.3,10-0.4C207.4,250.7,207.1,248,206.9,245.3z"/>
	<path id="XMLID_2263_" class="st32" d="M170.1,93.4c0,3.8,0.2,7.7,0.1,11.5c-0.1,3-0.4,5.9-0.7,8.9c0.8,0.1,1.6,0.2,2.4,0.3
		c2.5-7.4,5-14.9,7.5-22.3c0.6,0.1,1.2,0.3,1.8,0.4c0.3,1.1,0.4,2.3,0.8,3.4c0.3,0.8,1,1.5,1.8,2.7c1.6-2.9,3.1-5.5,4.5-8.1
		c0.8-0.5,1.5-1,2.3-1.6c0.4,1.4,0.9,2.8,1.3,4.1l0,0c1.6-2.5,3.1-5,4.7-7.6C186.6,84.2,177.8,87,170.1,93.4z"/>
	<path id="XMLID_2262_" class="st33" d="M292.6,302.5c-0.7-0.2-1.4-0.3-2.1-0.5c-7.8,0.9-14.7,3.1-19.7,9.9
		c-6.1,8.4-15.6,14.3-17.8,25.5c0,0,0.1,0.9,0.1,0.9l-0.2,0.9l0.4,0.4c0.5,0.1,1,0.2,1.5,0.2c0.2-0.6,0.4-1.2,0.5-1.8
		c0.8-1.2,1.6-2.4,2.4-3.6c0.3-1.2,0.6-2.4,0.9-3.7c0.8-0.8,1.6-1.6,2.4-2.4c0.4,1,0.7,1.9,1.1,2.9l0,0c1.7,0.9,3.4,2.1,4.2-1.1
		c0.4-1.4,1.6-2.5,2.5-3.8l0,0c0.4-2.5,0.1-5.5,1.4-7.4c2.6-3.8,5.9-7.2,9.3-10.3c2.4-2.1,5.3-1.4,7.7,0.8
		C289.2,307.2,290.9,304.9,292.6,302.5z"/>
	<path id="XMLID_2261_" class="st34" d="M210.5,335.1c-4.5,3.2-9,6.3-13.6,9.5c0.6,0.3,1.1,0.9,1.7,0.8c10-0.9,19.8-2.4,27.3-10.1
		c0.1-1.7,0.3-3.5,0.3-5.2c0-0.8-0.7-1.5-1.4-2.9c-2.3,2.3-4.2,4.1-5.9,5.7c-1.7-0.5-2.9-0.9-4.1-1.3l0,0c-0.7,0.6-1.3,1.2-2,1.8
		C212.1,333.9,211.3,334.5,210.5,335.1z"/>
	<path id="XMLID_2260_" class="st35" d="M304.6,227.5c2.2,3.9,3.8,8.1,6.6,11.5c7.5,9.2,15.4,17.9,23.1,26.9
		c0.5,0.5,0.9,0.9,1.4,1.4c0.6,0.5,1.2,1,1.7,1.5l0.2-0.9c0.1-0.6,0.2-1.1,0.3-1.7c-2.5-4.6-3.9-11.6-7.6-13.2
		c-10.3-4.3-13.2-14.5-19.9-21.4c-1.8-1.9-2.2-5.1-3.2-7.8c-0.6-0.1-1.3-0.2-1.9-0.3C305.1,224.9,304.8,226.2,304.6,227.5z"/>
	<path id="XMLID_2259_" class="st36" d="M267.3,385.8c0.5-2.7,0.9-5.4,1.4-8.1c-1.3-2.5-1.9-6.1-4-7.4c-4.8-3-4.2-7.4-4.8-11.7
		c-1.8-3.4-4-4.8-7.3-1.7l-0.5,0.5C254.5,368.3,259.2,377.9,267.3,385.8z"/>
	<path id="XMLID_2258_" class="st37" d="M214.9,331.5c1.2,0.4,2.5,0.8,4.1,1.3c1.7-1.6,3.5-3.4,5.9-5.7c0.7,1.4,1.4,2.2,1.4,2.9
		c0.1,1.7-0.2,3.5-0.3,5.2c2.7-1.6,5.5-3.2,8.2-4.8c0.5-3.3,1.1-6.6,1.7-10.8c-3.9-0.1-7.6-0.2-11.2-0.4
		C221.4,323.4,218.1,327.5,214.9,331.5z"/>
	<path id="XMLID_2257_" class="st38" d="M244.7,316.8c0.6,0.7,1.1,1.3,1.7,2c9.3-11.5,13.1-24.9,12.1-39.4
		c-0.2-3.6-2.7-7.1-4.2-10.7c-0.6-0.1-1.2-0.2-1.8-0.3l0,0c0.3,2.2,0.2,4.6,0.9,6.7c3.2,10.1,2,19.6-2.6,29
		C248.8,308.3,246.8,312.5,244.7,316.8z"/>
	<path id="XMLID_2256_" class="st39" d="M155.3,335.9c0.7-1.2,1.4-2.4,2.1-3.7c-0.6-2.1-1.2-4.2-1.7-6.3c-0.4,0.2-0.9,0.5-1.3,0.8
		c-0.7,0.6-1.3,1.4-1.9,2.1c-11.7-8.1-13.9-10.5-20.6-22.4c-1.8-1-3.6-1.9-5.4-2.9c-0.6-0.1-1.2-0.2-1.8-0.3
		C131.8,317,142.4,327.5,155.3,335.9z"/>
	<path id="XMLID_2255_" class="st40" d="M235,245.5c-3,3.8,2,3.1,2.6,4.8c4.9,2.7,8.8,7,14.6,8.2l0,0c0.6,0.1,1.3,0.2,1.9,0.3
		c-0.1,0.8-0.1,1.5-0.2,2.3c5.9-0.5,11.9-1.1,17.8-1.6c0.8-4.7-4.9-2.2-5.7-5.1c-0.3-0.1-0.6-0.2-0.9-0.2
		c-9.9,1.3-18.8-0.9-26.5-7.5C237.7,246,236.2,245.9,235,245.5z"/>
	<path id="XMLID_2254_" class="st21" d="M189.6,242.5c0.7-4.4,1.4-8.7,2.1-13.1c-0.6-0.1-1.3-0.2-1.9-0.3c-1.1,3.7,0.1,8.5-5.4,10.2
		c-4.6-4.2-2-7.1,1.4-9.8c-4.6,0.7-9.2,1.5-13.8,2.2c3.3,1,1.6,2.7,0.6,4.2c-0.2,1.9-0.4,3.8-0.6,5.7c1.3,0.3,2.5,0.5,3.8,0.8
		c1.3,0.1,2.6,0.2,3.9,0.3c0.7-0.4,1.5-0.9,2.2-1.3C184.4,241.8,187,242.2,189.6,242.5z"/>
	<path id="XMLID_2253_" class="st41" d="M115,214.7c0.5,0.1,1.1,0.2,1.6,0.3c6.3-6.7,10.6-14.4,12.5-23.5c0.3-2,0.7-4.1,1-6.1
		c-0.2-4.6-0.5-9.1-0.7-13.7c-0.8,1.8-1.6,3.6-2.4,5.4l0,0c2.5,5,1.4,9.5-2.2,13.5l0,0c-1.4,4.2,0.8,10.2-6.1,11.6
		c-0.6,0.1-0.8,2.1-1.1,3.2c-0.8,2.4-1.6,4.8-2.4,7.2C115.1,213.4,115.1,214.1,115,214.7z"/>
	<path id="XMLID_2252_" class="st42" d="M150.3,141.7c0.2-0.7,0.3-1.4,0.5-2.1c-0.2-2.5-0.1-5.1-0.7-7.5c-2.1-8.3-0.1-15.6,5.1-22.1
		c3.1-3.9,5.2-8.9,10.6-10.5c0.2-0.1-0.1-2.1-0.2-3.2c-14.8,7.8-23,24.2-17.1,38.2C149.5,136.7,149.8,139.3,150.3,141.7z"/>
	<path id="XMLID_2251_" class="st43" d="M395.9,287.2c-1.8-0.9-3.7-1.7-5.5-2.6c-2.2,1-4.3,2-6.2,2.9c-0.9,5.2,4,9.8-0.1,15.2
		c-1.9-3.9-3.4-7-4.9-10.1c-0.7,0.4-1.4,0.9-2.2,1.3c0,0.7,0,1.5,0.1,2.2c1.4,3.4,2.7,6.8,4.1,10.2c2.7,1.5,5.4,2.2,7.9-0.3
		c-0.7-5.7,1.6-11.9-3.1-17.1C389.6,288.3,392.8,287.8,395.9,287.2z"/>
	<path id="XMLID_2250_" class="st44" d="M401.3,157.5c0.2,1.5,0.5,3,0.7,4.5c11.3,2.1,15.5,12.4,22.5,19.4c0.5,1.1,1.2,2.2,1.5,3.3
		c0.9,3.4,2.8,3.9,5.5,1.9C424.6,173.8,415.1,163.4,401.3,157.5z"/>
	<path id="XMLID_2249_" class="st45" d="M431.7,269.5c1.1-1.7,2.3-3.4,3.4-5.2c-0.3-2.1-0.7-4.2-1-6.3c-1.6,3-2.6,8-5,8.8
		c-5.7,1.9-8.3,6.5-12,10.2c-0.7,0.5-1.5,1-2.2,1.5c-0.6,0-1.3-0.1-1.9-0.2c-1.3,0.7-2.8,1.3-3.7,2.3c-0.6,0.7-0.4,2.2-0.5,3.3
		c8.3-0.4,13-7,19-11.3c0.7-0.5,1.4-1,2.1-1.6l0.1-0.1C430.6,270.6,431.2,270,431.7,269.5z"/>
	<path id="XMLID_2248_" class="st46" d="M266.1,254.4c0.8,2.9,6.5,0.4,5.7,5.1c7.4,0,14.8,0.1,22.3,0.1c-2.5-1.7-4.9-3.3-7.4-5
		c-0.7-0.3-1.4-0.6-2.1-0.9C278.4,254,272.3,254.2,266.1,254.4z"/>
	<path id="XMLID_2247_" class="st47" d="M109.8,148.8c3.9,0.9,5.2,3.4,4.7,7.2c-0.2,2.1-0.1,4.3-0.2,7.4c3.2-1.3,5.5-2.2,7.5-3
		c0.4-2.7,0.8-5.2,1.2-7.6c-0.4-0.7-0.7-1.5-1.1-2.2c-2.1-0.9-6.3-0.3-3.4-4.7c-1.2-0.9-2.4-1.9-3.6-2.8c-0.1,0.3-0.3,0.6-0.6,0.9
		c-0.6,0.4-1.2,0.9-1.8,1.3C111.6,146.4,110.7,147.6,109.8,148.8z"/>
	<path id="XMLID_2246_" class="st48" d="M408.8,284c0.2-1.1-0.1-2.6,0.5-3.3c0.9-1.1,2.5-1.6,3.7-2.3c-0.2-2.7-0.5-5.3-0.7-8
		c-1.5,6.5-6.9,5.4-12.2,5.6c0.3,4-2.6,7.9,2,10.9C404.4,285.9,406.6,284.9,408.8,284z"/>
	<path id="XMLID_2245_" class="st49" d="M286.7,254.6c2.5,1.7,4.9,3.3,7.4,5c2.5,1.2,5.2,2.2,7.4,3.8c3,2,4.7,1,6.1-1.7
		c-2.2-6.2-4.6-7.9-10.7-7.7C293.5,254.1,290.1,254.4,286.7,254.6z"/>
	<path id="XMLID_2244_" class="st50" d="M304.6,227.5c0.2-1.3,0.5-2.7,0.7-4l0.1-0.1c-0.5-0.7-1-1.4-1.5-2.1
		c-1.8-5.6-3.6-11.2-5.3-16.7c-0.1-3.9-0.1-7.9-0.1-11.8l0,0c-0.5,0.5-1,0.9-1.5,1.4c-0.4,3.7-1.9,7.8-0.9,11.2
		C298.2,212.9,301.6,220.1,304.6,227.5z"/>
	<path id="XMLID_2243_" class="st51" d="M484.4,400.4c-0.9,1.2-1.8,2.4-2.6,3.6c3.2,5.3,5.5,11.4,13.5,13.9
		C493.5,409.9,488.9,405.2,484.4,400.4z"/>
	<path id="XMLID_2242_" class="st52" d="M434.2,258.1c0.3,2.1,0.7,4.2,1,6.3c6.9-9.6,12.1-19.7,10.4-32.1c-1.1-0.2-2.1-0.3-3.2-0.5
		l-0.2,0.9l-0.1,0.9c0.2,2,0.5,4.1,0.8,6.1l-0.2,0.9l-0.1,0.9C442.2,248.3,438.6,253.4,434.2,258.1z"/>
	<path id="XMLID_2241_" class="st53" d="M127.5,260.3c0.2-1.6,0.4-3.3,0.5-4.9c-8.7,8.9-13.1,19-9.4,31.6l0.8-0.5
		c0.7-4.8,1.7-9.6,2.1-14.5C121.9,267.2,123.9,263.4,127.5,260.3z"/>
	<path id="XMLID_2240_" class="st54" d="M185.8,229.5c-3.4,2.8-6,5.6-1.4,9.8c5.5-1.7,4.3-6.5,5.4-10.2
		C188.4,229.2,187.1,229.3,185.8,229.5z"/>
	<path id="XMLID_2239_" class="st55" d="M7.8,166c1.4,0.2,2.9,0.4,4.3,0.6c0.7-4.3,1.5-8.7,1.9-13c0.2-1.5-0.6-3-0.9-4.5
		C11.3,154.7,9.5,160.4,7.8,166z"/>
	<path id="XMLID_2238_" class="st56" d="M182.7,344.6c-0.2-0.8-0.2-2.3-0.6-2.4c-2.7-0.7-5.4-1.1-8.2-1.6c-2.5-1-5-2-7.5-3
		c-0.1,0.7-0.2,1.4-0.4,2C170.6,344.7,177,343.7,182.7,344.6z"/>
	<path id="XMLID_2237_" class="st53" d="M124.8,303.2c0.6,0.1,1.2,0.2,1.8,0.3c-2.8-5.5-1.2-12.8-7.1-17l-0.8,0.5
		C120.7,292.4,122.7,297.8,124.8,303.2z"/>
	<path id="XMLID_2236_" class="st57" d="M442.4,231.7c1.1,0.2,2.1,0.3,3.2,0.5c-0.4-4.7-0.8-9.4-1.2-14.1c-0.7,1.6-1.7,3.2-1.9,4.9
		c-0.3,2.2,0,4.5,0.1,6.7C442.5,230.4,442.5,231.1,442.4,231.7z"/>
	<path id="XMLID_2235_" class="st58" d="M262.9,155.5c1.2-0.5,2.5-0.9,3.7-1.4c0-4.6,0.1-9.1,0.1-13.7
		C265.5,145.5,264.2,150.5,262.9,155.5z"/>
	<path id="XMLID_2234_" class="st59" d="M302.8,177.7c-0.5-0.1-1-0.2-1.6-0.3c-3.7,4.5-4.8,9.8-4.2,15.4c0.4-0.1,0.9-0.1,1.3,0l0,0
		C299.8,187.7,301.3,182.7,302.8,177.7z"/>
	<path id="XMLID_2233_" class="st60" d="M254.9,339.9c-0.5,0-1-0.1-1.5-0.2c-0.7,3.1-1.3,6.2-2,9.3c0,0.8,0.1,1.5,0.1,2.3
		c0.4,0.1,0.9,0.1,1.3,0.2c0.3-0.5,0.5-1.1,0.7-1.7c0.9-1.9,1.7-3.8,2.6-5.7C255.8,342.7,255.4,341.3,254.9,339.9z"/>
	<path id="XMLID_2232_" class="st39" d="M166.1,339.7c0.1-0.7,0.2-1.4,0.4-2c-2.7-2.5-5.4-3-8,0.2
		C161,338.5,163.5,339.1,166.1,339.7z"/>
	<path id="XMLID_2231_" class="st61" d="M254,261.1c0.1-0.8,0.1-1.5,0.2-2.3c-0.6-0.1-1.3-0.2-1.9-0.3l0,0c0.1,3.3,0.2,6.6,0.4,9.9
		l0,0c0.4-2,0.8-4,1.1-6l0.2-0.6L254,261.1z"/>
	<path id="XMLID_2230_" class="st62" d="M251.5,349c0.7-3.1,1.3-6.2,2-9.3c0,0-0.4-0.4-0.4-0.4l-0.9,0.2
		C251.9,342.6,251.7,345.8,251.5,349z"/>
	<path id="XMLID_2229_" class="st21" d="M193.7,229.6c2.4,3,4.4,3.1,6-0.7C197.7,229.1,195.7,229.4,193.7,229.6z"/>
	<path id="XMLID_2228_" class="st63" d="M345.1,295.3c2.7,1,5.4,2,8.2,2.9C350.6,297.2,347.9,296.2,345.1,295.3z"/>
	<path id="XMLID_2227_" class="st9" d="M118.5,145.8c-2.9,4.5,1.3,3.9,3.4,4.7C120.8,149,119.6,147.4,118.5,145.8z"/>
	<path id="XMLID_2226_" class="st64" d="M253.7,262.4c-0.4,2-0.8,4-1.1,6c0.6,0.1,1.2,0.2,1.8,0.3
		C254.1,266.6,253.9,264.5,253.7,262.4z"/>
	<path id="XMLID_2225_" class="st51" d="M471.3,384.2c1,1,2,2,3,2.9C473.3,386.2,472.3,385.2,471.3,384.2z"/>
	<path id="XMLID_2224_" class="st51" d="M478.6,399.6c-1-0.9-2-1.8-3.1-2.8C476.5,397.8,477.5,398.7,478.6,399.6z"/>
	<path id="XMLID_2223_" class="st34" d="M197,344.6c-1.4,0.3-2.8,0.6-4.2,0.9C194.2,345.2,195.6,344.9,197,344.6z"/>
	<path id="XMLID_2222_" class="st63" d="M354.5,298.5c1.4,0.8,2.9,1.7,4.3,2.5C357.3,300.2,355.9,299.3,354.5,298.5z"/>
	<path id="XMLID_2221_" class="st58" d="M266,158.1c-0.7,1.3-1.4,2.6-2,4C264.7,160.7,265.4,159.4,266,158.1z"/>
	<path id="XMLID_2220_" class="st36" d="M251.2,353.1c0.3,1.4,0.6,2.8,0.9,4.3c0,0,0.5-0.5,0.5-0.5c0.1-1.1,0.1-2.2,0.2-3.3
		C252.2,353.4,251.7,353.3,251.2,353.1z"/>
	<path id="XMLID_2219_" class="st63" d="M359.9,301.6c1.4,0.8,2.8,1.5,4.2,2.3C362.7,303.1,361.3,302.4,359.9,301.6z"/>
	<path id="XMLID_2218_" class="st63" d="M365.4,304.8c0.5,0.6,1,1.2,1.5,1.8C366.4,306,365.9,305.4,365.4,304.8z"/>
	<path id="XMLID_2217_" class="st63" d="M367,306.7c0.5,0.7,1.1,1.4,1.6,2.1C368.1,308.1,367.5,307.4,367,306.7z"/>
	<path id="XMLID_2216_" class="st65" d="M298.3,192.8c-0.4-0.1-0.9-0.1-1.3,0c-0.3,0.4-0.3,0.9-0.2,1.4
		C297.3,193.7,297.8,193.2,298.3,192.8z"/>
	<path id="XMLID_2215_" class="st66" d="M169,233c0.8-0.3,1.6-0.6,2.4-1C170.6,232.3,169.8,232.7,169,233z"/>
	<path id="XMLID_2214_" class="st7" d="M22.7,210.2c-0.6-0.8-1.2-1.7-1.8-2.5C21.5,208.6,22.1,209.4,22.7,210.2z"/>
	<path id="XMLID_2213_" class="st7" d="M20.9,208.1c-0.4-0.4-0.8-0.8-1.3-1.2C19.7,207.6,20.2,208,20.9,208.1z"/>
	<path id="XMLID_2212_" class="st67" d="M129.5,252.5c0.7-0.1,1.1-0.5,1.4-1.1C130.4,251.7,129.9,252.1,129.5,252.5z"/>
	<path id="XMLID_2211_" class="st52" d="M429.9,271.1c-0.7,0.5-1.4,1-2.1,1.6C428.5,272.2,429.2,271.7,429.9,271.1z"/>
	<path id="XMLID_2210_" class="st52" d="M431.7,269.5c-0.6,0.5-1.2,1-1.7,1.6C430.6,270.6,431.2,270,431.7,269.5z"/>
	<path id="XMLID_2209_" class="st58" d="M263.1,163.5c-0.6,0.7-1.1,1.3-1.7,2C262,164.8,262.5,164.1,263.1,163.5z"/>
	<path id="XMLID_2208_" class="st68" d="M335.7,267.3c-0.5-0.5-0.9-0.9-1.4-1.4c0.1,0.6,0,1.2-0.3,1.7l-0.2-0.1
		C334.4,267.3,335.1,267.2,335.7,267.3z"/>
	<path id="XMLID_2207_" class="st51" d="M470.2,390.3c-0.6-0.8-1.2-1.5-1.8-2.3C469,388.8,469.6,389.6,470.2,390.3z"/>
	<path id="XMLID_2206_" class="st51" d="M471.9,392.4c-0.6-0.7-1.2-1.4-1.8-2.1C470.7,391,471.3,391.7,471.9,392.4z"/>
	<path id="XMLID_2205_" class="st51" d="M473.6,394.3c-0.5-0.6-1.1-1.2-1.6-1.8C472.5,393.1,473.1,393.7,473.6,394.3z"/>
	<path id="XMLID_2204_" class="st51" d="M474.5,387.4c0.5,0.6,0.9,1.3,1.4,1.9C475.4,388.7,475,388,474.5,387.4z"/>
	<path id="XMLID_2203_" class="st51" d="M475.2,396.6c-0.4-0.6-0.9-1.2-1.3-1.9C474.4,395.3,474.8,395.9,475.2,396.6z"/>
	<path id="XMLID_2202_" class="st51" d="M476.1,389.6c0.5,0.6,0.9,1.3,1.4,1.9C477.1,390.9,476.6,390.3,476.1,389.6z"/>
	<path id="XMLID_2201_" class="st51" d="M477.8,391.8c0.5,0.6,0.9,1.3,1.4,1.9C478.7,393.1,478.2,392.5,477.8,391.8z"/>
	<path id="XMLID_2200_" class="st51" d="M479.4,394.1c0.5,0.6,1,1.3,1.5,1.9C480.4,395.4,479.9,394.7,479.4,394.1z"/>
	<path id="XMLID_2199_" class="st51" d="M480.2,401.8c-0.6-0.7-1.1-1.5-1.7-2.2C479.1,400.3,479.6,401.1,480.2,401.8z"/>
	<path id="XMLID_2198_" class="st51" d="M481,396.2c0.6,0.7,1.2,1.3,1.7,2C482.2,397.5,481.6,396.9,481,396.2z"/>
	<path id="XMLID_2197_" class="st51" d="M481.8,404c-0.5-0.8-1.1-1.5-1.6-2.3C480.7,402.5,481.3,403.3,481.8,404z"/>
	<path id="XMLID_2196_" class="st51" d="M482.8,398.2c0.6,0.7,1.1,1.5,1.7,2.2C483.9,399.7,483.3,399,482.8,398.2z"/>
	<path id="XMLID_2195_" class="st60" d="M252.1,339.4l0.9-0.2c0,0,0.2-0.9,0.2-0.9s-0.1-0.9-0.1-0.9
		C252.7,338.1,252.4,338.8,252.1,339.4z"/>
	<path id="XMLID_2194_" class="st62" d="M251.2,353.1c0.5,0.2,1,0.3,1.5,0.5c0.1-0.7,0.1-1.4,0.2-2.1c-0.4-0.1-0.9-0.2-1.3-0.2
		C251.2,351.8,251.1,352.4,251.2,353.1z"/>
	<path id="XMLID_2191_" class="st69" d="M180.3,250.9c-1.4,8.9-2.7,17.9-4.3,26.8c-0.9,4.8-0.5,10.9-8.4,10.3c-1-0.1-2.7,2-3.2,3.3
		c-1.6,4.5-3.5,9-4.1,13.6c-1.3,9,1.1,18.5-2.8,27.3c-0.6-2.1-1.2-4.2-1.7-6.3c-0.4,0.2-0.9,0.5-1.3,0.8c-0.7,0.6-1.3,1.4-1.9,2.1
		c-11.7-8.1-13.9-10.5-20.6-22.4c1.4-1.7,2.9-3.4,4.5-5.3c-5.5-7.9-7-15.9,0.1-23.6c0.6,0.1,1.3,0.2,1.9,0.3
		c0.1,3.7-0.1,7.4,0.2,11.1c0.3,3.7,0.9,7.4,1.8,11c0.1,0.5,2.7,0.4,4.2,0.6c1.8,2.3,3.4,1.7,3.9-0.7c1.2-5.9,2.1-11.9,3.1-17.9
		c0.6,0.1,1.3,0.2,1.9,0.3c5.3,8.8,0.1,17.1-0.1,26.1c1.7-4.2,3.6-8.3,5.1-12.6c1.4-3.9,1.7-8.3,3.6-11.8c2.2-3.9-0.1-5.9-1.7-8.6
		c1.5-1.3,4-2.3,4.4-3.9c2.6-9.9,4.7-19.9,7-29.9c1.3,0.3,2.5,0.5,3.8,0.8C172.7,248.5,173.9,250.7,180.3,250.9z M141.1,307.3
		c-0.5-0.1-1.1-0.1-1.6-0.2c-0.1,1.6-0.3,3.2-0.4,4.8c0.4,0,0.8,0.1,1.2,0.1C140.6,310.5,140.9,308.9,141.1,307.3z"/>
	<path id="XMLID_2188_" class="st70" d="M227.9,274.4c-0.2,1.3-0.4,2.6-0.6,3.8c-2.3-2-4.7-4.1-7.7-6.7c-0.7,2-1.3,3.6-1.9,5.2
		c-3.4,4.5-3.9,9.7-4.4,15.1c-0.3,1.2-0.6,2.4-0.8,3.3c-3.6-0.9-7-1.6-11.1-2.6c1.1-11.2,2.3-22.4,3.4-33.6c0.6,0.1,1.1,0.2,1.7,0.3
		c1.4,4.8,1.6,4.8,5.8,0.9c2.4-3.3,5.4-0.3,8-0.7c0.9,1.5,1.7,2.9,3.1,5.2c0.7-4.5,0.9-8,1.9-11.3c0.9-3-2.8-7.2,2.7-9.7
		c0.6,1.8,1.8,3.5,1.7,5c-0.5,5.3-1.5,10.6-2.3,15.9C227.7,267.8,227.8,271.1,227.9,274.4z M218.4,267.4c0.2-0.2,0.3-0.5,0.4-0.8
		c-0.2-0.1-0.6-0.4-0.7-0.3c-0.2,0.2-0.3,0.5-0.4,0.8C218,267.3,218.4,267.5,218.4,267.4z"/>
	<path id="XMLID_2187_" class="st71" d="M192.2,304.6c0.5,2.6,0.8,4.3,1.1,6.1c0.6,0.2,1.1,0.4,1.7,0.6c2.1-4.3,4.2-8.7,6.8-14.2
		c-10.3-1.5-12.4-7.6-12.7-15.7c-2,6-5.1,11.9-5.7,18C182.9,304.1,187.5,305.9,192.2,304.6z"/>
	<path id="XMLID_2186_" class="st72" d="M183.4,282.9c5.1-6.9,0.1-14.5,3.8-22.4C180.4,267.4,179.4,274.7,183.4,282.9z"/>
	<path id="XMLID_2185_" class="st66" d="M175.8,242.4c-3.1,6.1-1.9,8.3,4.5,8.5c0.2-1.3,0.4-2.5,0.6-3.8c-0.4-1.5-0.8-2.9-1.3-4.4
		C178.4,242.6,177.1,242.5,175.8,242.4z"/>
	<path id="XMLID_2184_" class="st21" d="M204.9,258.8c0.6,0.1,1.1,0.2,1.7,0.3c0.3-1.9,0.6-3.9,1-5.8c-3.3,0.1-6.7,0.3-10,0.4
		c0.8,2.4,1.8,4.2,4.9,2.6C202.8,256.2,204.1,257.9,204.9,258.8z"/>
	<path id="XMLID_2183_" class="st69" d="M179.7,242.7c0.4,1.5,0.8,2.9,1.3,4.4c0.3-1.9,0.6-3.8,0.9-5.7
		C181.1,241.8,180.4,242.3,179.7,242.7z"/>
	<path id="XMLID_2180_" class="st73" d="M215.4,164.2c-1.4-2.2-2.1-3.2-2.9-4.5c-6.7,1.3-3.1,9.6-8.7,12.1
		c-0.6-6.8-1.2-13.5-1.8-20.3c-0.6-0.1-1.2-0.1-1.8-0.2c-1,6.4-2.1,12.8-3.1,19.2c-0.5,3.3-2.3,2.3-4.1,1.3
		c1.2-7.7,2.4-15.4,3.6-23.1c0.5-3.2,1-6.4,1.6-9.6c-0.5-0.7-1.1-1.5-1.6-2.2c0.3-1.9,0.6-3.8,0.9-5.8c1.2-7.6,2.4-15.2,3.7-23.3
		c5.7-1.5,10.7-2.9,16.5-4.4c-0.9,4-1.5,6.6-2.1,9.2c6.8-6.8,8.1-15.2,7.6-26c2.3,2.5,4.1,3.6,3.9,4.4c-1,5.7-1.6,11.6-3.8,16.9
		c-1.9,4.7-3,8.8-0.7,13.4c-0.3,2.9-0.4,5.7-0.9,8.6c-0.7,4.6-1.4,9.2-2.2,13.9c-0.7,4.1-1.6,8.2-2.5,12.2c-0.1,0.6-0.2,1.3-0.3,1.9
		C216.6,159.5,216.2,161.1,215.4,164.2z M207.7,110.6c-2.7,4-6,7.5-1.2,13.1C206.5,118.9,211.9,115.7,207.7,110.6z"/>
	<path id="XMLID_2179_" class="st74" d="M217,158c-0.4,1.5-0.8,3.1-1.6,6.2c-1.4-2.2-2.1-3.2-2.9-4.5c-6.7,1.3-3.1,9.6-8.7,12.1
		c-0.6-6.8-1.2-13.5-1.8-20.3c-0.6-0.1-1.2-0.1-1.8-0.2c-1,6.4-2.1,12.8-3.1,19.2c-0.5,3.3-2.3,2.3-4.1,1.3
		c-1.9-8.2-0.6-15.9,3.6-23.1c0.5-3.2,1-6.4,1.6-9.6c-0.5-0.7-1.1-1.5-1.6-2.2c0.3-1.9,0.6-3.8,0.9-5.8c-1.4,0.4-2.7,0.9-4.1,1.3
		c-0.3,1.9-0.6,3.8-0.9,5.8c0.5,0.7,1.1,1.5,1.6,2.2c-0.1,0.6-0.2,1.3-0.3,1.9c-0.2,1.3-0.4,2.6-0.7,3.9c-0.9,1.8-1.9,3.6-2.8,5.5
		c-0.2,1.3-0.4,2.6-0.6,3.8c-0.1,0.6-0.2,1.2-0.3,1.9c-2.6,0.5-5.2,1.4-7.8,1.2c-2.8-0.2-2.7,6.4-6.6,2.5c0.1,4.1,0.1,8.2,0.2,12.4
		c5.3,3,11.4,6.5,17.7,10.1c0.9-1.8,1.6-3.2,2.7-5.6c5.1,0.8,10.5,1.7,16.7,2.7C213.8,173.6,220.7,167.1,217,158z"/>
	<path id="XMLID_2178_" class="st75" d="M193.8,142.4c0.1-0.6,0.2-1.3,0.3-1.9c-0.5-0.7-1.1-1.5-1.6-2.2c0.3-1.9,0.6-3.8,0.9-5.8
		c1.6-6.4-0.6-13.3,2.7-19.6c1.5-3,2.1-6.5,3.3-10.7c-1.2-0.8-2.9-2-4.6-3.1c-0.1,0.6-0.2,1.3-0.3,1.9c0.5,0.8,1,1.5,1.6,2.3
		c-1,1.8-1.9,3.6-2.9,5.5c-0.7,1.5-1.5,3.1-2.2,4.6c-0.7-1.1-1.3-2.2-2-3.3c-0.5-0.7-1.1-1.5-1.6-2.2c-1.1-1.5-2.1-3-3.2-4.5
		c0.5,4.3,2,8.8,1.4,12.9c-0.6,4.1-4,7.6-5.2,11.7c-1.3,4.5-1.6,9.3-2.4,13.9c-0.2,1.3-0.4,2.6-0.6,3.8c-0.1,0.6-0.2,1.3-0.3,1.9
		c-0.3,1.9-0.6,3.9-0.9,5.8c2.5,2.7,4.1-0.1,6.1-1c1.1-7,2.2-14,3.4-21c0.8,0.1,1.5,0.1,2.3,0.2c0,3.3,0.1,6.6,0.1,9.9
		c0.8,3.4,1.5,6.9,2.3,10.3c0.9-1.8,1.9-3.6,2.8-5.5C193.3,145,193.6,143.7,193.8,142.4z"/>
	<path id="XMLID_2177_" class="st76" d="M222.9,121.4c-0.3,2.9-0.4,5.7-0.9,8.6c-0.7,4.6-1.4,9.2-2.2,13.9
		c-0.7,4.1-1.6,8.2-2.5,12.2c1.1-0.6,2.2-1.1,3.5-1.8c0,5.1,0,10,0.1,14.8c0.7,0.2,1.3,0.4,2,0.5c1.8-2.9,3.7-5.8,5.5-8.7
		c0.5,0.1,0.9,0.3,1.4,0.4c-0.1,4.2-0.1,8.5-0.2,13.9c3.7-2.7,4.8-5.3,4.8-8.9c0-3.8,0.6-7.6,0.9-11.5c-0.9,0-1.9,0.1-3.8,0.2
		c2.5-6.4-1.5-13.3,3.9-19.1c1.2-1.3-0.1-4.9-0.4-9.2c-4.7,6.7-5,12.9-7,19c-2.6-4.6-3.4-9.6-2.6-14.8
		C225.8,127.5,226.7,123.9,222.9,121.4z"/>
	<path id="XMLID_2176_" class="st76" d="M254.8,144.3c0.1-0.7,0.2-1.3,0.3-2c-2.3,0-5-1.6-5.8,2.7c-0.4,1.9-3.5,3.2-6.1,5.4
		c0.7-12,1.3-22.2,1.9-32.5c-0.7-0.2-1.4-0.4-2.1-0.6c-1.1,1.3-3.3,3.1-3,3.7c4,8.9-2.5,15.9-3.9,23.8c-0.6,3.3-0.5,6.7-0.8,10.1
		c1.3-0.8,2.7-1.6,5.3-3.2c-0.1,5.4-0.1,10.1-0.2,14.7c0.7,0.1,1.4,0.3,2.1,0.4c1-3.4,2-6.8,3-10.2c2.7-1.6,5.4-3.1,8.1-4.7
		C253.9,149.4,254.3,146.9,254.8,144.3z"/>
	<path id="XMLID_2175_" class="st5" d="M194.5,101c0.1-0.6,0.2-1.3,0.3-1.9c0.6-3.4-1.3-3.2-3.5-2.6c-0.2,1.3-0.4,2.6-0.6,3.8
		c-1.1,2.5-2.1,4.9-3.2,7.4c0.5,0.7,1.1,1.5,1.6,2.2c1.4-0.4,2.8-0.9,4.2-1.3c1-1.8,1.9-3.6,2.9-5.5
		C195.6,102.5,195.1,101.8,194.5,101z"/>
	<path id="XMLID_2174_" class="st75" d="M190.6,100.4c0.2-1.3,0.4-2.6,0.6-3.8c0.2-1.3,0.4-2.6,0.6-3.9l0,0
		c-0.4-1.4-0.9-2.8-1.3-4.1c-0.8,0.5-1.5,1-2.3,1.6c-0.4,2.6-0.8,5.1-1.2,7.7C188.3,98.7,189.5,99.6,190.6,100.4z"/>
	<path id="XMLID_2173_" class="st77" d="M331,296.7c-0.6-0.1-1.2-0.1-1.8-0.1c-0.7,3.6-1.7,7.2-2.2,10.8c-0.8,5.5-2,10.6-8.2,12.3
		c4.1,6.9,4.1,6.9-3.1,10.5c0.7-3.4,1.4-6.3,3.1-10.5c2.5-7.3,4.4-15.5,6.3-23.7c-4.5-1.8-6.2,1-7.1,5.4c-3-7.2-7.2-4.2-11.1-2.6
		c0.7,4,2.4,8,1.9,11.9c-0.8,6.9-3,13.7-4.5,20.6c-0.8,3.4-1.3,6.9-1.9,10.4c-1.1,6.4-2.3,12.8-3.4,19.2c2-0.3,4-0.7,6.1-1l0.1,0
		c0.6-7.4,0.6-14.9,1.9-22.1c0.8-4.4-0.1-10.2,6.3-14c-1,6.2-1.8,11.1-2.7,16.7c2.5-0.6,4.2-1.1,5.9-1.5c1.7,2.9,3.5,5.8,5.2,8.7
		c2.1-1,3.5-1.8,5.1-2.5c2.7,7.2,3.1,13.8-0.8,20.1c5.2-2.1,2.8,3.9,5.1,4.8c2.5-10.3,0.1-20.4-1.1-30.6c-6.1-3.3-1.8-9.2-3.2-13.8
		c-0.9-3.2-0.7-6.8,2.8-9.5c1.7-1.3,2.9-4.5,2.9-6.8C332.6,305.1,331.6,300.9,331,296.7z"/>
	<path id="XMLID_2172_" class="st78" d="M331.2,370c-2.4-0.9,0-6.9-5.1-4.8c-0.9,0.8-1.7,1.6-2.4,2.3c-1.9-2-3.4-3.7-5-5.4
		c-0.6,2.2-1.3,4.5-2.2,7.7c-2.6-2.1-4.4-3.6-6.2-5.1l0,0c-1.7,2.4-3.3,4.8-5,7.2c1.2,0.1,3-0.1,3.3,0.5c1.1,2.2,1.7,4.7,2.1,5.8
		c5.2,0.5,9.1,0.9,12.9,1.3c4.2,0.4,8.5,1.1,12.1-4.7c0.3,5.3-1.7,10.8,6.2,11.9c0.6-2.8,1.2-5.7,1.9-8.7c-1.7-0.6-3.4-1.3-5.1-1.9
		c1.3-4.4,2.3-8.3,3.4-12.2c-0.5-1.5-1.1-3-1.9-5.4c-2.7,5.3-5.1,9.8-8.1,15.7C331.6,371.9,331.4,370.9,331.2,370z"/>
	<path id="XMLID_2171_" class="st79" d="M368,312.6c-5.3-2.7-5.3-2.7-6.6,4.9c2.2,2.9,4.4,5.8,6.3,8.3c-1.9,5.2-4.2,9.6-5,14.2
		c-0.9,4.5-0.4,9.3,0.9,14.2c2.2-8,4.3-16,6.8-24c0.4-1.2,2.2-2,3.3-3c-1.4-2.8-3-5.6-4.2-8.5C368.6,316.9,368.4,314.7,368,312.6z"
		/>
	<path id="XMLID_2170_" class="st80" d="M357.5,316.9c-3.8-0.9-6.4,0.2-6.5,4.4c-0.1,4.3,0.2,8.6,0.4,14.3
		c5.8-5.4,4.2-11.7,5.9-16.8C357.3,318.2,357.4,317.5,357.5,316.9z"/>
	<path id="XMLID_2169_" class="st81" d="M349.4,305.7c0.1-0.6,0.2-1.2,0.2-1.9c-2.1,1.3-4.2,2.6-6,3.7c0.3,5.8,0.6,10.8,0.9,15.8
		c0.7,0,1.4,0.1,2.1,0.1C347.5,317.5,348.5,311.6,349.4,305.7z"/>
	<path id="XMLID_2168_" class="st79" d="M357.5,316.9c-0.1,0.6-0.2,1.3-0.2,1.9c0.8,1.5,1.6,3,2.7,5.3c0.6-2.7,1-4.6,1.4-6.6
		c-0.8-3.4-1.5-6.9-2.3-10.3C358.5,310.5,358,313.7,357.5,316.9z"/>
	<path id="XMLID_2167_" class="st82" d="M376.9,294c0.7-0.4,1.4-0.9,2.2-1.3c-1.9-3.6-3.7-7.3-5.2-10.2c-2.6,0-5.1-0.1-7.8-0.1
		c1.8-5.2,3.2-9.2,4.7-13.2c-7.6-2-4.7,7-9.9,8.1c-0.6-5.6-0.9-10.1,5.9-11.4c1.2-0.2,2.7-2.7,3-4.4c2.1-11.3,4.2-22.6,5.8-34
		c0.8-5.4,0.6-10.9,0.8-16.4l0,0c-3.9,6.6-5,14.7-11.1,20c1.3,1.8,3.8,3.6,3.7,5.3c-0.4,6.3-1.5,12.5-2.6,18.7c-0.4,2.1,1,5.4-4.2,6
		c0.8-4.9,3.2-9.9,1.8-13.5c-2.4-6.2-0.3-11.1,1.2-16.5c-0.7-0.1-1.3-0.2-2-0.3l0,0c-0.7,0.5-1.5,1.1-2.2,1.6l0,0
		c-0.1,0.7-0.3,1.3-0.4,2l-0.1,0.9l-0.1,0.9c-0.3,1.8-1.3,3.7-0.9,5.3c1.9,7.1,0.3,13.7-2.3,20.3c-0.9,2.3-1.4,4.8-2,7.3
		c0.6,0.1,1.3,0.2,1.9,0.3c3.4,3.2,1.3,5.5-1.2,7.7l0,0c0.3,1.5,0.5,3,0.8,4.5c1.9,1.4,3.8,2.9,5.7,4.3
		C369.1,285.5,373.1,289.6,376.9,294z"/>
	<path id="XMLID_2166_" class="st83" d="M356.8,281.6c-0.3-1.5-0.5-3-0.8-4.5c-5.9-1.8-10.8-4.9-14.2-10c-1.3-0.3-2.5-0.6-3.8-0.9
		c-0.1,0.6-0.2,1.1-0.3,1.7C343.8,272.7,348.8,279.3,356.8,281.6z"/>
	<path id="XMLID_2165_" class="st84" d="M335.7,267.3c-0.6-0.1-1.3,0-1.9,0.2c1.2,0.4,2.4,0.9,3.6,1.3
		C336.9,268.3,336.3,267.8,335.7,267.3z"/>
	<path id="XMLID_2164_" class="st85" d="M100.1,147.2c-2.1,3-4.2,6.1-6.6,9.4c-0.8-3.5-1.4-6.6-2.5-11.8c-1,3.4-1.5,5.1-2,6.7
		c-0.6,0.1-1.2,0.2-1.7,0.3c-0.4-4.5-0.7-9.1-1.1-13.6c-0.8-0.2-1.5-0.3-2.3-0.5c-2,4.6-3.9,9.3-5.9,13.9c-0.4,0-0.9-0.1-1.3-0.1
		c-0.2-4.1-0.4-8.2-0.6-12.3c-0.5-0.1-1-0.1-1.5-0.2C71,147,67.5,155,64,163.1c3.2,0.8,3.2,3,3.1,5.8c-0.2,3.4,0.2,6.8,0.4,10.2
		c0.7-0.4,1.4-0.8,2.1-1.3c0.9-6.3,3.5-11.8,6.5-17.2c0.7,0.2,1.4,0.3,2,0.5c-0.7,4.6-1.5,9.2-2.2,13.8c1.5-0.9,3.2-1.6,4.3-2.8
		c3.2-4,6.2-8.1,9.3-12.2c1.6,2.7,1.3,4.8,1.8,6.7c0.2,0.7,2.2,1,3.4,1.5c1.8-6.9,3.6-13.9,5.4-20.8L100.1,147.2z"/>
	<path id="XMLID_2163_" class="st86" d="M69.6,177.8c-0.7,0.4-1.4,0.8-2.1,1.3c-0.2-3.4-0.6-6.8-0.4-10.2c0.1-2.8,0.1-5-3.1-5.8
		c-1.7,5.3-3.4,10.6-5.1,16c-0.5,0-1.1-0.1-1.6-0.1c-0.1-2.5-0.1-5-0.2-7.5c-0.6-0.1-1.3-0.2-1.9-0.4c-1.9,7.1-3.8,14.2-5.7,21.3
		c1.2,0.3,2.5,0.5,4.3,0.9c0.1,3.8,0.2,7.5,0.3,11.3c1.2-5.8,9-3.6,11.6-8.8c0.1,1.7,0.2,3.4,0.3,5.2c6.7,0.7,5.2-3.8,4.6-7.5
		c-0.2-1.6-1.5-4.2-1-4.5C74.9,185.2,71.6,181.5,69.6,177.8z"/>
	<path id="XMLID_2162_" class="st55" d="M12.1,166.7c-4.4,10.8,4.3,17,8.2,25.1c5.5-0.9,4-10,10.8-8.2c1.5-4.8,2.8-9.4,1.4-14.9
		c-1-3.6,0.8-8.2,2.1-12.1c1-3.4,3.2-6.4,0.6-9.9c-3.7,6.6-7.4,13.3-11.4,20.4c-0.5-0.3-2.1-1.1-4.4-2.2C18.1,168,17,171,15.2,176
		C13.7,171.6,12.9,169.1,12.1,166.7z"/>
	<path id="XMLID_2161_" class="st86" d="M34.7,186.1c2.3,1.7,3.5,3.5,1.9,6.5c-1.1,2.2-1.5,4.8-2.2,7.3l0,0c1.5-1.1,3-2.2,4.4-3.2
		c1.2-3.3,2.2-6.8,3.8-9.9c0.9-1.8,2.9-3.1,4.5-4.6c1.6-6.8-2.2-10.9-8.2-15.1C37.4,173.8,36,180,34.7,186.1z"/>
	<path id="XMLID_2160_" class="st47" d="M105.1,165.7c3.6-5.1,5.4-10.7,4.8-17c-1.9-0.6-3.8-1.3-5.7-1.7c-1.3-0.2-2.7,0-4,0.1
		l0.1,0.1c4.7,3.6,2.9,7.8,1,12c-2.3,5.1-3.1,10.3-1.3,16C101.7,172.1,103.4,168.9,105.1,165.7z"/>
	<path id="XMLID_2159_" class="st86" d="M46.6,186c-1.2,4.7-2.4,9.5-3.7,14.8c6.3-0.6,5.8-5,6.5-8.4C48.5,190.3,47.5,188.1,46.6,186
		z"/>
	<path id="XMLID_2158_" class="st12" d="M42.7,147.9c-6,0.6-4.8,4-1.8,8.1C41.5,153.3,42.1,150.6,42.7,147.9L42.7,147.9z"/>
	<path id="XMLID_2157_" class="st86" d="M32.1,189.6c0.8-1.2,1.7-2.4,2.5-3.5C33.8,187.3,33,188.5,32.1,189.6z"/>
	<path id="XMLID_2156_" class="st55" d="M30.8,185.4c-0.7,0.6-1.4,1.1-2.2,1.7C29.3,186.5,30.1,186,30.8,185.4z"/>
	<path id="XMLID_2155_" class="st86" d="M47.1,182.2c-0.1,0.6-0.2,1.3-0.3,1.9C46.9,183.4,47,182.8,47.1,182.2z"/>
	<path id="XMLID_2154_" class="st9" d="M112.5,145.2c0.6-0.4,1.2-0.9,1.8-1.3C113.7,144.3,113.1,144.7,112.5,145.2z"/>
	<path id="XMLID_2153_" class="st74" d="M188.1,141.5c0-3.3-0.1-6.6-0.1-9.9c-0.8-0.1-1.5-0.1-2.3-0.2c-1.1,7-2.2,14-3.4,21
		c0.3,1.1,0.6,2.3,0.9,3.4c0.7,0.1,1.3,0.1,2,0.2C186.1,151.2,187.1,146.3,188.1,141.5z"/>
	<path id="XMLID_2152_" class="st74" d="M176.2,153.4c0.3-1.9,0.6-3.9,0.9-5.8c0.1-0.6,0.2-1.3,0.3-1.9c0.2-1.3,0.4-2.6,0.6-3.8
		c-1.5,1.1-3.2,2-4.4,3.3C170.2,149.2,171.1,152,176.2,153.4z"/>
	<path id="XMLID_2151_" class="st1" d="M190.6,100.4c-1.2-0.9-2.3-1.7-3.5-2.6c-1,1.8-1.9,3.7-2.9,5.5c1.1,1.5,2.1,3,3.2,4.5
		C188.5,105.4,189.6,102.9,190.6,100.4z"/>
	<path id="XMLID_2150_" class="st74" d="M170.8,162.5c0.9-1.2,1.7-2.4,2.6-3.5C172.5,160.1,171.7,161.3,170.8,162.5z"/>
	<path id="XMLID_2149_" class="st74" d="M173.4,159c0.6,0.1,1.2,0.2,1.9,0.3c-0.2-0.9-0.3-1.8-0.5-2.7
		C174.3,157.4,173.8,158.2,173.4,159z"/>
	<path id="XMLID_2148_" class="st75" d="M189.4,157.5c0.1-0.6,0.2-1.2,0.3-1.9C189.6,156.2,189.5,156.9,189.4,157.5z"/>
	<path id="XMLID_2147_" class="st87" d="M259.9,358.5c0.5,4.3,0,8.7,4.8,11.7c2.1,1.3,2.7,4.9,4,7.4c1.3-3.2,2.5-6.4,4.1-10.5
		c1,3.8,1.6,6.4,2.6,10.2c2.8-2.6,4.6-4.3,6.9-6.4c0.6,5,1.1,9.4,1.7,15c1.8-1.7,2.7-2.5,3.6-3.2c-0.1-3.3-0.2-6.6-0.4-9.9l0-0.1
		c-0.3-2-0.7-4-1-6l0,0c-1.7-6.8-9.8-3.6-12.7-10.2c-1.8,5.2-3,8.6-4.2,11.9c-0.6-0.1-1.2-0.1-1.8-0.2c-0.1-3.8-0.2-7.6-0.3-11.1
		C263.9,355,263.4,362.7,259.9,358.5L259.9,358.5z"/>
	<path id="XMLID_2144_" class="st78" d="M304.9,373.6c-1.6,5.1-7,0.2-8.8,4.4c-1.8-3.3-3-5.7-4.4-8.1c-1.9,1.2-3.2,2.1-4.5,3l0-0.1
		c-0.3-2-0.7-4-1-6l0,0c1.3-3.7,2.5-7.5,3.8-11.2l0,0c1.2,0.8,2.4,1.7,3.5,2.5c-0.2,1.3-0.4,2.5-0.6,3.8c0.4,1.4,0.8,2.8,1.2,4.2
		c2.6,0.1,3.1-0.5,4.8-5.2c2-0.3,4-0.7,6.1-1C305.1,364.5,305,369,304.9,373.6z M299.9,370.8c0.3,0.1,0.6,0.1,0.8,0.2
		c0.3-1.9,0.6-3.9,0.9-5.8c-0.3,0-0.6-0.1-0.8-0.2C300.5,366.9,300.2,368.8,299.9,370.8z"/>
	<path id="XMLID_2143_" class="st77" d="M305.1,359.9c-0.1,4.6-0.2,9.2-0.2,13.7c0.1-0.6,0.2-1.2,0.4-1.8c1.7-2.4,3.3-4.8,5-7.2
		C308.6,363,306.9,361.4,305.1,359.9L305.1,359.9z"/>
	<path id="XMLID_2142_" class="st88" d="M105.1,165.7c-1.7,3.2-3.4,6.3-5.1,9.5c-1.9-5.7-1-10.9,1.3-16c1.9-4.2,3.7-8.3-1-12
		c-1.8,6.9-3.6,13.9-5.4,20.8c-0.1,3.5-0.5,7-0.3,10.5c0.2,3.8-1.4,5.3-5.5,5.1c-0.8-2.3-1.7-4.7-2.9-7.9c-1.1,4.3-2,7.5-3,11.4
		c-4.8-3.6-8.2-6.6-7.2-12.3c0.7-4.6,1.5-9.2,2.2-13.8c-0.7-0.2-1.4-0.3-2-0.5c-3,5.3-5.6,10.9-6.5,17.2c2,3.7,5.3,7.3-0.1,11.1
		c-0.5,0.3,0.8,2.9,1,4.5c0.6,3.8,2.1,8.2-4.6,7.5c1,2.1,1.9,4.3,2.9,6.4l0,0c2.2,1.6,4.4,3.2,7.3,5.5c1.4-4.1,2.6-7.7,3.9-11.3
		c0.3,0,0.6,0,0.9,0c0,2.1-0.1,4.3,0.2,6.3c0.4,3.2,2.7,2.9,5,2.3l0,0c0.9-3.9,0.6-8.3,2.7-11.9c0.7,0.1,1.5,0.3,2.2,0.4
		c-0.1,2.7-0.3,5.4-0.4,8.1l0,0c0.6,0.7,1.2,1.5,1.9,2.2c8.4-3.7,8.7-4.4,7.7-12.6c-0.3-2.5,1-5.2,1.4-7.8
		C102.8,181,103.9,173.4,105.1,165.7z"/>
	<path id="XMLID_2141_" class="st89" d="M66.7,232.7c2.2,1,4.5,2,6.7,3c0.1,0.6,0.1,1.3,0.2,1.9c6.5-2.9,12.9-5.8,19.4-8.7
		c-4.4-1-5.3-4-4.6-8c0.8-4.7,1.5-9.4,2.3-14.2l0,0c-1.5,1.1-3,2.2-4.5,3.3l0,0c-0.5,2.1-1,4.3-1.8,7.3c-1.9-1.2-3.1-2-5.6-3.6
		c-1.5,5.3-2.9,10.3-5,17.3c-1.2-3.7-1.6-5.2-2.1-6.8C66.8,225.3,67.5,229.5,66.7,232.7z"/>
	<path id="XMLID_2140_" class="st88" d="M68.8,207.4c-4.7,2.6-5.3,5.4-2,13.4C69.5,216.1,69.2,211.7,68.8,207.4L68.8,207.4z"/>
	<path id="XMLID_2139_" class="st18" d="M38.9,196.6c-1.5,1.1-3,2.2-4.4,3.2c0.4,1.1,0.8,2.1,1.1,3.2c0.8-0.7,2-1.2,2.4-2
		C38.6,199.7,38.6,198.1,38.9,196.6z"/>
	<path id="XMLID_2138_" class="st18" d="M33.2,207.6c-0.4,1.7-0.9,3.3-1.5,5.5C35.5,210.9,35.5,210.9,33.2,207.6L33.2,207.6z"/>
	<path id="XMLID_2137_" class="st58" d="M254.8,144.3c-0.4,2.5-0.8,5.1-1.3,7.6c0.6,1,1.1,2,2.4,4.5c1-3.5,1.5-5.6,2.1-7.8
		c0.5-3.1,1-6.3,1.8-11C257.5,140.8,256.1,142.6,254.8,144.3z"/>
	<path id="XMLID_2136_" class="st58" d="M253,167.7c5.6-0.2,6.4-5.4,9.2-8.6c-0.6,0-1.2-0.1-1.9-0.2
		C254.7,159.2,253.9,163.6,253,167.7z"/>
	<path id="XMLID_2135_" class="st58" d="M250.4,171.3c0.8-1.2,1.7-2.4,2.5-3.5C252.1,168.9,251.3,170.1,250.4,171.3z"/>
	<path id="XMLID_2134_" class="st90" d="M106.3,219.3c2.2-1.7,4.5-3.3,6.7-5c-2.7-4.5-0.2-8.5,0.8-12.8c1.3-6,4.2-11.8,2.3-18.2
		c-1.1-1.5-2.2-3-3.2-4.5l0,0c-2,2.7-4,5.4-6.2,8.4c2.7,1.4,4.3,2.2,6.1,3.1C107.1,199.5,102.1,208.5,106.3,219.3z"/>
	<path id="XMLID_2133_" class="st91" d="M116.1,183.3c2,6.4-0.9,12.2-2.3,18.2c-1,4.3-3.5,8.4-0.8,12.8l0.1,0
		c0.7-0.6,1.4-1.1,2.1-1.7c0.8-2.4,1.6-4.8,2.4-7.2c0.4-1.1,0.5-3.1,1.1-3.2c6.9-1.4,4.7-7.5,6.1-11.6c-3.6-0.8-5.3-2.9-4.8-6.7
		C118.7,183.8,117.4,183.5,116.1,183.3z"/>
	<path id="XMLID_2132_" class="st90" d="M120,184c-0.5,3.8,1.2,5.9,4.8,6.7l0,0c-0.3-4.7-2-9.6,2.2-13.5l0,0
		c-1.5,1.1-3.1,2.1-4.4,3.4C121.5,181.5,120.8,182.8,120,184z"/>
	<path id="XMLID_2131_" class="st90" d="M112.9,178.9c6.3-0.9,0.8-5.2,1.2-7.7C113.7,173.7,113.3,176.3,112.9,178.9L112.9,178.9z"/>
	<path id="XMLID_2130_" class="st92" d="M360.5,236.2l0.1-0.9l0.1-0.9c0.1-0.7,0.3-1.3,0.4-2l0,0c0.7-0.5,1.5-1.1,2.2-1.6l0,0
		c-1.8-11,1.9-32,6.7-37.2c2.8,5.6-3.6,11.9,1.8,18.2c0.8-3.4,1.2-5.9,1.9-8.3c0.7-2.4-0.5-6,5.1-7.3c-0.9,5.6-1.7,10.3-2.4,15l0,0
		c2.8,0.1,5.6,0.2,8.4,0.3c0.8,2.3,1.5,4.5,2.9,8.6c3.6-6.3,6.2-10.9,8.8-15.5c1.4,3.4-2.1,8.8,3.4,11.3c1.6-2,3-3.7,5.1-6.4
		c1.2,5.9,2.1,10.2,2.9,14.6c3.8,0.6,7.7,1.2,11.5,1.8c0.9-1.2,1.7-2.3,2.6-3.5c-1.2-0.9-2.4-1.7-3.5-2.6c-0.3,0.1-0.6,0.2-0.9,0.3
		c0.3-0.1,0.6-0.2,0.9-0.3c-0.4-0.5-0.8-1.4-1.2-1.4c-7.9,0.2-9.1-0.9-9-8.5c0-1.9,0.5-3.9,0.1-5.7c-0.2-0.9-1.8-1.5-2.8-2.3
		c-1.8,1.3-3.6,2.6-5.7,4.3c-0.1-7.3-0.2-13.2-0.3-19.2c-2.9,6.4-2.9,13.7-9.5,18.4c0.8-2.5,1.6-5.1,2.4-7.6l0-0.1
		c-0.4-1.4-0.8-2.7-1.1-4.1c0.3-1.9,0.5-3.9,0.8-5.8c-0.7-3.3-1.4-6.5-2.4-11.4c-4.7,3.3-8.6,6-12.3,8.5c-1-1.9-2.4-4.5-4-7.5
		c-2.1,3.3-3.4,5.6-4.8,7.8c-0.7-0.2-1.4-0.3-2.1-0.5c0-3.6,0.1-7.2,0.1-10.9c-6.9,2-5.5,7.9-6,12.9c1.3,0.8,3.9,1.7,3.8,2.5
		c-0.4,6.3,0,13.1-2.5,18.5c-1.7,3.8-2.7,7.5-1.8,10.8c1.4,5.2-1.5,7.8-4.3,10.8C355.3,233.2,356.7,235.6,360.5,236.2z"/>
	<path id="XMLID_2127_" class="st93" d="M398.1,177.9c0.2-0.8-2.6-2.3-3.9-3.4l0,0c2.6-4.2,5.3-8.4,7.9-12.5
		c11.3,2.1,15.5,12.4,22.5,19.4c-0.1,5.1,0.4,10.2-0.4,15.1c-0.6,3.9-2.9,7.4-4.3,11.1c-3.3-0.9-5.8-1.6-8.2-2.2
		c-0.3-2.6-0.7-5.3-1.3-10.2c-2.5,3.6-3.7,5.2-4.9,6.9c-1.8,1.3-3.6,2.6-5.7,4.3c-0.1-7.3-0.2-13.2-0.3-19.2
		c-2.9,6.4-2.9,13.7-9.5,18.4c0.8-2.5,1.6-5.1,2.4-7.6C394.4,191.3,396.5,184.7,398.1,177.9z M409.8,190c2.3,2,4.1,3.6,6.3,5.5
		c-0.5,2.1-1.1,4.4-1.7,6.8c0.5,0.2,0.9,0.4,1.4,0.6c1.5-2.8,3-5.7,4.7-8.9c-2-2.5-3.9-4.9-6.1-7.5
		C412.8,187.7,411.6,188.6,409.8,190z"/>
	<path id="XMLID_2126_" class="st94" d="M442.4,231.7c0.1-0.7,0.1-1.3,0.2-2c-0.9,0.1-2.4,0-2.6,0.4c-1.6,4.5-3.6,1.1-5.4,0.3
		c-0.1,0.7-0.2,1.3-0.4,2c-0.8,6.1-2.7,12.3-0.1,17.9c2.8-3,5.6-5.9,8.4-8.8l0.1-0.9l0.2-0.9c-0.3-2-0.5-4.1-0.8-6.1l0.1-0.9
		L442.4,231.7z"/>
	<path id="XMLID_2125_" class="st95" d="M434.2,232.4c0.1-0.7,0.2-1.3,0.4-2c-3-2.5-5.8-5.1-8.9-7.5c-0.9-0.6-2.4-0.3-3.6-0.5
		c-0.9,1.2-1.7,2.3-2.6,3.5l0,0c0.3,2,0.7,4,1,6.1C429.1,233.7,430.9,233.7,434.2,232.4z"/>
	<path id="XMLID_2124_" class="st64" d="M252.6,268.4c-0.1-3.3-0.2-6.6-0.4-9.9c-5.7-1.2-9.7-5.5-14.6-8.2
		c-0.7,8.4-1.4,16.9-2.1,25.3c-0.4,2.6-0.8,5.1-1.2,7.7c1.3,0.2,3.4,0.9,3.7,0.5c1.8-3,3.2-6.2,5.2-10.4c0.7,2.3,1.9,4.3,1.4,5.3
		c-3.2,5.3-2.5,11-2.7,16.8c-0.2,5.3-2.8,10.4-4.2,15.7c-0.4,1.5-0.8,3-0.8,4.5c0.1,1.2,0.8,2.5,1.3,3.6c3-1.2,4.8-1.9,6.5-2.5
		c2.1-4.3,4.1-8.5,6.2-12.8c4.6-9.3,5.8-18.9,2.6-29C252.8,273,252.9,270.6,252.6,268.4z"/>
	<path id="XMLID_2123_" class="st96" d="M234.4,283.3c0.4-2.6,0.8-5.1,1.2-7.7c-0.3-3.9-0.7-7.8-1-11.7c-0.3-0.1-0.7-0.1-1-0.2
		c-0.7,4.4-1.4,8.9-2.1,13.3c-0.5,3.2-2.4,2.1-4.1,1.2c-2.3-2-4.7-4.1-7.7-6.7c-0.7,2-1.3,3.6-1.9,5.2c3.2,1.1,6.4,2.2,2.9,6.5
		c-0.7,0.9-1.7,2.3-1.5,3.1c2.1,7.5-1.4,13.6-4.5,19.8c-1.5,3-1.2,5.4,1.1,7.7c1.2-2.5,2.3-5.1,3.6-8c0.8,1.3,1.5,2.2,2.1,3.1
		c4-6.5,4-6.5,8.2-8.7C231.3,294.6,232.8,289,234.4,283.3z"/>
	<path id="XMLID_2122_" class="st97" d="M229.8,300.3c-4.3,2.2-4.3,2.2-8.2,8.7c-0.6-0.9-1.3-1.9-2.1-3.1c-1.3,2.9-2.5,5.4-3.6,8
		c4.7,2,4.7,2,11.7,0.5C228.3,309.7,229,305,229.8,300.3z"/>
	<path id="XMLID_2121_" class="st37" d="M213.7,325.4c4,0.5,4.4-2.3,4.9-5.2c-1.6-2.2-3-2-3.9,0.5
		C214.2,322.3,214.1,323.9,213.7,325.4z"/>
	<path id="XMLID_2117_" class="st98" d="M408.1,240.5c0.7,0,1.9,0,3.1,0c-0.1,0.7-0.2,1.3-0.3,2c-0.1,0.6-0.2,1.3-0.3,1.9
		c-1.5,1.5-2.9,3-4.4,4.6c-2.1-3.6-4-6.8-6.6-11.2c-4.9,7.9-1.8,14.4-1.1,20.6c-2.4,2.2-4.4,4.1-6.5,6c0.5,0.2,1,0.3,1.5,0.5
		c-1.1,6.6-2.1,13.2-3.2,19.7c-2.2,1-4.3,2-6.2,2.9c-0.9,5.2,4,9.8-0.1,15.2c-1.9-3.9-3.4-7-4.9-10.1c-1.9-3.6-3.7-7.3-5.2-10.2
		c-2.6,0-5.1-0.1-7.8-0.1c1.8-5.2,3.2-9.2,4.7-13.2c-7.6-2-4.7,7-9.9,8.1c-0.6-5.6-0.9-10.1,5.9-11.4c1.2-0.2,2.7-2.7,3-4.4
		c2.1-11.3,4.2-22.6,5.8-34c0.8-5.4,0.6-10.9,0.8-16.4c2.8,0.1,5.6,0.2,8.4,0.3c0.8,2.3,1.5,4.5,2.9,8.6c3.6-6.3,6.2-10.9,8.8-15.5
		c1.4,3.4-2.1,8.8,3.4,11.3c1.6-2,3-3.7,5.1-6.4c1.2,5.9,2.1,10.2,2.9,14.6C408,229.5,408.1,234.7,408.1,240.5z M390.6,251.3
		c1.5-6,2.1-12.2,2.4-18.5c-3,4.2-6.5,7.2-5.3,14.1c1.2,6.8-1.8,14.4-3.1,22.3C391.4,264.3,389.1,257.2,390.6,251.3z M375.5,267.9
		c4.7-5.9,7-10.7,3-18.8C377.3,256.3,376.5,261.4,375.5,267.9z"/>
	<path id="XMLID_2116_" class="st48" d="M410.9,242.5c-0.1,0.6-0.2,1.3-0.3,1.9c-0.8,8.2,1.7,16.4-0.4,24.5c-0.1,0.3,1.4,1,2.2,1.5
		c1.2-4.5,3.3-9,3.5-13.5c0.2-4.7-1.6-9.6-2.5-14.5C412.8,242.3,411.9,242.4,410.9,242.5z"/>
	<path id="XMLID_2115_" class="st93" d="M366.5,174.1c0,3.6-0.1,7.2-0.1,10.9c0.7,0.2,1.4,0.3,2.1,0.5c1.4-2.2,2.8-4.5,4.8-7.8
		c1.6,3,3,5.5,4,7.5c3.6-2.5,7.6-5.2,12.3-8.5c1,4.8,1.7,8.1,2.4,11.4c0.7-4.5,1.4-9,2.2-13.5l0,0c-3.4-0.2-1.6-5.7-7.4-5.6
		c-5.2,0.1-7.6,0.6-10,4.9c-0.1-3.7-0.3-7.4-0.4-11.2c-0.7,0-1.5,0-2.2-0.1c-0.5,2.2-0.9,4.4-1.5,7.4c-1.1-0.5-2.1-0.9-3.2-1.4
		l-0.1,0C368.4,170.5,367.5,172.3,366.5,174.1z"/>
	<path id="XMLID_2114_" class="st93" d="M369.5,168.6c-0.3-2-0.7-4-1-6.1l-0.1,0.1c0.3,2,0.7,4,1,6.1L369.5,168.6z"/>
	<path id="XMLID_2113_" class="st13" d="M210.5,335.1c0.8-0.6,1.5-1.2,2.3-1.7c0-0.7,0.1-1.4,0.1-2.1c-1-0.4-2-0.8-3-1.2
		C210.2,331.7,210.4,333.4,210.5,335.1z"/>
	<path id="XMLID_2112_" class="st37" d="M213,331.2c0,0.7-0.1,1.4-0.1,2.1c0.7-0.6,1.3-1.2,2-1.8C214.2,331.4,213.6,331.3,213,331.2
		z"/>
	<path id="XMLID_2111_" class="st67" d="M131.9,306.4c1.4-1.7,2.9-3.4,4.5-5.3c-5.5-7.9-7-15.9,0.1-23.6c1.3-6.7,1.5-13.7,4.8-20.2
		c1.4,1.4,2.5,3,2.2,4.2c-1.5,5.5-3.3,10.9-5.1,16.3c0.1,3.7-0.1,7.4,0.2,11.1c0.3,3.7,0.9,7.4,1.8,11c0.1,0.5,2.7,0.4,4.2,0.6
		c0.1-0.6,0.2-1.3,0.3-1.9c-0.7-7.6-1.5-15.2-2-22.8c-0.1-0.9,1.4-1.9,2.1-2.9c1.4-4.4,2.8-8.7,4.2-13.1c0.4-2.5,0.4-5.1,1.4-7.3
		c0.7-1.6,2.9-2.5,4.4-3.7c0.3-1.9,0.6-3.7,0.8-5c-3.2,0.7-5.8,1.6-8.6,1.8c-8.4,0.7-9.4,1.9-9.6,10.3c-0.1,3.8-1.1,7.6-2.7,11.6
		c-0.7-4.3-1.3-8.5-2-13.4c-1.9,2.2-3.7,4.2-5.5,6.2c-3.6,3.1-5.6,6.9-6,11.8c-0.4,4.8-1.4,9.6-2.1,14.5c5.9,4.2,4.3,11.5,7.1,17
		C128.3,304.5,130.1,305.4,131.9,306.4z"/>
	<path id="XMLID_2110_" class="st66" d="M160.6,275.4c1.5-1.3,4-2.3,4.4-3.9c2.6-9.9,4.7-19.9,7-29.9c0.2-1.9,0.4-3.8,0.6-5.7
		c-1,1.2-2,2.3-3,3.5c-1-1.2-2-2.5-3-3.7c-0.9,1.4-2.2,2.6-2.5,4.1c-0.7,3.4-0.9,6.9-1.3,10.4c1.7,5.3,3.5,10.6-0.6,15.6
		c-0.1,0.6-0.2,1.3-0.3,1.9C161.4,270.3,161,272.9,160.6,275.4z"/>
	<path id="XMLID_2109_" class="st99" d="M161.8,267.7c0.1-0.6,0.2-1.3,0.3-1.9c-1-2.2-2-4.3-3-6.5c-4.6,1.4-5.5-0.8-4.8-4.8
		c0.3-1.9,0.4-3.8,0.7-5.7c-1.5,1.2-3.6,2.1-4.4,3.7c-1,2.2-1,4.8-1.4,7.3c0.8,7.4,1.6,14.7,2.4,22.1c0.6,0.1,1.3,0.2,1.9,0.3
		c1-3.3,1.7-6.7,2.9-10C157.4,269.9,158.4,267.2,161.8,267.7z"/>
	<path id="XMLID_2108_" class="st0" d="M159.2,259.3c1,2.2,2,4.3,3,6.5c4.1-5.1,2.3-10.4,0.6-15.6
		C161.6,253.2,160.4,256.3,159.2,259.3z"/>
	<path id="XMLID_2107_" class="st100" d="M207.6,253.3c-0.3,1.9-0.6,3.9-1,5.8c1.4,4.8,1.6,4.8,5.8,0.9c-2.7-8.8-1.3-17.8-1.3-26.7
		c-1.4,4-2.8,8-4.3,12C207.1,248,207.4,250.7,207.6,253.3z"/>
	<path id="XMLID_2106_" class="st96" d="M227.6,264.4c0.1,3.3,0.2,6.6,0.3,10C227.8,271.1,227.7,267.8,227.6,264.4z"/>
	<path id="XMLID_2105_" class="st62" d="M293.6,358c-0.2,1.3-0.4,2.5-0.6,3.8c0.4,1.4,0.8,2.8,1.2,4.2c2.6,0.1,3.1-0.5,4.8-5.2
		c1.1-6.4,2.3-12.8,3.4-19.2c0.6-3.5,1.2-6.9,1.9-10.4c1.5-6.9,3.6-13.6,4.5-20.6c0.5-3.8-1.2-7.9-1.9-11.9c-5,0.4-8,1.7-7.9,8
		c0,3.9-3.2,7.8-5,11.7c-0.9,0.1-1.7,0.2-2.6,0.3c0.9-0.1,1.7-0.2,2.6-0.3c0.6-3.7,1.5-7.4,1.5-11.1c0-1.6-1.9-3.3-2.9-4.9
		c-1.7,2.3-3.4,4.6-5.1,6.9c-0.6,6-1.1,12-1.7,18.1c-1.1,0.4-2.2,0.8-3.2,1.2c0.1-1.9,0.1-3.9,0.2-5.8c-0.6,0.3-1.3,0.7-1.9,1
		c-1.6,2.9-3.2,5.8-5.5,10c-1.2-3-1.6-4.9-2.7-6.1c-0.7-0.9-2.4-0.9-3.6-1.4l0,0c1.8,5.6,1.1,10.7-2.5,15.4l0.1,0.1
		c1,1.7,2.1,3.4,3.1,5.1c0.9,1.7,1.7,3.4,3.5,6.9c1.9-5.6,3.1-9.2,4.3-12.8c0.6,0.1,1.1,0.3,1.7,0.4c0.1,4.4,0.2,8.8,0.3,13.3
		c0.5,0.1,1,0.1,1.5,0.2c2.2-4.3,4.4-8.6,7.2-14c2.3,4.6,0.8,7.4-0.3,10.4c-0.3,1,1.4,2.7,2.2,4.1l0,0c1.2-3.1,2.5-6.2,3.7-9.3
		c0.7,0.2,1.3,0.4,2,0.6C293,350.3,298.8,354.8,293.6,358z"/>
	<path id="XMLID_2104_" class="st101" d="M325.2,296.1c-1.9,8.2-3.9,16.4-5.8,24.6c5.6-2.7,6.8-7.8,7.6-13.2
		c0.5-3.6,1.5-7.2,2.2-10.8C327.8,296.4,326.5,296.2,325.2,296.1z"/>
	<path id="XMLID_2103_" class="st90" d="M115.2,212.7c-0.7,0.6-1.4,1.1-2.1,1.7c0.6,0.2,1.3,0.3,1.9,0.4
		C115.1,214.1,115.1,213.4,115.2,212.7z"/>
	<path id="XMLID_2100_" class="st92" d="M305.4,223.5c0.1-0.6,0.2-1.2,0.2-1.8c1.6-14.2,3.3-28.5,4.9-42.7c0.8,0.9,1.7,1.8,3,3.2
		c0.9-3.3,1.6-6.1,2.5-9.4c3.1,2.6,5.1,6.7,8.9,2.6c-0.7,7.8-4,15.6-0.7,24.7c0.8-2.8,1.3-4.8,1.9-6.7c0.7,1.3,1.3,2.9,2.3,4
		c0.6,0.6,1.9,0.6,2.8,0.8c0,1.7,0.6,3.6,0,5c-1,2-2.8,3.7-3.6,5.9c10-3.3,8.8-11.8,9.3-19.5c0.3-4.2,2.2-9.4-4.5-10.9l0,0
		c2.2-6.5,4.3-13.1,6.7-19.5c0.2-0.5,1.6-0.5,2.5-0.7l0,0c0.2,3.4,0.4,6.9,0.6,11.2c1.8-2.2,3-3.6,4-4.9c3.6,1.8,6.9,3.5,10.9,5.6
		c-0.6,10.3-1.3,20.9-1.9,31.8c1.6-3.2,3.1-6.2,4.5-9.1c-2.6,9.6-5.1,19.1-7.7,28.7c-0.8-0.1-1.7-0.3-2.5-0.4
		c1.9-11.6,3.7-23.1,5.6-34.7c-4.4,5.9-8.6,11.5-6.2,19.3c0.5,1.5-0.7,3.6-1.1,5.5c-1.1,5-2.1,9.9-3.2,14.9
		c-0.6,3.8-1.3,7.7-1.9,11.5c-0.6-0.1-1.3-0.2-1.9-0.3l0,0c-0.8-2.2-2.9-3.4-1.9-6.8c1.5-5.3,1.2-11.1,1.5-16.7
		c0-0.4-0.8-0.9-2.2-2.5c-0.9,2.8-2.5,5.2-2.1,7.1c1.4,6.1-3.5,10.6-3.5,16.3c0,0.9-2.4,1.8-3.7,2.7c0.1-0.6,0.2-1.3,0.3-1.9
		c-0.5-0.8-1-1.5-1.5-2.3c1.4-5,2.9-10.1,4.8-16.9c-7,4.3-7.1,11-9.7,16c-7.2-5.5-7.1-7.5,0.3-11.4c-0.2-2.7-0.3-5.6-0.6-9.6
		c-2.7,3.6-4.9,6.4-7,9.2c-0.5-0.2-1.1-0.3-1.6-0.5c0.8-5.1,2-10.2,2.4-15.3c0.4-4.7-0.1-9.5-0.2-15.7c-7,6.2-2.4,12.8-3.9,18.3
		c-1.5,5.6-3.1,11.1-4.7,16.7C306.6,223.7,305.9,223.6,305.4,223.5L305.4,223.5z M340,208.6c0.9-1.5,2.6-3,2.5-4.4
		c-0.9-10.8,7.8-20.4,2.9-33.7C341.8,184.1,342,196.4,340,208.6z"/>
	<path id="XMLID_2099_" class="st65" d="M302.8,177.7c-1.5,5-2.9,10.1-4.4,15.1c0,3.9,0.1,7.9,0.1,11.8c5-9.1,10.7-17.9,9.1-29.7
		C305.9,175.9,304.3,176.8,302.8,177.7z"/>
	<path id="XMLID_2098_" class="st68" d="M305.4,223.5c0.1-0.6,0.2-1.2,0.2-1.8c-0.6-0.1-1.2-0.2-1.7-0.3
		C304.4,222,304.9,222.7,305.4,223.5z"/>
	<path id="XMLID_2097_" class="st102" d="M324.9,175.3c-0.7,7.8-4,15.6-0.7,24.7c0.8-2.8,1.3-4.8,1.9-6.7c0.1-0.6,0.2-1.3,0.3-1.9
		c0.8-5.1,1.7-10.3,2.5-15.4c0.5-3.1,1-6.1,1.5-9.2c-0.4-0.2-0.8-0.3-1.2-0.5C327.7,169.3,326.3,172.3,324.9,175.3z"/>
	<path id="XMLID_2096_" class="st92" d="M328.8,175.9c-0.8,5.1-1.7,10.3-2.5,15.4c0.9-1.8,1.9-3.7,2.8-5.5c0.9-1.8,1.9-3.6,2.9-5.5
		c0.1-0.6,0.2-1.2,0.3-1.9l0,0C331.1,177.6,329.9,176.8,328.8,175.9z"/>
	<path id="XMLID_2095_" class="st29" d="M341.4,158.2c0.2,3.4,0.4,6.9,0.6,11.2c1.8-2.2,3-3.6,4-4.9c3.6,1.8,6.9,3.5,10.9,5.6
		c-0.6,10.3-1.3,20.9-1.9,31.8c1.6-3.2,3.1-6.2,4.5-9.1c0.3-1.9,0.6-3.8,0.9-5.8c0.5-5-1-10.9,6-12.9c0.9-1.8,1.9-3.7,2.8-5.5
		c-0.3-2-0.7-4-1-6.1c-1.1-0.2-2.9-1-3.3-0.6c-1.4,1.7-2.4,3.7-4,6.5C356.8,159.8,348.7,160.1,341.4,158.2z"/>
	<path id="XMLID_2094_" class="st29" d="M346.3,150.9c0.2,0.3,0.5,0.6,0.7,0.9C346.8,151.5,346.6,151.2,346.3,150.9L346.3,150.9z"/>
	<path id="XMLID_2093_" class="st1" d="M190.6,88.6c0.4,1.4,0.9,2.8,1.3,4.1C191.5,91.3,191,90,190.6,88.6z"/>
	<path id="XMLID_2092_" class="st60" d="M269,326.4c1.2,0.4,2.9,0.5,3.6,1.4c1,1.3,1.4,3.1,2.7,6.1c2.3-4.2,3.9-7.1,5.5-10
		c0.6-0.3,1.3-0.7,1.9-1c-0.1,1.9-0.1,3.9-0.2,5.8c1.1-0.4,2.2-0.8,3.2-1.2c0.6-6,1.1-12,1.7-18.1c-2.4-2.1-5.3-2.9-7.7-0.8
		c-3.4,3.1-6.7,6.5-9.3,10.3C269.1,320.9,269.4,323.9,269,326.4z"/>
	<path id="XMLID_2091_" class="st60" d="M266.5,341.8c3.6-4.7,4.3-9.8,2.5-15.4c-0.9,1.3-2.1,2.4-2.5,3.8c-0.9,3.2-2.5,2-4.2,1.1
		c-0.4,3.6-0.9,7.1-1.4,11.6C263.6,342.3,265.1,342.1,266.5,341.8z"/>
	<path id="XMLID_2090_" class="st62" d="M266.5,341.8c-1.5,0.3-2.9,0.5-5.7,1.1c0.6-4.4,1-8,1.4-11.6l0,0c-1.2-0.1-2.4-0.3-3.5-0.4
		c-0.3,1.2-0.6,2.4-0.9,3.7c1.9,3-1.1,2.7-2.4,3.6c-0.2,0.6-0.4,1.2-0.5,1.8c0.5,1.4,0.9,2.8,1.4,4.2l0.1,0.1
		c2.8,0.8,5.7,1.6,8.9,2.5c0.6-1.9,1-3.4,1.4-4.8L266.5,341.8z"/>
	<path id="XMLID_2089_" class="st60" d="M258.8,330.8c1.2,0.1,2.4,0.3,3.5,0.4c-0.4-1-0.7-1.9-1.1-2.9
		C260.4,329.2,259.6,330,258.8,330.8z"/>
	<path id="XMLID_2088_" class="st60" d="M255.4,338.1c1.3-0.9,4.3-0.5,2.4-3.6C257.1,335.7,256.3,336.9,255.4,338.1z"/>
	<path id="XMLID_2087_" class="st68" d="M344.5,225.9c-0.6,3.8-1.3,7.7-1.9,11.5c-0.6-0.1-1.3-0.2-1.9-0.3l0,0
		c-5.1-0.3-3.5,2.8-2.8,5.5c3,2.4,3,2.4-0.4,4.8c0.2-1.9,0.3-3.4,0.4-4.8c-3.3,0.6-6.6,1.2-10.2,1.8c0.4-2.4,0.8-4.8,1.2-7.2
		c0.1-0.6,0.2-1.3,0.3-1.9c-0.5-0.8-1-1.5-1.5-2.3c1.4-5,2.9-10.1,4.8-16.9c-7,4.3-7.1,11-9.7,16c-7.2-5.5-7.1-7.5,0.3-11.4
		c-0.2-2.7-0.3-5.6-0.6-9.6c-2.7,3.6-4.9,6.4-7,9.2c-0.5-0.2-1.1-0.3-1.6-0.5c0.8-5.1,2-10.2,2.4-15.3c0.4-4.7-0.1-9.5-0.2-15.7
		c-7,6.2-2.4,12.8-3.9,18.3c-1.5,5.6-3.1,11.1-4.7,16.7c1,2.6,1.4,5.9,3.2,7.8c6.7,6.9,9.6,17.1,19.9,21.4c3.7,1.6,5.1,8.6,7.6,13.2
		c1.3,0.3,2.5,0.6,3.8,0.9l0-0.2c2-10.3,1.5-21,5.7-31c1-2.5,0.7-5.7,0.5-8.6C347.9,226.8,345.7,226.4,344.5,225.9z"/>
	<path id="XMLID_2086_" class="st87" d="M252.9,351.5c-0.1,0.7-0.1,1.4-0.2,2.1c-0.1,1.1-0.1,2.2-0.2,3.3c3.3-3.1,5.5-1.7,7.3,1.7
		l0.1-0.1c0.2-1.5,0.4-3.1,0.7-4.6c1-5-1.7-5.2-5.3-4c-0.6,0-1.1-0.1-1.7-0.1C253.5,350.4,253.2,350.9,252.9,351.5z"/>
	<path id="XMLID_2085_" class="st64" d="M252.2,258.5c0.6,0.1,1.3,0.2,1.9,0.3C253.5,258.7,252.9,258.6,252.2,258.5z"/>
	<path id="XMLID_2084_" class="st9" d="M127,177.2c-4.2,4-2.4,8.8-2.2,13.5C128.4,186.6,129.5,182.2,127,177.2z"/>
	<path id="XMLID_2083_" class="st57" d="M410.9,242.5c0.9-0.1,1.8-0.1,2.4-0.2c0.9,5,2.6,9.8,2.5,14.5c-0.1,4.5-2.2,9-3.5,13.5
		c0.2,2.7,0.5,5.3,0.7,8c0.6,0.1,1.2,0.1,1.9,0.2c0.7-0.5,1.5-1,2.2-1.5c3.7-3.7,6.4-8.2,12-10.2c2.4-0.8,3.4-5.7,5-8.8
		c4.4-4.7,8-9.8,8.3-16.5c-2.8,2.9-5.5,5.8-8.4,8.8c-2.7-5.6-0.8-11.7,0.1-17.9c-3.3,1.3-5.2,1.2-13.7-0.3c-1.4,0.8-3,1.5-4.3,2.5
		c-1.6,1.2-3.1,2.7-4.6,4c-0.1,0.6-0.2,1.2-0.3,1.9C411.1,241.1,411,241.8,410.9,242.5z"/>
	<path id="XMLID_2082_" class="st48" d="M417.2,277c-0.7,0.5-1.5,1-2.2,1.5C415.7,278,416.4,277.5,417.2,277z"/>
	<path id="XMLID_2081_" class="st57" d="M442.1,233.6c0.3,2,0.5,4.1,0.8,6.1C442.6,237.7,442.3,235.6,442.1,233.6z"/>
	<path id="XMLID_2080_" class="st62" d="M253.6,349.8c0.6,0,1.1,0.1,1.7,0.1c0.3-1.9,0.7-3.8,1-5.7l-0.1-0.1
		C255.4,346,254.5,347.9,253.6,349.8z"/>
	<path id="XMLID_2079_" class="st0" d="M161.8,267.7c-3.4-0.5-4.4,2.1-5.3,4.5c-1.2,3.3-2,6.7-2.9,10c5.3,8.8,0.1,17.1-0.1,26.1
		c1.7-4.2,3.6-8.3,5.1-12.6c1.4-3.9,1.7-8.3,3.6-11.8c2.2-3.9-0.1-5.9-1.7-8.6C161,272.9,161.4,270.3,161.8,267.7z"/>
	<path id="XMLID_2078_" class="st0" d="M151.7,281.9c-0.8-7.4-1.6-14.7-2.4-22.1c-1.4,4.4-2.8,8.7-4.2,13.1
		c1.6,8.6,2.4,17.1-0.1,25.7c-0.1,0.6-0.2,1.3-0.3,1.9c1.8,2.3,3.4,1.7,3.9-0.7C149.8,293.9,150.7,287.9,151.7,281.9z"/>
	<path id="XMLID_2077_" class="st103" d="M138.5,277.8c1.7-5.4,3.6-10.8,5.1-16.3c0.3-1.2-0.8-2.8-2.2-4.2
		c-3.2,6.5-3.5,13.5-4.8,20.2C137.2,277.6,137.9,277.7,138.5,277.8z"/>
	<path id="XMLID_2076_" class="st39" d="M140.4,312c0.3-1.6,0.5-3.1,0.8-4.7c-0.5-0.1-1.1-0.1-1.6-0.2c-0.1,1.6-0.3,3.2-0.4,4.8
		C139.6,311.9,140,312,140.4,312z"/>
	<path id="XMLID_2075_" class="st21" d="M217.8,267.2c0.2,0.1,0.6,0.4,0.7,0.3c0.2-0.2,0.3-0.5,0.4-0.8c-0.2-0.1-0.6-0.4-0.7-0.3
		C218,266.6,217.9,266.9,217.8,267.2z"/>
	<path id="XMLID_2074_" class="st1" d="M206.5,123.7c0-4.8,5.3-8,1.2-13.1C205.1,114.6,201.7,118.1,206.5,123.7z"/>
	<path id="XMLID_2073_" class="st1" d="M196.7,148.8c-4.2,7.2-5.5,14.9-3.6,23.1C194.2,164.2,195.5,156.5,196.7,148.8z"/>
	<path id="XMLID_2072_" class="st1" d="M196.7,137c0.5,0.7,1.1,1.5,1.6,2.2C197.7,138.5,197.2,137.7,196.7,137z"/>
	<path id="XMLID_2071_" class="st1" d="M193.8,142.4c-0.2,1.3-0.4,2.6-0.7,3.9C193.3,145,193.6,143.7,193.8,142.4z"/>
	<path id="XMLID_2070_" class="st1" d="M192.5,138.3c0.5,0.7,1.1,1.5,1.6,2.2C193.6,139.8,193,139,192.5,138.3z"/>
	<path id="XMLID_2069_" class="st1" d="M193.3,108.8c-1.4,0.4-2.8,0.9-4.2,1.3c0.7,1.1,1.3,2.2,2,3.3
		C191.8,111.8,192.5,110.3,193.3,108.8z"/>
	<path id="XMLID_2068_" class="st1" d="M194.5,101c0.5,0.8,1.1,1.5,1.6,2.3C195.6,102.5,195.1,101.8,194.5,101z"/>
	<path id="XMLID_2067_" class="st5" d="M177.4,145.7c-0.1,0.6-0.2,1.3-0.3,1.9C177.2,147,177.3,146.4,177.4,145.7z"/>
	<path id="XMLID_2066_" class="st2" d="M305.2,359.8c1.7,1.6,3.4,3.2,5.1,4.8l0,0c1-4.7,1.9-9.5,2.9-14.2c0.8,0.1,1.7,0.2,2.5,0.3
		c-0.1,3.8-0.3,7.6-0.4,11.4c1.6-0.1,2.5-0.1,3.4-0.2c1.5,1.7,3.1,3.4,5,5.4c0.7-0.6,1.5-1.5,2.4-2.3c3.9-6.3,3.5-12.8,0.8-20.1
		c-1.5,0.8-3,1.5-5.1,2.5c-1.7-2.9-3.4-5.8-5.2-8.7c-1.7,0.4-3.4,0.8-5.9,1.5c0.9-5.6,1.7-10.5,2.7-16.7c-6.4,3.8-5.5,9.6-6.3,14
		C305.8,345,305.8,352.5,305.2,359.8z"/>
	<path id="XMLID_2065_" class="st101" d="M318.3,318.8c-1.1,5.1-1.8,8-2.5,11.4C322.9,326.7,322.9,326.7,318.3,318.8z"/>
	<path id="XMLID_2064_" class="st77" d="M318.7,362c-0.9,0-1.9,0.1-3.4,0.2c0.1-3.9,0.3-7.7,0.4-11.4c-0.8-0.1-1.7-0.2-2.5-0.3
		c-1,4.7-1.9,9.5-2.9,14.2c1.8,1.5,3.6,3,6.2,5.1C317.4,366.5,318,364.3,318.7,362z"/>
	<path id="XMLID_2063_" class="st98" d="M376.5,211.2c0.8-4.7,1.5-9.4,2.4-15c-5.6,1.3-4.4,4.9-5.1,7.3c-0.7,2.4-1.1,4.9-1.9,8.3
		c-5.4-6.3,1-12.6-1.8-18.2c-4.8,5.3-8.5,26.2-6.7,37.2c0.7,0.1,1.3,0.2,2,0.3l0,0C371.5,225.9,372.6,217.8,376.5,211.2z"/>
	<path id="XMLID_2062_" class="st98" d="M360.5,236.2c-3.8-0.6-5.1-3-4.8-6.6c-1.7,0.7-3.4,1.3-5.4,2.1c3,6.2,2.2,11.6-1.6,16.6
		c4.9,1.2,5,4.7,4.6,8.9c-0.4,4.3-0.1,8.8-0.1,13.1c0.7-0.4,1.4-0.8,2.1-1.2c0.7-2.4,1.1-4.9,2-7.3c2.5-6.6,4.2-13.2,2.3-20.3
		C359.2,240,360.1,238,360.5,236.2z"/>
	<path id="XMLID_2061_" class="st104" d="M355.3,269.1c-0.7,0.4-1.4,0.8-2.1,1.2c0-4.4-0.3-8.8,0.1-13.1c0.4-4.2,0.3-7.7-4.6-8.9
		c-1,6.3-2,12.5-3,19c-1.4-0.1-2.6-0.2-3.9-0.4l0,0.2c3.4,5.2,8.4,8.3,14.2,10.1l0,0c0.4-2.6,0.8-5.1,1.2-7.7
		C356.6,269.3,355.9,269.2,355.3,269.1z"/>
	<path id="XMLID_2060_" class="st98" d="M365.3,231.2c-1.6,5.4-3.7,10.3-1.2,16.5c1.4,3.5-1,8.5-1.8,13.5c5.2-0.6,3.8-3.9,4.2-6
		c1.1-6.2,2.2-12.4,2.6-18.7C369.1,234.8,366.6,232.9,365.3,231.2L365.3,231.2z"/>
	<path id="XMLID_2059_" class="st83" d="M357.2,269.4c-0.4,2.6-0.8,5.1-1.2,7.7C358.5,274.9,360.7,272.6,357.2,269.4z"/>
	<path id="XMLID_2058_" class="st98" d="M361.1,232.5c-0.1,0.7-0.2,1.3-0.4,2C360.9,233.8,361,233.1,361.1,232.5z"/>
	<path id="XMLID_2057_" class="st98" d="M363.4,230.9c-0.7,0.5-1.5,1.1-2.2,1.6C361.9,231.9,362.6,231.4,363.4,230.9z"/>
	<path id="XMLID_2056_" class="st105" d="M76,174.9c-1,5.7,2.4,8.7,7.2,12.3c1-3.9,1.9-7.2,3-11.4c1.2,3.2,2,5.6,2.9,7.9
		c4.1,0.2,5.7-1.3,5.5-5.1c-0.2-3.5,0.2-7,0.3-10.5c-1.2-0.5-3.2-0.7-3.4-1.5c-0.5-1.9-0.2-4-1.8-6.7c-3.1,4.1-6,8.3-9.3,12.2
		C79.2,173.3,77.4,174,76,174.9z"/>
	<path id="XMLID_2053_" class="st106" d="M265.2,346.7c0.6-1.9,1-3.4,1.4-4.8c1,1.7,2.1,3.4,3.1,5.1c0.9,1.7,1.7,3.4,3.5,6.9
		c1.9-5.6,3.1-9.2,4.3-12.8c0.6,0.1,1.1,0.3,1.7,0.4c0.1,4.4,0.2,8.8,0.3,13.3c0.5,0.1,1,0.1,1.5,0.2c2.2-4.3,4.4-8.6,7.2-14
		c2.3,4.6,0.8,7.4-0.3,10.4c-0.3,1,1.4,2.7,2.2,4.1c-1.3,3.7-2.5,7.5-3.8,11.2c-1.7-6.8-9.8-3.6-12.7-10.2c-1.8,5.2-3,8.6-4.2,11.9
		c-0.6-0.1-1.2-0.1-1.8-0.2c-0.1-3.8-0.2-7.6-0.3-11.1c-3.4-2.2-3.8,5.6-7.3,1.4c0.2-1.5,0.4-3.1,0.7-4.6c1-5-1.7-5.2-5.3-4
		c0.3-1.9,0.7-3.8,1-5.7C259.2,345,262,345.8,265.2,346.7z M264.2,351.8c0.2-0.2,0.3-0.5,0.4-0.8c-0.2-0.1-0.6-0.3-0.7-0.3
		c-0.2,0.2-0.3,0.5-0.4,0.8C263.8,351.6,264.1,351.9,264.2,351.8z"/>
	<path id="XMLID_2052_" class="st106" d="M287.2,372.7c-0.3-2-0.7-4-1-6C286.6,368.7,286.9,370.7,287.2,372.7z"/>
	<path id="XMLID_2051_" class="st106" d="M293.6,358c5.2-3.2-0.7-7.7,2.2-11.2c-0.7-0.2-1.3-0.4-2-0.6c-1.2,3.1-2.5,6.2-3.7,9.3
		C291.3,356.3,292.4,357.2,293.6,358z"/>
	<path id="XMLID_2050_" class="st6" d="M300.8,364.9c-0.3,1.9-0.6,3.9-0.9,5.8c0.3,0.1,0.6,0.1,0.8,0.2c0.3-1.9,0.6-3.9,0.9-5.8
		C301.4,365,301.1,365,300.8,364.9z"/>
	<path id="XMLID_2049_" class="st106" d="M294.3,366c-0.4-1.4-0.8-2.8-1.2-4.2C293.4,363.2,293.8,364.6,294.3,366z"/>
	<path id="XMLID_2048_" class="st9" d="M86.1,210.1c1.5-1.1,3-2.2,4.5-3.3c0.1-2.7,0.3-5.4,0.4-8.1c-0.7-0.1-1.5-0.3-2.2-0.4
		C86.7,201.8,87,206.2,86.1,210.1z"/>
	<path id="XMLID_2047_" class="st107" d="M341.8,266.9c1.3,0.1,2.5,0.2,3.9,0.4c1-6.5,2-12.7,3-19c3.7-5,4.6-10.3,1.6-16.6
		c2-0.7,3.7-1.4,5.4-2.1c2.8-3,5.7-5.6,4.3-10.8c-0.9-3.3,0.1-7,1.8-10.8c2.5-5.5,2.1-12.3,2.5-18.5c0-0.7-2.5-1.6-3.8-2.5
		c-0.3,1.9-0.6,3.8-0.9,5.8c-2.6,9.6-5.1,19.1-7.7,28.7c-0.8-0.1-1.7-0.3-2.5-0.4c1.9-11.6,3.7-23.1,5.6-34.7
		c-4.4,5.9-8.6,11.5-6.2,19.3c0.5,1.5-0.7,3.6-1.1,5.5c-1.1,5-2.1,9.9-3.2,14.9c1.2,0.5,3.4,0.9,3.4,1.5c0.2,2.8,0.6,6-0.5,8.6
		C343.3,245.9,343.8,256.6,341.8,266.9z"/>
	<path id="XMLID_2046_" class="st108" d="M394.1,174.5c-0.7,4.5-1.4,9-2.2,13.5c-0.3,1.9-0.5,3.9-0.8,5.8c0.4,1.4,0.8,2.7,1.1,4.1
		l0,0.1c2-6.7,4.1-13.3,5.7-20C398.3,177.2,395.5,175.7,394.1,174.5z"/>
	<path id="XMLID_2045_" class="st95" d="M411.2,240.5c0.1-0.6,0.2-1.2,0.3-1.9c0.2-3.7,0.3-7.3,0.4-9.5c3.5-1.4,5.5-2.3,7.5-3.1l0,0
		c-3.8-0.6-7.7-1.2-11.5-1.8c0.1,5.3,0.1,10.5,0.2,16.3C408.9,240.5,410,240.5,411.2,240.5z"/>
	<path id="XMLID_2044_" class="st93" d="M392.3,197.9c-0.4-1.4-0.8-2.7-1.1-4.1C391.6,195.2,392,196.6,392.3,197.9z"/>
	<path id="XMLID_2043_" class="st95" d="M418.5,219.9c-0.3,0.1-0.6,0.2-0.9,0.3C417.9,220.2,418.2,220.1,418.5,219.9L418.5,219.9z"
		/>
	<path id="XMLID_2042_" class="st10" d="M414.4,186.5c-1.6,1.2-2.8,2.1-4.6,3.5c2.3,2,4.1,3.6,6.3,5.5c-0.5,2.1-1.1,4.4-1.7,6.8
		c0.5,0.2,0.9,0.4,1.4,0.6c1.5-2.8,3-5.7,4.7-8.9C418.5,191.6,416.6,189.2,414.4,186.5z"/>
	<path id="XMLID_2041_" class="st98" d="M419.5,226.1c-2,0.8-4.1,1.7-7.5,3.1c-0.1,2.1-0.2,5.8-0.4,9.5c1.5-1.4,3-2.8,4.6-4
		c1.3-1,2.9-1.7,4.3-2.5C420.2,230.1,419.8,228.1,419.5,226.1z"/>
	<path id="XMLID_2040_" class="st15" d="M384.6,269.2c6.8-4.9,4.5-12,6-17.9c1.5-6,2.1-12.2,2.4-18.5c-3,4.2-6.5,7.2-5.3,14.1
		C388.8,253.8,385.9,261.3,384.6,269.2z"/>
	<path id="XMLID_2039_" class="st109" d="M378.5,249.2c-1.2,7.2-2,12.2-3,18.8C380.2,262,382.5,257.3,378.5,249.2z"/>
	<path id="XMLID_2038_" class="st69" d="M145,298.6c2.5-8.6,1.7-17.1,0.1-25.7c-0.7,1-2.2,2-2.1,2.9
		C143.5,283.4,144.3,291,145,298.6z"/>
	<path id="XMLID_2037_" class="st23" d="M294,318.6c-0.9,0.1-1.7,0.2-2.6,0.3C292.3,318.8,293.1,318.7,294,318.6L294,318.6z"/>
	<path id="XMLID_2036_" class="st107" d="M337.8,242.6c-0.6-2.6-2.3-5.8,2.8-5.5c-0.8-2.2-2.9-3.4-1.9-6.8
		c1.5-5.3,1.2-11.1,1.5-16.7c0-0.4-0.8-0.9-2.2-2.5c-0.9,2.8-2.5,5.2-2.1,7.1c1.4,6.1-3.5,10.6-3.5,16.3c0,0.9-2.4,1.8-3.7,2.7
		c-0.4,2.4-0.8,4.9-1.2,7.2C331.2,243.8,334.5,243.2,337.8,242.6L337.8,242.6z"/>
	<path id="XMLID_2035_" class="st110" d="M332.3,178.5c-0.1,0.6-0.2,1.2-0.3,1.9l0,0c-0.2,1.3-0.4,2.6-0.6,3.9
		c-0.1,0.6-0.2,1.2-0.3,1.9c0.3,2,0.6,4.1,0.9,6.1c-0.3,1.9-0.5,3.8-0.8,5.8c0,1.7,0.6,3.6,0,5c-1,2-2.8,3.7-3.6,5.9
		c10-3.3,8.8-11.8,9.3-19.5C337,185.2,338.9,180,332.3,178.5z"/>
	<path id="XMLID_2034_" class="st107" d="M345.3,170.5c-3.6,13.6-3.3,25.9-5.4,38.1c0.9-1.5,2.6-3,2.5-4.4
		C341.6,193.4,350.3,183.8,345.3,170.5z"/>
	<path id="XMLID_2033_" class="st29" d="M331.1,198c0.3-1.9,0.5-3.8,0.8-5.8c-0.3-2-0.6-4.1-0.9-6.1c0.1-0.6,0.2-1.2,0.3-1.9
		c0.2-1.3,0.4-2.6,0.6-3.9l0,0c-1,1.8-1.9,3.6-2.9,5.5c-0.9,1.8-1.9,3.7-2.8,5.5c-0.1,0.6-0.2,1.3-0.3,1.9c0.7,1.3,1.3,2.9,2.3,4
		C328.9,197.8,330.2,197.8,331.1,198z"/>
	<path id="XMLID_2032_" class="st107" d="M327.5,233c0.5,0.8,1,1.5,1.5,2.3C328.6,234.5,328,233.7,327.5,233z"/>
	<path id="XMLID_2031_" class="st107" d="M340.6,237.1c0.6,0.1,1.3,0.2,1.9,0.3C341.9,237.3,341.3,237.2,340.6,237.1z"/>
	<path id="XMLID_2030_" class="st107" d="M337.8,242.6c-0.1,1.5-0.3,2.9-0.4,4.8C340.7,245,340.7,245,337.8,242.6L337.8,242.6z"/>
	<path id="XMLID_2029_" class="st62" d="M263.5,351.5c0.2,0.1,0.6,0.3,0.7,0.3c0.2-0.2,0.3-0.5,0.4-0.8c-0.2-0.1-0.6-0.3-0.7-0.3
		C263.7,351,263.7,351.3,263.5,351.5z"/>
	<path id="XMLID_2028_" class="st92" d="M331.1,186.2c0.3,2,0.6,4.1,0.9,6.1C331.7,190.2,331.4,188.2,331.1,186.2z"/>
	<path id="XMLID_2027_" class="st92" d="M332,180.4c-0.2,1.3-0.4,2.6-0.6,3.9C331.6,183,331.8,181.7,332,180.4z"/>
</g>
</svg>
