<?xml version="1.0" encoding="utf-8"?>
<!-- Generator: Adobe Illustrator 19.0.0, SVG Export Plug-In . SVG Version: 6.00 Build 0)  -->
<svg version="1.1" id="Layer_1" xmlns="http://www.w3.org/2000/svg" xmlns:xlink="http://www.w3.org/1999/xlink" x="0px" y="0px"
	 viewBox="0 0 64 64" style="enable-background:new 0 0 64 64;" xml:space="preserve">
<style type="text/css">
	.st0{fill:url(#XMLID_15_);}
</style>
<g id="XMLID_111_">
	<g id="XMLID_2463_">
		<linearGradient id="XMLID_15_" gradientUnits="userSpaceOnUse" x1="9.3725" y1="32.0298" x2="54.6275" y2="32.0298">
			<stop  offset="0" style="stop-color:#DFC474"/>
			<stop  offset="0.2398" style="stop-color:#AD8328"/>
			<stop  offset="0.5153" style="stop-color:#735724"/>
			<stop  offset="0.8571" style="stop-color:#DFC474"/>
		</linearGradient>
		<path id="XMLID_123_" class="st0" d="M32,58.2l-0.2-0.1l-22.5-13V19L32,5.9L54.6,19v26.1L32,58.2z M10,44.7l22,12.7l22-12.7V19.3
			L32,6.7L10,19.3V44.7z"/>
	</g>
	<g id="XMLID_112_">
		<g id="XMLID_501_">
			<path id="XMLID_532_" d="M16.4,26c0.4,0,0.7,0.2,0.7,0.6c0,0.1,0,0.3-0.1,0.5c0,0.2-0.1,0.3-0.1,0.4c-0.1,0-0.1,0-0.1-0.1
				c0.1-0.2,0.1-0.4-0.1-0.6c-0.1-0.2-0.4-0.2-0.8-0.2c-0.4,0-0.8,0.1-1.2,0.3c-0.3,0.2-0.7,0.5-1,1c-0.3,0.5-0.6,1.1-0.9,1.8
				c-0.3,0.7-0.6,1.7-0.9,2.7c0.1,0,0.3,0.1,0.4,0.1c0.1,0,0.2,0.1,0.4,0.1c0,0,0,0,0,0.1c0,0-0.1,0.1-0.2,0.1
				c-0.1,0-0.2,0.1-0.3,0.1c-0.1,0-0.2,0-0.3,0c0,0,0,0-0.1,0c0,0.1-0.1,0.2-0.1,0.3c0,0.1-0.1,0.2-0.1,0.3
				c-0.3,1.1-0.2,1.7,0.2,1.7c0.4,0,0.7-0.3,1.1-0.8c0,0,0.1,0,0.1,0c0,0,0,0.1,0,0.1c-0.1,0.2-0.2,0.3-0.4,0.5
				c-0.1,0.2-0.3,0.3-0.4,0.4c-0.1,0.1-0.3,0.2-0.5,0.3c-0.2,0.1-0.3,0.1-0.4,0.1c-0.4,0-0.6-0.1-0.8-0.4c-0.1-0.3-0.1-0.8,0-1.4
				c0.1-0.2,0.1-0.5,0.2-0.7c0.1-0.2,0.1-0.4,0.2-0.7c-0.6-0.2-1.2-0.3-1.9-0.4C8.3,32.2,7.7,32.1,7,32c-0.5,1.4-1.2,2.4-2,3
				C4.1,35.7,3.3,36,2.3,36c-0.6,0-1.1-0.1-1.4-0.4c-0.3-0.3-0.4-0.6-0.4-1c0-0.4,0.1-0.7,0.3-1.1c0.2-0.4,0.6-0.7,1-0.9
				c0.5-0.3,1-0.5,1.7-0.7c0.7-0.2,1.5-0.2,2.3-0.2h0.4c0-0.1,0.1-0.3,0.1-0.4c0-0.1,0.1-0.3,0.1-0.4c0.2-0.6,0.3-1.1,0.5-1.5
				c0.2-0.4,0.3-0.7,0.5-1c0.2-0.3,0.3-0.5,0.5-0.6c0.2-0.2,0.4-0.3,0.5-0.4c-0.3-0.1-0.6-0.2-0.9-0.2C7.3,27,6.9,27,6.5,27
				c-0.5,0-0.8,0.1-1.2,0.2c-0.3,0.1-0.6,0.3-0.7,0.5c-0.2,0.2-0.3,0.5-0.3,0.8c0,0.3,0,0.6,0,0.9c0,0,0,0.1-0.1,0.1
				c0,0-0.1,0-0.1,0c-0.1-0.4-0.1-0.8,0-1.2c0.1-0.4,0.3-0.7,0.5-1c0.2-0.3,0.6-0.5,1-0.6c0.4-0.2,0.9-0.2,1.5-0.2
				c0.4,0,0.8,0,1.2,0.1c0.4,0.1,0.7,0.2,1,0.3c0,0.1,0,0.1,0,0.2c0,0-0.1,0.1-0.3,0.2c-0.2,0.1-0.4,0.2-0.5,0.3
				c-0.1,0.1-0.3,0.3-0.4,0.6C8.1,28.4,8,28.7,7.9,29c-0.1,0.3-0.2,0.8-0.4,1.2c-0.1,0.3-0.1,0.5-0.2,0.7c-0.1,0.2-0.2,0.5-0.2,0.7
				c0.6,0,1.3,0.1,2,0.2c0.7,0.1,1.3,0.2,2,0.4c0.3-1,0.7-1.9,1.1-2.7c0.4-0.8,0.9-1.5,1.3-2c0.5-0.5,0.9-1,1.4-1.2
				C15.4,26.1,15.9,26,16.4,26z M2.7,35.6c0.4,0,0.8-0.1,1.1-0.2c0.3-0.1,0.6-0.3,0.9-0.6c0.3-0.3,0.5-0.7,0.7-1.1
				c0.2-0.5,0.5-1,0.7-1.7c-0.1,0-0.3,0-0.4,0c-0.1,0-0.3,0-0.4,0C4.6,32,4,32,3.5,32.1c-0.5,0.1-1,0.3-1.3,0.5
				c-0.3,0.2-0.6,0.5-0.7,0.7c-0.2,0.3-0.2,0.6-0.2,0.9c0,0.4,0.1,0.7,0.4,1C1.9,35.5,2.2,35.6,2.7,35.6z"/>
			<path id="XMLID_529_" d="M15.7,32.2c0.3,0,0.6,0.1,0.8,0.3c0.2,0.2,0.2,0.4,0.2,0.7c0,0.4-0.1,0.7-0.2,1.1
				c-0.2,0.3-0.3,0.6-0.6,0.9c-0.2,0.2-0.5,0.4-0.7,0.6c-0.3,0.1-0.5,0.2-0.7,0.2c-0.3,0-0.6-0.1-0.8-0.3c-0.2-0.2-0.3-0.5-0.3-0.8
				c0-0.3,0.1-0.6,0.2-0.9c0.1-0.3,0.3-0.6,0.5-0.9c0.2-0.3,0.4-0.5,0.7-0.7C15.1,32.3,15.4,32.2,15.7,32.2z M14.9,35.5
				c0.3,0,0.6-0.2,0.8-0.5c0.2-0.3,0.3-0.8,0.3-1.3c0-0.3-0.1-0.5-0.2-0.7c-0.1-0.2-0.3-0.3-0.5-0.3c-0.3,0-0.6,0.2-0.8,0.5
				c-0.2,0.3-0.3,0.7-0.3,1.3c0,0.3,0.1,0.6,0.2,0.8C14.5,35.4,14.7,35.5,14.9,35.5z"/>
			<path id="XMLID_527_" d="M22.2,32.2c0.2,0,0.3,0.1,0.4,0.3c0.1,0.2,0.2,0.4,0.2,0.7c0,0.4-0.1,0.7-0.3,1.1
				c-0.2,0.3-0.4,0.6-0.6,0.9c-0.3,0.3-0.5,0.5-0.8,0.6c-0.3,0.1-0.6,0.2-0.8,0.2c-0.2,0-0.4-0.1-0.5-0.2c-0.1-0.1-0.2-0.3-0.2-0.6
				c0-0.2,0-0.5,0.1-0.8c0-0.3,0.1-0.6,0.1-0.7c-0.2,0.3-0.4,0.6-0.6,0.9c-0.2,0.4-0.4,0.7-0.6,1.1c-0.1,0.1-0.2,0.2-0.3,0.3
				C18.1,35.9,18,36,17.9,36c-0.1,0-0.1-0.1-0.1-0.2c0.1-0.2,0.1-0.5,0.2-0.9c0-0.3,0.1-0.7,0.1-1s0-0.6-0.1-0.9
				c0-0.2-0.1-0.4-0.2-0.4c-0.1,0-0.1,0-0.2,0.1c-0.1,0.1-0.2,0.1-0.2,0.2c0,0,0,0-0.1,0c0,0,0-0.1,0-0.1c0-0.1,0.2-0.2,0.3-0.4
				c0.2-0.1,0.4-0.2,0.6-0.2c0.2,0,0.4,0.1,0.5,0.4c0.1,0.2,0.2,0.6,0.2,1.2c0,0.3,0,0.5,0,0.7c0,0.2,0,0.4-0.1,0.6
				c0.2-0.3,0.4-0.6,0.6-0.9c0.2-0.2,0.3-0.5,0.5-0.7c0.1-0.1,0.1-0.2,0.2-0.3c0-0.1,0.1-0.2,0.1-0.4c0-0.1,0.1-0.1,0.1-0.2
				c0.1-0.1,0.2-0.1,0.3-0.1c0.1,0,0.2,0,0.2-0.1c0.1,0,0.1,0,0.1,0.1c-0.2,0.3-0.3,0.7-0.4,1.1c-0.1,0.4-0.1,0.8-0.1,1.2
				c0,0.2,0.1,0.4,0.2,0.5c0.1,0.1,0.3,0.2,0.4,0.2c0.2,0,0.3-0.1,0.5-0.2c0.2-0.1,0.3-0.2,0.4-0.4c0.1-0.2,0.2-0.4,0.3-0.6
				c0.1-0.2,0.1-0.5,0.1-0.8c0-0.4-0.1-0.6-0.2-0.7c-0.1-0.1-0.3-0.1-0.5,0c0,0-0.1,0-0.1,0c0,0,0-0.1,0-0.1c0,0,0.1-0.1,0.1-0.2
				c0.1-0.1,0.1-0.1,0.2-0.2c0.1-0.1,0.1-0.1,0.2-0.1C22.1,32.2,22.2,32.2,22.2,32.2z"/>
			<path id="XMLID_525_" d="M28.5,32.3C28.5,32.3,28.5,32.3,28.5,32.3c0,0.1,0,0.1-0.1,0.2c-0.1,0-0.3,0-0.5,0c-0.2,0-0.4,0-0.6,0
				c-0.2,0.5-0.4,0.9-0.5,1.4c-0.1,0.5-0.2,0.8-0.2,1.1c0,0.3,0.1,0.5,0.4,0.5c0.3,0,0.5-0.2,0.9-0.7c0,0,0.1,0,0.1,0
				c0,0,0,0.1,0,0.1c-0.2,0.3-0.4,0.5-0.6,0.7c-0.3,0.2-0.5,0.3-0.7,0.3c-0.3,0-0.4-0.1-0.6-0.2c-0.1-0.1-0.2-0.3-0.2-0.5
				c0-0.3,0.1-0.7,0.2-1.2c0.1-0.5,0.3-1,0.5-1.5c-0.3,0-0.5,0.1-0.7,0.1c0,0-0.1,0,0-0.1c0,0,0.1-0.1,0.1-0.1
				c0.1,0,0.1-0.1,0.2-0.1c0.1,0,0.2-0.1,0.2-0.1c0,0,0.1,0,0.1,0c0,0,0.1,0,0.1,0c0.1-0.3,0.3-0.6,0.4-0.8c0.1-0.3,0.3-0.5,0.4-0.7
				c0.1-0.1,0.1-0.1,0.2-0.2c0.1-0.1,0.2-0.1,0.3-0.1c0.1,0,0.2,0,0.2-0.1c0.1,0,0.1,0,0.1,0.1c-0.2,0.3-0.3,0.5-0.5,0.9
				c-0.2,0.3-0.3,0.6-0.5,1c0.2,0,0.4,0,0.6,0S28.3,32.3,28.5,32.3z"/>
			<path id="XMLID_522_" d="M30.6,32.2c0.3,0,0.6,0.1,0.8,0.3c0.2,0.2,0.2,0.4,0.2,0.7c0,0.4-0.1,0.7-0.2,1.1
				c-0.2,0.3-0.3,0.6-0.6,0.9c-0.2,0.2-0.5,0.4-0.7,0.6c-0.3,0.1-0.5,0.2-0.7,0.2c-0.3,0-0.6-0.1-0.8-0.3c-0.2-0.2-0.3-0.5-0.3-0.8
				c0-0.3,0.1-0.6,0.2-0.9c0.1-0.3,0.3-0.6,0.5-0.9c0.2-0.3,0.4-0.5,0.7-0.7C30,32.3,30.3,32.2,30.6,32.2z M29.8,35.5
				c0.3,0,0.6-0.2,0.8-0.5c0.2-0.3,0.3-0.8,0.3-1.3c0-0.3-0.1-0.5-0.2-0.7c-0.1-0.2-0.3-0.3-0.5-0.3c-0.3,0-0.6,0.2-0.8,0.5
				c-0.2,0.3-0.3,0.7-0.3,1.3c0,0.3,0.1,0.6,0.2,0.8C29.4,35.4,29.6,35.5,29.8,35.5z"/>
			<path id="XMLID_519_" d="M37.5,32C37.5,32,37.6,32,37.5,32c0.1,0,0.1,0.1,0.1,0.1c-0.1,0.1-0.2,0.2-0.3,0.3
				c-0.1,0.1-0.2,0.1-0.4,0.2c0.1,0.2,0.2,0.3,0.2,0.6c0,0.2,0,0.5-0.1,0.6c-0.1,0.2-0.2,0.4-0.3,0.5c-0.1,0.2-0.2,0.3-0.3,0.4
				c-0.1,0.1-0.2,0.3-0.2,0.4c-0.1,0.1-0.1,0.3-0.1,0.4c0,0.2,0.1,0.3,0.2,0.6c0.2,0.3,0.4,0.6,0.5,0.9c0.1,0.3,0.2,0.5,0.2,0.8
				c0,0.2-0.1,0.5-0.2,0.7c-0.1,0.2-0.3,0.4-0.5,0.6c-0.2,0.2-0.5,0.3-0.8,0.4c-0.3,0.1-0.6,0.1-1,0.1c-0.7,0-1.3-0.1-1.8-0.4
				c-0.4-0.3-0.6-0.6-0.6-1.1c0-0.3,0.1-0.6,0.4-0.9c0.2-0.3,0.6-0.5,1.1-0.6c0,0,0.1,0,0.1,0.1c0,0,0,0.1,0,0.1
				c-0.2,0.1-0.4,0.2-0.5,0.4c-0.1,0.2-0.2,0.4-0.2,0.6c0,0.5,0.2,0.9,0.5,1.2c0.3,0.3,0.8,0.5,1.4,0.5c0.5,0,0.8-0.1,1-0.4
				c0.2-0.2,0.3-0.6,0.3-0.9c0-0.2,0-0.4-0.1-0.6c-0.1-0.2-0.2-0.4-0.3-0.6c-0.2-0.3-0.3-0.6-0.3-0.9c0-0.3,0.1-0.6,0.3-0.9
				c0,0,0,0,0,0c0,0,0,0,0,0c-0.1,0.1-0.2,0.2-0.3,0.3c-0.1,0.1-0.2,0.1-0.4,0.1c-0.3,0-0.5-0.1-0.7-0.2s-0.2-0.4-0.2-0.7
				c0-0.2,0.1-0.5,0.2-0.7c0.1-0.3,0.2-0.5,0.4-0.7c0.2-0.2,0.4-0.4,0.6-0.5s0.4-0.2,0.7-0.2c0.3,0,0.6,0,0.8,0
				C37.3,32.1,37.4,32.1,37.5,32z M36.3,34.4c0.1-0.1,0.1-0.3,0.1-0.4c0-0.1,0.1-0.3,0.1-0.5c0-0.3,0-0.5-0.1-0.7
				c-0.1-0.2-0.2-0.2-0.4-0.2c-0.3,0-0.5,0.1-0.6,0.3c-0.2,0.2-0.2,0.6-0.2,1c0,0.6,0.2,0.9,0.6,0.9c0.1,0,0.2,0,0.4-0.1
				C36.1,34.7,36.3,34.6,36.3,34.4z"/>
			<path id="XMLID_516_" d="M40.9,32.9c0,0.6-0.7,0.9-2.2,1.1c0,0.1,0,0.2,0,0.3c0,0.1,0,0.2,0,0.3c0,0.3,0.1,0.5,0.2,0.6
				c0.1,0.1,0.3,0.2,0.6,0.2c0.2,0,0.4-0.1,0.6-0.2c0.2-0.1,0.4-0.2,0.5-0.4c0,0,0.1,0,0.1,0c0,0,0,0.1,0,0.1
				c-0.2,0.3-0.4,0.5-0.7,0.7c-0.3,0.2-0.6,0.3-1,0.3c-0.3,0-0.6-0.1-0.7-0.3c-0.2-0.2-0.2-0.4-0.2-0.7c0-0.3,0.1-0.6,0.2-0.9
				c0.1-0.3,0.3-0.6,0.5-0.9c0.2-0.3,0.4-0.5,0.7-0.7c0.3-0.2,0.5-0.3,0.8-0.3c0.3,0,0.5,0.1,0.6,0.2C40.9,32.6,40.9,32.7,40.9,32.9
				z M39.7,32.6c-0.2,0-0.4,0.1-0.6,0.3c-0.2,0.2-0.3,0.5-0.3,1c0.5,0,0.8-0.1,1-0.3c0.2-0.1,0.3-0.3,0.3-0.5c0-0.1,0-0.3-0.1-0.4
				S39.8,32.6,39.7,32.6z"/>
			<path id="XMLID_514_" d="M44.2,32.3C44.3,32.3,44.3,32.3,44.2,32.3c0,0.1,0,0.1-0.1,0.2c-0.1,0-0.3,0-0.5,0c-0.2,0-0.4,0-0.6,0
				c-0.2,0.5-0.4,0.9-0.5,1.4c-0.1,0.5-0.2,0.8-0.2,1.1c0,0.3,0.1,0.5,0.4,0.5c0.3,0,0.5-0.2,0.9-0.7c0,0,0.1,0,0.1,0
				c0,0,0,0.1,0,0.1c-0.2,0.3-0.4,0.5-0.6,0.7c-0.3,0.2-0.5,0.3-0.7,0.3c-0.3,0-0.4-0.1-0.6-0.2c-0.1-0.1-0.2-0.3-0.2-0.5
				c0-0.3,0.1-0.7,0.2-1.2c0.1-0.5,0.3-1,0.5-1.5c-0.3,0-0.5,0.1-0.7,0.1c0,0-0.1,0,0-0.1c0,0,0.1-0.1,0.1-0.1
				c0.1,0,0.1-0.1,0.2-0.1c0.1,0,0.2-0.1,0.2-0.1c0,0,0.1,0,0.1,0c0,0,0.1,0,0.1,0c0.1-0.3,0.3-0.6,0.4-0.8c0.1-0.3,0.3-0.5,0.4-0.7
				c0.1-0.1,0.1-0.1,0.2-0.2c0.1-0.1,0.2-0.1,0.3-0.1c0.1,0,0.2,0,0.2-0.1c0.1,0,0.1,0,0.1,0.1c-0.2,0.3-0.3,0.5-0.5,0.9
				c-0.2,0.3-0.3,0.6-0.5,1c0.2,0,0.4,0,0.6,0S44,32.3,44.2,32.3z"/>
			<path id="XMLID_512_" d="M49.2,32.3C49.2,32.3,49.2,32.3,49.2,32.3c0,0.1,0,0.1-0.1,0.2c-0.1,0-0.3,0-0.5,0c-0.2,0-0.4,0-0.6,0
				c-0.2,0.5-0.4,0.9-0.5,1.4c-0.1,0.5-0.2,0.8-0.2,1.1c0,0.3,0.1,0.5,0.4,0.5c0.3,0,0.5-0.2,0.9-0.7c0,0,0.1,0,0.1,0
				c0,0,0,0.1,0,0.1c-0.2,0.3-0.4,0.5-0.6,0.7c-0.3,0.2-0.5,0.3-0.7,0.3c-0.3,0-0.4-0.1-0.6-0.2c-0.1-0.1-0.2-0.3-0.2-0.5
				c0-0.3,0.1-0.7,0.2-1.2c0.1-0.5,0.3-1,0.5-1.5c-0.3,0-0.5,0.1-0.7,0.1c0,0-0.1,0,0-0.1c0,0,0.1-0.1,0.1-0.1
				c0.1,0,0.1-0.1,0.2-0.1c0.1,0,0.2-0.1,0.2-0.1c0,0,0.1,0,0.1,0c0,0,0.1,0,0.1,0c0.1-0.3,0.3-0.6,0.4-0.8c0.1-0.3,0.3-0.5,0.4-0.7
				c0.1-0.1,0.1-0.1,0.2-0.2c0.1-0.1,0.2-0.1,0.3-0.1c0.1,0,0.2,0,0.2-0.1c0.1,0,0.1,0,0.1,0.1c-0.2,0.3-0.3,0.5-0.5,0.9
				c-0.2,0.3-0.3,0.6-0.5,1c0.2,0,0.4,0,0.6,0S49,32.3,49.2,32.3z"/>
			<path id="XMLID_510_" d="M49,35.8c0.4-1.7,0.9-3.2,1.5-4.6s1.2-2.5,1.8-3.5c0.6-1,1.3-1.7,1.9-2.2c0.7-0.5,1.3-0.8,1.9-0.8
				c0.2,0,0.4,0.1,0.6,0.2c0.1,0.1,0.2,0.2,0.3,0.4c0.1,0.2,0.1,0.3,0,0.5c0,0.2-0.1,0.4-0.2,0.5c0,0-0.1,0-0.1,0c0,0,0,0,0-0.1
				c0-0.2,0-0.4-0.2-0.6c-0.2-0.2-0.4-0.3-0.7-0.3c-0.5,0-1,0.1-1.5,0.4c-0.5,0.3-0.9,0.8-1.4,1.4c-0.5,0.7-0.9,1.5-1.3,2.6
				c-0.4,1.1-0.9,2.5-1.3,4.1c0.1-0.3,0.3-0.5,0.5-0.7c0.2-0.2,0.4-0.4,0.6-0.6c0.2-0.2,0.5-0.3,0.7-0.4c0.3-0.1,0.5-0.2,0.8-0.2
				c0.1,0,0.2,0,0.3,0.1c0.1,0.1,0.1,0.1,0.1,0.2c0,0.1,0,0.3-0.1,0.4c-0.2,0.4-0.4,0.7-0.5,1.1c-0.1,0.4-0.2,0.7-0.2,1
				c0,0.1,0,0.2,0,0.3c0,0.1,0.1,0.1,0.2,0.1c0.1,0,0.2-0.1,0.3-0.2c0.1-0.1,0.2-0.2,0.3-0.3c0,0,0.1,0,0.1,0c0,0,0,0.1,0,0.1
				c-0.1,0.2-0.3,0.4-0.5,0.6c-0.2,0.2-0.4,0.2-0.6,0.2c-0.2,0-0.3,0-0.4-0.1c-0.1-0.1-0.2-0.3-0.2-0.5c0-0.2,0-0.4,0.1-0.6
				c0-0.2,0.1-0.4,0.1-0.6c0.1-0.2,0.1-0.4,0.2-0.6c0.1-0.2,0.2-0.4,0.2-0.5c0-0.1,0.1-0.2,0.1-0.2c0-0.1,0-0.1-0.1-0.1
				c-0.2,0-0.4,0.1-0.6,0.2s-0.4,0.3-0.6,0.6c-0.2,0.3-0.4,0.6-0.6,0.9c-0.2,0.4-0.4,0.8-0.5,1.2c0,0.1-0.1,0.1-0.2,0.2
				c-0.1,0.1-0.3,0.1-0.5,0.1C49,36,49,35.9,49,35.8z"/>
			<path id="XMLID_507_" d="M56.9,32.9c0,0.6-0.7,0.9-2.2,1.1c0,0.1,0,0.2,0,0.3c0,0.1,0,0.2,0,0.3c0,0.3,0.1,0.5,0.2,0.6
				c0.1,0.1,0.3,0.2,0.6,0.2c0.2,0,0.4-0.1,0.6-0.2c0.2-0.1,0.4-0.2,0.5-0.4c0,0,0.1,0,0.1,0c0,0,0,0.1,0,0.1
				c-0.2,0.3-0.4,0.5-0.7,0.7c-0.3,0.2-0.6,0.3-1,0.3c-0.3,0-0.6-0.1-0.7-0.3c-0.2-0.2-0.2-0.4-0.2-0.7c0-0.3,0.1-0.6,0.2-0.9
				c0.1-0.3,0.3-0.6,0.5-0.9c0.2-0.3,0.4-0.5,0.7-0.7c0.3-0.2,0.5-0.3,0.8-0.3c0.3,0,0.5,0.1,0.6,0.2C56.8,32.6,56.9,32.7,56.9,32.9
				z M55.6,32.6c-0.2,0-0.4,0.1-0.6,0.3c-0.2,0.2-0.3,0.5-0.3,1c0.5,0,0.8-0.1,1-0.3c0.2-0.1,0.3-0.3,0.3-0.5c0-0.1,0-0.3-0.1-0.4
				S55.8,32.6,55.6,32.6z"/>
			<path id="XMLID_505_" d="M58.9,32.6c0,0.1,0,0.3,0,0.5c0,0.2-0.1,0.4-0.1,0.6c0.2-0.5,0.4-0.8,0.6-1.1c0.2-0.3,0.5-0.4,0.8-0.4
				c0.1,0,0.3,0,0.3,0.1c0.1,0.1,0.1,0.2,0.1,0.3c0,0.1,0,0.2-0.1,0.4c-0.1,0.2-0.1,0.3-0.2,0.3c0,0,0,0-0.1,0c0,0,0,0,0-0.1
				c0-0.1,0-0.1-0.1-0.2C60.1,33,60,33,59.9,33c-0.3,0-0.7,0.2-0.9,0.7c-0.3,0.5-0.5,1.1-0.8,2c0,0,0,0.1-0.1,0.1
				c-0.1,0-0.1,0.1-0.2,0.1c-0.1,0-0.1,0-0.2,0.1c-0.1,0-0.1,0-0.2,0c-0.1,0-0.1-0.1-0.1-0.2c0.1-0.2,0.2-0.4,0.3-0.7
				c0.1-0.2,0.2-0.5,0.2-0.7c0.1-0.2,0.1-0.5,0.2-0.7c0-0.2,0.1-0.4,0.1-0.6c0-0.1,0-0.3,0-0.3c0-0.1,0-0.1-0.1-0.1
				c-0.1,0-0.2,0-0.3,0.1c-0.1,0.1-0.2,0.2-0.3,0.3c0,0-0.1,0-0.1,0c0,0,0-0.1,0-0.1c0.1-0.1,0.1-0.2,0.2-0.2
				c0.1-0.1,0.2-0.2,0.3-0.2c0.1-0.1,0.2-0.1,0.3-0.2c0.1,0,0.2-0.1,0.3-0.1c0.2,0,0.3,0,0.3,0.1C58.9,32.4,58.9,32.5,58.9,32.6z"/>
			<path id="XMLID_502_" d="M63.5,32.9c0,0.6-0.7,0.9-2.2,1.1c0,0.1,0,0.2,0,0.3c0,0.1,0,0.2,0,0.3c0,0.3,0.1,0.5,0.2,0.6
				c0.1,0.1,0.3,0.2,0.6,0.2c0.2,0,0.4-0.1,0.6-0.2c0.2-0.1,0.4-0.2,0.5-0.4c0,0,0.1,0,0.1,0c0,0,0,0.1,0,0.1
				c-0.2,0.3-0.4,0.5-0.7,0.7c-0.3,0.2-0.6,0.3-1,0.3c-0.3,0-0.6-0.1-0.7-0.3c-0.2-0.2-0.2-0.4-0.2-0.7c0-0.3,0.1-0.6,0.2-0.9
				c0.1-0.3,0.3-0.6,0.5-0.9c0.2-0.3,0.4-0.5,0.7-0.7c0.3-0.2,0.5-0.3,0.8-0.3c0.3,0,0.5,0.1,0.6,0.2C63.4,32.6,63.5,32.7,63.5,32.9
				z M62.2,32.6c-0.2,0-0.4,0.1-0.6,0.3c-0.2,0.2-0.3,0.5-0.3,1c0.5,0,0.8-0.1,1-0.3c0.2-0.1,0.3-0.3,0.3-0.5c0-0.1,0-0.3-0.1-0.4
				C62.5,32.6,62.4,32.6,62.2,32.6z"/>
		</g>
	</g>
</g>
</svg>
